<?xml version="1.0" encoding="utf-8"?>
<!-- Generator: Adobe Illustrator 12.0.0, SVG Export Plug-In . SVG Version: 6.00 Build 51448)  -->
<!DOCTYPE svg PUBLIC "-//W3C//DTD SVG 1.1//EN" "http://www.w3.org/Graphics/SVG/1.1/DTD/svg11.dtd" [
	<!ENTITY ns_svg "http://www.w3.org/2000/svg">
	<!ENTITY ns_xlink "http://www.w3.org/1999/xlink">
]>
<svg  version="1.1" id="Layer_1" xmlns="&ns_svg;" xmlns:xlink="&ns_xlink;" width="1043.46" height="757.291"
	 viewBox="0 0 1043.46 757.291" overflow="visible" enable-background="new 0 0 1043.46 757.291" xml:space="preserve">
<g id="Layer_2">
	<g>
		<path d="M22.506,0v1.281h-2.037l-0.176,2.683c-0.035,0.465-0.053,0.868-0.053,1.208c0,0.818,0.096,1.316,0.287,1.496
			s0.422,0.269,0.692,0.269c0.564,0,0.899-0.354,1.005-1.063h0.313c-0.194,1.625-0.846,2.438-1.955,2.438
			c-0.517,0-0.932-0.159-1.246-0.476c-0.313-0.317-0.471-0.787-0.471-1.409c0-0.411,0.062-1.281,0.185-2.608l0.237-2.538h-1.859
			c-0.123,2.138-0.271,3.701-0.442,4.688c-0.173,0.987-0.362,1.625-0.569,1.912c-0.208,0.288-0.489,0.432-0.846,0.432
			c-0.269,0-0.495-0.08-0.679-0.238c-0.184-0.159-0.276-0.367-0.276-0.626c0-0.246,0.157-0.584,0.471-1.013
			c0.459-0.623,0.802-1.271,1.03-1.943c0.227-0.672,0.398-1.743,0.515-3.211h-0.597c-0.479,0-0.847,0.107-1.102,0.32
			c-0.254,0.213-0.496,0.518-0.724,0.915h-0.313c0.17-0.625,0.39-1.139,0.659-1.542c0.269-0.403,0.546-0.666,0.83-0.789
			C15.669,0.062,16.175,0,16.901,0H22.506z"/>
		<path d="M22.021,27.352l-0.836,2.311h-7.039v-0.329c2.077-1.886,3.538-3.426,4.386-4.62c0.847-1.194,1.271-2.287,1.271-3.277
			c0-0.758-0.232-1.382-0.697-1.87c-0.465-0.488-1.021-0.732-1.668-0.732c-0.588,0-1.116,0.17-1.584,0.509
			c-0.468,0.339-0.813,0.836-1.037,1.491H14.49c0.146-1.077,0.524-1.903,1.132-2.479s1.368-0.864,2.278-0.864
			c0.969,0,1.779,0.312,2.428,0.934c0.649,0.622,0.974,1.356,0.974,2.201c0,0.605-0.141,1.209-0.423,1.813
			c-0.435,0.949-1.14,1.954-2.116,3.015c-1.464,1.588-2.373,2.544-2.726,2.866h3.095c0.63,0,1.071-0.023,1.325-0.07
			c0.253-0.047,0.482-0.142,0.687-0.286s0.382-0.347,0.533-0.611h0.344V27.352z"/>
	</g>
	<line fill="none" x1="5.771" y1="15.235" x2="13.179" y2="15.235"/>
	<line fill="none" stroke="#000000" x1="14.771" y1="13.235" x2="22.179" y2="13.235"/>
	<g>
		<path d="M13.3,45.388l-0.688,1.5H9.019L8.232,48.48c1.563,0.229,2.799,0.806,3.709,1.731c0.781,0.797,1.172,1.734,1.172,2.812
			c0,0.627-0.128,1.207-0.383,1.74c-0.255,0.533-0.576,0.987-0.963,1.362c-0.387,0.375-0.818,0.677-1.293,0.905
			c-0.674,0.322-1.366,0.483-2.076,0.483c-0.716,0-1.236-0.121-1.562-0.363c-0.326-0.242-0.488-0.509-0.488-0.801
			c0-0.164,0.067-0.308,0.203-0.434c0.135-0.125,0.306-0.188,0.512-0.188c0.153,0,0.287,0.023,0.401,0.07
			c0.115,0.047,0.311,0.167,0.587,0.359c0.439,0.303,0.884,0.458,1.335,0.466c0.685,0,1.287-0.26,1.805-0.78
			c0.518-0.52,0.778-1.153,0.778-1.899c0-0.723-0.232-1.396-0.695-2.022c-0.463-0.625-1.103-1.108-1.917-1.449
			c-0.64-0.265-1.51-0.417-2.612-0.458l2.285-4.625L13.3,45.388L13.3,45.388z"/>
		<path d="M23.222,49.247v1.281h-2.037l-0.176,2.683c-0.035,0.465-0.053,0.868-0.053,1.208c0,0.818,0.096,1.316,0.287,1.496
			c0.191,0.18,0.422,0.269,0.692,0.269c0.564,0,0.899-0.354,1.005-1.063h0.313c-0.194,1.625-0.846,2.438-1.955,2.438
			c-0.517,0-0.932-0.159-1.246-0.476c-0.313-0.317-0.471-0.787-0.471-1.409c0-0.411,0.062-1.281,0.185-2.608l0.237-2.538h-1.859
			c-0.123,2.138-0.271,3.701-0.442,4.688c-0.173,0.987-0.362,1.625-0.569,1.912c-0.208,0.288-0.489,0.432-0.846,0.432
			c-0.269,0-0.495-0.08-0.679-0.238c-0.184-0.159-0.276-0.367-0.276-0.626c0-0.246,0.157-0.584,0.471-1.013
			c0.459-0.623,0.802-1.271,1.03-1.943c0.227-0.672,0.398-1.743,0.515-3.211H16.75c-0.479,0-0.847,0.107-1.102,0.32
			c-0.254,0.213-0.496,0.518-0.724,0.915h-0.313c0.17-0.625,0.39-1.139,0.659-1.542c0.269-0.403,0.546-0.666,0.83-0.789
			c0.284-0.123,0.789-0.184,1.515-0.184h5.607V49.247z"/>
		<path d="M7.597,68.144l2.897-1.406h0.291v10.078c0,0.664,0.027,1.078,0.083,1.241c0.056,0.163,0.171,0.288,0.347,0.376
			c0.175,0.087,0.532,0.137,1.07,0.148v0.328H7.8v-0.328c0.563-0.012,0.927-0.06,1.091-0.145c0.165-0.084,0.279-0.198,0.344-0.341
			c0.064-0.143,0.097-0.569,0.097-1.28v-6.453c0-0.872-0.029-1.432-0.088-1.679c-0.041-0.188-0.115-0.327-0.223-0.415
			s-0.238-0.132-0.39-0.132c-0.216,0-0.517,0.091-0.902,0.272L7.597,68.144z"/>
		<path d="M22.738,76.599l-0.836,2.311h-7.039v-0.329c2.077-1.886,3.538-3.426,4.386-4.62c0.847-1.194,1.271-2.287,1.271-3.277
			c0-0.758-0.232-1.382-0.697-1.87c-0.465-0.488-1.021-0.732-1.668-0.732c-0.588,0-1.116,0.17-1.584,0.509
			c-0.468,0.339-0.813,0.836-1.037,1.491h-0.326c0.146-1.077,0.524-1.903,1.132-2.479c0.608-0.576,1.368-0.864,2.278-0.864
			c0.969,0,1.779,0.312,2.428,0.934s0.974,1.356,0.974,2.201c0,0.605-0.141,1.209-0.423,1.813c-0.435,0.949-1.14,1.954-2.116,3.015
			c-1.464,1.588-2.373,2.544-2.726,2.866h3.095c0.63,0,1.071-0.023,1.325-0.07c0.253-0.047,0.482-0.142,0.687-0.286
			c0.205-0.144,0.382-0.347,0.533-0.611h0.343V76.599z"/>
	</g>
	<g>
		<path d="M24.407,108.753v1.281H22.37l-0.176,2.683c-0.035,0.465-0.053,0.868-0.053,1.208c0,0.818,0.096,1.316,0.287,1.496
			c0.191,0.18,0.422,0.269,0.692,0.269c0.564,0,0.899-0.354,1.005-1.063h0.313c-0.194,1.625-0.846,2.438-1.955,2.438
			c-0.517,0-0.932-0.159-1.246-0.476c-0.313-0.317-0.471-0.787-0.471-1.409c0-0.411,0.062-1.281,0.185-2.608l0.237-2.538h-1.859
			c-0.123,2.138-0.271,3.701-0.442,4.688c-0.173,0.987-0.362,1.625-0.569,1.912c-0.208,0.288-0.489,0.432-0.846,0.432
			c-0.269,0-0.495-0.08-0.679-0.238c-0.184-0.159-0.276-0.367-0.276-0.626c0-0.246,0.157-0.584,0.471-1.013
			c0.459-0.623,0.802-1.271,1.03-1.943c0.227-0.672,0.398-1.743,0.515-3.211h-0.597c-0.479,0-0.847,0.107-1.102,0.32
			c-0.254,0.213-0.496,0.518-0.724,0.915h-0.313c0.17-0.625,0.39-1.139,0.659-1.542s0.546-0.666,0.83-0.789
			c0.284-0.123,0.789-0.184,1.515-0.184h5.606V108.753z"/>
		<path d="M16.595,128.76c0.34-0.803,0.769-1.423,1.287-1.86s1.164-0.655,1.937-0.655c0.955,0,1.687,0.311,2.196,0.932
			c0.387,0.463,0.58,0.958,0.58,1.485c0,0.867-0.542,1.764-1.625,2.689c0.73,0.287,1.283,0.697,1.657,1.23
			c0.374,0.533,0.562,1.16,0.562,1.881c0,1.031-0.328,1.925-0.985,2.681c-0.856,0.984-2.096,1.477-3.72,1.477
			c-0.803,0-1.35-0.1-1.64-0.298c-0.291-0.199-0.436-0.412-0.436-0.64c0-0.169,0.069-0.319,0.207-0.447
			c0.138-0.128,0.304-0.193,0.497-0.193c0.146,0,0.296,0.023,0.449,0.07c0.1,0.029,0.326,0.135,0.678,0.319
			c0.352,0.184,0.596,0.293,0.73,0.328c0.217,0.064,0.449,0.096,0.695,0.096c0.599,0,1.12-0.231,1.563-0.694
			c0.443-0.462,0.665-1.01,0.665-1.643c0-0.463-0.103-0.914-0.309-1.353c-0.153-0.328-0.321-0.577-0.503-0.747
			c-0.254-0.234-0.601-0.447-1.043-0.637c-0.441-0.19-0.892-0.286-1.351-0.286h-0.283v-0.266c0.465-0.059,0.932-0.225,1.4-0.5
			c0.468-0.275,0.809-0.605,1.021-0.991c0.212-0.386,0.318-0.81,0.318-1.272c0-0.602-0.189-1.089-0.567-1.46
			c-0.378-0.371-0.849-0.557-1.411-0.557c-0.909,0-1.668,0.484-2.278,1.453L16.595,128.76z"/>
	</g>
	<line fill="none" stroke="#000000" x1="16.673" y1="121.989" x2="24.08" y2="121.989"/>
	<g>
		<path d="M23.938,168.247v1.281h-2.037l-0.176,2.683c-0.035,0.465-0.053,0.868-0.053,1.208c0,0.818,0.096,1.316,0.287,1.496
			s0.422,0.269,0.692,0.269c0.564,0,0.899-0.354,1.005-1.063h0.313c-0.194,1.625-0.846,2.438-1.955,2.438
			c-0.517,0-0.932-0.159-1.246-0.476c-0.313-0.317-0.471-0.787-0.471-1.409c0-0.411,0.062-1.281,0.185-2.608l0.237-2.538H18.86
			c-0.123,2.138-0.271,3.701-0.442,4.688c-0.173,0.987-0.362,1.625-0.569,1.912c-0.208,0.288-0.489,0.432-0.846,0.432
			c-0.269,0-0.495-0.08-0.679-0.238c-0.184-0.159-0.276-0.367-0.276-0.626c0-0.246,0.157-0.584,0.471-1.013
			c0.459-0.623,0.802-1.271,1.03-1.943c0.227-0.672,0.398-1.743,0.515-3.211h-0.597c-0.479,0-0.847,0.107-1.102,0.32
			c-0.254,0.213-0.496,0.518-0.724,0.915h-0.313c0.17-0.625,0.39-1.139,0.659-1.542c0.269-0.403,0.546-0.666,0.83-0.789
			c0.284-0.123,0.789-0.184,1.515-0.184h5.606V168.247z"/>
		<path d="M23.579,193.503v1.25h-1.594v3.156h-1.453v-3.156h-5.047v-1.127l5.531-7.889h0.969v7.766H23.579z M20.532,193.503v-5.882
			l-4.186,5.882H20.532z"/>
	</g>
	<line fill="none" stroke="#000000" x1="16.204" y1="181.482" x2="23.611" y2="181.482"/>
	<g>
		<path d="M22.914,229.395v1.281h-2.037l-0.176,2.683c-0.035,0.465-0.053,0.868-0.053,1.208c0,0.818,0.096,1.316,0.287,1.496
			s0.422,0.269,0.692,0.269c0.564,0,0.899-0.354,1.005-1.063h0.313c-0.194,1.625-0.846,2.438-1.955,2.438
			c-0.517,0-0.932-0.159-1.246-0.476c-0.313-0.317-0.471-0.787-0.471-1.409c0-0.411,0.062-1.281,0.185-2.608l0.237-2.538h-1.859
			c-0.123,2.138-0.271,3.701-0.442,4.688c-0.173,0.987-0.362,1.625-0.569,1.912c-0.208,0.288-0.489,0.432-0.846,0.432
			c-0.269,0-0.495-0.08-0.679-0.238c-0.184-0.159-0.276-0.367-0.276-0.626c0-0.246,0.157-0.584,0.471-1.013
			c0.459-0.623,0.802-1.271,1.03-1.943c0.227-0.672,0.398-1.743,0.515-3.211h-0.597c-0.479,0-0.847,0.107-1.102,0.32
			c-0.254,0.213-0.496,0.518-0.724,0.915h-0.313c0.17-0.625,0.39-1.139,0.659-1.542c0.269-0.403,0.546-0.666,0.83-0.789
			s0.789-0.184,1.515-0.184h5.606V229.395z"/>
		<path d="M22.257,246.886v0.344c-0.774,0.076-1.405,0.229-1.895,0.46c-0.49,0.23-0.974,0.583-1.451,1.056
			c-0.478,0.473-0.873,1-1.187,1.581s-0.576,1.271-0.787,2.071c0.844-0.581,1.69-0.871,2.54-0.871c0.814,0,1.52,0.328,2.118,0.984
			c0.598,0.656,0.896,1.5,0.896,2.531c0,0.996-0.302,1.904-0.905,2.725c-0.727,0.996-1.688,1.494-2.882,1.494
			c-0.814,0-1.505-0.27-2.074-0.809c-1.113-1.049-1.67-2.408-1.67-4.078c0-1.066,0.214-2.08,0.642-3.041
			c0.428-0.961,1.039-1.813,1.833-2.558s1.555-1.245,2.281-1.503c0.726-0.258,1.404-0.387,2.031-0.387h0.51V246.886z
			 M16.789,253.038c-0.104,0.79-0.156,1.428-0.156,1.913c0,0.563,0.104,1.172,0.312,1.831c0.208,0.659,0.518,1.18,0.928,1.566
			c0.298,0.275,0.662,0.413,1.089,0.413c0.509,0,0.965-0.24,1.366-0.72c0.401-0.479,0.602-1.164,0.602-2.054
			c0-1.001-0.199-1.867-0.598-2.598s-0.964-1.097-1.697-1.097c-0.223,0-0.461,0.047-0.716,0.141
			C17.664,252.527,17.287,252.728,16.789,253.038z"/>
	</g>
	<line fill="none" stroke="#000000" x1="15.179" y1="242.63" x2="22.586" y2="242.63"/>
	<g>
		<path d="M20.673,291.469v1.281h-2.037l-0.176,2.683c-0.035,0.465-0.053,0.868-0.053,1.208c0,0.818,0.096,1.316,0.287,1.496
			c0.191,0.18,0.422,0.269,0.692,0.269c0.564,0,0.899-0.354,1.005-1.063h0.313c-0.194,1.625-0.846,2.438-1.955,2.438
			c-0.517,0-0.932-0.159-1.246-0.476c-0.313-0.317-0.471-0.787-0.471-1.409c0-0.411,0.062-1.281,0.185-2.608l0.237-2.538h-1.859
			c-0.123,2.138-0.271,3.701-0.442,4.688c-0.173,0.987-0.362,1.625-0.569,1.912c-0.208,0.288-0.489,0.432-0.846,0.432
			c-0.269,0-0.495-0.08-0.679-0.238c-0.184-0.159-0.276-0.367-0.276-0.626c0-0.246,0.157-0.584,0.471-1.013
			c0.459-0.623,0.802-1.271,1.03-1.943c0.227-0.672,0.398-1.743,0.515-3.211h-0.597c-0.479,0-0.847,0.107-1.102,0.32
			c-0.254,0.213-0.496,0.518-0.724,0.915h-0.313c0.17-0.625,0.39-1.139,0.659-1.542c0.269-0.403,0.546-0.666,0.83-0.789
			c0.284-0.123,0.789-0.184,1.515-0.184h5.606V291.469z"/>
		<path d="M9.548,310.366l2.897-1.406h0.291v10.078c0,0.664,0.027,1.078,0.083,1.241c0.056,0.163,0.171,0.288,0.347,0.376
			c0.175,0.087,0.532,0.137,1.07,0.146v0.328H9.751v-0.328c0.563-0.012,0.927-0.06,1.091-0.145c0.165-0.084,0.279-0.198,0.344-0.341
			c0.064-0.145,0.097-0.569,0.097-1.28v-6.453c0-0.872-0.029-1.432-0.088-1.679c-0.041-0.188-0.115-0.327-0.223-0.415
			c-0.108-0.088-0.238-0.132-0.39-0.132c-0.216,0-0.517,0.091-0.902,0.271L9.548,310.366z"/>
		<path d="M24.688,318.821l-0.836,2.311h-7.039v-0.329c2.077-1.886,3.538-3.426,4.386-4.62c0.847-1.192,1.271-2.285,1.271-3.275
			c0-0.758-0.232-1.382-0.697-1.87s-1.021-0.732-1.668-0.732c-0.588,0-1.116,0.17-1.584,0.511c-0.468,0.339-0.813,0.836-1.037,1.489
			h-0.326c0.146-1.076,0.524-1.901,1.132-2.479s1.368-0.864,2.278-0.864c0.969,0,1.779,0.313,2.428,0.935s0.974,1.355,0.974,2.2
			c0,0.605-0.141,1.209-0.423,1.813c-0.435,0.949-1.14,1.954-2.116,3.015c-1.464,1.588-2.373,2.544-2.726,2.866H21.8
			c0.63,0,1.071-0.023,1.325-0.07c0.253-0.047,0.482-0.142,0.687-0.286c0.205-0.144,0.382-0.347,0.533-0.609h0.343V318.821z"/>
	</g>
	<line fill="none" stroke="#000000" stroke-width="2" x1="21.994" y1="303.125" x2="8.414" y2="303.125"/>
	<line fill="none" stroke="#000000" stroke-width="2" x1="21.944" y1="62.137" x2="8.364" y2="62.137"/>
	<g>
		<path d="M22.327,411.679v1.281H20.29l-0.176,2.683c-0.035,0.467-0.053,0.867-0.053,1.209c0,0.818,0.096,1.316,0.287,1.496
			c0.191,0.182,0.422,0.271,0.692,0.271c0.564,0,0.899-0.354,1.005-1.063h0.313c-0.194,1.625-0.846,2.438-1.955,2.438
			c-0.517,0-0.932-0.159-1.246-0.478c-0.313-0.315-0.471-0.785-0.471-1.408c0-0.41,0.062-1.28,0.185-2.607l0.237-2.538h-1.859
			c-0.123,2.138-0.271,3.7-0.442,4.688c-0.173,0.985-0.362,1.624-0.569,1.91c-0.208,0.288-0.489,0.434-0.846,0.434
			c-0.269,0-0.495-0.079-0.679-0.237c-0.184-0.159-0.276-0.367-0.276-0.627c0-0.246,0.157-0.584,0.471-1.012
			c0.459-0.623,0.802-1.271,1.03-1.943c0.227-0.672,0.398-1.743,0.515-3.212h-0.597c-0.479,0-0.847,0.106-1.102,0.319
			c-0.254,0.213-0.496,0.518-0.724,0.915h-0.313c0.17-0.626,0.39-1.142,0.659-1.542c0.269-0.404,0.546-0.666,0.83-0.789
			s0.789-0.187,1.515-0.187L22.327,411.679L22.327,411.679z"/>
		<path d="M11.202,430.577l2.897-1.406h0.291v10.078c0,0.664,0.027,1.078,0.083,1.24c0.056,0.164,0.171,0.289,0.347,0.377
			c0.175,0.086,0.532,0.137,1.07,0.146v0.328h-4.485v-0.328c0.563-0.012,0.927-0.061,1.091-0.145
			c0.165-0.084,0.279-0.198,0.344-0.342c0.064-0.145,0.097-0.568,0.097-1.279v-6.453c0-0.873-0.029-1.432-0.088-1.68
			c-0.041-0.188-0.115-0.326-0.223-0.414s-0.238-0.133-0.39-0.133c-0.216,0-0.517,0.092-0.902,0.271L11.202,430.577z"/>
		<path d="M26.343,439.032l-0.836,2.311h-7.039v-0.33c2.077-1.885,3.538-3.426,4.386-4.618c0.847-1.194,1.271-2.286,1.271-3.276
			c0-0.759-0.232-1.383-0.697-1.87c-0.465-0.487-1.021-0.731-1.668-0.731c-0.588,0-1.116,0.172-1.584,0.51
			c-0.468,0.34-0.813,0.836-1.037,1.49h-0.326c0.146-1.075,0.524-1.902,1.132-2.479c0.608-0.576,1.368-0.863,2.278-0.863
			c0.969,0,1.779,0.313,2.428,0.936c0.649,0.621,0.974,1.354,0.974,2.199c0,0.604-0.141,1.21-0.423,1.813
			c-0.435,0.949-1.14,1.953-2.116,3.014c-1.464,1.589-2.373,2.545-2.726,2.867h3.095c0.63,0,1.071-0.022,1.325-0.07
			c0.253-0.047,0.482-0.143,0.687-0.284c0.205-0.145,0.382-0.349,0.533-0.61h0.343V439.032z"/>
	</g>
	<line fill="none" stroke="#000000" stroke-width="2" x1="23.648" y1="423.334" x2="10.068" y2="423.334"/>
	<g>
		<path d="M23.803,470.864v1.279h-2.037l-0.176,2.686c-0.035,0.465-0.053,0.867-0.053,1.208c0,0.818,0.096,1.316,0.287,1.496
			c0.191,0.18,0.422,0.269,0.692,0.269c0.564,0,0.899-0.354,1.005-1.063h0.313c-0.194,1.625-0.846,2.438-1.955,2.438
			c-0.517,0-0.932-0.157-1.246-0.476c-0.313-0.317-0.471-0.787-0.471-1.409c0-0.411,0.062-1.281,0.185-2.608l0.237-2.536h-1.859
			c-0.123,2.139-0.271,3.699-0.442,4.688c-0.173,0.987-0.362,1.625-0.569,1.912c-0.208,0.288-0.489,0.432-0.846,0.432
			c-0.269,0-0.495-0.079-0.679-0.235c-0.184-0.159-0.276-0.367-0.276-0.626c0-0.246,0.157-0.584,0.471-1.015
			c0.459-0.623,0.802-1.271,1.03-1.941c0.227-0.672,0.398-1.743,0.515-3.212h-0.597c-0.479,0-0.847,0.105-1.102,0.318
			c-0.254,0.213-0.496,0.52-0.724,0.914h-0.313c0.17-0.625,0.39-1.139,0.659-1.542c0.269-0.402,0.546-0.666,0.83-0.789
			c0.284-0.122,0.789-0.185,1.515-0.185L23.803,470.864L23.803,470.864z"/>
		<path d="M23.146,488.355v0.344c-0.774,0.076-1.405,0.229-1.895,0.46c-0.49,0.229-0.974,0.582-1.451,1.056
			c-0.478,0.473-0.873,1-1.187,1.581s-0.576,1.271-0.787,2.071c0.844-0.581,1.69-0.871,2.54-0.871c0.814,0,1.52,0.328,2.118,0.984
			c0.598,0.654,0.896,1.5,0.896,2.529c0,0.996-0.302,1.904-0.905,2.727c-0.727,0.996-1.688,1.494-2.882,1.494
			c-0.814,0-1.505-0.271-2.074-0.811c-1.113-1.049-1.67-2.408-1.67-4.078c0-1.064,0.214-2.08,0.642-3.041
			c0.428-0.961,1.039-1.813,1.833-2.558c0.794-0.745,1.555-1.245,2.281-1.503s1.404-0.387,2.031-0.387L23.146,488.355
			L23.146,488.355z M17.678,494.507c-0.104,0.79-0.156,1.428-0.156,1.913c0,0.563,0.104,1.172,0.312,1.83s0.518,1.181,0.928,1.566
			c0.298,0.273,0.662,0.411,1.089,0.411c0.509,0,0.965-0.237,1.366-0.72c0.401-0.479,0.602-1.164,0.602-2.054
			c0-1.001-0.199-1.866-0.598-2.599c-0.398-0.73-0.964-1.099-1.697-1.099c-0.223,0-0.461,0.047-0.716,0.143
			C18.553,493.994,18.176,494.198,17.678,494.507z"/>
	</g>
	<line fill="none" stroke="#000000" x1="16.068" y1="484.1" x2="23.476" y2="484.1"/>
	<g>
		<path d="M23.827,529.741v1.281H21.79l-0.176,2.683c-0.035,0.465-0.053,0.868-0.053,1.208c0,0.818,0.096,1.315,0.287,1.496
			c0.191,0.18,0.422,0.27,0.692,0.27c0.564,0,0.899-0.354,1.005-1.063h0.313c-0.194,1.625-0.846,2.438-1.955,2.438
			c-0.517,0-0.932-0.156-1.246-0.477c-0.313-0.316-0.471-0.787-0.471-1.408c0-0.412,0.062-1.281,0.185-2.609l0.237-2.535h-1.859
			c-0.123,2.139-0.271,3.699-0.442,4.688c-0.173,0.986-0.362,1.625-0.569,1.912c-0.208,0.287-0.489,0.432-0.846,0.432
			c-0.269,0-0.495-0.08-0.679-0.236c-0.184-0.158-0.276-0.367-0.276-0.625c0-0.246,0.157-0.584,0.471-1.016
			c0.459-0.623,0.802-1.27,1.03-1.941c0.227-0.673,0.398-1.742,0.515-3.211h-0.597c-0.479,0-0.847,0.105-1.102,0.318
			c-0.254,0.213-0.496,0.52-0.724,0.914h-0.313c0.17-0.625,0.39-1.139,0.659-1.543c0.269-0.401,0.546-0.666,0.83-0.789
			c0.284-0.122,0.789-0.184,1.515-0.184L23.827,529.741L23.827,529.741z"/>
		<path d="M23.468,554.997v1.25h-1.594v3.156h-1.453v-3.156h-5.047v-1.127l5.531-7.889h0.969v7.766H23.468z M20.421,554.997v-5.882
			l-4.186,5.882H20.421z"/>
	</g>
	<line fill="none" stroke="#000000" x1="16.093" y1="542.976" x2="23.5" y2="542.976"/>
	<g>
		<path d="M24.531,588.506v1.281h-2.037l-0.176,2.683c-0.035,0.465-0.053,0.868-0.053,1.208c0,0.818,0.096,1.316,0.287,1.496
			c0.191,0.18,0.422,0.271,0.692,0.271c0.564,0,0.899-0.354,1.005-1.063h0.313c-0.194,1.625-0.846,2.438-1.955,2.438
			c-0.517,0-0.932-0.158-1.246-0.479c-0.313-0.314-0.471-0.787-0.471-1.408c0-0.412,0.062-1.279,0.185-2.607l0.237-2.537h-1.859
			c-0.123,2.139-0.271,3.701-0.442,4.688c-0.173,0.986-0.362,1.625-0.569,1.912c-0.208,0.287-0.489,0.434-0.846,0.434
			c-0.269,0-0.495-0.08-0.679-0.238s-0.276-0.367-0.276-0.625c0-0.246,0.157-0.584,0.471-1.014c0.459-0.623,0.802-1.271,1.03-1.943
			c0.227-0.672,0.398-1.742,0.515-3.211H18.06c-0.479,0-0.847,0.107-1.102,0.32c-0.254,0.213-0.496,0.518-0.724,0.914h-0.313
			c0.17-0.625,0.39-1.141,0.659-1.543s0.546-0.666,0.83-0.789c0.284-0.122,0.789-0.186,1.515-0.186L24.531,588.506L24.531,588.506z"
			/>
		<path d="M16.718,608.512c0.34-0.803,0.769-1.423,1.287-1.857c0.518-0.438,1.164-0.656,1.937-0.656
			c0.955,0,1.687,0.311,2.196,0.932c0.387,0.463,0.58,0.959,0.58,1.486c0,0.867-0.542,1.764-1.625,2.689
			c0.73,0.285,1.283,0.695,1.657,1.229s0.562,1.16,0.562,1.881c0,1.031-0.328,1.924-0.985,2.681
			c-0.856,0.983-2.096,1.478-3.72,1.478c-0.803,0-1.35-0.1-1.64-0.297c-0.291-0.199-0.436-0.412-0.436-0.643
			c0-0.17,0.069-0.316,0.207-0.445c0.138-0.129,0.304-0.193,0.497-0.193c0.146,0,0.296,0.023,0.449,0.07
			c0.1,0.028,0.326,0.135,0.678,0.316c0.352,0.185,0.596,0.294,0.73,0.328c0.217,0.064,0.449,0.098,0.695,0.098
			c0.599,0,1.12-0.23,1.563-0.693s0.665-1.01,0.665-1.644c0-0.464-0.103-0.913-0.309-1.354c-0.153-0.328-0.321-0.576-0.503-0.746
			c-0.254-0.233-0.601-0.447-1.043-0.638c-0.441-0.19-0.892-0.286-1.351-0.286h-0.283v-0.266c0.465-0.061,0.932-0.227,1.4-0.5
			c0.468-0.274,0.809-0.605,1.021-0.99c0.212-0.387,0.318-0.813,0.318-1.273c0-0.602-0.189-1.088-0.567-1.46
			c-0.378-0.372-0.849-0.558-1.411-0.558c-0.909,0-1.668,0.482-2.278,1.453L16.718,608.512z"/>
	</g>
	<line fill="none" stroke="#000000" x1="16.796" y1="601.742" x2="24.204" y2="601.742"/>
	<g>
		<path d="M14.485,645.635l-0.688,1.5h-3.593l-0.787,1.592c1.563,0.229,2.799,0.807,3.709,1.73c0.781,0.797,1.172,1.734,1.172,2.813
			c0,0.627-0.128,1.206-0.383,1.739s-0.576,0.987-0.963,1.362c-0.387,0.375-0.818,0.677-1.293,0.904
			c-0.674,0.32-1.366,0.482-2.076,0.482c-0.716,0-1.236-0.121-1.562-0.362s-0.488-0.511-0.488-0.802
			c0-0.164,0.067-0.308,0.203-0.434c0.135-0.125,0.306-0.188,0.512-0.188c0.153,0,0.287,0.023,0.401,0.069
			c0.115,0.047,0.311,0.167,0.587,0.357c0.439,0.305,0.884,0.459,1.335,0.468c0.685,0,1.287-0.262,1.805-0.78
			c0.518-0.521,0.778-1.153,0.778-1.899c0-0.723-0.232-1.396-0.695-2.021s-1.103-1.108-1.917-1.449
			c-0.64-0.265-1.51-0.417-2.612-0.458l2.285-4.625L14.485,645.635L14.485,645.635z"/>
		<path d="M24.407,649.495v1.281H22.37l-0.176,2.682c-0.035,0.465-0.053,0.868-0.053,1.209c0,0.818,0.096,1.316,0.287,1.496
			c0.191,0.18,0.422,0.27,0.692,0.27c0.564,0,0.899-0.354,1.005-1.063h0.313c-0.194,1.625-0.846,2.438-1.955,2.438
			c-0.517,0-0.932-0.157-1.246-0.477c-0.313-0.316-0.471-0.787-0.471-1.409c0-0.411,0.062-1.28,0.185-2.606l0.237-2.537h-1.859
			c-0.123,2.138-0.271,3.698-0.442,4.688c-0.173,0.986-0.362,1.624-0.569,1.912c-0.208,0.287-0.489,0.432-0.846,0.432
			c-0.269,0-0.495-0.079-0.679-0.236c-0.184-0.158-0.276-0.367-0.276-0.626c0-0.246,0.157-0.584,0.471-1.015
			c0.459-0.622,0.802-1.271,1.03-1.941c0.227-0.672,0.398-1.742,0.515-3.211h-0.597c-0.479,0-0.847,0.104-1.102,0.317
			c-0.254,0.215-0.496,0.52-0.724,0.915h-0.313c0.17-0.626,0.39-1.14,0.659-1.543c0.269-0.401,0.546-0.666,0.83-0.789
			c0.284-0.123,0.789-0.184,1.515-0.184L24.407,649.495L24.407,649.495z"/>
		<path d="M8.782,668.391l2.897-1.404h0.291v10.076c0,0.664,0.027,1.078,0.083,1.241c0.056,0.163,0.171,0.288,0.347,0.376
			c0.175,0.087,0.532,0.139,1.07,0.148v0.328H8.985v-0.328c0.563-0.012,0.927-0.062,1.091-0.146
			c0.165-0.084,0.279-0.195,0.344-0.341c0.064-0.143,0.097-0.567,0.097-1.28v-6.451c0-0.872-0.029-1.434-0.088-1.682
			c-0.041-0.188-0.115-0.326-0.223-0.414s-0.238-0.132-0.39-0.132c-0.216,0-0.517,0.091-0.902,0.272L8.782,668.391z"/>
		<path d="M23.923,676.846l-0.836,2.313h-7.039v-0.329c2.077-1.886,3.538-3.426,4.386-4.62c0.847-1.194,1.271-2.287,1.271-3.277
			c0-0.758-0.232-1.382-0.697-1.867c-0.465-0.488-1.021-0.732-1.668-0.732c-0.588,0-1.116,0.17-1.584,0.509
			c-0.468,0.339-0.813,0.836-1.037,1.491h-0.326c0.146-1.076,0.524-1.903,1.132-2.479s1.368-0.863,2.278-0.863
			c0.969,0,1.779,0.312,2.428,0.934s0.974,1.356,0.974,2.201c0,0.604-0.141,1.209-0.423,1.813c-0.435,0.948-1.14,1.954-2.116,3.016
			c-1.464,1.589-2.373,2.544-2.726,2.866h3.095c0.63,0,1.071-0.023,1.325-0.07c0.253-0.047,0.482-0.143,0.687-0.285
			c0.204-0.145,0.382-0.348,0.533-0.61h0.343V676.846z"/>
	</g>
	<line fill="none" stroke="#000000" stroke-width="2" x1="23.129" y1="662.383" x2="9.549" y2="662.383"/>
	<g>
		<path d="M24.321,693.828v1.281h-2.037l-0.176,2.683c-0.035,0.465-0.053,0.867-0.053,1.209c0,0.818,0.096,1.316,0.287,1.496
			c0.191,0.18,0.422,0.269,0.692,0.269c0.564,0,0.899-0.354,1.005-1.063h0.313c-0.194,1.625-0.846,2.438-1.955,2.438
			c-0.517,0-0.932-0.158-1.246-0.476c-0.313-0.317-0.471-0.787-0.471-1.41c0-0.41,0.062-1.28,0.185-2.606l0.237-2.537h-1.859
			c-0.123,2.138-0.271,3.698-0.442,4.688c-0.173,0.987-0.362,1.624-0.569,1.912c-0.208,0.288-0.489,0.432-0.846,0.432
			c-0.269,0-0.495-0.079-0.679-0.235c-0.184-0.159-0.276-0.367-0.276-0.627c0-0.246,0.157-0.584,0.471-1.014
			c0.459-0.623,0.802-1.271,1.03-1.941c0.227-0.673,0.398-1.743,0.515-3.212H17.85c-0.479,0-0.847,0.104-1.102,0.317
			c-0.254,0.213-0.496,0.52-0.724,0.915h-0.313c0.17-0.626,0.39-1.14,0.659-1.542c0.269-0.404,0.546-0.666,0.83-0.789
			c0.284-0.123,0.789-0.185,1.515-0.185L24.321,693.828L24.321,693.828z"/>
		<path d="M23.836,721.18L23,723.491h-7.039v-0.33c2.077-1.885,3.538-3.426,4.386-4.619c0.847-1.195,1.271-2.287,1.271-3.277
			c0-0.759-0.232-1.383-0.697-1.87c-0.465-0.485-1.021-0.729-1.668-0.729c-0.588,0-1.116,0.17-1.584,0.508
			c-0.468,0.34-0.813,0.836-1.037,1.492h-0.326c0.146-1.077,0.524-1.904,1.132-2.479s1.368-0.862,2.278-0.862
			c0.969,0,1.779,0.311,2.428,0.934c0.649,0.621,0.974,1.355,0.974,2.201c0,0.604-0.141,1.209-0.423,1.813
			c-0.435,0.947-1.14,1.951-2.116,3.014c-1.464,1.589-2.373,2.545-2.726,2.867h3.095c0.63,0,1.071-0.023,1.325-0.07
			c0.253-0.047,0.482-0.143,0.687-0.286c0.205-0.143,0.382-0.347,0.533-0.61h0.343V721.18z"/>
	</g>
	<line fill="none" x1="7.586" y1="709.063" x2="14.994" y2="709.063"/>
	<line fill="none" stroke="#000000" x1="16.586" y1="707.063" x2="23.994" y2="707.063"/>
	<g>
		<path d="M6.21,413.471h4.547v1.328H6.21V413.471z"/>
	</g>
	<g>
		<path d="M9.691,472.891h4.547v1.328H9.691V472.891z"/>
	</g>
	<g>
		<path d="M9.173,533.508h4.547v1.328H9.173V533.508z"/>
	</g>
	<g>
		<path d="M10.408,590.065h4.547v1.326h-4.547V590.065z"/>
	</g>
	<g>
		<path d="M3,652.028h4.547v1.328H3V652.028z"/>
	</g>
	<g>
		<path d="M9.481,699.077h4.547v1.328H9.481V699.077z"/>
	</g>
</g>
<g>
	<path fill="none" stroke="#808080" d="M32.73,719.646h1010.5"/>
</g>
<g>
	<path fill="none" stroke="#000000" d="M32.73,719.646h13.5 M1043.23,719.646h-13.5"/>
</g>
<g>
	<path fill="none" stroke="#808080" d="M32.73,659.546h1010.5"/>
</g>
<g>
	<path fill="none" stroke="#000000" d="M32.73,659.546h13.5 M1043.23,659.546h-13.5"/>
</g>
<g>
	<path fill="none" stroke="#808080" d="M32.73,599.445h1010.5"/>
</g>
<g>
	<path fill="none" stroke="#000000" d="M32.73,599.445h13.5 M1043.23,599.445h-13.5"/>
</g>
<g>
	<path fill="none" stroke="#808080" d="M32.73,539.445h1010.5"/>
</g>
<g>
	<path fill="none" stroke="#000000" d="M32.73,539.445h13.5 M1043.23,539.445h-13.5"/>
</g>
<g>
	<path fill="none" stroke="#808080" d="M32.73,479.346h1010.5"/>
</g>
<g>
	<path fill="none" stroke="#000000" d="M32.73,479.346h13.5 M1043.23,479.346h-13.5"/>
</g>
<g>
	<path fill="none" stroke="#808080" d="M32.73,419.245h1010.5"/>
</g>
<g>
	<path fill="none" stroke="#000000" d="M32.73,419.245h13.5 M1043.23,419.245h-13.5"/>
</g>
<g>
	<path fill="none" stroke="#808080" d="M32.73,359.146h1010.5"/>
</g>
<g>
	<path fill="none" stroke="#000000" d="M32.73,359.146h13.5 M1043.23,359.146h-13.5"/>
</g>
<g>
	<path fill="none" stroke="#808080" d="M32.73,299.046h1010.5"/>
</g>
<g>
	<path fill="none" stroke="#000000" d="M32.73,299.046h13.5 M1043.23,299.046h-13.5"/>
</g>
<g>
	<path fill="none" stroke="#808080" d="M32.73,238.945h1010.5"/>
</g>
<g>
	<path fill="none" stroke="#000000" d="M32.73,238.945h13.5 M1043.23,238.945h-13.5"/>
</g>
<g>
	<path fill="none" stroke="#808080" d="M32.73,178.945h1010.5"/>
</g>
<g>
	<path fill="none" stroke="#000000" d="M32.73,178.945h13.5 M1043.23,178.945h-13.5"/>
</g>
<g>
	<path fill="none" stroke="#808080" d="M32.73,118.846h1010.5"/>
</g>
<g>
	<path fill="none" stroke="#000000" d="M32.73,118.846h13.5 M1043.23,118.846h-13.5"/>
</g>
<g>
	<path fill="none" stroke="#808080" d="M32.73,58.746h1010.5"/>
</g>
<g>
	<path fill="none" stroke="#000000" d="M32.73,58.746h13.5 M1043.23,58.746h-13.5"/>
</g>
<g>
	<path fill="none" stroke="#808080" d="M32.73-1.354h1010.5"/>
</g>
<g>
	<path fill="none" stroke="#000000" d="M32.73-1.354h13.5 M1043.23-1.354h-13.5"/>
</g>
<g>
	<path fill="none" stroke="#808080" d="M32.73,719.646v-721"/>
</g>
<g>
	<path fill="none" stroke="#000000" d="M32.73,719.646v-13.5 M32.73-1.354v13.5"/>
	<g transform="translate(151.0,779.7)">
		<g enable-background="new    ">
			<path d="M-129.533-31.057h4.547v1.328h-4.547V-31.057z"/>
			<path d="M-122.164-37.12l2.897-1.406h0.291v10.078c0,0.664,0.027,1.078,0.083,1.241s0.171,0.288,0.347,0.376
				c0.175,0.087,0.532,0.137,1.07,0.148v0.328h-4.484v-0.328c0.563-0.012,0.927-0.06,1.091-0.145
				c0.165-0.084,0.279-0.197,0.344-0.341c0.064-0.143,0.097-0.569,0.097-1.28v-6.453c0-0.872-0.029-1.432-0.088-1.68
				c-0.041-0.188-0.115-0.326-0.223-0.414s-0.238-0.132-0.39-0.132c-0.216,0-0.517,0.091-0.902,0.272L-122.164-37.12z"/>
			<path d="M-114.617-32.251c0-1.359,0.205-2.529,0.615-3.512c0.41-0.98,0.955-1.712,1.634-2.192
				c0.527-0.381,1.072-0.571,1.634-0.571c0.914,0,1.733,0.466,2.459,1.397c0.907,1.154,1.361,2.719,1.361,4.693
				c0,1.383-0.199,2.558-0.598,3.524c-0.398,0.967-0.906,1.668-1.523,2.105c-0.618,0.436-1.214,0.654-1.788,0.654
				c-1.136,0-2.082-0.671-2.837-2.013C-114.297-29.295-114.617-30.657-114.617-32.251z M-112.898-32.028
				c0,1.642,0.202,2.981,0.607,4.02c0.334,0.874,0.833,1.311,1.495,1.311c0.316,0,0.645-0.143,0.985-0.427s0.598-0.761,0.774-1.429
				c0.27-1.009,0.404-2.432,0.404-4.267c0-1.36-0.141-2.495-0.422-3.403c-0.211-0.675-0.484-1.152-0.818-1.435
				c-0.24-0.193-0.531-0.29-0.871-0.29c-0.399,0-0.753,0.179-1.064,0.537c-0.423,0.486-0.71,1.252-0.862,2.295
				C-112.822-34.072-112.898-33.043-112.898-32.028z"/>
		</g>
	</g>
</g>
<g>
	<path fill="none" stroke="#808080" d="M83.23,719.646v-721"/>
</g>
<g>
	<path fill="none" stroke="#000000" d="M83.23,719.646v-13.5 M83.23-1.354v13.5"/>
	<g transform="translate(201.5,779.7)">
		<g enable-background="new    ">
			<path d="M-125.033-31.057h4.547v1.328h-4.547V-31.057z"/>
			<path d="M-118.835-26.104v-0.328c0.762-0.012,1.472-0.189,2.128-0.532s1.292-0.942,1.904-1.798c0.613-0.856,1.04-1.797,1.28-2.82
				c-0.92,0.59-1.752,0.885-2.497,0.885c-0.838,0-1.556-0.324-2.154-0.972c-0.598-0.648-0.896-1.509-0.896-2.582
				c0-1.044,0.299-1.973,0.896-2.788c0.721-0.99,1.661-1.486,2.822-1.486c0.979,0,1.817,0.404,2.514,1.214
				c0.855,1.003,1.283,2.241,1.283,3.713c0,1.325-0.325,2.562-0.976,3.708s-1.557,2.098-2.717,2.854
				c-0.944,0.622-1.973,0.933-3.087,0.933H-118.835z M-113.382-32.233c0.104-0.762,0.156-1.371,0.156-1.829
				c0-0.568-0.097-1.183-0.29-1.842s-0.468-1.165-0.822-1.517s-0.757-0.527-1.208-0.527c-0.522,0-0.979,0.234-1.372,0.703
				s-0.589,1.167-0.589,2.093c0,1.236,0.261,2.204,0.783,2.901c0.381,0.504,0.85,0.756,1.408,0.756c0.27,0,0.589-0.064,0.958-0.193
				C-113.989-31.817-113.664-31.999-113.382-32.233z"/>
		</g>
	</g>
</g>
<g>
	<path fill="none" stroke="#808080" d="M133.83,719.646v-721"/>
</g>
<g>
	<path fill="none" stroke="#000000" d="M133.83,719.646v-13.5 M133.83-1.354v13.5"/>
	<g transform="translate(252.1,779.7)">
		<g enable-background="new    ">
			<path d="M-125.033-31.057h4.547v1.328h-4.547V-31.057z"/>
			<path d="M-116.314-32.357c-0.947-0.774-1.557-1.396-1.83-1.865c-0.273-0.47-0.41-0.956-0.41-1.461
				c0-0.774,0.299-1.442,0.897-2.002c0.598-0.561,1.393-0.841,2.384-0.841c0.962,0,1.736,0.262,2.323,0.783
				c0.586,0.522,0.88,1.118,0.88,1.787c0,0.445-0.158,0.9-0.475,1.364s-0.975,1.009-1.977,1.637
				c1.032,0.796,1.715,1.422,2.049,1.879c0.445,0.597,0.668,1.226,0.668,1.888c0,0.836-0.319,1.552-0.958,2.146
				c-0.639,0.594-1.478,0.891-2.515,0.891c-1.131,0-2.014-0.354-2.646-1.063c-0.504-0.567-0.756-1.188-0.756-1.86
				c0-0.526,0.177-1.049,0.532-1.567C-117.793-31.159-117.182-31.731-116.314-32.357z M-115.901-32.023
				c-0.487,0.407-0.848,0.852-1.083,1.332c-0.234,0.48-0.352,1-0.352,1.56c0,0.751,0.207,1.353,0.621,1.804s0.941,0.677,1.581,0.677
				c0.634,0,1.142-0.178,1.523-0.533c0.381-0.354,0.572-0.785,0.572-1.293c0-0.419-0.111-0.794-0.335-1.126
				C-113.79-30.221-114.633-31.027-115.901-32.023z M-114.934-33.298c0.702-0.635,1.146-1.137,1.333-1.504s0.281-0.783,0.281-1.248
				c0-0.618-0.173-1.102-0.519-1.451c-0.346-0.351-0.817-0.525-1.414-0.525c-0.598,0-1.083,0.174-1.458,0.521
				c-0.375,0.347-0.563,0.753-0.563,1.218c0,0.306,0.078,0.611,0.233,0.917s0.376,0.597,0.664,0.874L-114.934-33.298z"/>
		</g>
	</g>
</g>
<g>
	<path fill="none" stroke="#808080" d="M184.33,719.646v-721"/>
</g>
<g>
	<path fill="none" stroke="#000000" d="M184.33,719.646v-13.5 M184.33-1.354v13.5"/>
	<g transform="translate(302.6,779.7)">
		<g enable-background="new    ">
			<path d="M-125.033-31.057h4.547v1.328h-4.547V-31.057z"/>
			<path d="M-117.96-38.276h6.386v0.338l-3.964,11.834h-0.988l3.566-10.734h-3.281c-0.663,0-1.135,0.079-1.417,0.237
				c-0.493,0.27-0.889,0.686-1.188,1.248l-0.255-0.097L-117.96-38.276z"/>
		</g>
	</g>
</g>
<g>
	<path fill="none" stroke="#808080" d="M234.83,719.646v-721"/>
</g>
<g>
	<path fill="none" stroke="#000000" d="M234.83,719.646v-13.5 M234.83-1.354v13.5"/>
	<g transform="translate(353.1,779.7)">
		<g enable-background="new    ">
			<path d="M-125.033-31.057h4.547v1.328h-4.547V-31.057z"/>
			<path d="M-111.695-38.526v0.344c-0.774,0.076-1.405,0.229-1.895,0.46c-0.49,0.23-0.974,0.583-1.451,1.056s-0.873,1-1.187,1.581
				c-0.314,0.581-0.576,1.271-0.787,2.071c0.844-0.581,1.69-0.871,2.54-0.871c0.814,0,1.52,0.328,2.118,0.984s0.896,1.5,0.896,2.531
				c0,0.996-0.302,1.904-0.905,2.725c-0.727,0.996-1.688,1.494-2.882,1.494c-0.814,0-1.505-0.27-2.074-0.809
				c-1.113-1.049-1.67-2.408-1.67-4.078c0-1.066,0.214-2.08,0.642-3.041s1.039-1.813,1.833-2.558s1.555-1.245,2.281-1.503
				s1.404-0.387,2.031-0.387H-111.695z M-117.163-32.374c-0.104,0.79-0.156,1.428-0.156,1.913c0,0.563,0.104,1.173,0.312,1.831
				s0.518,1.18,0.928,1.566c0.298,0.274,0.662,0.412,1.089,0.412c0.509,0,0.965-0.24,1.366-0.72s0.602-1.164,0.602-2.054
				c0-1.001-0.199-1.867-0.598-2.598c-0.398-0.732-0.964-1.098-1.697-1.098c-0.223,0-0.461,0.047-0.716,0.141
				S-116.665-32.684-117.163-32.374z"/>
		</g>
	</g>
</g>
<g>
	<path fill="none" stroke="#808080" d="M285.33,719.646v-721"/>
</g>
<g>
	<path fill="none" stroke="#000000" d="M285.33,719.646v-13.5 M285.33-1.354v13.5"/>
	<g transform="translate(403.6,779.7)">
		<g enable-background="new    ">
			<path d="M-125.033-31.057h4.547v1.328h-4.547V-31.057z"/>
			<path d="M-111.96-38.276l-0.688,1.5h-3.594l-0.787,1.592c1.563,0.229,2.799,0.806,3.709,1.73
				c0.781,0.797,1.172,1.734,1.172,2.813c0,0.627-0.128,1.207-0.383,1.74s-0.576,0.986-0.963,1.361s-0.818,0.677-1.293,0.905
				c-0.674,0.322-1.366,0.483-2.076,0.483c-0.716,0-1.236-0.121-1.562-0.363c-0.326-0.242-0.488-0.509-0.488-0.801
				c0-0.163,0.067-0.308,0.203-0.433c0.135-0.126,0.306-0.188,0.512-0.188c0.153,0,0.287,0.023,0.401,0.07s0.311,0.166,0.587,0.358
				c0.439,0.304,0.884,0.459,1.335,0.466c0.685,0,1.287-0.26,1.805-0.779c0.519-0.521,0.778-1.153,0.778-1.899
				c0-0.723-0.232-1.397-0.695-2.022c-0.463-0.626-1.103-1.109-1.917-1.45c-0.64-0.264-1.51-0.417-2.612-0.458l2.285-4.625H-111.96z
				"/>
		</g>
	</g>
</g>
<g>
	<path fill="none" stroke="#808080" d="M335.93,719.646v-721"/>
</g>
<g>
	<path fill="none" stroke="#000000" d="M335.93,719.646v-13.5 M335.93-1.354v13.5"/>
	<g transform="translate(454.2,779.7)">
		<g enable-background="new    ">
			<path d="M-125.033-31.057h4.547v1.328h-4.547V-31.057z"/>
			<path d="M-111.398-30.761v1.25h-1.594v3.156h-1.453v-3.156h-5.047v-1.127l5.531-7.889h0.969v7.766H-111.398z M-114.445-30.761
				v-5.883l-4.186,5.883H-114.445z"/>
		</g>
	</g>
</g>
<g>
	<path fill="none" stroke="#808080" d="M386.43,719.646v-721"/>
</g>
<g>
	<path fill="none" stroke="#000000" d="M386.43,719.646v-13.5 M386.43-1.354v13.5"/>
	<g transform="translate(504.7,779.7)">
		<g enable-background="new    ">
			<path d="M-125.033-31.057h4.547v1.328h-4.547V-31.057z"/>
			<path d="M-118.851-36.011c0.34-0.803,0.769-1.424,1.287-1.86c0.518-0.437,1.164-0.655,1.937-0.655
				c0.955,0,1.687,0.311,2.196,0.932c0.387,0.463,0.58,0.958,0.58,1.485c0,0.867-0.542,1.764-1.625,2.689
				c0.73,0.287,1.283,0.697,1.657,1.23s0.562,1.16,0.562,1.881c0,1.031-0.328,1.925-0.985,2.681
				c-0.856,0.984-2.096,1.477-3.72,1.477c-0.803,0-1.35-0.1-1.64-0.298c-0.291-0.199-0.436-0.412-0.436-0.64
				c0-0.17,0.069-0.319,0.207-0.447c0.138-0.129,0.304-0.193,0.497-0.193c0.146,0,0.296,0.023,0.449,0.07
				c0.1,0.029,0.326,0.135,0.678,0.318s0.596,0.293,0.73,0.328c0.217,0.063,0.449,0.096,0.695,0.096c0.599,0,1.12-0.231,1.563-0.694
				c0.443-0.462,0.665-1.01,0.665-1.643c0-0.463-0.103-0.913-0.309-1.353c-0.153-0.328-0.321-0.577-0.503-0.747
				c-0.254-0.234-0.601-0.446-1.043-0.638c-0.441-0.189-0.892-0.285-1.351-0.285h-0.283v-0.266c0.465-0.059,0.932-0.225,1.4-0.5
				s0.809-0.605,1.021-0.991s0.318-0.81,0.318-1.272c0-0.602-0.189-1.089-0.567-1.461c-0.378-0.371-0.849-0.557-1.411-0.557
				c-0.909,0-1.668,0.484-2.278,1.453L-118.851-36.011z"/>
		</g>
	</g>
</g>
<g>
	<path fill="none" stroke="#808080" d="M436.93,719.646v-721"/>
</g>
<g>
	<path fill="none" stroke="#000000" d="M436.93,719.646v-13.5 M436.93-1.354v13.5"/>
	<g transform="translate(555.2,779.7)">
		<g enable-background="new    ">
			<path d="M-125.033-31.057h4.547v1.328h-4.547V-31.057z"/>
			<path d="M-111.523-28.665l-0.836,2.311h-7.039v-0.329c2.077-1.886,3.538-3.426,4.386-4.62c0.847-1.194,1.271-2.287,1.271-3.277
				c0-0.758-0.232-1.382-0.697-1.869c-0.465-0.488-1.021-0.732-1.668-0.732c-0.588,0-1.116,0.17-1.584,0.509
				s-0.813,0.836-1.037,1.491h-0.326c0.146-1.076,0.524-1.903,1.132-2.479s1.368-0.864,2.278-0.864c0.969,0,1.779,0.312,2.428,0.934
				c0.649,0.622,0.974,1.356,0.974,2.201c0,0.605-0.141,1.209-0.423,1.813c-0.435,0.949-1.14,1.954-2.116,3.015
				c-1.464,1.589-2.373,2.544-2.726,2.866h3.095c0.63,0,1.071-0.023,1.325-0.07c0.253-0.047,0.482-0.143,0.687-0.285
				c0.204-0.145,0.382-0.348,0.533-0.611H-111.523z"/>
		</g>
	</g>
</g>
<g>
	<path fill="none" stroke="#808080" d="M487.43,719.646v-721"/>
</g>
<g>
	<path fill="none" stroke="#000000" d="M487.43,719.646v-13.5 M487.43-1.354v13.5"/>
	<g transform="translate(605.7,779.7)">
		<g enable-background="new    ">
			<path d="M-125.033-31.057h4.547v1.328h-4.547V-31.057z"/>
			<path d="M-117.663-37.12l2.897-1.406h0.291v10.078c0,0.664,0.027,1.078,0.083,1.241s0.171,0.288,0.347,0.376
				c0.175,0.087,0.532,0.137,1.07,0.148v0.328h-4.484v-0.328c0.563-0.012,0.927-0.06,1.091-0.145
				c0.165-0.084,0.279-0.197,0.344-0.341c0.064-0.143,0.097-0.569,0.097-1.28v-6.453c0-0.872-0.029-1.432-0.088-1.68
				c-0.041-0.188-0.115-0.326-0.223-0.414s-0.238-0.132-0.39-0.132c-0.216,0-0.517,0.091-0.902,0.272L-117.663-37.12z"/>
		</g>
	</g>
</g>
<g>
	<path fill="none" stroke="#808080" d="M538.03,719.646v-721"/>
</g>
<g>
	<path fill="none" stroke="#000000" d="M538.03,719.646v-13.5 M538.03-1.354v13.5"/>
	<g transform="translate(656.3,779.7)">
		<g enable-background="new    ">
			<path d="M-122.114-32.251c0-1.359,0.205-2.529,0.614-3.512c0.41-0.98,0.955-1.712,1.635-2.192
				c0.526-0.381,1.071-0.571,1.633-0.571c0.914,0,1.733,0.466,2.46,1.397c0.907,1.154,1.361,2.719,1.361,4.693
				c0,1.383-0.199,2.558-0.598,3.524c-0.397,0.967-0.906,1.668-1.523,2.105c-0.618,0.436-1.214,0.654-1.788,0.654
				c-1.136,0-2.081-0.671-2.836-2.013C-121.795-29.295-122.114-30.657-122.114-32.251z M-120.395-32.028
				c0,1.642,0.202,2.981,0.606,4.02c0.334,0.874,0.833,1.311,1.496,1.311c0.316,0,0.645-0.143,0.984-0.427s0.598-0.761,0.774-1.429
				c0.27-1.009,0.404-2.432,0.404-4.267c0-1.36-0.141-2.495-0.422-3.403c-0.212-0.675-0.484-1.152-0.818-1.435
				c-0.24-0.193-0.53-0.29-0.87-0.29c-0.399,0-0.754,0.179-1.064,0.537c-0.423,0.486-0.71,1.252-0.862,2.295
				C-120.319-34.072-120.395-33.043-120.395-32.028z"/>
		</g>
	</g>
</g>
<g>
	<path fill="none" stroke="#808080" d="M588.53,719.646v-721"/>
</g>
<g>
	<path fill="none" stroke="#000000" d="M588.53,719.646v-13.5 M588.53-1.354v13.5"/>
	<g transform="translate(706.8,779.7)">
		<g enable-background="new    ">
			<path d="M-120.661-37.12l2.897-1.406h0.29v10.078c0,0.664,0.027,1.078,0.083,1.241s0.172,0.288,0.347,0.376
				c0.175,0.087,0.532,0.137,1.07,0.148v0.328h-4.484v-0.328c0.563-0.012,0.927-0.06,1.091-0.145
				c0.164-0.084,0.279-0.197,0.344-0.341c0.064-0.143,0.097-0.569,0.097-1.28v-6.453c0-0.872-0.029-1.432-0.088-1.68
				c-0.041-0.188-0.115-0.326-0.224-0.414c-0.107-0.088-0.237-0.132-0.389-0.132c-0.217,0-0.518,0.091-0.902,0.272L-120.661-37.12z"
				/>
		</g>
	</g>
</g>
<g>
	<path fill="none" stroke="#808080" d="M639.03,719.646v-721"/>
</g>
<g>
	<path fill="none" stroke="#000000" d="M639.03,719.646v-13.5 M639.03-1.354v13.5"/>
	<g transform="translate(757.3,779.7)">
		<g enable-background="new    ">
			<path d="M-114.52-28.665l-0.836,2.311h-7.039v-0.329c2.077-1.886,3.538-3.426,4.386-4.62c0.847-1.194,1.271-2.287,1.271-3.277
				c0-0.758-0.232-1.382-0.697-1.869c-0.465-0.488-1.021-0.732-1.668-0.732c-0.588,0-1.116,0.17-1.584,0.509
				s-0.813,0.836-1.037,1.491h-0.326c0.146-1.076,0.524-1.903,1.132-2.479c0.608-0.576,1.368-0.864,2.279-0.864
				c0.969,0,1.778,0.312,2.428,0.934c0.648,0.622,0.974,1.356,0.974,2.201c0,0.605-0.142,1.209-0.423,1.813
				c-0.436,0.949-1.141,1.954-2.116,3.015c-1.464,1.589-2.372,2.544-2.726,2.866h3.095c0.63,0,1.071-0.023,1.325-0.07
				s0.482-0.143,0.687-0.285c0.204-0.145,0.382-0.348,0.533-0.611H-114.52z"/>
		</g>
	</g>
</g>
<g>
	<path fill="none" stroke="#808080" d="M689.53,719.646v-721"/>
</g>
<g>
	<path fill="none" stroke="#000000" d="M689.53,719.646v-13.5 M689.53-1.354v13.5"/>
	<g transform="translate(807.8,779.7)">
		<g enable-background="new    ">
			<path d="M-121.848-36.011c0.34-0.803,0.769-1.424,1.287-1.86s1.164-0.655,1.937-0.655c0.955,0,1.688,0.311,2.196,0.932
				c0.387,0.463,0.58,0.958,0.58,1.485c0,0.867-0.542,1.764-1.625,2.689c0.73,0.287,1.283,0.697,1.657,1.23s0.562,1.16,0.562,1.881
				c0,1.031-0.328,1.925-0.985,2.681c-0.855,0.984-2.096,1.477-3.721,1.477c-0.803,0-1.35-0.1-1.64-0.298
				c-0.29-0.199-0.436-0.412-0.436-0.64c0-0.17,0.069-0.319,0.207-0.447c0.138-0.129,0.304-0.193,0.497-0.193
				c0.146,0,0.297,0.023,0.449,0.07c0.1,0.029,0.326,0.135,0.678,0.318s0.596,0.293,0.73,0.328c0.217,0.063,0.449,0.096,0.695,0.096
				c0.599,0,1.119-0.231,1.563-0.694c0.443-0.462,0.665-1.01,0.665-1.643c0-0.463-0.103-0.913-0.31-1.353
				c-0.152-0.328-0.32-0.577-0.503-0.747c-0.254-0.234-0.601-0.446-1.043-0.638c-0.441-0.189-0.892-0.285-1.351-0.285h-0.283v-0.266
				c0.465-0.059,0.932-0.225,1.4-0.5s0.809-0.605,1.021-0.991s0.318-0.81,0.318-1.272c0-0.602-0.189-1.089-0.567-1.461
				c-0.378-0.371-0.849-0.557-1.411-0.557c-0.909,0-1.669,0.484-2.278,1.453L-121.848-36.011z"/>
		</g>
	</g>
</g>
<g>
	<path fill="none" stroke="#808080" d="M740.13,719.646v-721"/>
</g>
<g>
	<path fill="none" stroke="#000000" d="M740.13,719.646v-13.5 M740.13-1.354v13.5"/>
	<g transform="translate(858.4,779.7)">
		<g enable-background="new    ">
			<path d="M-114.395-30.761v1.25h-1.594v3.156h-1.453v-3.156h-5.047v-1.127l5.531-7.889h0.969v7.766H-114.395z M-117.442-30.761
				v-5.883l-4.186,5.883H-117.442z"/>
		</g>
	</g>
</g>
<g>
	<path fill="none" stroke="#808080" d="M790.63,719.646v-721"/>
</g>
<g>
	<path fill="none" stroke="#000000" d="M790.63,719.646v-13.5 M790.63-1.354v13.5"/>
	<g transform="translate(908.9,779.7)">
		<g enable-background="new    ">
			<path d="M-114.957-38.276l-0.688,1.5h-3.595l-0.786,1.592c1.563,0.229,2.799,0.806,3.709,1.73
				c0.781,0.797,1.172,1.734,1.172,2.813c0,0.627-0.129,1.207-0.383,1.74c-0.256,0.533-0.576,0.986-0.964,1.361
				s-0.817,0.677-1.294,0.905c-0.674,0.322-1.365,0.483-2.076,0.483c-0.715,0-1.236-0.121-1.561-0.363
				c-0.326-0.242-0.488-0.509-0.488-0.801c0-0.163,0.066-0.308,0.203-0.433c0.135-0.126,0.305-0.188,0.512-0.188
				c0.152,0,0.286,0.023,0.4,0.07c0.115,0.047,0.311,0.166,0.588,0.358c0.439,0.304,0.884,0.459,1.335,0.466
				c0.685,0,1.286-0.26,1.806-0.779c0.518-0.521,0.777-1.153,0.777-1.899c0-0.723-0.232-1.397-0.695-2.022
				c-0.463-0.626-1.102-1.109-1.916-1.45c-0.641-0.264-1.511-0.417-2.613-0.458l2.285-4.625H-114.957z"/>
		</g>
	</g>
</g>
<g>
	<path fill="none" stroke="#808080" d="M841.13,719.646v-721"/>
</g>
<g>
	<path fill="none" stroke="#000000" d="M841.13,719.646v-13.5 M841.13-1.354v13.5"/>
	<g transform="translate(959.4,779.7)">
		<g enable-background="new    ">
			<path d="M-114.692-38.526v0.344c-0.774,0.076-1.406,0.229-1.895,0.46c-0.49,0.23-0.975,0.583-1.451,1.056
				c-0.479,0.473-0.873,1-1.188,1.581c-0.313,0.581-0.576,1.271-0.787,2.071c0.844-0.581,1.69-0.871,2.54-0.871
				c0.813,0,1.521,0.328,2.118,0.984s0.896,1.5,0.896,2.531c0,0.996-0.303,1.904-0.906,2.725c-0.727,0.996-1.688,1.494-2.882,1.494
				c-0.814,0-1.505-0.27-2.073-0.809c-1.113-1.049-1.67-2.408-1.67-4.078c0-1.066,0.213-2.08,0.641-3.041s1.039-1.813,1.834-2.558
				c0.793-0.744,1.555-1.245,2.281-1.503s1.403-0.387,2.031-0.387H-114.692z M-120.16-32.374c-0.105,0.79-0.156,1.428-0.156,1.913
				c0,0.563,0.104,1.173,0.311,1.831c0.209,0.658,0.518,1.18,0.928,1.566c0.299,0.274,0.662,0.412,1.09,0.412
				c0.51,0,0.965-0.24,1.366-0.72s0.603-1.164,0.603-2.054c0-1.001-0.199-1.867-0.598-2.598c-0.398-0.732-0.965-1.098-1.697-1.098
				c-0.223,0-0.461,0.047-0.717,0.141C-119.285-32.886-119.662-32.684-120.16-32.374z"/>
		</g>
	</g>
</g>
<g>
	<path fill="none" stroke="#808080" d="M891.63,719.646v-721"/>
</g>
<g>
	<path fill="none" stroke="#000000" d="M891.63,719.646v-13.5 M891.63-1.354v13.5"/>
	<g transform="translate(1009.9,779.7)">
		<g enable-background="new    ">
			<path d="M-120.957-38.276h6.385v0.338l-3.963,11.834h-0.988l3.566-10.734h-3.281c-0.664,0-1.136,0.079-1.417,0.237
				c-0.493,0.27-0.889,0.686-1.188,1.248l-0.254-0.097L-120.957-38.276z"/>
		</g>
	</g>
</g>
<g>
	<path fill="none" stroke="#808080" d="M942.23,719.646v-721"/>
</g>
<g>
	<path fill="none" stroke="#000000" d="M942.23,719.646v-13.5 M942.23-1.354v13.5"/>
	<g transform="translate(1060.5,779.7)">
		<g enable-background="new    ">
			<path d="M-119.311-32.357c-0.947-0.774-1.557-1.396-1.83-1.865c-0.273-0.47-0.41-0.956-0.41-1.461
				c0-0.774,0.299-1.442,0.897-2.002c0.599-0.561,1.394-0.841,2.384-0.841c0.963,0,1.736,0.262,2.323,0.783
				c0.587,0.522,0.88,1.118,0.88,1.787c0,0.445-0.158,0.9-0.475,1.364s-0.975,1.009-1.977,1.637
				c1.031,0.796,1.715,1.422,2.049,1.879c0.445,0.597,0.668,1.226,0.668,1.888c0,0.836-0.319,1.552-0.958,2.146
				c-0.64,0.594-1.478,0.891-2.515,0.891c-1.131,0-2.014-0.354-2.646-1.063c-0.504-0.567-0.756-1.188-0.756-1.86
				c0-0.526,0.178-1.049,0.531-1.567C-120.79-31.159-120.179-31.731-119.311-32.357z M-118.898-32.023
				c-0.487,0.407-0.849,0.852-1.083,1.332s-0.352,1-0.352,1.56c0,0.751,0.207,1.353,0.621,1.804c0.413,0.451,0.94,0.677,1.58,0.677
				c0.634,0,1.142-0.178,1.523-0.533c0.381-0.354,0.572-0.785,0.572-1.293c0-0.419-0.111-0.794-0.335-1.126
				C-116.788-30.221-117.629-31.027-118.898-32.023z M-117.931-33.298c0.702-0.635,1.146-1.137,1.333-1.504
				c0.188-0.367,0.281-0.783,0.281-1.248c0-0.618-0.173-1.102-0.519-1.451c-0.346-0.351-0.817-0.525-1.414-0.525
				c-0.598,0-1.083,0.174-1.458,0.521s-0.563,0.753-0.563,1.218c0,0.306,0.078,0.611,0.232,0.917
				c0.156,0.306,0.377,0.597,0.664,0.874L-117.931-33.298z"/>
		</g>
	</g>
</g>
<g>
	<path fill="none" stroke="#808080" d="M992.73,719.646v-721"/>
</g>
<g>
	<path fill="none" stroke="#000000" d="M992.73,719.646v-13.5 M992.73-1.354v13.5"/>
	<g transform="translate(1111.0,779.7)">
		<g enable-background="new    ">
			<path d="M-121.833-26.104v-0.328c0.762-0.012,1.472-0.189,2.129-0.532c0.656-0.343,1.291-0.942,1.904-1.798
				c0.612-0.856,1.039-1.797,1.279-2.82c-0.92,0.59-1.752,0.885-2.496,0.885c-0.839,0-1.557-0.324-2.154-0.972
				c-0.598-0.648-0.896-1.509-0.896-2.582c0-1.044,0.299-1.973,0.896-2.788c0.721-0.99,1.661-1.486,2.822-1.486
				c0.979,0,1.816,0.404,2.514,1.214c0.855,1.003,1.283,2.241,1.283,3.713c0,1.325-0.325,2.562-0.977,3.708
				c-0.65,1.146-1.557,2.098-2.717,2.854c-0.943,0.622-1.973,0.933-3.087,0.933H-121.833z M-116.379-32.233
				c0.104-0.762,0.156-1.371,0.156-1.829c0-0.568-0.097-1.183-0.29-1.842s-0.468-1.165-0.822-1.517s-0.757-0.527-1.208-0.527
				c-0.522,0-0.979,0.234-1.372,0.703s-0.589,1.167-0.589,2.093c0,1.236,0.261,2.204,0.783,2.901
				c0.381,0.504,0.85,0.756,1.407,0.756c0.27,0,0.589-0.064,0.958-0.193S-116.661-31.999-116.379-32.233z"/>
		</g>
	</g>
</g>
<g>
	<path fill="none" stroke="#808080" d="M1043.23,719.646v-721"/>
</g>
<g>
	<path fill="none" stroke="#000000" d="M1043.23,719.646v-13.5 M1043.23-1.354v13.5"/>
	<g transform="translate(1161.5,779.7)">
		<g enable-background="new    ">
			<path d="M-125.161-37.12l2.896-1.406h0.291v10.078c0,0.664,0.027,1.078,0.083,1.241s0.171,0.288,0.347,0.376
				c0.176,0.087,0.532,0.137,1.07,0.148v0.328h-4.484v-0.328c0.563-0.012,0.927-0.06,1.091-0.145
				c0.165-0.084,0.279-0.197,0.344-0.341c0.064-0.143,0.097-0.569,0.097-1.28v-6.453c0-0.872-0.029-1.432-0.088-1.68
				c-0.041-0.188-0.115-0.326-0.223-0.414c-0.108-0.088-0.238-0.132-0.391-0.132c-0.216,0-0.517,0.091-0.902,0.272L-125.161-37.12z"
				/>
			<path d="M-117.614-32.251c0-1.359,0.205-2.529,0.615-3.512c0.409-0.98,0.954-1.712,1.633-2.192
				c0.527-0.381,1.072-0.571,1.635-0.571c0.913,0,1.732,0.466,2.459,1.397c0.907,1.154,1.361,2.719,1.361,4.693
				c0,1.383-0.199,2.558-0.598,3.524s-0.906,1.668-1.523,2.105c-0.618,0.436-1.214,0.654-1.787,0.654
				c-1.137,0-2.082-0.671-2.838-2.013C-117.294-29.295-117.614-30.657-117.614-32.251z M-115.895-32.028
				c0,1.642,0.202,2.981,0.607,4.02c0.334,0.874,0.832,1.311,1.494,1.311c0.316,0,0.646-0.143,0.985-0.427s0.599-0.761,0.774-1.429
				c0.27-1.009,0.404-2.432,0.404-4.267c0-1.36-0.141-2.495-0.422-3.403c-0.211-0.675-0.484-1.152-0.818-1.435
				c-0.24-0.193-0.531-0.29-0.871-0.29c-0.398,0-0.753,0.179-1.063,0.537c-0.423,0.486-0.71,1.252-0.862,2.295
				C-115.819-34.072-115.895-33.043-115.895-32.028z"/>
		</g>
	</g>
</g>
<g>
	<path fill="none" stroke="#333333" stroke-width="2" d="M32.73,359.146h1010.5 M538.03,719.646v-721"/>
</g>
<g>
	<path fill="none" stroke="#000000" d="M32.73-1.354v721h1010.5v-721H32.73z"/>
</g>
<g>
	<path fill="none" stroke="#FF0000" stroke-width="4" style="stroke-linejoin:round" d="M 32.707,382.153 C 221.235,390.759 317.924,404.783 376.477,432.187 C 427.872,456.240 457.077,493.962 473.023,563.663 C 485.255,617.127 487.462,680.721 487.462,719.651 M 588.518,-1.320 C 588.518,37.604 590.724,101.188 602.952,154.649 C 618.896,224.355 648.097,262.080 699.483,286.135 C 758.034,313.545 854.725,327.571 1043.273,336.178"/>
</g>
<g>
	<path fill="none" stroke="#000000" d="M32.73-1.354v721h1010.5v-721H32.73z"/>
</g>
</svg>
