<?xml version="1.0" encoding="utf-8"?>
<!-- Generator: Adobe Illustrator 12.0.0, SVG Export Plug-In . SVG Version: 6.00 Build 51448)  -->
<!DOCTYPE svg PUBLIC "-//W3C//DTD SVG 1.1//EN" "http://www.w3.org/Graphics/SVG/1.1/DTD/svg11.dtd" [
	<!ENTITY ns_svg "http://www.w3.org/2000/svg">
	<!ENTITY ns_xlink "http://www.w3.org/1999/xlink">
]>
<svg  version="1.1" id="Layer_1" xmlns="&ns_svg;" xmlns:xlink="&ns_xlink;" width="1043.518" height="755.45"
	 viewBox="0 0 1043.518 755.45" overflow="visible" enable-background="new 0 0 1043.518 755.45" xml:space="preserve">
<g>
	<path fill="none" stroke="#808080" d="M24.659,721.5h1010.5"/>
</g>
<g>
	<path fill="none" stroke="#000000" d="M24.659,721.5h13.5 M1035.159,721.5h-13.5"/>
</g>
<g>
	<path fill="none" stroke="#808080" d="M24.659,661.4h1010.5"/>
</g>
<g>
	<path fill="none" stroke="#000000" d="M24.659,661.4h13.5 M1035.159,661.4h-13.5"/>
</g>
<g>
	<path fill="none" stroke="#808080" d="M24.659,601.3h1010.5"/>
</g>
<g>
	<path fill="none" stroke="#000000" d="M24.659,601.3h13.5 M1035.159,601.3h-13.5"/>
</g>
<g>
	<path fill="none" stroke="#808080" d="M24.659,541.2h1010.5"/>
</g>
<g>
	<path fill="none" stroke="#000000" d="M24.659,541.2h13.5 M1035.159,541.2h-13.5"/>
</g>
<g>
	<path fill="none" stroke="#808080" d="M24.659,481.2h1010.5"/>
</g>
<g>
	<path fill="none" stroke="#000000" d="M24.659,481.2h13.5 M1035.159,481.2h-13.5"/>
</g>
<g>
	<path fill="none" stroke="#808080" d="M24.659,421.1h1010.5"/>
</g>
<g>
	<path fill="none" stroke="#000000" d="M24.659,421.1h13.5 M1035.159,421.1h-13.5"/>
</g>
<g>
	<path fill="none" stroke="#808080" d="M24.659,361h1010.5"/>
</g>
<g>
	<path fill="none" stroke="#000000" d="M24.659,361h13.5 M1035.159,361h-13.5"/>
</g>
<g>
	<path fill="none" stroke="#808080" d="M24.659,300.9h1010.5"/>
</g>
<g>
	<path fill="none" stroke="#000000" d="M24.659,300.9h13.5 M1035.159,300.9h-13.5"/>
</g>
<g>
	<path fill="none" stroke="#808080" d="M24.659,240.8h1010.5"/>
</g>
<g>
	<path fill="none" stroke="#000000" d="M24.659,240.8h13.5 M1035.159,240.8h-13.5"/>
</g>
<g>
	<path fill="none" stroke="#808080" d="M24.659,180.7h1010.5"/>
</g>
<g>
	<path fill="none" stroke="#000000" d="M24.659,180.7h13.5 M1035.159,180.7h-13.5"/>
</g>
<g>
	<path fill="none" stroke="#808080" d="M24.659,120.7h1010.5"/>
</g>
<g>
	<path fill="none" stroke="#000000" d="M24.659,120.7h13.5 M1035.159,120.7h-13.5"/>
</g>
<g>
	<path fill="none" stroke="#808080" d="M24.659,60.6h1010.5"/>
</g>
<g>
	<path fill="none" stroke="#000000" d="M24.659,60.6h13.5 M1035.159,60.6h-13.5"/>
</g>
<g>
	<path fill="none" stroke="#808080" d="M24.659,0.5h1010.5"/>
</g>
<g>
	<path fill="none" stroke="#808080" d="M24.659,721.5V0.5"/>
</g>
<g>
	<path fill="none" stroke="#000000" d="M24.659,721.5V708 M24.659,0.5V14"/>
	<g transform="translate(151.0,779.7)">
		<g enable-background="new    ">
			<path d="M-137.604-29.203h4.547v1.328h-4.547V-29.203z"/>
			<path d="M-130.235-35.265l2.897-1.406h0.291v10.078c0,0.664,0.027,1.078,0.083,1.241s0.171,0.288,0.347,0.376
				c0.175,0.087,0.532,0.137,1.07,0.148v0.328h-4.484v-0.328c0.563-0.012,0.927-0.06,1.091-0.145
				c0.165-0.084,0.279-0.197,0.344-0.341c0.064-0.143,0.097-0.569,0.097-1.28v-6.453c0-0.872-0.029-1.432-0.088-1.68
				c-0.041-0.188-0.115-0.326-0.223-0.414s-0.238-0.132-0.39-0.132c-0.216,0-0.517,0.091-0.902,0.272L-130.235-35.265z"/>
			<path d="M-122.688-30.396c0-1.359,0.205-2.529,0.615-3.512c0.41-0.98,0.955-1.712,1.634-2.192
				c0.527-0.381,1.072-0.571,1.634-0.571c0.914,0,1.733,0.466,2.459,1.397c0.907,1.154,1.361,2.719,1.361,4.693
				c0,1.383-0.199,2.558-0.598,3.524c-0.398,0.967-0.906,1.668-1.523,2.105c-0.618,0.436-1.214,0.654-1.788,0.654
				c-1.136,0-2.082-0.671-2.837-2.013C-122.369-27.44-122.688-28.803-122.688-30.396z M-120.969-30.174
				c0,1.642,0.202,2.981,0.607,4.02c0.334,0.874,0.833,1.311,1.495,1.311c0.316,0,0.645-0.143,0.985-0.427s0.598-0.761,0.774-1.429
				c0.27-1.009,0.404-2.432,0.404-4.267c0-1.36-0.141-2.495-0.422-3.403c-0.211-0.675-0.484-1.152-0.818-1.435
				c-0.24-0.193-0.531-0.29-0.871-0.29c-0.399,0-0.753,0.179-1.064,0.537c-0.423,0.486-0.71,1.252-0.862,2.295
				C-120.893-32.218-120.969-31.188-120.969-30.174z"/>
		</g>
	</g>
</g>
<g>
	<path fill="none" stroke="#808080" d="M75.159,721.5V0.5"/>
</g>
<g>
	<path fill="none" stroke="#000000" d="M75.159,721.5V708 M75.159,0.5V14"/>
	<g transform="translate(201.5,779.7)">
		<g enable-background="new    ">
			<path d="M-133.104-29.203h4.547v1.328h-4.547V-29.203z"/>
			<path d="M-126.907-24.25v-0.328c0.762-0.012,1.472-0.189,2.128-0.532s1.292-0.942,1.904-1.798c0.613-0.856,1.04-1.797,1.28-2.82
				c-0.92,0.59-1.752,0.885-2.497,0.885c-0.838,0-1.556-0.324-2.154-0.972c-0.598-0.648-0.896-1.509-0.896-2.582
				c0-1.044,0.299-1.973,0.896-2.788c0.721-0.99,1.661-1.486,2.822-1.486c0.979,0,1.817,0.404,2.514,1.214
				c0.855,1.003,1.283,2.241,1.283,3.713c0,1.325-0.325,2.562-0.976,3.708s-1.557,2.098-2.717,2.854
				c-0.944,0.622-1.973,0.933-3.087,0.933H-126.907z M-121.454-30.379c0.104-0.762,0.156-1.371,0.156-1.829
				c0-0.568-0.097-1.183-0.29-1.842s-0.468-1.165-0.822-1.517s-0.757-0.527-1.208-0.527c-0.522,0-0.979,0.234-1.372,0.703
				s-0.589,1.167-0.589,2.093c0,1.236,0.261,2.204,0.783,2.901c0.381,0.504,0.85,0.756,1.408,0.756c0.27,0,0.589-0.064,0.958-0.193
				C-122.061-29.963-121.735-30.144-121.454-30.379z"/>
		</g>
	</g>
</g>
<g>
	<path fill="none" stroke="#808080" d="M125.759,721.5V0.5"/>
</g>
<g>
	<path fill="none" stroke="#000000" d="M125.759,721.5V708 M125.759,0.5V14"/>
	<g transform="translate(252.1,779.7)">
		<g enable-background="new    ">
			<path d="M-133.104-29.203h4.547v1.328h-4.547V-29.203z"/>
			<path d="M-124.385-30.503c-0.947-0.774-1.557-1.396-1.83-1.865c-0.273-0.47-0.41-0.956-0.41-1.461
				c0-0.774,0.299-1.442,0.897-2.002c0.598-0.561,1.393-0.841,2.384-0.841c0.962,0,1.736,0.262,2.323,0.783
				c0.586,0.522,0.88,1.118,0.88,1.787c0,0.445-0.158,0.9-0.475,1.364s-0.975,1.009-1.977,1.637
				c1.032,0.796,1.715,1.422,2.049,1.879c0.445,0.597,0.668,1.226,0.668,1.888c0,0.836-0.319,1.552-0.958,2.146
				c-0.639,0.594-1.478,0.891-2.515,0.891c-1.131,0-2.014-0.354-2.646-1.063c-0.504-0.567-0.756-1.188-0.756-1.86
				c0-0.526,0.177-1.049,0.532-1.567C-125.864-29.305-125.253-29.877-124.385-30.503z M-123.972-30.169
				c-0.487,0.407-0.848,0.852-1.083,1.332c-0.234,0.48-0.352,1-0.352,1.56c0,0.751,0.207,1.353,0.621,1.804s0.941,0.677,1.581,0.677
				c0.634,0,1.142-0.178,1.523-0.533c0.381-0.354,0.572-0.785,0.572-1.293c0-0.419-0.111-0.794-0.335-1.126
				C-121.862-28.366-122.704-29.173-123.972-30.169z M-123.005-31.443c0.702-0.635,1.146-1.137,1.333-1.504s0.281-0.783,0.281-1.248
				c0-0.618-0.173-1.102-0.519-1.451c-0.346-0.351-0.817-0.525-1.414-0.525c-0.598,0-1.083,0.174-1.458,0.521
				c-0.375,0.347-0.563,0.753-0.563,1.218c0,0.306,0.078,0.611,0.233,0.917s0.376,0.597,0.664,0.874L-123.005-31.443z"/>
		</g>
	</g>
</g>
<g>
	<path fill="none" stroke="#808080" d="M176.259,721.5V0.5"/>
</g>
<g>
	<path fill="none" stroke="#000000" d="M176.259,721.5V708 M176.259,0.5V14"/>
	<g transform="translate(302.6,779.7)">
		<g enable-background="new    ">
			<path d="M-133.104-29.203h4.547v1.328h-4.547V-29.203z"/>
			<path d="M-126.032-36.422h6.386v0.338l-3.964,11.834h-0.988l3.566-10.734h-3.281c-0.663,0-1.135,0.079-1.417,0.237
				c-0.493,0.27-0.889,0.686-1.188,1.248l-0.255-0.097L-126.032-36.422z"/>
		</g>
	</g>
</g>
<g>
	<path fill="none" stroke="#808080" d="M226.759,721.5V0.5"/>
</g>
<g>
	<path fill="none" stroke="#000000" d="M226.759,721.5V708 M226.759,0.5V14"/>
	<g transform="translate(353.1,779.7)">
		<g enable-background="new    ">
			<path d="M-133.104-29.203h4.547v1.328h-4.547V-29.203z"/>
			<path d="M-119.766-36.672v0.344c-0.774,0.076-1.405,0.229-1.895,0.46c-0.49,0.23-0.974,0.583-1.451,1.056s-0.873,1-1.187,1.581
				c-0.314,0.581-0.576,1.271-0.787,2.071c0.844-0.581,1.69-0.871,2.54-0.871c0.814,0,1.52,0.328,2.118,0.984s0.896,1.5,0.896,2.531
				c0,0.996-0.302,1.904-0.905,2.725c-0.727,0.996-1.688,1.494-2.882,1.494c-0.814,0-1.505-0.27-2.074-0.809
				c-1.113-1.049-1.67-2.408-1.67-4.078c0-1.066,0.214-2.08,0.642-3.041s1.039-1.813,1.833-2.558s1.555-1.245,2.281-1.503
				s1.404-0.387,2.031-0.387H-119.766z M-125.235-30.519c-0.104,0.79-0.156,1.428-0.156,1.913c0,0.563,0.104,1.173,0.312,1.831
				s0.518,1.18,0.928,1.566c0.298,0.274,0.662,0.412,1.089,0.412c0.509,0,0.965-0.24,1.366-0.72s0.602-1.164,0.602-2.054
				c0-1.001-0.199-1.867-0.598-2.598c-0.398-0.732-0.964-1.098-1.697-1.098c-0.223,0-0.461,0.047-0.716,0.141
				S-124.737-30.83-125.235-30.519z"/>
		</g>
	</g>
</g>
<g>
	<path fill="none" stroke="#808080" d="M277.258,721.5V0.5"/>
</g>
<g>
	<path fill="none" stroke="#000000" d="M277.258,721.5V708 M277.258,0.5V14"/>
	<g transform="translate(403.6,779.7)">
		<g enable-background="new    ">
			<path d="M-133.104-29.203h4.547v1.328h-4.547V-29.203z"/>
			<path d="M-120.032-36.422l-0.688,1.5h-3.594l-0.787,1.592c1.563,0.229,2.799,0.806,3.709,1.73
				c0.781,0.797,1.172,1.734,1.172,2.813c0,0.627-0.128,1.207-0.383,1.74s-0.576,0.986-0.963,1.361s-0.818,0.677-1.293,0.905
				c-0.674,0.322-1.366,0.483-2.076,0.483c-0.716,0-1.236-0.121-1.562-0.363c-0.326-0.242-0.488-0.509-0.488-0.801
				c0-0.163,0.067-0.308,0.203-0.433c0.135-0.126,0.306-0.188,0.512-0.188c0.153,0,0.287,0.023,0.401,0.07s0.311,0.166,0.587,0.358
				c0.439,0.304,0.884,0.459,1.335,0.466c0.685,0,1.287-0.26,1.805-0.779c0.519-0.521,0.778-1.153,0.778-1.899
				c0-0.723-0.232-1.397-0.695-2.022c-0.463-0.626-1.103-1.109-1.917-1.45c-0.64-0.264-1.51-0.417-2.612-0.458l2.285-4.625H-120.032
				z"/>
		</g>
	</g>
</g>
<g>
	<path fill="none" stroke="#808080" d="M327.859,721.5V0.5"/>
</g>
<g>
	<path fill="none" stroke="#000000" d="M327.859,721.5V708 M327.859,0.5V14"/>
	<g transform="translate(454.2,779.7)">
		<g enable-background="new    ">
			<path d="M-133.104-29.203h4.547v1.328h-4.547V-29.203z"/>
			<path d="M-119.469-28.906v1.25h-1.594v3.156h-1.453v-3.156h-5.047v-1.127l5.531-7.889h0.969v7.766H-119.469z M-122.516-28.906
				v-5.883l-4.186,5.883H-122.516z"/>
		</g>
	</g>
</g>
<g>
	<path fill="none" stroke="#808080" d="M378.359,721.5V0.5"/>
</g>
<g>
	<path fill="none" stroke="#000000" d="M378.359,721.5V708 M378.359,0.5V14"/>
	<g transform="translate(504.7,779.7)">
		<g enable-background="new    ">
			<path d="M-133.104-29.203h4.547v1.328h-4.547V-29.203z"/>
			<path d="M-126.922-34.156c0.34-0.803,0.769-1.424,1.287-1.86c0.518-0.437,1.164-0.655,1.937-0.655
				c0.955,0,1.687,0.311,2.196,0.932c0.387,0.463,0.58,0.958,0.58,1.485c0,0.867-0.542,1.764-1.625,2.689
				c0.73,0.287,1.283,0.697,1.657,1.23s0.562,1.16,0.562,1.881c0,1.031-0.328,1.925-0.985,2.681
				c-0.856,0.984-2.096,1.477-3.72,1.477c-0.803,0-1.35-0.1-1.64-0.298c-0.291-0.199-0.436-0.412-0.436-0.64
				c0-0.17,0.069-0.319,0.207-0.447c0.138-0.129,0.304-0.193,0.497-0.193c0.146,0,0.296,0.023,0.449,0.07
				c0.1,0.029,0.326,0.135,0.678,0.318s0.596,0.293,0.73,0.328c0.217,0.063,0.449,0.096,0.695,0.096c0.599,0,1.12-0.231,1.563-0.694
				c0.443-0.462,0.665-1.01,0.665-1.643c0-0.463-0.103-0.913-0.309-1.353c-0.153-0.328-0.321-0.577-0.503-0.747
				c-0.254-0.234-0.601-0.446-1.043-0.638c-0.441-0.189-0.892-0.285-1.351-0.285h-0.283v-0.266c0.465-0.059,0.932-0.225,1.4-0.5
				s0.809-0.605,1.021-0.991s0.318-0.81,0.318-1.272c0-0.602-0.189-1.089-0.567-1.461c-0.378-0.371-0.849-0.557-1.411-0.557
				c-0.909,0-1.668,0.484-2.278,1.453L-126.922-34.156z"/>
		</g>
	</g>
</g>
<g>
	<path fill="none" stroke="#808080" d="M428.859,721.5V0.5"/>
</g>
<g>
	<path fill="none" stroke="#000000" d="M428.859,721.5V708 M428.859,0.5V14"/>
	<g transform="translate(555.2,779.7)">
		<g enable-background="new    ">
			<path d="M-133.104-29.203h4.547v1.328h-4.547V-29.203z"/>
			<path d="M-119.594-26.81l-0.836,2.311h-7.039v-0.329c2.077-1.886,3.538-3.426,4.386-4.62c0.847-1.194,1.271-2.287,1.271-3.277
				c0-0.758-0.232-1.382-0.697-1.869c-0.465-0.488-1.021-0.732-1.668-0.732c-0.588,0-1.116,0.17-1.584,0.509
				s-0.813,0.836-1.037,1.491h-0.326c0.146-1.076,0.524-1.903,1.132-2.479s1.368-0.864,2.278-0.864c0.969,0,1.779,0.312,2.428,0.934
				c0.649,0.622,0.974,1.356,0.974,2.201c0,0.605-0.141,1.209-0.423,1.813c-0.435,0.949-1.14,1.954-2.116,3.015
				c-1.464,1.589-2.373,2.544-2.726,2.866h3.095c0.63,0,1.071-0.023,1.325-0.07c0.253-0.047,0.482-0.143,0.687-0.285
				c0.204-0.145,0.382-0.348,0.533-0.611H-119.594z"/>
		</g>
	</g>
</g>
<g>
	<path fill="none" stroke="#808080" d="M479.359,721.5V0.5"/>
</g>
<g>
	<path fill="none" stroke="#000000" d="M479.359,721.5V708 M479.359,0.5V14"/>
	<g transform="translate(605.7,779.7)">
		<g enable-background="new    ">
			<path d="M-133.104-29.203h4.547v1.328h-4.547V-29.203z"/>
			<path d="M-125.735-35.265l2.897-1.406h0.291v10.078c0,0.664,0.027,1.078,0.083,1.241s0.171,0.288,0.347,0.376
				c0.175,0.087,0.532,0.137,1.07,0.148v0.328h-4.484v-0.328c0.563-0.012,0.927-0.06,1.091-0.145
				c0.165-0.084,0.279-0.197,0.344-0.341c0.064-0.143,0.097-0.569,0.097-1.28v-6.453c0-0.872-0.029-1.432-0.088-1.68
				c-0.041-0.188-0.115-0.326-0.223-0.414s-0.238-0.132-0.39-0.132c-0.216,0-0.517,0.091-0.902,0.272L-125.735-35.265z"/>
		</g>
	</g>
</g>
<g>
	<path fill="none" stroke="#808080" d="M529.958,721.5V0.5"/>
</g>
<g>
	<path fill="none" stroke="#000000" d="M529.958,721.5V708 M529.958,0.5V14"/>
	<g transform="translate(656.3,779.7)">
		<g enable-background="new    ">
			<path d="M-130.185-30.396c0-1.359,0.205-2.529,0.615-3.512c0.41-0.98,0.955-1.712,1.634-2.192
				c0.527-0.381,1.072-0.571,1.634-0.571c0.914,0,1.733,0.466,2.459,1.397c0.907,1.154,1.361,2.719,1.361,4.693
				c0,1.383-0.199,2.558-0.598,3.524c-0.398,0.967-0.906,1.668-1.523,2.105c-0.618,0.436-1.214,0.654-1.788,0.654
				c-1.136,0-2.082-0.671-2.837-2.013C-129.866-27.44-130.185-28.803-130.185-30.396z M-128.466-30.174
				c0,1.642,0.202,2.981,0.607,4.02c0.334,0.874,0.833,1.311,1.495,1.311c0.316,0,0.645-0.143,0.985-0.427s0.598-0.761,0.774-1.429
				c0.27-1.009,0.404-2.432,0.404-4.267c0-1.36-0.141-2.495-0.422-3.403c-0.211-0.675-0.484-1.152-0.818-1.435
				c-0.24-0.193-0.531-0.29-0.871-0.29c-0.399,0-0.753,0.179-1.064,0.537c-0.423,0.486-0.71,1.252-0.862,2.295
				C-128.39-32.218-128.466-31.188-128.466-30.174z"/>
		</g>
	</g>
</g>
<g>
	<path fill="none" stroke="#808080" d="M580.458,721.5V0.5"/>
</g>
<g>
	<path fill="none" stroke="#000000" d="M580.458,721.5V708 M580.458,0.5V14"/>
	<g transform="translate(706.8,779.7)">
		<g enable-background="new    ">
			<path d="M-128.732-35.265l2.897-1.406h0.29v10.078c0,0.664,0.027,1.078,0.083,1.241s0.172,0.288,0.347,0.376
				c0.175,0.087,0.532,0.137,1.07,0.148v0.328h-4.484v-0.328c0.563-0.012,0.927-0.06,1.091-0.145
				c0.164-0.084,0.279-0.197,0.344-0.341c0.064-0.143,0.097-0.569,0.097-1.28v-6.453c0-0.872-0.029-1.432-0.088-1.68
				c-0.041-0.188-0.115-0.326-0.224-0.414c-0.107-0.088-0.237-0.132-0.389-0.132c-0.217,0-0.518,0.091-0.902,0.272L-128.732-35.265z
				"/>
		</g>
	</g>
</g>
<g>
	<path fill="none" stroke="#808080" d="M630.958,721.5V0.5"/>
</g>
<g>
	<path fill="none" stroke="#000000" d="M630.958,721.5V708 M630.958,0.5V14"/>
	<g transform="translate(757.3,779.7)">
		<g enable-background="new    ">
			<path d="M-122.591-26.81l-0.836,2.311h-7.039v-0.329c2.077-1.886,3.538-3.426,4.386-4.62c0.847-1.194,1.271-2.287,1.271-3.277
				c0-0.758-0.232-1.382-0.697-1.869c-0.465-0.488-1.021-0.732-1.668-0.732c-0.588,0-1.116,0.17-1.584,0.509
				s-0.813,0.836-1.037,1.491h-0.326c0.146-1.076,0.524-1.903,1.132-2.479c0.608-0.576,1.368-0.864,2.279-0.864
				c0.969,0,1.778,0.312,2.428,0.934c0.648,0.622,0.974,1.356,0.974,2.201c0,0.605-0.142,1.209-0.423,1.813
				c-0.436,0.949-1.141,1.954-2.116,3.015c-1.464,1.589-2.372,2.544-2.726,2.866h3.095c0.63,0,1.071-0.023,1.325-0.07
				s0.482-0.143,0.687-0.285c0.204-0.145,0.382-0.348,0.533-0.611H-122.591z"/>
		</g>
	</g>
</g>
<g>
	<path fill="none" stroke="#808080" d="M681.458,721.5V0.5"/>
</g>
<g>
	<path fill="none" stroke="#000000" d="M681.458,721.5V708 M681.458,0.5V14"/>
	<g transform="translate(807.8,779.7)">
		<g enable-background="new    ">
			<path d="M-129.92-34.156c0.34-0.803,0.769-1.424,1.287-1.86s1.164-0.655,1.937-0.655c0.955,0,1.688,0.311,2.196,0.932
				c0.387,0.463,0.58,0.958,0.58,1.485c0,0.867-0.542,1.764-1.625,2.689c0.73,0.287,1.283,0.697,1.657,1.23s0.562,1.16,0.562,1.881
				c0,1.031-0.328,1.925-0.985,2.681c-0.855,0.984-2.096,1.477-3.721,1.477c-0.803,0-1.35-0.1-1.64-0.298
				c-0.29-0.199-0.436-0.412-0.436-0.64c0-0.17,0.069-0.319,0.207-0.447c0.138-0.129,0.304-0.193,0.497-0.193
				c0.146,0,0.297,0.023,0.449,0.07c0.1,0.029,0.326,0.135,0.678,0.318s0.596,0.293,0.73,0.328c0.217,0.063,0.449,0.096,0.695,0.096
				c0.599,0,1.119-0.231,1.563-0.694c0.443-0.462,0.665-1.01,0.665-1.643c0-0.463-0.103-0.913-0.31-1.353
				c-0.152-0.328-0.32-0.577-0.503-0.747c-0.254-0.234-0.601-0.446-1.043-0.638c-0.441-0.189-0.892-0.285-1.351-0.285h-0.283v-0.266
				c0.465-0.059,0.932-0.225,1.4-0.5s0.809-0.605,1.021-0.991s0.318-0.81,0.318-1.272c0-0.602-0.189-1.089-0.567-1.461
				c-0.378-0.371-0.849-0.557-1.411-0.557c-0.909,0-1.669,0.484-2.278,1.453L-129.92-34.156z"/>
		</g>
	</g>
</g>
<g>
	<path fill="none" stroke="#808080" d="M732.059,721.5V0.5"/>
</g>
<g>
	<path fill="none" stroke="#000000" d="M732.059,721.5V708 M732.059,0.5V14"/>
	<g transform="translate(858.4,779.7)">
		<g enable-background="new    ">
			<path d="M-122.466-28.906v1.25h-1.594v3.156h-1.453v-3.156h-5.047v-1.127l5.531-7.889h0.969v7.766H-122.466z M-125.513-28.906
				v-5.883l-4.186,5.883H-125.513z"/>
		</g>
	</g>
</g>
<g>
	<path fill="none" stroke="#808080" d="M782.559,721.5V0.5"/>
</g>
<g>
	<path fill="none" stroke="#000000" d="M782.559,721.5V708 M782.559,0.5V14"/>
	<g transform="translate(908.9,779.7)">
		<g enable-background="new    ">
			<path d="M-123.028-36.422l-0.688,1.5h-3.595l-0.786,1.592c1.563,0.229,2.799,0.806,3.709,1.73
				c0.781,0.797,1.172,1.734,1.172,2.813c0,0.627-0.129,1.207-0.383,1.74c-0.256,0.533-0.576,0.986-0.964,1.361
				s-0.817,0.677-1.294,0.905c-0.674,0.322-1.365,0.483-2.076,0.483c-0.715,0-1.236-0.121-1.561-0.363
				c-0.326-0.242-0.488-0.509-0.488-0.801c0-0.163,0.066-0.308,0.203-0.433c0.135-0.126,0.305-0.188,0.512-0.188
				c0.152,0,0.286,0.023,0.4,0.07c0.115,0.047,0.311,0.166,0.588,0.358c0.439,0.304,0.884,0.459,1.335,0.466
				c0.685,0,1.286-0.26,1.806-0.779c0.518-0.521,0.777-1.153,0.777-1.899c0-0.723-0.232-1.397-0.695-2.022
				c-0.463-0.626-1.102-1.109-1.916-1.45c-0.641-0.264-1.511-0.417-2.613-0.458l2.285-4.625H-123.028z"/>
		</g>
	</g>
</g>
<g>
	<path fill="none" stroke="#808080" d="M833.059,721.5V0.5"/>
</g>
<g>
	<path fill="none" stroke="#000000" d="M833.059,721.5V708 M833.059,0.5V14"/>
	<g transform="translate(959.4,779.7)">
		<g enable-background="new    ">
			<path d="M-122.763-36.672v0.344c-0.774,0.076-1.406,0.229-1.895,0.46c-0.49,0.23-0.975,0.583-1.451,1.056
				c-0.479,0.473-0.873,1-1.188,1.581c-0.313,0.581-0.576,1.271-0.787,2.071c0.844-0.581,1.69-0.871,2.54-0.871
				c0.813,0,1.521,0.328,2.118,0.984s0.896,1.5,0.896,2.531c0,0.996-0.303,1.904-0.906,2.725c-0.727,0.996-1.688,1.494-2.882,1.494
				c-0.814,0-1.505-0.27-2.073-0.809c-1.113-1.049-1.67-2.408-1.67-4.078c0-1.066,0.213-2.08,0.641-3.041s1.039-1.813,1.834-2.558
				c0.793-0.744,1.555-1.245,2.281-1.503s1.403-0.387,2.031-0.387H-122.763z M-128.232-30.519c-0.105,0.79-0.156,1.428-0.156,1.913
				c0,0.563,0.104,1.173,0.311,1.831c0.209,0.658,0.518,1.18,0.928,1.566c0.299,0.274,0.662,0.412,1.09,0.412
				c0.51,0,0.965-0.24,1.366-0.72s0.603-1.164,0.603-2.054c0-1.001-0.199-1.867-0.598-2.598c-0.398-0.732-0.965-1.098-1.697-1.098
				c-0.223,0-0.461,0.047-0.717,0.141C-127.357-31.031-127.734-30.83-128.232-30.519z"/>
		</g>
	</g>
</g>
<g>
	<path fill="none" stroke="#808080" d="M883.559,721.5V0.5"/>
</g>
<g>
	<path fill="none" stroke="#000000" d="M883.559,721.5V708 M883.559,0.5V14"/>
	<g transform="translate(1009.9,779.7)">
		<g enable-background="new    ">
			<path d="M-129.028-36.422h6.385v0.338l-3.963,11.834h-0.988l3.566-10.734h-3.281c-0.664,0-1.136,0.079-1.417,0.237
				c-0.493,0.27-0.889,0.686-1.188,1.248l-0.254-0.097L-129.028-36.422z"/>
		</g>
	</g>
</g>
<g>
	<path fill="none" stroke="#808080" d="M934.159,721.5V0.5"/>
</g>
<g>
	<path fill="none" stroke="#000000" d="M934.159,721.5V708 M934.159,0.5V14"/>
	<g transform="translate(1060.5,779.7)">
		<g enable-background="new    ">
			<path d="M-127.382-30.503c-0.947-0.774-1.557-1.396-1.83-1.865c-0.273-0.47-0.41-0.956-0.41-1.461
				c0-0.774,0.299-1.442,0.897-2.002c0.599-0.561,1.394-0.841,2.384-0.841c0.963,0,1.736,0.262,2.323,0.783
				c0.587,0.522,0.88,1.118,0.88,1.787c0,0.445-0.158,0.9-0.475,1.364s-0.975,1.009-1.977,1.637
				c1.031,0.796,1.715,1.422,2.049,1.879c0.445,0.597,0.668,1.226,0.668,1.888c0,0.836-0.319,1.552-0.958,2.146
				c-0.64,0.594-1.478,0.891-2.515,0.891c-1.131,0-2.014-0.354-2.646-1.063c-0.504-0.567-0.756-1.188-0.756-1.86
				c0-0.526,0.178-1.049,0.531-1.567C-128.861-29.305-128.25-29.877-127.382-30.503z M-126.969-30.169
				c-0.487,0.407-0.849,0.852-1.083,1.332s-0.352,1-0.352,1.56c0,0.751,0.207,1.353,0.621,1.804c0.413,0.451,0.94,0.677,1.58,0.677
				c0.634,0,1.142-0.178,1.523-0.533c0.381-0.354,0.572-0.785,0.572-1.293c0-0.419-0.111-0.794-0.335-1.126
				C-124.859-28.366-125.701-29.173-126.969-30.169z M-126.002-31.443c0.702-0.635,1.146-1.137,1.333-1.504
				c0.188-0.367,0.281-0.783,0.281-1.248c0-0.618-0.173-1.102-0.519-1.451c-0.346-0.351-0.817-0.525-1.414-0.525
				c-0.598,0-1.083,0.174-1.458,0.521s-0.563,0.753-0.563,1.218c0,0.306,0.078,0.611,0.232,0.917
				c0.156,0.306,0.377,0.597,0.664,0.874L-126.002-31.443z"/>
		</g>
	</g>
</g>
<g>
	<path fill="none" stroke="#808080" d="M984.659,721.5V0.5"/>
</g>
<g>
	<path fill="none" stroke="#000000" d="M984.659,721.5V708 M984.659,0.5V14"/>
	<g transform="translate(1111.0,779.7)">
		<g enable-background="new    ">
			<path d="M-129.904-24.25v-0.328c0.762-0.012,1.472-0.189,2.129-0.532c0.656-0.343,1.291-0.942,1.904-1.798
				c0.612-0.856,1.039-1.797,1.279-2.82c-0.92,0.59-1.752,0.885-2.496,0.885c-0.839,0-1.557-0.324-2.154-0.972
				c-0.598-0.648-0.896-1.509-0.896-2.582c0-1.044,0.299-1.973,0.896-2.788c0.721-0.99,1.661-1.486,2.822-1.486
				c0.979,0,1.816,0.404,2.514,1.214c0.855,1.003,1.283,2.241,1.283,3.713c0,1.325-0.325,2.562-0.977,3.708
				c-0.65,1.146-1.557,2.098-2.717,2.854c-0.943,0.622-1.973,0.933-3.087,0.933H-129.904z M-124.451-30.379
				c0.104-0.762,0.156-1.371,0.156-1.829c0-0.568-0.097-1.183-0.29-1.842s-0.468-1.165-0.822-1.517s-0.757-0.527-1.208-0.527
				c-0.522,0-0.979,0.234-1.372,0.703s-0.589,1.167-0.589,2.093c0,1.236,0.261,2.204,0.783,2.901
				c0.381,0.504,0.85,0.756,1.407,0.756c0.27,0,0.589-0.064,0.958-0.193S-124.732-30.144-124.451-30.379z"/>
		</g>
	</g>
</g>
<g>
	<path fill="none" stroke="#808080" d="M1035.159,721.5V0.5"/>
</g>
<g>
	<path fill="none" stroke="#000000" d="M1035.159,721.5V708 M1035.159,0.5V14"/>
	<g transform="translate(1161.5,779.7)">
		<g enable-background="new    ">
			<path d="M-133.232-35.265l2.896-1.406h0.291v10.078c0,0.664,0.027,1.078,0.083,1.241s0.171,0.288,0.347,0.376
				c0.176,0.087,0.532,0.137,1.07,0.148v0.328h-4.484v-0.328c0.563-0.012,0.927-0.06,1.091-0.145
				c0.165-0.084,0.279-0.197,0.344-0.341c0.064-0.143,0.097-0.569,0.097-1.28v-6.453c0-0.872-0.029-1.432-0.088-1.68
				c-0.041-0.188-0.115-0.326-0.223-0.414c-0.108-0.088-0.238-0.132-0.391-0.132c-0.216,0-0.517,0.091-0.902,0.272L-133.232-35.265z
				"/>
			<path d="M-125.685-30.396c0-1.359,0.205-2.529,0.615-3.512c0.409-0.98,0.954-1.712,1.633-2.192
				c0.527-0.381,1.072-0.571,1.635-0.571c0.913,0,1.732,0.466,2.459,1.397c0.907,1.154,1.361,2.719,1.361,4.693
				c0,1.383-0.199,2.558-0.598,3.524s-0.906,1.668-1.523,2.105c-0.618,0.436-1.214,0.654-1.787,0.654
				c-1.137,0-2.082-0.671-2.838-2.013C-125.366-27.44-125.685-28.803-125.685-30.396z M-123.966-30.174
				c0,1.642,0.202,2.981,0.607,4.02c0.334,0.874,0.832,1.311,1.494,1.311c0.316,0,0.646-0.143,0.985-0.427s0.599-0.761,0.774-1.429
				c0.27-1.009,0.404-2.432,0.404-4.267c0-1.36-0.141-2.495-0.422-3.403c-0.211-0.675-0.484-1.152-0.818-1.435
				c-0.24-0.193-0.531-0.29-0.871-0.29c-0.398,0-0.753,0.179-1.063,0.537c-0.423,0.486-0.71,1.252-0.862,2.295
				C-123.89-32.218-123.966-31.188-123.966-30.174z"/>
		</g>
	</g>
</g>
<g>
	<path fill="none" stroke="#333333" stroke-width="2" d="M24.659,721.5h1010.5 M529.958,721.5V0.5"/>
</g>
<g>
	<path fill="none" stroke="#000000" d="M24.659,0.5v721h1010.5V0.5H24.659z"/>
</g>
<g>
	<path fill="none" stroke="#FF0000" stroke-width="4" style="stroke-linejoin:round" d="M 24.635,337.992 C 213.164,329.387 309.853,315.362 368.406,287.959 C 419.801,263.905 449.005,226.183 464.952,156.482 C 477.184,103.018 479.390,39.424 479.390,0.495 M 580.447,721.465 C 580.447,682.536 582.653,618.943 594.885,565.479 C 610.832,495.775 640.037,458.053 691.436,433.999 C 749.989,406.597 846.677,392.573 1035.202,383.968"/>
</g>
<g>
	<path fill="none" stroke="#000000" d="M24.659,0.5v721h1010.5V0.5H24.659z"/>
</g>
<g id="Layer_2">
	<g>
		<path d="M19.909,349.613v1.281h-2.037l-0.177,2.682c-0.034,0.465-0.053,0.869-0.053,1.209c0,0.818,0.096,1.316,0.287,1.496
			c0.19,0.18,0.422,0.269,0.691,0.269c0.563,0,0.898-0.354,1.005-1.063h0.313c-0.193,1.625-0.847,2.438-1.955,2.438
			c-0.518,0-0.933-0.156-1.246-0.476c-0.313-0.317-0.471-0.787-0.471-1.41c0-0.409,0.063-1.28,0.186-2.604l0.236-2.539h-1.858
			c-0.123,2.139-0.271,3.699-0.442,4.688c-0.173,0.988-0.361,1.625-0.568,1.912c-0.209,0.289-0.488,0.433-0.846,0.433
			c-0.27,0-0.496-0.078-0.68-0.236s-0.276-0.367-0.276-0.625c0-0.246,0.157-0.584,0.471-1.016c0.459-0.623,0.802-1.271,1.029-1.941
			c0.227-0.671,0.397-1.742,0.516-3.211h-0.598c-0.479,0-0.848,0.105-1.103,0.318c-0.254,0.213-0.496,0.52-0.724,0.916h-0.313
			c0.17-0.625,0.39-1.14,0.659-1.543c0.269-0.4,0.546-0.666,0.83-0.789c0.283-0.123,0.789-0.185,1.515-0.185h5.606L19.909,349.613
			L19.909,349.613z"/>
		<path d="M19.424,376.965l-0.836,2.311h-7.039v-0.328c2.077-1.885,3.538-3.426,4.387-4.621c0.848-1.191,1.271-2.287,1.271-3.275
			c0-0.76-0.23-1.383-0.697-1.869c-0.465-0.486-1.021-0.73-1.668-0.73c-0.588,0-1.115,0.17-1.584,0.51
			c-0.468,0.338-0.813,0.836-1.036,1.49h-0.327c0.146-1.076,0.524-1.902,1.13-2.479c0.608-0.574,1.369-0.863,2.279-0.863
			c0.969,0,1.778,0.313,2.428,0.934c0.648,0.623,0.975,1.357,0.975,2.201c0,0.604-0.143,1.209-0.423,1.813
			c-0.437,0.949-1.142,1.955-2.116,3.018c-1.464,1.588-2.373,2.543-2.727,2.865h3.096c0.63,0,1.07-0.023,1.324-0.07
			c0.252-0.047,0.481-0.145,0.688-0.285c0.204-0.145,0.383-0.348,0.533-0.609h0.343L19.424,376.965L19.424,376.965z"/>
	</g>
	<line fill="none" x1="1.174" y1="364.848" x2="8.582" y2="364.848"/>
	<line fill="none" stroke="#000000" stroke-width="2" x1="10.174" y1="362.848" x2="17.582" y2="362.848"/>
	<g>
		<path d="M13.703,404l-0.688,1.5H9.421l-0.787,1.592c1.563,0.229,2.799,0.807,3.709,1.73c0.781,0.797,1.173,1.734,1.173,2.813
			c0,0.627-0.129,1.207-0.384,1.74s-0.575,0.986-0.963,1.361c-0.387,0.375-0.818,0.678-1.293,0.906
			c-0.674,0.316-1.366,0.479-2.076,0.479c-0.716,0-1.236-0.121-1.562-0.361c-0.326-0.24-0.488-0.51-0.488-0.801
			c0-0.164,0.067-0.309,0.203-0.434c0.135-0.125,0.306-0.189,0.512-0.189c0.153,0,0.287,0.023,0.401,0.07
			c0.114,0.047,0.311,0.166,0.587,0.359c0.439,0.303,0.884,0.459,1.335,0.465c0.685,0,1.287-0.26,1.805-0.779
			c0.518-0.518,0.778-1.152,0.778-1.898c0-0.723-0.232-1.395-0.695-2.02c-0.463-0.625-1.103-1.109-1.917-1.449
			c-0.64-0.266-1.51-0.418-2.612-0.459L9.432,404H13.703L13.703,404z"/>
		<path d="M23.625,407.859v1.281h-2.037l-0.176,2.684c-0.035,0.465-0.053,0.867-0.053,1.207c0,0.818,0.096,1.316,0.287,1.496
			c0.189,0.18,0.422,0.27,0.69,0.27c0.563,0,0.897-0.354,1.005-1.063h0.313c-0.193,1.625-0.846,2.438-1.954,2.438
			c-0.519,0-0.933-0.156-1.246-0.477c-0.313-0.316-0.472-0.787-0.472-1.408c0-0.412,0.063-1.281,0.186-2.609l0.236-2.535h-1.858
			c-0.123,2.139-0.271,3.699-0.44,4.688c-0.174,0.988-0.362,1.625-0.569,1.912c-0.208,0.289-0.489,0.434-0.847,0.434
			c-0.27,0-0.494-0.078-0.678-0.236c-0.186-0.158-0.277-0.367-0.277-0.625c0-0.246,0.158-0.584,0.472-1.014
			c0.459-0.623,0.802-1.271,1.03-1.943c0.227-0.672,0.396-1.742,0.515-3.211h-0.597c-0.479,0-0.848,0.104-1.104,0.318
			c-0.254,0.213-0.494,0.52-0.724,0.912h-0.313c0.17-0.625,0.389-1.139,0.658-1.539c0.27-0.404,0.547-0.666,0.83-0.789
			c0.284-0.123,0.789-0.188,1.516-0.188h5.605v-0.002H23.625z"/>
		<path d="M8,426.756l2.897-1.404h0.291v10.076c0,0.664,0.027,1.078,0.083,1.24s0.171,0.287,0.347,0.375
			c0.175,0.09,0.532,0.141,1.069,0.148v0.328H8.203v-0.328c0.563-0.012,0.927-0.063,1.091-0.145
			c0.165-0.084,0.279-0.195,0.344-0.344c0.065-0.143,0.097-0.566,0.097-1.277v-6.451c0-0.871-0.029-1.436-0.088-1.684
			c-0.041-0.188-0.115-0.324-0.223-0.412c-0.108-0.09-0.238-0.135-0.39-0.135c-0.216,0-0.517,0.094-0.902,0.273L8,426.756z"/>
		<path d="M23.141,435.211l-0.836,2.313h-7.039v-0.33c2.077-1.885,3.539-3.426,4.387-4.619s1.271-2.287,1.271-3.275
			c0-0.762-0.23-1.385-0.695-1.871c-0.465-0.484-1.021-0.73-1.668-0.73c-0.588,0-1.117,0.17-1.584,0.51
			c-0.47,0.34-0.813,0.836-1.037,1.49h-0.326c0.146-1.076,0.523-1.9,1.132-2.479c0.608-0.574,1.368-0.861,2.278-0.861
			c0.969,0,1.777,0.311,2.428,0.934c0.648,0.621,0.974,1.355,0.974,2.201c0,0.604-0.141,1.209-0.423,1.813
			c-0.436,0.949-1.141,1.953-2.115,3.016c-1.465,1.588-2.373,2.543-2.727,2.865h3.095c0.63,0,1.071-0.023,1.325-0.07
			c0.253-0.047,0.482-0.143,0.688-0.285c0.203-0.145,0.381-0.348,0.532-0.609h0.343v-0.01H23.141z"/>
	</g>
	<g>
		<path d="M19.811,467.365v1.281h-2.037l-0.176,2.684c-0.035,0.465-0.054,0.867-0.054,1.209c0,0.818,0.097,1.316,0.287,1.496
			s0.422,0.268,0.692,0.268c0.563,0,0.897-0.354,1.004-1.063h0.313c-0.193,1.625-0.846,2.438-1.953,2.438
			c-0.519,0-0.934-0.156-1.246-0.475c-0.313-0.318-0.473-0.787-0.473-1.41c0-0.41,0.063-1.281,0.186-2.605l0.236-2.537h-1.857
			c-0.123,2.137-0.271,3.699-0.442,4.689c-0.173,0.984-0.362,1.623-0.569,1.91s-0.488,0.434-0.846,0.434
			c-0.27,0-0.495-0.078-0.68-0.236c-0.183-0.16-0.275-0.367-0.275-0.627c0-0.246,0.157-0.584,0.471-1.014
			c0.458-0.621,0.802-1.271,1.03-1.941c0.228-0.672,0.397-1.744,0.515-3.213h-0.597c-0.479,0-0.847,0.105-1.103,0.318
			c-0.253,0.215-0.495,0.52-0.723,0.916H11.2c0.17-0.627,0.39-1.143,0.659-1.543c0.269-0.402,0.545-0.666,0.831-0.789
			c0.283-0.123,0.789-0.186,1.516-0.186h5.605V467.365z"/>
		<path d="M11.998,487.373c0.34-0.805,0.77-1.424,1.287-1.861c0.518-0.436,1.164-0.654,1.938-0.654c0.954,0,1.688,0.313,2.195,0.932
			c0.387,0.465,0.58,0.957,0.58,1.484c0,0.867-0.542,1.764-1.625,2.689c0.73,0.287,1.283,0.697,1.656,1.23
			c0.375,0.533,0.563,1.16,0.563,1.881c0,1.031-0.328,1.926-0.984,2.682c-0.855,0.984-2.096,1.477-3.721,1.477
			c-0.803,0-1.35-0.1-1.64-0.299c-0.291-0.199-0.436-0.412-0.436-0.641c0-0.168,0.069-0.318,0.207-0.445
			c0.138-0.129,0.304-0.193,0.498-0.193c0.146,0,0.294,0.023,0.448,0.07c0.101,0.027,0.326,0.135,0.679,0.318
			s0.596,0.293,0.729,0.326c0.217,0.064,0.448,0.098,0.694,0.098c0.6,0,1.121-0.232,1.563-0.695c0.443-0.461,0.665-1.01,0.665-1.643
			c0-0.463-0.104-0.914-0.31-1.354c-0.152-0.328-0.32-0.576-0.504-0.746c-0.254-0.234-0.601-0.447-1.043-0.637
			c-0.439-0.191-0.892-0.285-1.351-0.285h-0.282v-0.27c0.465-0.061,0.932-0.227,1.399-0.5c0.468-0.271,0.81-0.605,1.021-0.988
			c0.213-0.387,0.318-0.814,0.318-1.271c0-0.604-0.189-1.09-0.566-1.461c-0.379-0.371-0.85-0.557-1.412-0.557
			c-0.907,0-1.668,0.479-2.276,1.449L11.998,487.373z"/>
	</g>
	<line fill="none" stroke="#000000" stroke-width="2" x1="12.076" y1="480.602" x2="19.482" y2="480.602"/>
	<g>
		<path d="M20.341,526.859v1.281h-2.036l-0.177,2.684c-0.035,0.465-0.053,0.867-0.053,1.207c0,0.818,0.096,1.316,0.286,1.496
			s0.423,0.27,0.693,0.27c0.563,0,0.897-0.354,1.004-1.063h0.313c-0.194,1.625-0.848,2.438-1.955,2.438
			c-0.518,0-0.934-0.158-1.246-0.477c-0.313-0.316-0.471-0.787-0.471-1.408c0-0.412,0.063-1.281,0.185-2.609l0.237-2.535h-1.857
			c-0.123,2.139-0.271,3.699-0.443,4.688c-0.172,0.99-0.361,1.625-0.568,1.912c-0.208,0.289-0.488,0.434-0.846,0.434
			c-0.27,0-0.495-0.078-0.68-0.236s-0.275-0.367-0.275-0.625c0-0.246,0.156-0.584,0.471-1.014c0.459-0.623,0.803-1.271,1.03-1.943
			s0.397-1.742,0.515-3.211H13.87c-0.479,0-0.847,0.104-1.103,0.318c-0.254,0.213-0.497,0.52-0.725,0.914H11.73
			c0.17-0.625,0.39-1.141,0.66-1.541c0.269-0.402,0.545-0.666,0.831-0.789c0.282-0.123,0.787-0.188,1.514-0.188h5.605
			L20.341,526.859L20.341,526.859z"/>
		<path d="M19.98,552.115v1.25h-1.594v3.156h-1.453v-3.156h-5.046v-1.127l5.531-7.889h0.969v7.766H19.98z M16.936,552.115v-5.881
			l-4.187,5.881H16.936z"/>
	</g>
	<line fill="none" stroke="#000000" stroke-width="2" x1="12.605" y1="540.096" x2="20.014" y2="540.096"/>
	<g>
		<path d="M20.316,588.008v1.279h-2.037l-0.176,2.684c-0.035,0.467-0.055,0.869-0.055,1.209c0,0.816,0.098,1.314,0.287,1.496
			c0.189,0.18,0.422,0.27,0.691,0.27c0.563,0,0.898-0.354,1.006-1.063h0.313c-0.195,1.625-0.847,2.438-1.955,2.438
			c-0.518,0-0.933-0.158-1.246-0.477c-0.313-0.316-0.472-0.787-0.472-1.408c0-0.412,0.062-1.281,0.185-2.609l0.238-2.537h-1.859
			c-0.123,2.139-0.271,3.701-0.441,4.689c-0.173,0.984-0.361,1.625-0.568,1.91c-0.207,0.287-0.488,0.434-0.847,0.434
			c-0.271,0-0.493-0.08-0.679-0.238c-0.185-0.158-0.276-0.367-0.276-0.625c0-0.246,0.157-0.584,0.472-1.014
			c0.459-0.623,0.803-1.271,1.029-1.943s0.398-1.742,0.516-3.211h-0.596c-0.479,0-0.849,0.107-1.104,0.32
			c-0.255,0.213-0.496,0.518-0.724,0.914h-0.313c0.17-0.625,0.39-1.141,0.659-1.543c0.269-0.402,0.546-0.666,0.83-0.789
			s0.789-0.186,1.516-0.186H20.316L20.316,588.008z"/>
		<path d="M19.66,605.498v0.344c-0.773,0.076-1.405,0.23-1.895,0.461c-0.49,0.23-0.976,0.582-1.451,1.055
			c-0.479,0.473-0.873,1-1.188,1.582c-0.313,0.58-0.576,1.271-0.787,2.07c0.845-0.58,1.688-0.871,2.54-0.871
			c0.813,0,1.521,0.328,2.118,0.984s0.896,1.5,0.896,2.531c0,0.996-0.303,1.904-0.906,2.725c-0.727,0.996-1.688,1.494-2.881,1.494
			c-0.813,0-1.506-0.27-2.073-0.809c-1.113-1.053-1.67-2.408-1.67-4.078c0-1.066,0.214-2.08,0.642-3.041
			c0.43-0.961,1.039-1.814,1.833-2.561c0.794-0.74,1.556-1.244,2.281-1.504c0.728-0.26,1.403-0.389,2.03-0.389h0.511L19.66,605.498
			L19.66,605.498z M14.191,611.65c-0.104,0.791-0.156,1.428-0.156,1.914c0,0.563,0.104,1.172,0.313,1.83
			c0.207,0.656,0.519,1.18,0.928,1.563c0.299,0.275,0.662,0.412,1.088,0.412c0.511,0,0.967-0.236,1.367-0.719
			c0.4-0.48,0.603-1.164,0.603-2.055c0-1-0.199-1.865-0.599-2.6c-0.398-0.732-0.965-1.098-1.696-1.098
			c-0.224,0-0.461,0.047-0.718,0.141C15.066,611.137,14.689,611.34,14.191,611.65z"/>
	</g>
	<line fill="none" stroke="#000000" stroke-width="2" x1="12.582" y1="601.242" x2="19.988" y2="601.242"/>
	<g>
		<path d="M19.076,650.082v1.281h-2.037l-0.176,2.682c-0.035,0.465-0.053,0.869-0.053,1.209c0,0.818,0.096,1.316,0.287,1.496
			c0.189,0.18,0.422,0.27,0.69,0.27c0.563,0,0.897-0.354,1.005-1.063h0.313c-0.193,1.625-0.846,2.438-1.955,2.438
			c-0.518,0-0.932-0.158-1.246-0.477c-0.313-0.316-0.471-0.787-0.471-1.408c0-0.412,0.063-1.281,0.186-2.609l0.236-2.537h-1.858
			c-0.123,2.139-0.271,3.701-0.44,4.689c-0.175,0.984-0.363,1.625-0.57,1.912c-0.207,0.285-0.488,0.436-0.845,0.436
			c-0.269,0-0.495-0.08-0.679-0.238s-0.276-0.367-0.276-0.625c0-0.246,0.157-0.584,0.471-1.014c0.459-0.623,0.802-1.271,1.03-1.943
			c0.227-0.672,0.396-1.742,0.515-3.211h-0.597c-0.479,0-0.848,0.107-1.103,0.32c-0.254,0.213-0.496,0.518-0.724,0.914h-0.313
			c0.17-0.625,0.39-1.145,0.659-1.543c0.269-0.402,0.546-0.666,0.83-0.789c0.283-0.123,0.789-0.189,1.517-0.189H19.076
			L19.076,650.082z"/>
		<path d="M7.951,668.979l2.897-1.406h0.291v10.078c0,0.664,0.027,1.078,0.083,1.242c0.056,0.16,0.171,0.285,0.347,0.375
			c0.176,0.088,0.532,0.137,1.07,0.145v0.328H8.154v-0.328c0.563-0.012,0.927-0.059,1.091-0.145
			c0.165-0.084,0.279-0.197,0.344-0.342c0.065-0.143,0.097-0.568,0.097-1.279v-6.453c0-0.871-0.029-1.434-0.088-1.678
			c-0.041-0.189-0.115-0.328-0.223-0.416c-0.108-0.09-0.238-0.133-0.39-0.133c-0.216,0-0.517,0.092-0.902,0.271L7.951,668.979z"/>
		<path d="M23.091,677.434l-0.836,2.311h-7.039v-0.328c2.077-1.887,3.538-3.426,4.386-4.621c0.849-1.191,1.271-2.287,1.271-3.275
			c0-0.76-0.232-1.381-0.697-1.869s-1.021-0.732-1.668-0.732c-0.588,0-1.115,0.172-1.584,0.512c-0.468,0.34-0.813,0.836-1.037,1.488
			h-0.326c0.146-1.074,0.523-1.898,1.131-2.479c0.608-0.576,1.369-0.865,2.279-0.865c0.969,0,1.778,0.314,2.428,0.936
			c0.648,0.623,0.975,1.355,0.975,2.199c0,0.605-0.143,1.209-0.423,1.814c-0.437,0.947-1.142,1.955-2.116,3.016
			c-1.464,1.59-2.373,2.543-2.727,2.865h3.096c0.63,0,1.07-0.021,1.324-0.07c0.252-0.047,0.481-0.143,0.688-0.283
			c0.206-0.143,0.383-0.35,0.533-0.611h0.344L23.091,677.434L23.091,677.434z"/>
	</g>
	<line fill="none" stroke="#000000" stroke-width="2" x1="20.396" y1="661.736" x2="6.816" y2="661.736"/>
	<line fill="none" stroke="#000000" stroke-width="2" x1="21.348" y1="420.75" x2="7.767" y2="420.75"/>
	<g>
		<path d="M7.703,285h6.386v0.337l-3.964,11.834H9.137l3.566-10.734H9.422c-0.663,0-1.135,0.079-1.417,0.237
			c-0.493,0.27-0.889,0.686-1.188,1.248l-0.255-0.097L7.703,285z"/>
		<path d="M23.625,288.86v1.281h-2.037l-0.176,2.683c-0.035,0.465-0.053,0.868-0.053,1.208c0,0.818,0.096,1.316,0.287,1.496
			c0.189,0.18,0.422,0.269,0.69,0.269c0.563,0,0.897-0.354,1.005-1.063h0.313c-0.193,1.625-0.846,2.438-1.954,2.438
			c-0.519,0-0.933-0.159-1.246-0.476c-0.313-0.317-0.472-0.787-0.472-1.409c0-0.411,0.063-1.281,0.186-2.608l0.236-2.538h-1.858
			c-0.123,2.138-0.271,3.701-0.44,4.688c-0.174,0.987-0.362,1.625-0.569,1.912c-0.208,0.288-0.489,0.432-0.847,0.432
			c-0.27,0-0.494-0.08-0.678-0.238c-0.186-0.159-0.277-0.367-0.277-0.626c0-0.246,0.158-0.584,0.472-1.013
			c0.459-0.623,0.802-1.271,1.03-1.943c0.227-0.672,0.396-1.743,0.515-3.211h-0.597c-0.479,0-0.848,0.107-1.104,0.32
			c-0.254,0.213-0.494,0.518-0.724,0.915h-0.313c0.17-0.625,0.389-1.139,0.658-1.542s0.547-0.666,0.83-0.789
			c0.284-0.123,0.789-0.184,1.516-0.184h5.605v-0.002H23.625z"/>
		<path d="M8,307.757l2.897-1.406h0.291v10.078c0,0.664,0.027,1.078,0.083,1.24c0.056,0.163,0.171,0.288,0.347,0.377
			c0.175,0.087,0.532,0.139,1.069,0.147v0.328H8.203v-0.328c0.563-0.014,0.927-0.062,1.091-0.146
			c0.165-0.084,0.279-0.196,0.344-0.342c0.064-0.143,0.097-0.568,0.097-1.279v-6.451c0-0.872-0.029-1.435-0.088-1.681
			c-0.041-0.188-0.115-0.327-0.223-0.415c-0.108-0.088-0.238-0.132-0.39-0.132c-0.216,0-0.517,0.091-0.902,0.272L8,307.757z"/>
		<path d="M23.141,316.212l-0.836,2.313h-7.039v-0.329c2.077-1.886,3.539-3.426,4.387-4.62c0.848-1.193,1.271-2.287,1.271-3.276
			c0-0.759-0.23-1.383-0.695-1.87c-0.465-0.488-1.021-0.732-1.668-0.732c-0.588,0-1.117,0.17-1.584,0.509
			c-0.47,0.338-0.813,0.835-1.037,1.491h-0.326c0.146-1.077,0.523-1.903,1.132-2.479c0.608-0.576,1.368-0.864,2.278-0.864
			c0.969,0,1.777,0.312,2.428,0.934c0.648,0.622,0.974,1.356,0.974,2.201c0,0.604-0.141,1.209-0.423,1.813
			c-0.436,0.948-1.141,1.953-2.115,3.017c-1.465,1.588-2.373,2.544-2.727,2.864h3.095c0.63,0,1.071-0.021,1.325-0.068
			c0.253-0.047,0.482-0.144,0.688-0.286c0.205-0.146,0.381-0.347,0.532-0.61h0.343v-0.006H23.141z"/>
	</g>
	<line fill="none" stroke="#000000" stroke-width="2" x1="22.348" y1="301.75" x2="8.767" y2="301.75"/>
	<g>
		<path d="M14.326,233.118l-0.836,2.311H6.451v-0.33c2.077-1.885,3.538-3.425,4.386-4.62c0.847-1.194,1.271-2.287,1.271-3.277
			c0-0.758-0.232-1.381-0.697-1.87c-0.465-0.488-1.021-0.732-1.668-0.732c-0.588,0-1.116,0.169-1.584,0.509
			c-0.468,0.34-0.813,0.836-1.037,1.491H6.794c0.146-1.077,0.524-1.903,1.132-2.479c0.608-0.576,1.368-0.864,2.278-0.864
			c0.969,0,1.779,0.311,2.428,0.934c0.649,0.623,0.974,1.356,0.974,2.202c0,0.604-0.141,1.208-0.422,1.812
			c-0.436,0.949-1.141,1.954-2.117,3.015c-1.464,1.588-2.373,2.544-2.726,2.866h3.095c0.63,0,1.071-0.023,1.326-0.07
			c0.252-0.047,0.481-0.142,0.688-0.286c0.203-0.144,0.382-0.347,0.531-0.611L14.326,233.118L14.326,233.118z"/>
		<path d="M23.811,227.366v1.281h-2.037l-0.176,2.683c-0.035,0.465-0.054,0.868-0.054,1.208c0,0.818,0.097,1.316,0.287,1.496
			c0.19,0.18,0.422,0.269,0.692,0.269c0.563,0,0.897-0.354,1.004-1.063h0.313c-0.193,1.625-0.846,2.438-1.953,2.438
			c-0.519,0-0.934-0.159-1.246-0.476c-0.313-0.317-0.473-0.787-0.473-1.409c0-0.411,0.063-1.281,0.186-2.608l0.236-2.538h-1.857
			c-0.123,2.138-0.271,3.701-0.442,4.688c-0.173,0.987-0.362,1.625-0.569,1.912c-0.207,0.288-0.488,0.432-0.846,0.432
			c-0.27,0-0.495-0.08-0.68-0.238c-0.184-0.159-0.275-0.367-0.275-0.626c0-0.246,0.157-0.584,0.471-1.013
			c0.459-0.623,0.803-1.271,1.03-1.943s0.397-1.743,0.515-3.211h-0.597c-0.479,0-0.847,0.107-1.103,0.32
			c-0.254,0.213-0.495,0.518-0.723,0.915H15.2c0.17-0.625,0.39-1.139,0.659-1.542c0.269-0.403,0.545-0.666,0.83-0.789
			c0.283-0.123,0.789-0.184,1.515-0.184h5.606V227.366L23.811,227.366z"/>
		<path d="M6.998,247.372c0.34-0.803,0.769-1.423,1.287-1.86s1.164-0.655,1.937-0.655c0.955,0,1.687,0.311,2.196,0.932
			c0.387,0.463,0.58,0.958,0.58,1.485c0,0.867-0.542,1.764-1.625,2.689c0.73,0.287,1.283,0.697,1.656,1.23
			c0.375,0.533,0.563,1.16,0.563,1.881c0,1.031-0.328,1.925-0.984,2.681c-0.856,0.984-2.096,1.477-3.72,1.477
			c-0.803,0-1.35-0.1-1.64-0.298c-0.291-0.199-0.436-0.412-0.436-0.64c0-0.169,0.069-0.319,0.207-0.447
			c0.138-0.128,0.304-0.193,0.497-0.193c0.146,0,0.296,0.023,0.449,0.07c0.1,0.029,0.326,0.135,0.678,0.319s0.596,0.293,0.73,0.328
			c0.217,0.064,0.449,0.096,0.695,0.096c0.599,0,1.12-0.231,1.563-0.694c0.443-0.462,0.665-1.01,0.665-1.643
			c0-0.463-0.104-0.914-0.309-1.353c-0.153-0.328-0.321-0.577-0.503-0.747c-0.254-0.234-0.601-0.447-1.043-0.637
			c-0.441-0.19-0.892-0.286-1.351-0.286H8.805v-0.266c0.465-0.059,0.932-0.225,1.4-0.5c0.468-0.275,0.809-0.605,1.021-0.991
			c0.212-0.386,0.318-0.81,0.318-1.272c0-0.602-0.189-1.089-0.567-1.46c-0.378-0.371-0.849-0.557-1.411-0.557
			c-0.909,0-1.668,0.484-2.278,1.453L6.998,247.372z"/>
	</g>
	<g>
		<path d="M6.528,167.266c0.34-0.803,0.769-1.423,1.287-1.86s1.164-0.655,1.937-0.655c0.955,0,1.687,0.311,2.196,0.932
			c0.387,0.463,0.579,0.958,0.579,1.485c0,0.867-0.542,1.764-1.625,2.689c0.73,0.287,1.283,0.697,1.658,1.23
			c0.374,0.533,0.562,1.16,0.562,1.881c0,1.031-0.328,1.925-0.985,2.681c-0.856,0.984-2.096,1.477-3.72,1.477
			c-0.803,0-1.35-0.099-1.64-0.298c-0.291-0.198-0.436-0.412-0.436-0.64c0-0.169,0.069-0.318,0.207-0.447
			c0.138-0.128,0.304-0.193,0.497-0.193c0.146,0,0.296,0.023,0.449,0.07c0.1,0.029,0.326,0.136,0.678,0.319s0.596,0.292,0.73,0.327
			c0.217,0.064,0.449,0.096,0.695,0.096c0.599,0,1.12-0.231,1.563-0.694c0.443-0.463,0.665-1.011,0.665-1.644
			c0-0.462-0.103-0.913-0.309-1.353c-0.153-0.328-0.321-0.577-0.503-0.747c-0.254-0.234-0.601-0.446-1.043-0.637
			c-0.441-0.19-0.892-0.286-1.351-0.286H8.336v-0.266c0.465-0.058,0.932-0.225,1.4-0.5c0.468-0.275,0.809-0.605,1.021-0.991
			c0.212-0.386,0.318-0.81,0.318-1.272c0-0.603-0.189-1.089-0.567-1.461c-0.378-0.371-0.849-0.557-1.411-0.557
			c-0.909,0-1.668,0.484-2.278,1.453L6.528,167.266z"/>
		<path d="M23.341,168.86v1.281h-2.036l-0.177,2.683c-0.035,0.465-0.053,0.868-0.053,1.208c0,0.818,0.096,1.316,0.286,1.496
			c0.19,0.18,0.423,0.269,0.693,0.269c0.563,0,0.897-0.354,1.004-1.063h0.313c-0.194,1.625-0.848,2.438-1.955,2.438
			c-0.518,0-0.934-0.159-1.246-0.476c-0.313-0.317-0.471-0.787-0.471-1.409c0-0.411,0.063-1.281,0.185-2.608l0.237-2.538h-1.857
			c-0.123,2.138-0.271,3.701-0.443,4.688c-0.172,0.987-0.361,1.625-0.568,1.912c-0.208,0.288-0.488,0.432-0.846,0.432
			c-0.27,0-0.495-0.08-0.68-0.238c-0.185-0.159-0.275-0.367-0.275-0.626c0-0.246,0.156-0.584,0.471-1.013
			c0.459-0.623,0.803-1.271,1.03-1.943s0.397-1.743,0.515-3.211H16.87c-0.479,0-0.847,0.107-1.103,0.32
			c-0.254,0.213-0.496,0.518-0.725,0.915H14.73c0.17-0.625,0.391-1.139,0.66-1.542c0.269-0.403,0.545-0.666,0.83-0.789
			c0.282-0.123,0.787-0.184,1.514-0.184h5.605L23.341,168.86L23.341,168.86z"/>
		<path d="M13.98,194.116v1.25h-1.594v3.156h-1.453v-3.156H5.888v-1.127l5.531-7.889h0.97v7.766H13.98L13.98,194.116z
			 M10.935,194.116v-5.882l-4.186,5.882H10.935z"/>
	</g>
	<g>
		<path d="M0,45.157l2.897-1.406h0.291v10.078c0,0.665,0.027,1.078,0.083,1.241s0.171,0.289,0.347,0.375
			c0.175,0.088,0.532,0.137,1.07,0.149v0.328H0.203v-0.328c0.563-0.012,0.927-0.06,1.091-0.144c0.165-0.085,0.279-0.198,0.344-0.341
			s0.097-0.57,0.097-1.281v-6.453c0-0.872-0.029-1.432-0.088-1.679c-0.041-0.188-0.115-0.327-0.223-0.415
			c-0.108-0.088-0.238-0.132-0.39-0.132c-0.216,0-0.517,0.091-0.902,0.272L0,45.157z"/>
		<path d="M8.332,45.157l2.897-1.406h0.291v10.078c0,0.665,0.027,1.078,0.083,1.241s0.171,0.289,0.347,0.375
			c0.175,0.088,0.532,0.137,1.069,0.149v0.328H8.535v-0.328c0.563-0.012,0.927-0.06,1.091-0.144
			c0.165-0.085,0.279-0.198,0.344-0.341c0.065-0.143,0.097-0.57,0.097-1.281v-6.453c0-0.872-0.029-1.432-0.088-1.679
			c-0.041-0.188-0.115-0.327-0.223-0.415c-0.108-0.088-0.238-0.132-0.39-0.132c-0.216,0-0.517,0.091-0.902,0.272L8.332,45.157z"/>
		<path d="M23.957,47.86v1.281H21.92l-0.176,2.683c-0.035,0.465-0.053,0.868-0.053,1.208c0,0.818,0.096,1.316,0.287,1.496
			c0.189,0.18,0.422,0.269,0.69,0.269c0.563,0,0.897-0.354,1.005-1.063h0.313c-0.193,1.625-0.846,2.438-1.954,2.438
			c-0.519,0-0.933-0.159-1.246-0.476s-0.472-0.787-0.472-1.409c0-0.411,0.063-1.281,0.186-2.608l0.236-2.538h-1.858
			c-0.123,2.138-0.271,3.701-0.44,4.688c-0.174,0.987-0.362,1.625-0.569,1.912c-0.208,0.288-0.489,0.432-0.847,0.432
			c-0.27,0-0.494-0.08-0.68-0.238c-0.184-0.159-0.275-0.367-0.275-0.626c0-0.246,0.158-0.584,0.472-1.013
			c0.459-0.623,0.802-1.271,1.03-1.943c0.227-0.672,0.396-1.743,0.515-3.211h-0.597c-0.479,0-0.848,0.107-1.104,0.32
			c-0.254,0.213-0.494,0.518-0.724,0.915h-0.313c0.17-0.625,0.389-1.139,0.658-1.542s0.546-0.666,0.83-0.789
			s0.789-0.184,1.516-0.184h5.605V47.86H23.957z"/>
		<path d="M4.5,66.757l2.897-1.406h0.291v10.078c0,0.664,0.027,1.078,0.083,1.241s0.171,0.288,0.347,0.376
			c0.175,0.087,0.532,0.137,1.07,0.148v0.328H4.703v-0.328c0.563-0.012,0.927-0.06,1.091-0.145c0.165-0.084,0.279-0.198,0.344-0.341
			c0.064-0.143,0.097-0.569,0.097-1.28v-6.453c0-0.872-0.029-1.432-0.088-1.679c-0.041-0.188-0.115-0.327-0.223-0.415
			c-0.108-0.088-0.238-0.132-0.39-0.132c-0.216,0-0.517,0.091-0.902,0.272L4.5,66.757z"/>
		<path d="M19.641,75.212l-0.836,2.311h-7.039v-0.33c2.077-1.886,3.539-3.426,4.386-4.62c0.847-1.194,1.271-2.287,1.271-3.277
			c0-0.758-0.231-1.382-0.696-1.87c-0.465-0.488-1.021-0.732-1.668-0.732c-0.588,0-1.117,0.17-1.584,0.509
			c-0.469,0.339-0.813,0.836-1.037,1.491h-0.327c0.146-1.077,0.524-1.903,1.132-2.479c0.608-0.576,1.368-0.864,2.278-0.864
			c0.969,0,1.777,0.312,2.428,0.934c0.648,0.622,0.974,1.356,0.974,2.201c0,0.605-0.141,1.209-0.423,1.813
			c-0.436,0.949-1.141,1.954-2.116,3.015c-1.464,1.588-2.372,2.544-2.726,2.866h3.095c0.63,0,1.071-0.023,1.325-0.07
			c0.253-0.047,0.482-0.142,0.688-0.286c0.207-0.144,0.381-0.347,0.532-0.611L19.641,75.212L19.641,75.212z"/>
		<path d="M20.371,0.691v1.281h-2.037l-0.176,2.683c-0.035,0.465-0.053,0.868-0.053,1.208c0,0.818,0.096,1.316,0.287,1.496
			c0.189,0.18,0.422,0.269,0.69,0.269c0.563,0,0.897-0.354,1.005-1.063H20.4c-0.193,1.625-0.846,2.438-1.955,2.438
			c-0.518,0-0.932-0.159-1.245-0.476s-0.472-0.787-0.472-1.409c0-0.411,0.063-1.281,0.186-2.608l0.236-2.538h-1.858
			c-0.123,2.138-0.271,3.701-0.44,4.688c-0.175,0.987-0.363,1.625-0.569,1.912c-0.208,0.288-0.489,0.432-0.847,0.432
			c-0.27,0-0.494-0.08-0.68-0.238C12.572,8.607,12.48,8.399,12.48,8.14c0-0.246,0.158-0.584,0.472-1.013
			c0.459-0.623,0.802-1.271,1.03-1.943c0.227-0.672,0.396-1.743,0.515-3.211H13.9c-0.479,0-0.849,0.107-1.104,0.32
			c-0.254,0.213-0.496,0.518-0.724,0.915H11.76c0.17-0.625,0.39-1.139,0.659-1.542c0.271-0.403,0.546-0.666,0.83-0.789
			s0.789-0.184,1.517-0.184h5.604L20.371,0.691L20.371,0.691z"/>
	</g>
	<g>
		<path d="M13.395,105.148l-0.688,1.5H9.113l-0.787,1.592c1.563,0.229,2.799,0.806,3.709,1.731c0.781,0.797,1.172,1.734,1.172,2.812
			c0,0.627-0.128,1.207-0.383,1.74c-0.256,0.533-0.576,0.987-0.963,1.362c-0.387,0.375-0.818,0.677-1.293,0.905
			c-0.674,0.322-1.366,0.483-2.076,0.483c-0.716,0-1.236-0.121-1.562-0.363c-0.326-0.242-0.488-0.509-0.488-0.801
			c0-0.164,0.067-0.308,0.203-0.434c0.135-0.125,0.306-0.188,0.512-0.188c0.153,0,0.287,0.023,0.401,0.07
			c0.115,0.047,0.311,0.167,0.587,0.359c0.439,0.303,0.884,0.458,1.335,0.466c0.685,0,1.287-0.26,1.805-0.78
			s0.778-1.153,0.778-1.899c0-0.723-0.232-1.396-0.695-2.022c-0.463-0.625-1.103-1.108-1.917-1.449
			c-0.64-0.265-1.51-0.417-2.612-0.458l2.285-4.625L13.395,105.148L13.395,105.148z"/>
		<path d="M23.316,109.008v1.281h-2.037l-0.176,2.683c-0.035,0.465-0.055,0.868-0.055,1.208c0,0.818,0.098,1.316,0.287,1.496
			c0.189,0.18,0.422,0.269,0.691,0.269c0.563,0,0.898-0.354,1.006-1.063h0.313c-0.195,1.625-0.847,2.438-1.955,2.438
			c-0.518,0-0.933-0.159-1.246-0.476c-0.313-0.317-0.472-0.787-0.472-1.409c0-0.411,0.062-1.281,0.185-2.608l0.238-2.538h-1.859
			c-0.123,2.138-0.271,3.701-0.441,4.688c-0.173,0.987-0.361,1.625-0.568,1.912c-0.207,0.288-0.488,0.432-0.847,0.432
			c-0.271,0-0.493-0.08-0.679-0.238c-0.186-0.159-0.276-0.367-0.276-0.626c0-0.246,0.157-0.584,0.472-1.013
			c0.459-0.623,0.803-1.271,1.029-1.943c0.229-0.672,0.398-1.743,0.516-3.211h-0.596c-0.479,0-0.849,0.107-1.104,0.32
			c-0.256,0.213-0.496,0.518-0.725,0.915h-0.313c0.17-0.625,0.391-1.139,0.658-1.542c0.27-0.403,0.547-0.666,0.83-0.789
			s0.789-0.184,1.516-0.184h5.605v-0.002H23.316z"/>
		<path d="M13.66,126.498v0.344c-0.773,0.076-1.405,0.229-1.895,0.46c-0.49,0.23-0.974,0.583-1.451,1.056
			c-0.478,0.473-0.873,1-1.187,1.581s-0.576,1.271-0.787,2.071c0.844-0.581,1.69-0.871,2.54-0.871c0.814,0,1.521,0.328,2.118,0.984
			c0.598,0.656,0.896,1.5,0.896,2.531c0,0.996-0.304,1.904-0.906,2.725c-0.727,0.996-1.688,1.494-2.881,1.494
			c-0.814,0-1.505-0.27-2.074-0.809c-1.113-1.049-1.67-2.408-1.67-4.078c0-1.066,0.214-2.08,0.642-3.041
			c0.428-0.961,1.039-1.813,1.833-2.558c0.794-0.745,1.555-1.245,2.281-1.503c0.726-0.258,1.404-0.387,2.031-0.387L13.66,126.498
			L13.66,126.498z M8.191,132.651c-0.104,0.79-0.156,1.428-0.156,1.913c0,0.563,0.104,1.172,0.312,1.831
			c0.208,0.659,0.518,1.18,0.928,1.566c0.298,0.275,0.662,0.413,1.089,0.413c0.509,0,0.965-0.24,1.366-0.72
			c0.401-0.479,0.602-1.164,0.602-2.054c0-1.001-0.199-1.867-0.598-2.598s-0.964-1.097-1.697-1.097
			c-0.223,0-0.461,0.047-0.716,0.141C9.066,132.14,8.689,132.341,8.191,132.651z"/>
	</g>
	<line fill="none" stroke="#000000" stroke-width="2" x1="21.348" y1="240.75" x2="7.767" y2="240.75"/>
	<line fill="none" stroke="#000000" stroke-width="2" x1="22.348" y1="180.75" x2="8.767" y2="180.75"/>
	<line fill="none" stroke="#000000" stroke-width="2" x1="19.348" y1="120.75" x2="5.767" y2="120.75"/>
	<line fill="none" stroke="#000000" stroke-width="2" x1="18.348" y1="60.75" x2="4.767" y2="60.75"/>
</g>
<g>
	<path d="M13.492,723.258c-2.286,0-3.852-2.145-3.888-6.014c0-3.941,1.71-6.084,4.085-6.084c2.449,0,3.871,2.195,3.871,5.922
		c0,3.979-1.494,6.176-4.051,6.176H13.492z M13.563,722.033c1.603,0,2.377-1.891,2.377-4.879c0-2.879-0.721-4.77-2.377-4.77
		c-1.439,0-2.375,1.836-2.375,4.77c-0.036,3.043,0.9,4.879,2.358,4.879H13.563z"/>
</g>
<line fill="none" stroke="#000099" stroke-width="3" stroke-dasharray="12" x1="24.659" y1="361" x2="1035.159" y2="361"/>
</svg>
