<?xml version="1.0" encoding="utf-8"?>
<!-- Generator: Adobe Illustrator 12.0.0, SVG Export Plug-In . SVG Version: 6.00 Build 51448)  -->
<!DOCTYPE svg PUBLIC "-//W3C//DTD SVG 1.1 Basic//EN" "http://www.w3.org/Graphics/SVG/1.1/DTD/svg11-basic.dtd" [
	<!ENTITY ns_svg "http://www.w3.org/2000/svg">
	<!ENTITY ns_xlink "http://www.w3.org/1999/xlink">
]>
<svg  version="1.1" baseProfile="basic" id="Layer_1" xmlns="&ns_svg;" xmlns:xlink="&ns_xlink;" width="1043.46" height="757.291"
	 viewBox="0 0 1043.46 757.291" overflow="visible" xml:space="preserve">
<g id="Layer_1_1_">
	<g>
		<path fill="none" stroke="#7E8080" d="M23.913,723.34h1010.5"/>
	</g>
	<g>
		<path fill="none" stroke="#000000" d="M23.913,723.34h13.5 M1034.414,723.34h-13.5"/>
	</g>
	<g>
		<path fill="none" stroke="#7E8080" d="M23.913,663.241h1010.5"/>
	</g>
	<g>
		<path fill="none" stroke="#000000" d="M23.913,663.241h13.5 M1034.414,663.241h-13.5"/>
	</g>
	<g>
		<path fill="none" stroke="#7E8080" d="M23.913,603.14h1010.5"/>
	</g>
	<g>
		<path fill="none" stroke="#000000" d="M23.913,603.14h13.5 M1034.414,603.14h-13.5"/>
	</g>
	<g>
		<path fill="none" stroke="#7E8080" d="M23.913,543.14h1010.5"/>
	</g>
	<g>
		<path fill="none" stroke="#000000" d="M23.913,543.14h13.5 M1034.414,543.14h-13.5"/>
	</g>
	<g>
		<path fill="none" stroke="#7E8080" d="M23.913,483.041h1010.5"/>
	</g>
	<g>
		<path fill="none" stroke="#000000" d="M23.913,483.041h13.5 M1034.414,483.041h-13.5"/>
	</g>
	<g>
		<path fill="none" stroke="#7E8080" d="M23.913,422.94h1010.5"/>
	</g>
	<g>
		<path fill="none" stroke="#000000" d="M23.913,422.94h13.5 M1034.414,422.94h-13.5"/>
	</g>
	<g>
		<path fill="none" stroke="#7E8080" d="M23.913,362.84h1010.5"/>
	</g>
	<g>
		<path fill="none" stroke="#000000" d="M23.913,362.84h13.5 M1034.414,362.84h-13.5"/>
	</g>
	<g>
		<path fill="none" stroke="#7E8080" d="M23.913,302.741h1010.5"/>
	</g>
	<g>
		<path fill="none" stroke="#000000" d="M23.913,302.741h13.5 M1034.414,302.741h-13.5"/>
	</g>
	<g>
		<path fill="none" stroke="#7E8080" d="M23.913,242.64h1010.5"/>
	</g>
	<g>
		<path fill="none" stroke="#000000" d="M23.913,242.64h13.5 M1034.414,242.64h-13.5"/>
	</g>
	<g>
		<path fill="none" stroke="#7E8080" d="M23.913,182.64h1010.5"/>
	</g>
	<g>
		<path fill="none" stroke="#000000" d="M23.913,182.64h13.5 M1034.414,182.64h-13.5"/>
	</g>
	<g>
		<path fill="none" stroke="#7E8080" d="M23.913,122.541h1010.5"/>
	</g>
	<g>
		<path fill="none" stroke="#000000" d="M23.913,122.541h13.5 M1034.414,122.541h-13.5"/>
	</g>
	<g>
		<path fill="none" stroke="#7E8080" d="M23.913,62.44h1010.5"/>
	</g>
	<g>
		<path fill="none" stroke="#000000" d="M23.913,62.44h13.5 M1034.414,62.44h-13.5"/>
	</g>
	<g>
		<path fill="none" stroke="#000000" d="M23.913,2.34h13.5 M1034.414,2.34h-13.5"/>
	</g>
	<g>
		<path fill="none" stroke="#7E8080" d="M23.913,723.34v-721"/>
	</g>
	<g>
		<path fill="none" stroke="#000000" d="M23.913,723.34v-13.5 M23.913,2.34v13.5"/>
		<g transform="translate(151.0,779.7)">
			<g>
				<path d="M-140.6-27.363h4.547v1.328h-4.547V-27.363z"/>
				<path d="M-133.23-33.425l2.897-1.406h0.291v10.078c0,0.664,0.027,1.078,0.083,1.241c0.056,0.162,0.171,0.287,0.347,0.376
					c0.175,0.087,0.532,0.137,1.07,0.147v0.328h-4.484v-0.328c0.563-0.012,0.927-0.06,1.091-0.145
					c0.165-0.084,0.279-0.197,0.344-0.342c0.064-0.143,0.097-0.568,0.097-1.279v-6.453c0-0.872-0.029-1.433-0.088-1.68
					c-0.041-0.188-0.115-0.326-0.223-0.414c-0.108-0.089-0.238-0.133-0.39-0.133c-0.216,0-0.517,0.092-0.902,0.272L-133.23-33.425z"
					/>
				<path d="M-124.082-24.363c0.275,0,0.507,0.096,0.695,0.286s0.281,0.421,0.281,0.69c0,0.269-0.096,0.5-0.286,0.689
					c-0.19,0.19-0.421,0.286-0.69,0.286c-0.27,0-0.5-0.096-0.69-0.286c-0.191-0.189-0.286-0.421-0.286-0.689
					c0-0.275,0.095-0.509,0.286-0.695C-124.582-24.269-124.352-24.363-124.082-24.363z"/>
				<path d="M-119.73-33.425l2.897-1.406h0.291v10.078c0,0.664,0.027,1.078,0.083,1.241c0.056,0.162,0.171,0.287,0.347,0.376
					c0.175,0.087,0.532,0.137,1.07,0.147v0.328h-4.484v-0.328c0.563-0.012,0.927-0.06,1.091-0.145
					c0.165-0.084,0.279-0.197,0.344-0.342c0.064-0.143,0.097-0.568,0.097-1.279v-6.453c0-0.872-0.029-1.433-0.088-1.68
					c-0.041-0.188-0.115-0.326-0.223-0.414c-0.108-0.089-0.238-0.133-0.39-0.133c-0.216,0-0.517,0.092-0.902,0.272L-119.73-33.425z"
					/>
			</g>
		</g>
	</g>
	<g>
		<path fill="none" stroke="#7E8080" d="M69.813,723.34v-721"/>
	</g>
	<g>
		<path fill="none" stroke="#000000" d="M69.813,723.34v-13.5 M69.813,2.34v13.5"/>
		<g transform="translate(196.9,779.7)">
			<g>
				<path d="M-133.85-27.363h4.547v1.328h-4.547V-27.363z"/>
				<path d="M-126.481-33.425l2.897-1.406h0.291v10.078c0,0.664,0.027,1.078,0.083,1.241c0.056,0.162,0.171,0.287,0.347,0.376
					c0.175,0.087,0.532,0.137,1.07,0.147v0.328h-4.484v-0.328c0.563-0.012,0.927-0.06,1.091-0.145
					c0.165-0.084,0.279-0.197,0.344-0.342c0.064-0.143,0.097-0.568,0.097-1.279v-6.453c0-0.872-0.029-1.433-0.088-1.68
					c-0.041-0.188-0.115-0.326-0.223-0.414c-0.108-0.089-0.238-0.133-0.39-0.133c-0.216,0-0.517,0.092-0.902,0.272L-126.481-33.425z
					"/>
			</g>
		</g>
	</g>
	<g>
		<path fill="none" stroke="#7E8080" d="M115.813,723.34v-721"/>
	</g>
	<g>
		<path fill="none" stroke="#000000" d="M115.813,723.34v-13.5 M115.813,2.34v13.5"/>
		<g transform="translate(242.9,779.7)">
			<g>
				<path d="M-140.6-27.363h4.547v1.328h-4.547V-27.363z"/>
				<path d="M-134.684-28.556c0-1.358,0.205-2.528,0.615-3.512c0.41-0.979,0.955-1.712,1.634-2.191
					c0.527-0.382,1.072-0.571,1.634-0.571c0.914,0,1.733,0.466,2.459,1.396c0.907,1.154,1.361,2.72,1.361,4.693
					c0,1.383-0.199,2.558-0.598,3.524c-0.398,0.967-0.906,1.668-1.523,2.104c-0.618,0.437-1.214,0.654-1.788,0.654
					c-1.136,0-2.082-0.671-2.837-2.014C-134.364-25.6-134.684-26.962-134.684-28.556z M-132.965-28.333
					c0,1.642,0.202,2.98,0.607,4.02c0.334,0.874,0.833,1.312,1.495,1.312c0.316,0,0.645-0.144,0.985-0.427
					c0.34-0.284,0.598-0.762,0.774-1.43c0.27-1.009,0.404-2.432,0.404-4.267c0-1.36-0.141-2.495-0.422-3.403
					c-0.211-0.675-0.484-1.152-0.818-1.435c-0.24-0.193-0.531-0.29-0.871-0.29c-0.399,0-0.753,0.179-1.064,0.537
					c-0.423,0.485-0.71,1.252-0.862,2.295C-132.889-30.377-132.965-29.348-132.965-28.333z"/>
				<path d="M-124.082-24.363c0.275,0,0.507,0.096,0.695,0.286s0.281,0.421,0.281,0.69c0,0.269-0.096,0.5-0.286,0.689
					c-0.19,0.19-0.421,0.286-0.69,0.286c-0.27,0-0.5-0.096-0.69-0.286c-0.191-0.189-0.286-0.421-0.286-0.689
					c0-0.275,0.095-0.509,0.286-0.695C-124.582-24.269-124.352-24.363-124.082-24.363z"/>
				<path d="M-120.902-22.409v-0.328c0.762-0.012,1.472-0.188,2.128-0.532c0.656-0.343,1.292-0.941,1.904-1.798
					c0.613-0.855,1.04-1.797,1.28-2.819c-0.92,0.59-1.752,0.885-2.497,0.885c-0.838,0-1.556-0.324-2.154-0.973
					c-0.598-0.647-0.896-1.509-0.896-2.582c0-1.044,0.299-1.973,0.896-2.787c0.721-0.99,1.661-1.486,2.822-1.486
					c0.979,0,1.817,0.404,2.514,1.214c0.855,1.003,1.283,2.241,1.283,3.713c0,1.325-0.325,2.563-0.976,3.708
					c-0.651,1.146-1.557,2.098-2.717,2.854c-0.944,0.622-1.973,0.933-3.087,0.933L-120.902-22.409L-120.902-22.409z
					 M-115.449-28.538c0.104-0.762,0.156-1.371,0.156-1.829c0-0.568-0.097-1.183-0.29-1.842s-0.468-1.165-0.822-1.518
					c-0.354-0.352-0.757-0.526-1.208-0.526c-0.522,0-0.979,0.233-1.372,0.703c-0.393,0.469-0.589,1.167-0.589,2.093
					c0,1.235,0.261,2.204,0.783,2.9c0.381,0.505,0.85,0.757,1.408,0.757c0.27,0,0.589-0.064,0.958-0.193
					C-116.056-28.122-115.731-28.304-115.449-28.538z"/>
			</g>
		</g>
	</g>
	<g>
		<path fill="none" stroke="#7E8080" d="M161.713,723.34v-721"/>
	</g>
	<g>
		<path fill="none" stroke="#000000" d="M161.713,723.34v-13.5 M161.713,2.34v13.5"/>
		<g transform="translate(288.8,779.7)">
			<g>
				<path d="M-140.6-27.363h4.547v1.328h-4.547V-27.363z"/>
				<path d="M-134.684-28.556c0-1.358,0.205-2.528,0.615-3.512c0.41-0.979,0.955-1.712,1.634-2.191
					c0.527-0.382,1.072-0.571,1.634-0.571c0.914,0,1.733,0.466,2.459,1.396c0.907,1.154,1.361,2.72,1.361,4.693
					c0,1.383-0.199,2.558-0.598,3.524c-0.398,0.967-0.906,1.668-1.523,2.104c-0.618,0.437-1.214,0.654-1.788,0.654
					c-1.136,0-2.082-0.671-2.837-2.014C-134.364-25.6-134.684-26.962-134.684-28.556z M-132.965-28.333
					c0,1.642,0.202,2.98,0.607,4.02c0.334,0.874,0.833,1.312,1.495,1.312c0.316,0,0.645-0.144,0.985-0.427
					c0.34-0.284,0.598-0.762,0.774-1.43c0.27-1.009,0.404-2.432,0.404-4.267c0-1.36-0.141-2.495-0.422-3.403
					c-0.211-0.675-0.484-1.152-0.818-1.435c-0.24-0.193-0.531-0.29-0.871-0.29c-0.399,0-0.753,0.179-1.064,0.537
					c-0.423,0.485-0.71,1.252-0.862,2.295C-132.889-30.377-132.965-29.348-132.965-28.333z"/>
				<path d="M-124.082-24.363c0.275,0,0.507,0.096,0.695,0.286s0.281,0.421,0.281,0.69c0,0.269-0.096,0.5-0.286,0.689
					c-0.19,0.19-0.421,0.286-0.69,0.286c-0.27,0-0.5-0.096-0.69-0.286c-0.191-0.189-0.286-0.421-0.286-0.689
					c0-0.275,0.095-0.509,0.286-0.695C-124.582-24.269-124.352-24.363-124.082-24.363z"/>
				<path d="M-118.381-28.662c-0.947-0.774-1.557-1.396-1.83-1.865c-0.273-0.47-0.41-0.956-0.41-1.461
					c0-0.773,0.299-1.442,0.897-2.002c0.598-0.561,1.393-0.841,2.384-0.841c0.962,0,1.736,0.262,2.323,0.783
					c0.586,0.521,0.88,1.117,0.88,1.787c0,0.444-0.158,0.899-0.475,1.363s-0.975,1.01-1.977,1.638
					c1.032,0.796,1.715,1.422,2.049,1.879c0.445,0.597,0.668,1.226,0.668,1.888c0,0.836-0.319,1.552-0.958,2.146
					c-0.639,0.595-1.478,0.892-2.515,0.892c-1.131,0-2.014-0.354-2.646-1.063c-0.504-0.566-0.756-1.188-0.756-1.859
					c0-0.526,0.177-1.049,0.532-1.567C-119.86-27.464-119.249-28.036-118.381-28.662z M-117.968-28.328
					c-0.487,0.407-0.848,0.852-1.083,1.332c-0.234,0.479-0.352,1-0.352,1.56c0,0.751,0.207,1.354,0.621,1.805
					c0.414,0.45,0.941,0.677,1.581,0.677c0.634,0,1.142-0.178,1.523-0.533c0.381-0.354,0.572-0.785,0.572-1.293
					c0-0.419-0.111-0.794-0.335-1.126C-115.858-26.526-116.7-27.332-117.968-28.328z M-117.001-29.603
					c0.702-0.635,1.146-1.137,1.333-1.504s0.281-0.783,0.281-1.248c0-0.618-0.173-1.102-0.519-1.451
					c-0.346-0.351-0.817-0.524-1.414-0.524c-0.598,0-1.083,0.174-1.458,0.521c-0.375,0.348-0.563,0.753-0.563,1.219
					c0,0.306,0.078,0.61,0.233,0.917c0.155,0.306,0.376,0.597,0.664,0.874L-117.001-29.603z"/>
			</g>
		</g>
	</g>
	<g>
		<path fill="none" stroke="#7E8080" d="M207.613,723.34v-721"/>
	</g>
	<g>
		<path fill="none" stroke="#000000" d="M207.613,723.34v-13.5 M207.613,2.34v13.5"/>
		<g transform="translate(334.7,779.7)">
			<g>
				<path d="M-140.599-27.363h4.547v1.328h-4.547V-27.363z"/>
				<path d="M-134.683-28.556c0-1.358,0.205-2.528,0.615-3.512c0.41-0.979,0.955-1.712,1.634-2.191
					c0.527-0.382,1.072-0.571,1.634-0.571c0.914,0,1.733,0.466,2.459,1.396c0.907,1.154,1.361,2.72,1.361,4.693
					c0,1.383-0.199,2.558-0.598,3.524c-0.398,0.967-0.906,1.668-1.523,2.104c-0.618,0.437-1.214,0.654-1.788,0.654
					c-1.136,0-2.082-0.671-2.837-2.014C-134.364-25.6-134.683-26.962-134.683-28.556z M-132.965-28.333
					c0,1.642,0.202,2.98,0.607,4.02c0.334,0.874,0.833,1.312,1.495,1.312c0.316,0,0.645-0.144,0.985-0.427
					c0.34-0.284,0.598-0.762,0.774-1.43c0.27-1.009,0.404-2.432,0.404-4.267c0-1.36-0.141-2.495-0.422-3.403
					c-0.211-0.675-0.484-1.152-0.818-1.435c-0.24-0.193-0.531-0.29-0.871-0.29c-0.399,0-0.753,0.179-1.064,0.537
					c-0.423,0.485-0.71,1.252-0.862,2.295C-132.888-30.377-132.965-29.348-132.965-28.333z"/>
				<path d="M-124.082-24.363c0.275,0,0.507,0.096,0.695,0.286s0.281,0.421,0.281,0.69c0,0.269-0.096,0.5-0.286,0.689
					c-0.19,0.19-0.421,0.286-0.69,0.286c-0.27,0-0.5-0.096-0.69-0.286c-0.191-0.189-0.286-0.421-0.286-0.689
					c0-0.275,0.095-0.509,0.286-0.695C-124.582-24.269-124.352-24.363-124.082-24.363z"/>
				<path d="M-120.027-34.581h6.386v0.338l-3.964,11.834h-0.988l3.566-10.734h-3.281c-0.663,0-1.135,0.079-1.417,0.237
					c-0.493,0.271-0.889,0.687-1.188,1.248l-0.255-0.097L-120.027-34.581z"/>
			</g>
		</g>
	</g>
	<g>
		<path fill="none" stroke="#7E8080" d="M253.613,723.34v-721"/>
	</g>
	<g>
		<path fill="none" stroke="#000000" d="M253.613,723.34v-13.5 M253.613,2.34v13.5"/>
		<g transform="translate(380.7,779.7)">
			<g>
				<path d="M-140.599-27.363h4.547v1.328h-4.547V-27.363z"/>
				<path d="M-134.683-28.556c0-1.358,0.205-2.528,0.615-3.512c0.41-0.979,0.955-1.712,1.634-2.191
					c0.527-0.382,1.072-0.571,1.634-0.571c0.914,0,1.733,0.466,2.459,1.396c0.907,1.154,1.361,2.72,1.361,4.693
					c0,1.383-0.199,2.558-0.598,3.524c-0.398,0.967-0.906,1.668-1.523,2.104c-0.618,0.437-1.214,0.654-1.788,0.654
					c-1.136,0-2.082-0.671-2.837-2.014C-134.364-25.6-134.683-26.962-134.683-28.556z M-132.965-28.333
					c0,1.642,0.202,2.98,0.607,4.02c0.334,0.874,0.833,1.312,1.495,1.312c0.316,0,0.645-0.144,0.985-0.427
					c0.34-0.284,0.598-0.762,0.774-1.43c0.27-1.009,0.404-2.432,0.404-4.267c0-1.36-0.141-2.495-0.422-3.403
					c-0.211-0.675-0.484-1.152-0.818-1.435c-0.24-0.193-0.531-0.29-0.871-0.29c-0.399,0-0.753,0.179-1.064,0.537
					c-0.423,0.485-0.71,1.252-0.862,2.295C-132.888-30.377-132.965-29.348-132.965-28.333z"/>
				<path d="M-124.082-24.363c0.275,0,0.507,0.096,0.695,0.286s0.281,0.421,0.281,0.69c0,0.269-0.096,0.5-0.286,0.689
					c-0.19,0.19-0.421,0.286-0.69,0.286c-0.27,0-0.5-0.096-0.69-0.286c-0.191-0.189-0.286-0.421-0.286-0.689
					c0-0.275,0.095-0.509,0.286-0.695C-124.582-24.269-124.352-24.363-124.082-24.363z"/>
				<path d="M-113.762-34.831v0.344c-0.774,0.076-1.405,0.229-1.895,0.46c-0.49,0.23-0.974,0.583-1.451,1.056
					c-0.477,0.474-0.873,1-1.187,1.581c-0.314,0.581-0.576,1.271-0.787,2.071c0.844-0.581,1.69-0.871,2.54-0.871
					c0.814,0,1.52,0.328,2.118,0.984c0.598,0.656,0.896,1.5,0.896,2.531c0,0.996-0.302,1.903-0.905,2.725
					c-0.727,0.996-1.688,1.494-2.882,1.494c-0.814,0-1.505-0.271-2.074-0.81c-1.113-1.049-1.67-2.407-1.67-4.077
					c0-1.066,0.214-2.08,0.642-3.041c0.428-0.961,1.039-1.813,1.833-2.559s1.555-1.245,2.281-1.503s1.404-0.387,2.031-0.387
					L-113.762-34.831L-113.762-34.831z M-119.23-28.679c-0.104,0.789-0.156,1.428-0.156,1.912c0,0.563,0.104,1.174,0.312,1.831
					c0.208,0.658,0.518,1.181,0.928,1.566c0.298,0.274,0.662,0.412,1.089,0.412c0.509,0,0.965-0.24,1.366-0.72
					c0.401-0.48,0.602-1.164,0.602-2.055c0-1.001-0.199-1.867-0.598-2.598c-0.398-0.732-0.964-1.098-1.697-1.098
					c-0.223,0-0.461,0.047-0.716,0.141S-118.732-28.99-119.23-28.679z"/>
			</g>
		</g>
	</g>
	<g>
		<path fill="none" stroke="#7E8080" d="M299.513,723.34v-721"/>
	</g>
	<g>
		<path fill="none" stroke="#000000" d="M299.513,723.34v-13.5 M299.513,2.34v13.5"/>
		<g transform="translate(426.6,779.7)">
			<g>
				<path d="M-140.6-27.363h4.547v1.328h-4.547V-27.363z"/>
				<path d="M-134.684-28.556c0-1.358,0.205-2.528,0.615-3.512c0.41-0.979,0.955-1.712,1.634-2.191
					c0.527-0.382,1.072-0.571,1.634-0.571c0.914,0,1.733,0.466,2.459,1.396c0.907,1.154,1.361,2.72,1.361,4.693
					c0,1.383-0.199,2.558-0.598,3.524c-0.398,0.967-0.906,1.668-1.523,2.104c-0.618,0.437-1.214,0.654-1.788,0.654
					c-1.136,0-2.082-0.671-2.837-2.014C-134.364-25.6-134.684-26.962-134.684-28.556z M-132.965-28.333
					c0,1.642,0.202,2.98,0.607,4.02c0.334,0.874,0.833,1.312,1.495,1.312c0.316,0,0.645-0.144,0.985-0.427
					c0.34-0.284,0.598-0.762,0.774-1.43c0.27-1.009,0.404-2.432,0.404-4.267c0-1.36-0.141-2.495-0.422-3.403
					c-0.211-0.675-0.484-1.152-0.818-1.435c-0.24-0.193-0.531-0.29-0.871-0.29c-0.399,0-0.753,0.179-1.064,0.537
					c-0.423,0.485-0.71,1.252-0.862,2.295C-132.889-30.377-132.965-29.348-132.965-28.333z"/>
				<path d="M-124.082-24.363c0.275,0,0.507,0.096,0.695,0.286s0.281,0.421,0.281,0.69c0,0.269-0.096,0.5-0.286,0.689
					c-0.19,0.19-0.421,0.286-0.69,0.286c-0.27,0-0.5-0.096-0.69-0.286c-0.191-0.189-0.286-0.421-0.286-0.689
					c0-0.275,0.095-0.509,0.286-0.695C-124.582-24.269-124.352-24.363-124.082-24.363z"/>
				<path d="M-114.027-34.581l-0.688,1.5h-3.594l-0.787,1.592c1.563,0.229,2.799,0.806,3.709,1.73
					c0.781,0.797,1.172,1.733,1.172,2.813c0,0.627-0.128,1.207-0.383,1.74s-0.576,0.986-0.963,1.361
					c-0.387,0.375-0.818,0.677-1.293,0.904c-0.674,0.322-1.366,0.483-2.076,0.483c-0.716,0-1.236-0.121-1.562-0.363
					c-0.326-0.242-0.488-0.509-0.488-0.801c0-0.163,0.067-0.308,0.203-0.433c0.135-0.127,0.306-0.188,0.512-0.188
					c0.153,0,0.287,0.023,0.401,0.07c0.114,0.047,0.311,0.166,0.587,0.357c0.439,0.305,0.884,0.459,1.335,0.466
					c0.685,0,1.287-0.26,1.805-0.778c0.519-0.521,0.778-1.153,0.778-1.899c0-0.723-0.232-1.396-0.695-2.021
					c-0.463-0.626-1.103-1.109-1.917-1.45c-0.64-0.264-1.51-0.417-2.612-0.458l2.285-4.625H-114.027z"/>
			</g>
		</g>
	</g>
	<g>
		<path fill="none" stroke="#7E8080" d="M345.413,723.34v-721"/>
	</g>
	<g>
		<path fill="none" stroke="#000000" d="M345.413,723.34v-13.5 M345.413,2.34v13.5"/>
		<g transform="translate(472.5,779.7)">
			<g>
				<path d="M-140.6-27.363h4.547v1.328h-4.547V-27.363z"/>
				<path d="M-134.684-28.556c0-1.358,0.205-2.528,0.615-3.512c0.41-0.979,0.955-1.712,1.634-2.191
					c0.527-0.382,1.072-0.571,1.634-0.571c0.914,0,1.733,0.466,2.459,1.396c0.907,1.154,1.361,2.72,1.361,4.693
					c0,1.383-0.199,2.558-0.598,3.524c-0.398,0.967-0.906,1.668-1.523,2.104c-0.618,0.437-1.214,0.654-1.788,0.654
					c-1.136,0-2.082-0.671-2.837-2.014C-134.364-25.6-134.684-26.962-134.684-28.556z M-132.965-28.333
					c0,1.642,0.202,2.98,0.607,4.02c0.334,0.874,0.833,1.312,1.495,1.312c0.316,0,0.645-0.144,0.985-0.427
					c0.34-0.284,0.598-0.762,0.774-1.43c0.27-1.009,0.404-2.432,0.404-4.267c0-1.36-0.141-2.495-0.422-3.403
					c-0.211-0.675-0.484-1.152-0.818-1.435c-0.24-0.193-0.531-0.29-0.871-0.29c-0.399,0-0.753,0.179-1.064,0.537
					c-0.423,0.485-0.71,1.252-0.862,2.295C-132.889-30.377-132.965-29.348-132.965-28.333z"/>
				<path d="M-124.082-24.363c0.275,0,0.507,0.096,0.695,0.286s0.281,0.421,0.281,0.69c0,0.269-0.096,0.5-0.286,0.689
					c-0.19,0.19-0.421,0.286-0.69,0.286c-0.27,0-0.5-0.096-0.69-0.286c-0.191-0.189-0.286-0.421-0.286-0.689
					c0-0.275,0.095-0.509,0.286-0.695C-124.582-24.269-124.352-24.363-124.082-24.363z"/>
				<path d="M-113.465-27.066v1.25h-1.594v3.156h-1.453v-3.156h-5.047v-1.127l5.531-7.889h0.969v7.766H-113.465z M-116.512-27.066
					v-5.883l-4.186,5.883H-116.512z"/>
			</g>
		</g>
	</g>
	<g>
		<path fill="none" stroke="#7E8080" d="M391.413,723.34v-721"/>
	</g>
	<g>
		<path fill="none" stroke="#000000" d="M391.413,723.34v-13.5 M391.413,2.34v13.5"/>
		<g transform="translate(518.5,779.7)">
			<g>
				<path d="M-140.6-27.363h4.547v1.328h-4.547V-27.363z"/>
				<path d="M-134.684-28.556c0-1.358,0.205-2.528,0.615-3.512c0.41-0.979,0.955-1.712,1.634-2.191
					c0.527-0.382,1.072-0.571,1.634-0.571c0.914,0,1.733,0.466,2.459,1.396c0.907,1.154,1.361,2.72,1.361,4.693
					c0,1.383-0.199,2.558-0.598,3.524c-0.398,0.967-0.906,1.668-1.523,2.104c-0.618,0.437-1.214,0.654-1.788,0.654
					c-1.136,0-2.082-0.671-2.837-2.014C-134.364-25.6-134.684-26.962-134.684-28.556z M-132.965-28.333
					c0,1.642,0.202,2.98,0.607,4.02c0.334,0.874,0.833,1.312,1.495,1.312c0.316,0,0.645-0.144,0.985-0.427
					c0.34-0.284,0.598-0.762,0.774-1.43c0.27-1.009,0.404-2.432,0.404-4.267c0-1.36-0.141-2.495-0.422-3.403
					c-0.211-0.675-0.484-1.152-0.818-1.435c-0.24-0.193-0.531-0.29-0.871-0.29c-0.399,0-0.753,0.179-1.064,0.537
					c-0.423,0.485-0.71,1.252-0.862,2.295C-132.889-30.377-132.965-29.348-132.965-28.333z"/>
				<path d="M-124.082-24.363c0.275,0,0.507,0.096,0.695,0.286s0.281,0.421,0.281,0.69c0,0.269-0.096,0.5-0.286,0.689
					c-0.19,0.19-0.421,0.286-0.69,0.286c-0.27,0-0.5-0.096-0.69-0.286c-0.191-0.189-0.286-0.421-0.286-0.689
					c0-0.275,0.095-0.509,0.286-0.695C-124.582-24.269-124.352-24.363-124.082-24.363z"/>
				<path d="M-120.918-32.316c0.34-0.803,0.769-1.424,1.287-1.859c0.518-0.438,1.164-0.655,1.937-0.655
					c0.955,0,1.688,0.311,2.196,0.932c0.387,0.463,0.58,0.958,0.58,1.485c0,0.867-0.542,1.764-1.625,2.688
					c0.73,0.287,1.283,0.697,1.657,1.23s0.562,1.16,0.562,1.881c0,1.031-0.328,1.925-0.984,2.681
					c-0.856,0.984-2.097,1.478-3.721,1.478c-0.803,0-1.35-0.101-1.64-0.298c-0.291-0.199-0.437-0.412-0.437-0.641
					c0-0.17,0.069-0.318,0.207-0.446c0.139-0.129,0.305-0.193,0.497-0.193c0.146,0,0.296,0.023,0.449,0.07
					c0.101,0.028,0.326,0.135,0.678,0.317c0.353,0.184,0.597,0.293,0.73,0.328c0.217,0.063,0.449,0.096,0.695,0.096
					c0.599,0,1.12-0.23,1.563-0.693c0.443-0.462,0.665-1.01,0.665-1.644c0-0.463-0.103-0.913-0.309-1.353
					c-0.153-0.328-0.321-0.577-0.503-0.747c-0.254-0.234-0.602-0.446-1.043-0.638c-0.441-0.189-0.893-0.285-1.352-0.285h-0.283
					v-0.267c0.466-0.059,0.933-0.225,1.4-0.5c0.468-0.274,0.809-0.604,1.021-0.99c0.213-0.387,0.318-0.811,0.318-1.272
					c0-0.602-0.188-1.089-0.566-1.461c-0.379-0.371-0.85-0.557-1.411-0.557c-0.909,0-1.668,0.483-2.278,1.453L-120.918-32.316z"/>
			</g>
		</g>
	</g>
	<g>
		<path fill="none" stroke="#7E8080" d="M437.313,723.34v-721"/>
	</g>
	<g>
		<path fill="none" stroke="#000000" d="M437.313,723.34v-13.5 M437.313,2.34v13.5"/>
		<g transform="translate(564.4,779.7)">
			<g>
				<path d="M-140.6-27.363h4.547v1.328h-4.547V-27.363z"/>
				<path d="M-134.684-28.556c0-1.358,0.205-2.528,0.615-3.512c0.41-0.979,0.955-1.712,1.634-2.191
					c0.527-0.382,1.072-0.571,1.634-0.571c0.914,0,1.733,0.466,2.459,1.396c0.907,1.154,1.361,2.72,1.361,4.693
					c0,1.383-0.199,2.558-0.598,3.524s-0.906,1.668-1.523,2.104c-0.618,0.437-1.214,0.654-1.788,0.654
					c-1.136,0-2.082-0.671-2.837-2.014C-134.364-25.6-134.684-26.962-134.684-28.556z M-132.965-28.333
					c0,1.642,0.202,2.98,0.607,4.02c0.334,0.874,0.833,1.312,1.495,1.312c0.316,0,0.645-0.144,0.985-0.427
					c0.34-0.284,0.598-0.762,0.773-1.43c0.271-1.009,0.404-2.432,0.404-4.267c0-1.36-0.142-2.495-0.422-3.403
					c-0.211-0.675-0.484-1.152-0.818-1.435c-0.24-0.193-0.531-0.29-0.871-0.29c-0.398,0-0.753,0.179-1.063,0.537
					c-0.424,0.485-0.71,1.252-0.862,2.295C-132.889-30.377-132.965-29.348-132.965-28.333z"/>
				<path d="M-124.082-24.363c0.274,0,0.507,0.096,0.694,0.286c0.188,0.19,0.281,0.421,0.281,0.69c0,0.269-0.096,0.5-0.286,0.689
					c-0.189,0.19-0.421,0.286-0.689,0.286c-0.271,0-0.5-0.096-0.69-0.286c-0.19-0.189-0.286-0.421-0.286-0.689
					c0-0.275,0.096-0.509,0.286-0.695C-124.582-24.269-124.352-24.363-124.082-24.363z"/>
				<path d="M-113.59-24.97l-0.836,2.311h-7.039v-0.329c2.077-1.886,3.538-3.426,4.387-4.62c0.847-1.193,1.271-2.287,1.271-3.276
					c0-0.759-0.231-1.383-0.697-1.869c-0.465-0.488-1.021-0.732-1.668-0.732c-0.588,0-1.115,0.17-1.584,0.509
					c-0.468,0.34-0.813,0.836-1.036,1.491h-0.326c0.146-1.076,0.523-1.903,1.132-2.479c0.607-0.576,1.368-0.864,2.278-0.864
					c0.969,0,1.778,0.312,2.428,0.934c0.648,0.622,0.974,1.356,0.974,2.201c0,0.605-0.141,1.209-0.423,1.813
					c-0.435,0.948-1.14,1.954-2.116,3.015c-1.464,1.589-2.373,2.544-2.726,2.866h3.095c0.63,0,1.071-0.023,1.325-0.07
					c0.253-0.047,0.482-0.143,0.687-0.285c0.204-0.145,0.383-0.348,0.533-0.61h0.343V-24.97z"/>
			</g>
		</g>
	</g>
	<g>
		<path fill="none" stroke="#7E8080" d="M483.213,723.34v-721"/>
	</g>
	<g>
		<path fill="none" stroke="#000000" d="M483.213,723.34v-13.5 M483.213,2.34v13.5"/>
		<g transform="translate(610.3,779.7)">
			<g>
				<path d="M-140.6-27.363h4.547v1.328h-4.547V-27.363z"/>
				<path d="M-134.684-28.556c0-1.358,0.205-2.528,0.615-3.512c0.409-0.979,0.954-1.712,1.634-2.191
					c0.526-0.382,1.072-0.571,1.634-0.571c0.914,0,1.733,0.466,2.459,1.396c0.907,1.154,1.361,2.72,1.361,4.693
					c0,1.383-0.199,2.558-0.599,3.524c-0.397,0.967-0.905,1.668-1.522,2.104c-0.618,0.437-1.214,0.654-1.788,0.654
					c-1.136,0-2.082-0.671-2.837-2.014C-134.364-25.6-134.684-26.962-134.684-28.556z M-132.965-28.333
					c0,1.642,0.202,2.98,0.607,4.02c0.334,0.874,0.833,1.312,1.494,1.312c0.316,0,0.646-0.144,0.985-0.427
					c0.34-0.284,0.598-0.762,0.774-1.43c0.27-1.009,0.403-2.432,0.403-4.267c0-1.36-0.141-2.495-0.422-3.403
					c-0.211-0.675-0.483-1.152-0.817-1.435c-0.24-0.193-0.531-0.29-0.871-0.29c-0.399,0-0.753,0.179-1.064,0.537
					c-0.423,0.485-0.71,1.252-0.862,2.295C-132.889-30.377-132.965-29.348-132.965-28.333z"/>
				<path d="M-124.082-24.363c0.275,0,0.507,0.096,0.695,0.286c0.188,0.19,0.281,0.421,0.281,0.69c0,0.269-0.097,0.5-0.286,0.689
					c-0.19,0.19-0.421,0.286-0.69,0.286s-0.5-0.096-0.689-0.286c-0.191-0.189-0.286-0.421-0.286-0.689
					c0-0.275,0.095-0.509,0.286-0.695C-124.582-24.269-124.352-24.363-124.082-24.363z"/>
				<path d="M-119.731-33.425l2.896-1.406h0.291v10.078c0,0.664,0.027,1.078,0.083,1.241c0.057,0.162,0.171,0.287,0.347,0.376
					c0.176,0.087,0.532,0.137,1.07,0.147v0.328h-4.483v-0.328c0.563-0.012,0.927-0.06,1.091-0.145
					c0.165-0.084,0.278-0.197,0.344-0.342c0.064-0.143,0.097-0.568,0.097-1.279v-6.453c0-0.872-0.028-1.433-0.088-1.68
					c-0.041-0.188-0.115-0.326-0.223-0.414c-0.108-0.089-0.238-0.133-0.391-0.133c-0.216,0-0.517,0.092-0.901,0.272L-119.731-33.425
					z"/>
			</g>
		</g>
	</g>
	<g>
		<path fill="none" stroke="#7E8080" d="M529.113,723.34v-721"/>
	</g>
	<g>
		<path fill="none" stroke="#000000" d="M529.113,723.34v-13.5 M529.113,2.34v13.5"/>
		<g transform="translate(656.2,779.7)">
			<g>
				<path d="M-130.931-28.556c0-1.358,0.205-2.528,0.615-3.512c0.41-0.979,0.955-1.712,1.635-2.191
					c0.525-0.382,1.07-0.571,1.633-0.571c0.914,0,1.732,0.466,2.461,1.396c0.906,1.154,1.359,2.72,1.359,4.693
					c0,1.383-0.197,2.558-0.598,3.524c-0.396,0.967-0.906,1.668-1.523,2.104s-1.213,0.654-1.787,0.654
					c-1.137,0-2.08-0.671-2.836-2.014C-130.611-25.6-130.931-26.962-130.931-28.556z M-129.212-28.333
					c0,1.642,0.203,2.98,0.605,4.02c0.334,0.874,0.834,1.312,1.496,1.312c0.316,0,0.646-0.144,0.984-0.427
					c0.34-0.284,0.598-0.762,0.773-1.43c0.271-1.009,0.404-2.432,0.404-4.267c0-1.36-0.141-2.495-0.422-3.403
					c-0.211-0.675-0.484-1.152-0.818-1.435c-0.238-0.193-0.529-0.29-0.869-0.29c-0.398,0-0.754,0.179-1.064,0.537
					c-0.422,0.485-0.709,1.252-0.861,2.295C-129.136-30.377-129.212-29.348-129.212-28.333z"/>
			</g>
		</g>
	</g>
	<g>
		<path fill="none" stroke="#7E8080" d="M575.113,723.34v-721"/>
	</g>
	<g>
		<path fill="none" stroke="#000000" d="M575.113,723.34v-13.5 M575.113,2.34v13.5"/>
		<g transform="translate(702.2,779.7)">
			<g>
				<path d="M-137.681-28.556c0-1.358,0.205-2.528,0.615-3.512c0.41-0.979,0.955-1.712,1.635-2.191
					c0.525-0.382,1.07-0.571,1.633-0.571c0.914,0,1.732,0.466,2.461,1.396c0.906,1.154,1.359,2.72,1.359,4.693
					c0,1.383-0.197,2.558-0.598,3.524c-0.396,0.967-0.906,1.668-1.523,2.104s-1.213,0.654-1.787,0.654
					c-1.137,0-2.08-0.671-2.836-2.014C-137.361-25.6-137.681-26.962-137.681-28.556z M-135.962-28.333
					c0,1.642,0.203,2.98,0.605,4.02c0.334,0.874,0.834,1.312,1.496,1.312c0.316,0,0.646-0.144,0.984-0.427
					c0.34-0.284,0.598-0.762,0.773-1.43c0.271-1.009,0.404-2.432,0.404-4.267c0-1.36-0.141-2.495-0.422-3.403
					c-0.211-0.675-0.484-1.152-0.818-1.435c-0.238-0.193-0.529-0.29-0.869-0.29c-0.398,0-0.754,0.179-1.064,0.537
					c-0.422,0.485-0.709,1.252-0.861,2.295C-135.886-30.377-135.962-29.348-135.962-28.333z"/>
				<path d="M-127.079-24.363c0.275,0,0.508,0.096,0.695,0.286s0.281,0.421,0.281,0.69c0,0.269-0.096,0.5-0.287,0.689
					c-0.189,0.19-0.42,0.286-0.689,0.286c-0.271,0-0.5-0.096-0.689-0.286c-0.191-0.189-0.287-0.421-0.287-0.689
					c0-0.275,0.096-0.509,0.287-0.695C-127.579-24.269-127.349-24.363-127.079-24.363z"/>
				<path d="M-122.728-33.425l2.898-1.406h0.289v10.078c0,0.664,0.027,1.078,0.084,1.241c0.055,0.162,0.172,0.287,0.346,0.376
					c0.176,0.087,0.533,0.137,1.07,0.147v0.328h-4.484v-0.328c0.564-0.012,0.928-0.06,1.092-0.145
					c0.164-0.084,0.279-0.197,0.344-0.342c0.064-0.143,0.098-0.568,0.098-1.279v-6.453c0-0.872-0.029-1.433-0.088-1.68
					c-0.041-0.188-0.115-0.326-0.225-0.414c-0.107-0.089-0.236-0.133-0.389-0.133c-0.217,0-0.518,0.092-0.902,0.272L-122.728-33.425
					z"/>
			</g>
		</g>
	</g>
	<g>
		<path fill="none" stroke="#7E8080" d="M621.013,723.34v-721"/>
	</g>
	<g>
		<path fill="none" stroke="#000000" d="M621.013,723.34v-13.5 M621.013,2.34v13.5"/>
		<g transform="translate(748.1,779.7)">
			<g>
				<path d="M-137.681-28.556c0-1.358,0.205-2.528,0.615-3.512c0.41-0.979,0.955-1.712,1.633-2.191
					c0.527-0.382,1.072-0.571,1.635-0.571c0.914,0,1.732,0.466,2.459,1.396c0.908,1.154,1.361,2.72,1.361,4.693
					c0,1.383-0.199,2.558-0.598,3.524s-0.906,1.668-1.523,2.104s-1.213,0.654-1.787,0.654c-1.137,0-2.082-0.671-2.838-2.014
					C-137.36-25.6-137.681-26.962-137.681-28.556z M-135.962-28.333c0,1.642,0.203,2.98,0.607,4.02
					c0.334,0.874,0.832,1.312,1.494,1.312c0.316,0,0.646-0.144,0.984-0.427c0.34-0.284,0.6-0.762,0.773-1.43
					c0.27-1.009,0.404-2.432,0.404-4.267c0-1.36-0.141-2.495-0.422-3.403c-0.211-0.675-0.484-1.152-0.818-1.435
					c-0.24-0.193-0.529-0.29-0.869-0.29c-0.4,0-0.754,0.179-1.064,0.537c-0.424,0.485-0.711,1.252-0.861,2.295
					C-135.886-30.377-135.962-29.348-135.962-28.333z"/>
				<path d="M-127.079-24.363c0.275,0,0.508,0.096,0.695,0.286s0.281,0.421,0.281,0.69c0,0.269-0.096,0.5-0.285,0.689
					c-0.191,0.19-0.422,0.286-0.691,0.286s-0.5-0.096-0.689-0.286c-0.191-0.189-0.287-0.421-0.287-0.689
					c0-0.275,0.096-0.509,0.287-0.695C-127.579-24.269-127.349-24.363-127.079-24.363z"/>
				<path d="M-116.587-24.97l-0.836,2.311h-7.039v-0.329c2.076-1.886,3.539-3.426,4.387-4.62c0.846-1.193,1.27-2.287,1.27-3.276
					c0-0.759-0.232-1.383-0.697-1.869c-0.465-0.488-1.02-0.732-1.668-0.732c-0.588,0-1.113,0.17-1.584,0.509
					c-0.467,0.34-0.813,0.836-1.037,1.491h-0.324c0.145-1.076,0.523-1.903,1.133-2.479c0.607-0.576,1.367-0.864,2.277-0.864
					c0.971,0,1.777,0.312,2.43,0.934c0.646,0.622,0.973,1.356,0.973,2.201c0,0.605-0.141,1.209-0.424,1.813
					c-0.436,0.948-1.139,1.954-2.115,3.015c-1.463,1.589-2.373,2.544-2.727,2.866h3.096c0.631,0,1.072-0.023,1.326-0.07
					c0.252-0.047,0.48-0.143,0.686-0.285c0.205-0.145,0.383-0.348,0.533-0.61h0.342V-24.97z"/>
			</g>
		</g>
	</g>
	<g>
		<path fill="none" stroke="#7E8080" d="M666.914,723.34v-721"/>
	</g>
	<g>
		<path fill="none" stroke="#000000" d="M666.914,723.34v-13.5 M666.914,2.34v13.5"/>
		<g transform="translate(794.0,779.7)">
			<g>
				<path d="M-137.68-28.556c0-1.358,0.205-2.528,0.613-3.512c0.41-0.979,0.955-1.712,1.635-2.191
					c0.525-0.382,1.07-0.571,1.635-0.571c0.912,0,1.73,0.466,2.459,1.396c0.906,1.154,1.359,2.72,1.359,4.693
					c0,1.383-0.197,2.558-0.598,3.524c-0.398,0.966-0.906,1.668-1.521,2.104c-0.619,0.437-1.215,0.654-1.787,0.654
					c-1.139,0-2.082-0.671-2.838-2.014C-137.362-25.6-137.68-26.962-137.68-28.556z M-135.961-28.333c0,1.642,0.201,2.98,0.605,4.02
					c0.334,0.874,0.832,1.312,1.494,1.312c0.316,0,0.646-0.144,0.986-0.427c0.338-0.284,0.598-0.762,0.773-1.43
					c0.27-1.009,0.404-2.432,0.404-4.267c0-1.36-0.141-2.495-0.422-3.403c-0.211-0.675-0.484-1.152-0.818-1.435
					c-0.24-0.193-0.531-0.29-0.871-0.29c-0.398,0-0.754,0.179-1.063,0.537c-0.424,0.485-0.711,1.252-0.863,2.295
					C-135.885-30.377-135.961-29.348-135.961-28.333z"/>
				<path d="M-127.079-24.363c0.275,0,0.508,0.096,0.695,0.286c0.186,0.19,0.279,0.421,0.279,0.69c0,0.269-0.096,0.5-0.285,0.689
					c-0.189,0.19-0.42,0.286-0.689,0.286s-0.5-0.096-0.691-0.286c-0.189-0.189-0.285-0.421-0.285-0.689
					c0-0.275,0.096-0.509,0.287-0.695C-127.579-24.269-127.348-24.363-127.079-24.363z"/>
				<path d="M-123.915-32.316c0.34-0.803,0.768-1.424,1.287-1.859c0.518-0.438,1.164-0.655,1.938-0.655
					c0.953,0,1.686,0.311,2.195,0.932c0.387,0.463,0.58,0.958,0.58,1.485c0,0.867-0.543,1.764-1.625,2.688
					c0.73,0.287,1.283,0.697,1.656,1.23c0.375,0.533,0.563,1.16,0.563,1.881c0,1.031-0.328,1.925-0.984,2.681
					c-0.857,0.984-2.098,1.478-3.721,1.478c-0.805,0-1.352-0.101-1.641-0.298c-0.291-0.199-0.438-0.412-0.438-0.641
					c0-0.17,0.068-0.318,0.207-0.446c0.139-0.129,0.305-0.193,0.498-0.193c0.146,0,0.295,0.023,0.449,0.07
					c0.1,0.028,0.324,0.135,0.678,0.317c0.354,0.184,0.596,0.293,0.73,0.328c0.217,0.063,0.449,0.096,0.695,0.096
					c0.598,0,1.119-0.23,1.563-0.693c0.443-0.462,0.664-1.01,0.664-1.644c0-0.463-0.104-0.913-0.309-1.353
					c-0.154-0.328-0.32-0.577-0.504-0.747c-0.254-0.234-0.602-0.446-1.043-0.638c-0.441-0.189-0.893-0.285-1.352-0.285h-0.283
					v-0.267c0.467-0.059,0.934-0.225,1.4-0.5c0.467-0.274,0.809-0.604,1.021-0.99c0.213-0.387,0.318-0.811,0.318-1.272
					c0-0.602-0.189-1.089-0.566-1.461c-0.379-0.371-0.85-0.557-1.412-0.557c-0.908,0-1.668,0.483-2.277,1.453L-123.915-32.316z"/>
			</g>
		</g>
	</g>
	<g>
		<path fill="none" stroke="#7E8080" d="M712.914,723.34v-721"/>
	</g>
	<g>
		<path fill="none" stroke="#000000" d="M712.914,723.34v-13.5 M712.914,2.34v13.5"/>
		<g transform="translate(840.0,779.7)">
			<g>
				<path d="M-137.68-28.556c0-1.358,0.205-2.528,0.613-3.512c0.41-0.979,0.955-1.712,1.635-2.191
					c0.525-0.382,1.07-0.571,1.635-0.571c0.912,0,1.73,0.466,2.459,1.396c0.906,1.154,1.359,2.72,1.359,4.693
					c0,1.383-0.197,2.558-0.598,3.524c-0.398,0.966-0.906,1.668-1.521,2.104c-0.619,0.437-1.215,0.654-1.787,0.654
					c-1.139,0-2.082-0.671-2.838-2.014C-137.362-25.6-137.68-26.962-137.68-28.556z M-135.961-28.333c0,1.642,0.201,2.98,0.605,4.02
					c0.334,0.874,0.832,1.312,1.494,1.312c0.316,0,0.646-0.144,0.986-0.427c0.338-0.284,0.598-0.762,0.773-1.43
					c0.27-1.009,0.404-2.432,0.404-4.267c0-1.36-0.141-2.495-0.422-3.403c-0.211-0.675-0.484-1.152-0.818-1.435
					c-0.24-0.193-0.531-0.29-0.871-0.29c-0.398,0-0.754,0.179-1.063,0.537c-0.424,0.485-0.711,1.252-0.863,2.295
					C-135.885-30.377-135.961-29.348-135.961-28.333z"/>
				<path d="M-127.079-24.363c0.275,0,0.508,0.096,0.695,0.286c0.186,0.19,0.279,0.421,0.279,0.69c0,0.269-0.096,0.5-0.285,0.689
					c-0.189,0.19-0.42,0.286-0.689,0.286s-0.5-0.096-0.691-0.286c-0.189-0.189-0.285-0.421-0.285-0.689
					c0-0.275,0.096-0.509,0.287-0.695C-127.579-24.269-127.348-24.363-127.079-24.363z"/>
				<path d="M-116.461-27.066v1.25h-1.594v3.156h-1.453v-3.156h-5.047v-1.127l5.529-7.889h0.971v7.766H-116.461z M-119.508-27.066
					v-5.883l-4.188,5.883H-119.508z"/>
			</g>
		</g>
	</g>
	<g>
		<path fill="none" stroke="#7E8080" d="M758.812,723.34v-721"/>
	</g>
	<g>
		<path fill="none" stroke="#000000" d="M758.812,723.34v-13.5 M758.812,2.34v13.5"/>
		<g transform="translate(885.9,779.7)">
			<g>
				<path d="M-137.68-28.556c0-1.358,0.205-2.528,0.613-3.512c0.41-0.979,0.955-1.712,1.635-2.191
					c0.527-0.382,1.072-0.571,1.633-0.571c0.914,0,1.734,0.466,2.461,1.396c0.906,1.154,1.361,2.72,1.361,4.693
					c0,1.383-0.199,2.558-0.598,3.524c-0.4,0.966-0.906,1.668-1.523,2.104c-0.619,0.437-1.215,0.654-1.789,0.654
					c-1.135,0-2.08-0.671-2.836-2.014C-137.361-25.6-137.68-26.962-137.68-28.556z M-135.963-28.333c0,1.642,0.201,2.98,0.607,4.02
					c0.334,0.874,0.832,1.312,1.494,1.312c0.316,0,0.645-0.144,0.984-0.427c0.34-0.284,0.6-0.762,0.775-1.43
					c0.27-1.009,0.404-2.432,0.404-4.267c0-1.36-0.143-2.495-0.422-3.403c-0.213-0.675-0.484-1.152-0.818-1.435
					c-0.24-0.193-0.531-0.29-0.871-0.29c-0.398,0-0.754,0.179-1.064,0.537c-0.422,0.485-0.709,1.252-0.861,2.295
					C-135.885-30.377-135.963-29.348-135.963-28.333z"/>
				<path d="M-127.078-24.363c0.273,0,0.506,0.096,0.693,0.286c0.189,0.19,0.281,0.421,0.281,0.69c0,0.269-0.096,0.5-0.287,0.689
					c-0.188,0.19-0.42,0.286-0.688,0.286c-0.271,0-0.5-0.096-0.691-0.286c-0.189-0.189-0.285-0.421-0.285-0.689
					c0-0.275,0.096-0.509,0.285-0.695C-127.578-24.269-127.35-24.363-127.078-24.363z"/>
				<path d="M-117.024-34.581l-0.689,1.5h-3.594l-0.787,1.592c1.564,0.229,2.801,0.806,3.709,1.73
					c0.781,0.797,1.172,1.733,1.172,2.813c0,0.627-0.129,1.207-0.383,1.74c-0.256,0.533-0.576,0.986-0.963,1.361
					c-0.389,0.375-0.816,0.677-1.295,0.904c-0.674,0.322-1.365,0.483-2.076,0.483c-0.715,0-1.234-0.121-1.561-0.363
					s-0.488-0.509-0.488-0.801c0-0.163,0.066-0.308,0.203-0.433c0.135-0.127,0.305-0.188,0.512-0.188c0.152,0,0.287,0.023,0.4,0.07
					c0.115,0.047,0.311,0.166,0.588,0.357c0.439,0.305,0.885,0.459,1.336,0.466c0.684,0,1.285-0.26,1.805-0.778
					c0.52-0.521,0.777-1.153,0.777-1.899c0-0.723-0.232-1.396-0.695-2.021c-0.463-0.626-1.102-1.109-1.916-1.45
					c-0.641-0.264-1.51-0.417-2.611-0.458l2.283-4.625H-117.024z"/>
			</g>
		</g>
	</g>
	<g>
		<path fill="none" stroke="#7E8080" d="M804.712,723.34v-721"/>
	</g>
	<g>
		<path fill="none" stroke="#000000" d="M804.712,723.34v-13.5 M804.712,2.34v13.5"/>
		<g transform="translate(931.8,779.7)">
			<g>
				<path d="M-137.681-28.556c0-1.358,0.205-2.528,0.615-3.512c0.408-0.979,0.953-1.712,1.635-2.191
					c0.525-0.382,1.07-0.571,1.633-0.571c0.914,0,1.732,0.466,2.459,1.396c0.908,1.154,1.361,2.72,1.361,4.693
					c0,1.383-0.199,2.558-0.598,3.524c-0.396,0.967-0.906,1.668-1.523,2.104s-1.213,0.654-1.787,0.654
					c-1.137,0-2.082-0.671-2.836-2.014C-137.363-25.6-137.681-26.962-137.681-28.556z M-135.963-28.333
					c0,1.642,0.203,2.98,0.607,4.02c0.334,0.874,0.832,1.312,1.496,1.312c0.314,0,0.645-0.144,0.982-0.427
					c0.34-0.284,0.598-0.762,0.775-1.43c0.27-1.009,0.402-2.432,0.402-4.267c0-1.36-0.141-2.495-0.422-3.403
					c-0.211-0.675-0.482-1.152-0.816-1.435c-0.24-0.193-0.531-0.29-0.871-0.29c-0.398,0-0.754,0.179-1.064,0.537
					c-0.422,0.485-0.709,1.252-0.861,2.295C-135.886-30.377-135.963-29.348-135.963-28.333z"/>
				<path d="M-127.08-24.363c0.275,0,0.508,0.096,0.695,0.286s0.281,0.421,0.281,0.69c0,0.269-0.096,0.5-0.285,0.689
					c-0.191,0.19-0.422,0.286-0.691,0.286s-0.5-0.096-0.689-0.286c-0.191-0.189-0.285-0.421-0.285-0.689
					c0-0.275,0.094-0.509,0.285-0.695C-127.58-24.269-127.349-24.363-127.08-24.363z"/>
				<path d="M-116.759-34.831v0.344c-0.773,0.076-1.404,0.229-1.895,0.46c-0.49,0.231-0.975,0.583-1.451,1.056
					c-0.477,0.474-0.873,1-1.188,1.581c-0.313,0.581-0.576,1.271-0.787,2.071c0.846-0.581,1.689-0.871,2.539-0.871
					c0.814,0,1.521,0.328,2.119,0.984c0.596,0.656,0.896,1.5,0.896,2.531c0,0.996-0.303,1.903-0.906,2.725
					c-0.727,0.996-1.688,1.494-2.883,1.494c-0.814,0-1.504-0.271-2.072-0.81c-1.113-1.049-1.67-2.407-1.67-4.077
					c0-1.066,0.213-2.08,0.641-3.041s1.039-1.813,1.834-2.559c0.793-0.745,1.555-1.245,2.281-1.503
					c0.725-0.258,1.402-0.387,2.031-0.387L-116.759-34.831L-116.759-34.831z M-122.228-28.679c-0.104,0.789-0.156,1.428-0.156,1.912
					c0,0.563,0.104,1.174,0.313,1.831c0.207,0.658,0.518,1.181,0.928,1.566c0.299,0.274,0.662,0.412,1.09,0.412
					c0.51,0,0.965-0.24,1.365-0.72c0.402-0.479,0.604-1.164,0.604-2.055c0-1.001-0.199-1.867-0.598-2.598
					c-0.398-0.732-0.965-1.098-1.697-1.098c-0.223,0-0.461,0.047-0.717,0.141C-121.351-29.192-121.73-28.99-122.228-28.679z"/>
			</g>
		</g>
	</g>
	<g>
		<path fill="none" stroke="#7E8080" d="M850.712,723.34v-721"/>
	</g>
	<g>
		<path fill="none" stroke="#000000" d="M850.712,723.34v-13.5 M850.712,2.34v13.5"/>
		<g transform="translate(977.8,779.7)">
			<g>
				<path d="M-137.681-28.556c0-1.358,0.205-2.528,0.615-3.512c0.408-0.979,0.953-1.712,1.635-2.191
					c0.525-0.382,1.07-0.571,1.633-0.571c0.914,0,1.732,0.466,2.459,1.396c0.908,1.154,1.361,2.72,1.361,4.693
					c0,1.383-0.199,2.558-0.598,3.524c-0.396,0.967-0.906,1.668-1.523,2.104s-1.213,0.654-1.787,0.654
					c-1.137,0-2.082-0.671-2.836-2.014C-137.363-25.6-137.681-26.962-137.681-28.556z M-135.963-28.333
					c0,1.642,0.203,2.98,0.607,4.02c0.334,0.874,0.832,1.312,1.496,1.312c0.314,0,0.645-0.144,0.982-0.427
					c0.34-0.284,0.598-0.762,0.775-1.43c0.27-1.009,0.402-2.432,0.402-4.267c0-1.36-0.141-2.495-0.422-3.403
					c-0.211-0.675-0.482-1.152-0.816-1.435c-0.24-0.193-0.531-0.29-0.871-0.29c-0.398,0-0.754,0.179-1.064,0.537
					c-0.422,0.485-0.709,1.252-0.861,2.295C-135.886-30.377-135.963-29.348-135.963-28.333z"/>
				<path d="M-127.08-24.363c0.275,0,0.508,0.096,0.695,0.286s0.281,0.421,0.281,0.69c0,0.269-0.096,0.5-0.285,0.689
					c-0.191,0.19-0.422,0.286-0.691,0.286s-0.5-0.096-0.689-0.286c-0.191-0.189-0.285-0.421-0.285-0.689
					c0-0.275,0.094-0.509,0.285-0.695C-127.58-24.269-127.349-24.363-127.08-24.363z"/>
				<path d="M-123.025-34.581h6.387v0.338l-3.965,11.834h-0.986l3.564-10.734h-3.281c-0.662,0-1.135,0.079-1.416,0.237
					c-0.492,0.271-0.891,0.687-1.189,1.248l-0.254-0.097L-123.025-34.581z"/>
			</g>
		</g>
	</g>
	<g>
		<path fill="none" stroke="#7E8080" d="M896.613,723.34v-721"/>
	</g>
	<g>
		<path fill="none" stroke="#000000" d="M896.613,723.34v-13.5 M896.613,2.34v13.5"/>
		<g transform="translate(1023.7,779.7)">
			<g>
				<path d="M-137.681-28.556c0-1.358,0.205-2.528,0.615-3.512c0.41-0.979,0.955-1.712,1.635-2.191
					c0.525-0.382,1.07-0.571,1.633-0.571c0.914,0,1.732,0.466,2.461,1.396c0.906,1.154,1.359,2.72,1.359,4.693
					c0,1.383-0.197,2.558-0.598,3.524c-0.396,0.967-0.906,1.668-1.523,2.104s-1.213,0.654-1.787,0.654
					c-1.137,0-2.08-0.671-2.836-2.014C-137.361-25.6-137.681-26.962-137.681-28.556z M-135.962-28.333
					c0,1.642,0.203,2.98,0.605,4.02c0.334,0.874,0.834,1.312,1.496,1.312c0.316,0,0.646-0.144,0.984-0.427
					c0.34-0.284,0.598-0.762,0.773-1.43c0.271-1.009,0.404-2.432,0.404-4.267c0-1.36-0.141-2.495-0.422-3.403
					c-0.211-0.675-0.484-1.152-0.818-1.435c-0.238-0.193-0.529-0.29-0.869-0.29c-0.398,0-0.754,0.179-1.064,0.537
					c-0.422,0.485-0.709,1.252-0.861,2.295C-135.886-30.377-135.962-29.348-135.962-28.333z"/>
				<path d="M-127.079-24.363c0.275,0,0.508,0.096,0.695,0.286s0.281,0.421,0.281,0.69c0,0.269-0.096,0.5-0.287,0.689
					c-0.189,0.19-0.42,0.286-0.689,0.286c-0.271,0-0.5-0.096-0.689-0.286c-0.191-0.189-0.287-0.421-0.287-0.689
					c0-0.275,0.096-0.509,0.287-0.695C-127.579-24.269-127.349-24.363-127.079-24.363z"/>
				<path d="M-121.378-28.662c-0.947-0.774-1.557-1.396-1.83-1.865c-0.273-0.47-0.41-0.956-0.41-1.461
					c0-0.773,0.299-1.442,0.896-2.002c0.6-0.561,1.395-0.841,2.387-0.841c0.961,0,1.734,0.262,2.32,0.783
					c0.588,0.521,0.881,1.117,0.881,1.787c0,0.444-0.158,0.899-0.475,1.363s-0.975,1.01-1.977,1.638
					c1.031,0.796,1.715,1.422,2.049,1.879c0.445,0.597,0.668,1.226,0.668,1.888c0,0.836-0.32,1.552-0.959,2.146
					c-0.639,0.595-1.479,0.892-2.514,0.892c-1.133,0-2.016-0.354-2.646-1.063c-0.504-0.566-0.756-1.188-0.756-1.859
					c0-0.526,0.176-1.049,0.531-1.567C-122.857-27.464-122.245-28.036-121.378-28.662z M-120.964-28.328
					c-0.488,0.407-0.85,0.852-1.084,1.332c-0.234,0.479-0.352,1-0.352,1.56c0,0.751,0.207,1.354,0.619,1.805
					c0.414,0.45,0.941,0.677,1.582,0.677c0.633,0,1.141-0.178,1.523-0.533c0.381-0.354,0.57-0.785,0.57-1.293
					c0-0.419-0.109-0.794-0.334-1.126C-118.855-26.526-119.697-27.332-120.964-28.328z M-119.997-29.603
					c0.701-0.635,1.145-1.137,1.334-1.504c0.186-0.367,0.279-0.783,0.279-1.248c0-0.618-0.174-1.102-0.52-1.451
					c-0.346-0.351-0.814-0.524-1.414-0.524c-0.598,0-1.084,0.174-1.457,0.521c-0.375,0.348-0.563,0.753-0.563,1.219
					c0,0.306,0.076,0.61,0.232,0.917c0.154,0.306,0.375,0.597,0.664,0.874L-119.997-29.603z"/>
			</g>
		</g>
	</g>
	<g>
		<path fill="none" stroke="#7E8080" d="M942.513,723.34v-721"/>
	</g>
	<g>
		<path fill="none" stroke="#000000" d="M942.513,723.34v-13.5 M942.513,2.34v13.5"/>
		<g transform="translate(1069.6,779.7)">
			<g>
				<path d="M-137.681-28.556c0-1.358,0.205-2.528,0.615-3.512c0.41-0.979,0.955-1.712,1.633-2.191
					c0.527-0.382,1.072-0.571,1.635-0.571c0.914,0,1.732,0.466,2.459,1.396c0.908,1.154,1.361,2.72,1.361,4.693
					c0,1.383-0.199,2.558-0.598,3.524s-0.906,1.668-1.523,2.104s-1.213,0.654-1.787,0.654c-1.137,0-2.082-0.671-2.838-2.014
					C-137.36-25.6-137.681-26.962-137.681-28.556z M-135.962-28.333c0,1.642,0.203,2.98,0.607,4.02
					c0.334,0.874,0.832,1.312,1.494,1.312c0.316,0,0.646-0.144,0.984-0.427c0.34-0.284,0.6-0.762,0.773-1.43
					c0.27-1.009,0.404-2.432,0.404-4.267c0-1.36-0.141-2.495-0.422-3.403c-0.211-0.675-0.484-1.152-0.818-1.435
					c-0.24-0.193-0.529-0.29-0.869-0.29c-0.4,0-0.754,0.179-1.064,0.537c-0.424,0.485-0.711,1.252-0.861,2.295
					C-135.886-30.377-135.962-29.348-135.962-28.333z"/>
				<path d="M-127.079-24.363c0.275,0,0.508,0.096,0.695,0.286s0.281,0.421,0.281,0.69c0,0.269-0.096,0.5-0.285,0.689
					c-0.191,0.19-0.422,0.286-0.691,0.286s-0.5-0.096-0.689-0.286c-0.191-0.189-0.287-0.421-0.287-0.689
					c0-0.275,0.096-0.509,0.287-0.695C-127.579-24.269-127.349-24.363-127.079-24.363z"/>
				<path d="M-123.899-22.409v-0.328c0.762-0.012,1.473-0.188,2.129-0.532c0.656-0.343,1.291-0.941,1.904-1.798
					c0.611-0.855,1.037-1.797,1.277-2.819c-0.92,0.59-1.752,0.885-2.496,0.885c-0.838,0-1.557-0.324-2.152-0.973
					c-0.6-0.647-0.896-1.509-0.896-2.582c0-1.044,0.299-1.973,0.896-2.787c0.721-0.99,1.662-1.486,2.82-1.486
					c0.98,0,1.816,0.404,2.516,1.214c0.854,1.003,1.281,2.241,1.281,3.713c0,1.325-0.322,2.563-0.975,3.708
					c-0.652,1.146-1.557,2.098-2.719,2.854c-0.943,0.622-1.973,0.933-3.086,0.933L-123.899-22.409L-123.899-22.409z
					 M-118.446-28.538c0.104-0.762,0.154-1.371,0.154-1.829c0-0.568-0.096-1.183-0.289-1.842c-0.191-0.659-0.469-1.165-0.82-1.518
					c-0.355-0.352-0.76-0.526-1.209-0.526c-0.521,0-0.98,0.233-1.371,0.703c-0.393,0.469-0.59,1.167-0.59,2.093
					c0,1.235,0.262,2.204,0.781,2.9c0.383,0.505,0.852,0.757,1.408,0.757c0.271,0,0.588-0.064,0.957-0.193
					C-119.054-28.122-118.727-28.304-118.446-28.538z"/>
			</g>
		</g>
	</g>
	<g>
		<path fill="none" stroke="#7E8080" d="M988.513,723.34v-721"/>
	</g>
	<g>
		<path fill="none" stroke="#000000" d="M988.513,723.34v-13.5 M988.513,2.34v13.5"/>
		<g transform="translate(1115.6,779.7)">
			<g>
				<path d="M-129.477-33.425l2.896-1.406h0.289v10.078c0,0.664,0.027,1.078,0.084,1.241c0.057,0.162,0.172,0.287,0.348,0.376
					c0.176,0.087,0.531,0.137,1.068,0.147v0.328h-4.482v-0.328c0.563-0.012,0.928-0.06,1.092-0.145
					c0.164-0.084,0.279-0.197,0.344-0.342c0.064-0.143,0.096-0.568,0.096-1.279v-6.453c0-0.872-0.029-1.433-0.088-1.68
					c-0.041-0.188-0.115-0.326-0.223-0.414c-0.109-0.089-0.238-0.133-0.391-0.133c-0.217,0-0.518,0.092-0.902,0.272L-129.477-33.425
					z"/>
			</g>
		</g>
	</g>
	<g>
		<path fill="none" stroke="#7E8080" d="M1034.414,723.34v-721"/>
	</g>
	<g>
		<path fill="none" stroke="#000000" d="M1034.414,723.34v-13.5 M1034.414,2.34v13.5"/>
		<g transform="translate(1161.5,779.7)">
			<g>
				<path d="M-136.229-33.425l2.896-1.406h0.291v10.078c0,0.664,0.027,1.078,0.084,1.241c0.055,0.162,0.17,0.287,0.346,0.376
					c0.178,0.087,0.533,0.137,1.07,0.147v0.328h-4.484v-0.328c0.564-0.012,0.928-0.06,1.092-0.145
					c0.166-0.084,0.279-0.197,0.344-0.342c0.064-0.143,0.098-0.568,0.098-1.279v-6.453c0-0.872-0.029-1.433-0.088-1.68
					c-0.041-0.188-0.115-0.326-0.223-0.414c-0.109-0.089-0.238-0.133-0.393-0.133c-0.215,0-0.516,0.092-0.9,0.272L-136.229-33.425z"
					/>
				<path d="M-127.079-24.363c0.275,0,0.508,0.096,0.695,0.286c0.186,0.19,0.279,0.421,0.279,0.69c0,0.269-0.096,0.5-0.285,0.689
					c-0.189,0.19-0.42,0.286-0.689,0.286s-0.5-0.096-0.691-0.286c-0.189-0.189-0.285-0.421-0.285-0.689
					c0-0.275,0.096-0.509,0.287-0.695C-127.579-24.269-127.348-24.363-127.079-24.363z"/>
				<path d="M-122.729-33.425l2.896-1.406h0.291v10.078c0,0.664,0.027,1.078,0.084,1.241c0.055,0.162,0.17,0.287,0.346,0.376
					c0.178,0.087,0.533,0.137,1.07,0.147v0.328h-4.484v-0.328c0.564-0.012,0.928-0.06,1.092-0.145
					c0.166-0.084,0.279-0.197,0.344-0.342c0.064-0.143,0.098-0.568,0.098-1.279v-6.453c0-0.872-0.029-1.433-0.088-1.68
					c-0.041-0.188-0.115-0.326-0.223-0.414c-0.109-0.089-0.238-0.133-0.393-0.133c-0.215,0-0.516,0.092-0.9,0.272L-122.729-33.425z"
					/>
			</g>
		</g>
	</g>
	<g>
		<path fill="none" stroke="#7E8080" stroke-width="2" d="M23.913,362.84h1010.5 M529.212,723.34v-721"/>
	</g>
	<g>
		<path fill="none" stroke="#FF0000" stroke-width="4" style="stroke-linejoin:round" d="M 69.813,723.346 C 69.813,668.568 109.085,616.256 176.709,563.573 C 264.810,494.937 396.727,429.022 529.153,362.860 C 661.579,296.698 793.495,230.783 881.597,162.147 C 949.221,109.465 988.493,57.153 988.493,2.374"/>
	</g>
	<g>
		<path fill="none" stroke="#7E8080" d="M23.913,2.34h1010.5"/>
	</g>
	<g>
		<path fill="none" stroke="#000000" d="M23.913,2.34v721h1010.5v-721H23.913L23.913,2.34z"/>
	</g>
	<g>
		<path fill="none" stroke="#000000" d="M23.913,2.34v721h1010.5v-721H23.913L23.913,2.34z"/>
	</g>
	<g>
		<path d="M7.193,364.129c0-1.359,0.205-2.53,0.615-3.511c0.41-0.981,0.955-1.712,1.634-2.193c0.527-0.381,1.072-0.571,1.634-0.571
			c0.914,0,1.733,0.467,2.459,1.397c0.907,1.154,1.361,2.719,1.361,4.693c0,1.383-0.199,2.558-0.598,3.523
			c-0.398,0.967-0.906,1.668-1.523,2.105c-0.618,0.437-1.214,0.654-1.788,0.654c-1.136,0-2.082-0.671-2.837-2.013
			C7.513,367.085,7.193,365.723,7.193,364.129z M8.912,364.351c0,1.644,0.202,2.982,0.607,4.021
			c0.334,0.874,0.833,1.311,1.495,1.311c0.316,0,0.645-0.142,0.985-0.426c0.34-0.285,0.598-0.761,0.774-1.43
			c0.27-1.009,0.404-2.432,0.404-4.267c0-1.359-0.141-2.494-0.422-3.403c-0.211-0.674-0.484-1.152-0.818-1.435
			c-0.24-0.192-0.531-0.291-0.871-0.291c-0.399,0-0.753,0.18-1.064,0.537c-0.423,0.487-0.71,1.252-0.862,2.296
			C8.988,362.308,8.912,363.337,8.912,364.351z"/>
	</g>
</g>
<g id="Layer_2">
	<g>
		<path d="M19.506,0v1.281h-2.037l-0.176,2.683c-0.035,0.465-0.053,0.868-0.053,1.208c0,0.818,0.096,1.316,0.287,1.496
			s0.422,0.269,0.692,0.269c0.564,0,0.899-0.354,1.005-1.063h0.313c-0.194,1.625-0.846,2.438-1.955,2.438
			c-0.517,0-0.932-0.159-1.246-0.476c-0.313-0.317-0.471-0.787-0.471-1.409c0-0.411,0.062-1.281,0.185-2.608l0.237-2.538h-1.859
			c-0.123,2.138-0.271,3.701-0.442,4.688c-0.173,0.987-0.362,1.625-0.569,1.912c-0.208,0.288-0.489,0.432-0.846,0.432
			c-0.269,0-0.495-0.08-0.679-0.238c-0.184-0.159-0.276-0.367-0.276-0.626c0-0.246,0.157-0.584,0.471-1.013
			c0.459-0.623,0.802-1.271,1.03-1.943c0.227-0.672,0.398-1.743,0.515-3.211h-0.597c-0.479,0-0.847,0.107-1.102,0.32
			c-0.254,0.213-0.496,0.518-0.724,0.915h-0.313c0.17-0.625,0.39-1.139,0.659-1.542c0.269-0.403,0.546-0.666,0.83-0.789
			C12.669,0.062,13.175,0,13.901,0H19.506z"/>
		<path d="M19.021,27.352l-0.836,2.311h-7.039v-0.329c2.077-1.886,3.538-3.426,4.386-4.62c0.847-1.194,1.271-2.287,1.271-3.277
			c0-0.758-0.232-1.382-0.697-1.87c-0.465-0.488-1.021-0.732-1.668-0.732c-0.588,0-1.116,0.17-1.584,0.509
			c-0.468,0.339-0.813,0.836-1.037,1.491H11.49c0.146-1.077,0.524-1.903,1.132-2.479s1.368-0.864,2.278-0.864
			c0.969,0,1.779,0.312,2.428,0.934c0.649,0.622,0.974,1.356,0.974,2.201c0,0.605-0.141,1.209-0.423,1.813
			c-0.435,0.949-1.14,1.954-2.116,3.015c-1.464,1.588-2.373,2.544-2.726,2.866h3.095c0.63,0,1.071-0.023,1.325-0.07
			c0.253-0.047,0.482-0.142,0.687-0.286s0.382-0.347,0.533-0.611h0.344V27.352z"/>
	</g>
	<line fill="none" x1="2.771" y1="15.235" x2="10.179" y2="15.235"/>
	<line fill="none" stroke="#000000" x1="11.771" y1="13.235" x2="19.179" y2="13.235"/>
	<g>
		<path d="M10.3,45.388l-0.688,1.5H6.019L5.232,48.48c1.563,0.229,2.799,0.806,3.709,1.731c0.781,0.797,1.172,1.734,1.172,2.812
			c0,0.627-0.128,1.207-0.383,1.74c-0.255,0.533-0.576,0.987-0.963,1.362C8.38,56.5,7.949,56.802,7.474,57.03
			c-0.674,0.322-1.366,0.483-2.076,0.483c-0.716,0-1.236-0.121-1.562-0.363c-0.326-0.242-0.488-0.509-0.488-0.801
			c0-0.164,0.067-0.308,0.203-0.434c0.135-0.125,0.306-0.188,0.512-0.188c0.153,0,0.287,0.023,0.401,0.07
			c0.115,0.047,0.311,0.167,0.587,0.359c0.439,0.303,0.884,0.458,1.335,0.466c0.685,0,1.287-0.26,1.805-0.78
			c0.518-0.52,0.778-1.153,0.778-1.899c0-0.723-0.232-1.396-0.695-2.022c-0.463-0.625-1.103-1.108-1.917-1.449
			c-0.64-0.265-1.51-0.417-2.612-0.458l2.285-4.625L10.3,45.388L10.3,45.388z"/>
		<path d="M20.222,49.247v1.281h-2.037l-0.176,2.683c-0.035,0.465-0.053,0.868-0.053,1.208c0,0.818,0.096,1.316,0.287,1.496
			c0.191,0.18,0.422,0.269,0.692,0.269c0.564,0,0.899-0.354,1.005-1.063h0.313c-0.194,1.625-0.846,2.438-1.955,2.438
			c-0.517,0-0.932-0.159-1.246-0.476c-0.313-0.317-0.471-0.787-0.471-1.409c0-0.411,0.062-1.281,0.185-2.608l0.237-2.538h-1.859
			c-0.123,2.138-0.271,3.701-0.442,4.688c-0.173,0.987-0.362,1.625-0.569,1.912c-0.208,0.288-0.489,0.432-0.846,0.432
			c-0.269,0-0.495-0.08-0.679-0.238c-0.184-0.159-0.276-0.367-0.276-0.626c0-0.246,0.157-0.584,0.471-1.013
			c0.459-0.623,0.802-1.271,1.03-1.943c0.227-0.672,0.398-1.743,0.515-3.211H13.75c-0.479,0-0.847,0.107-1.102,0.32
			c-0.254,0.213-0.496,0.518-0.724,0.915h-0.313c0.17-0.625,0.39-1.139,0.659-1.542c0.269-0.403,0.546-0.666,0.83-0.789
			c0.284-0.123,0.789-0.184,1.515-0.184h5.607V49.247z"/>
		<path d="M4.597,68.144l2.897-1.406h0.291v10.078c0,0.664,0.027,1.078,0.083,1.241c0.056,0.163,0.171,0.288,0.347,0.376
			c0.175,0.087,0.532,0.137,1.07,0.148v0.328H4.8v-0.328c0.563-0.012,0.927-0.06,1.091-0.145c0.165-0.084,0.279-0.198,0.344-0.341
			c0.064-0.143,0.097-0.569,0.097-1.28v-6.453c0-0.872-0.029-1.432-0.088-1.679c-0.041-0.188-0.115-0.327-0.223-0.415
			s-0.238-0.132-0.39-0.132c-0.216,0-0.517,0.091-0.902,0.272L4.597,68.144z"/>
		<path d="M19.738,76.599l-0.836,2.311h-7.039v-0.329c2.077-1.886,3.538-3.426,4.386-4.62c0.847-1.194,1.271-2.287,1.271-3.277
			c0-0.758-0.232-1.382-0.697-1.87c-0.465-0.488-1.021-0.732-1.668-0.732c-0.588,0-1.116,0.17-1.584,0.509
			c-0.468,0.339-0.813,0.836-1.037,1.491h-0.326c0.146-1.077,0.524-1.903,1.132-2.479c0.608-0.576,1.368-0.864,2.278-0.864
			c0.969,0,1.779,0.312,2.428,0.934s0.974,1.356,0.974,2.201c0,0.605-0.141,1.209-0.423,1.813c-0.435,0.949-1.14,1.954-2.116,3.015
			c-1.464,1.588-2.373,2.544-2.726,2.866h3.095c0.63,0,1.071-0.023,1.325-0.07c0.253-0.047,0.482-0.142,0.687-0.286
			c0.205-0.144,0.382-0.347,0.533-0.611h0.343V76.599z"/>
	</g>
	<g>
		<path d="M21.407,108.753v1.281H19.37l-0.176,2.683c-0.035,0.465-0.053,0.868-0.053,1.208c0,0.818,0.096,1.316,0.287,1.496
			c0.191,0.18,0.422,0.269,0.692,0.269c0.564,0,0.899-0.354,1.005-1.063h0.313c-0.194,1.625-0.846,2.438-1.955,2.438
			c-0.517,0-0.932-0.159-1.246-0.476c-0.313-0.317-0.471-0.787-0.471-1.409c0-0.411,0.062-1.281,0.185-2.608l0.237-2.538h-1.859
			c-0.123,2.138-0.271,3.701-0.442,4.688c-0.173,0.987-0.362,1.625-0.569,1.912c-0.208,0.288-0.489,0.432-0.846,0.432
			c-0.269,0-0.495-0.08-0.679-0.238c-0.184-0.159-0.276-0.367-0.276-0.626c0-0.246,0.157-0.584,0.471-1.013
			c0.459-0.623,0.802-1.271,1.03-1.943c0.227-0.672,0.398-1.743,0.515-3.211h-0.597c-0.479,0-0.847,0.107-1.102,0.32
			c-0.254,0.213-0.496,0.518-0.724,0.915h-0.313c0.17-0.625,0.39-1.139,0.659-1.542s0.546-0.666,0.83-0.789
			c0.284-0.123,0.789-0.184,1.515-0.184h5.606V108.753z"/>
		<path d="M13.595,128.76c0.34-0.803,0.769-1.423,1.287-1.86s1.164-0.655,1.937-0.655c0.955,0,1.687,0.311,2.196,0.932
			c0.387,0.463,0.58,0.958,0.58,1.485c0,0.867-0.542,1.764-1.625,2.689c0.73,0.287,1.283,0.697,1.657,1.23
			c0.374,0.533,0.562,1.16,0.562,1.881c0,1.031-0.328,1.925-0.985,2.681c-0.856,0.984-2.096,1.477-3.72,1.477
			c-0.803,0-1.35-0.1-1.64-0.298c-0.291-0.199-0.436-0.412-0.436-0.64c0-0.169,0.069-0.319,0.207-0.447
			c0.138-0.128,0.304-0.193,0.497-0.193c0.146,0,0.296,0.023,0.449,0.07c0.1,0.029,0.326,0.135,0.678,0.319
			c0.352,0.184,0.596,0.293,0.73,0.328c0.217,0.064,0.449,0.096,0.695,0.096c0.599,0,1.12-0.231,1.563-0.694
			c0.443-0.462,0.665-1.01,0.665-1.643c0-0.463-0.103-0.914-0.309-1.353c-0.153-0.328-0.321-0.577-0.503-0.747
			c-0.254-0.234-0.601-0.447-1.043-0.637c-0.441-0.19-0.892-0.286-1.351-0.286h-0.283v-0.266c0.465-0.059,0.932-0.225,1.4-0.5
			c0.468-0.275,0.809-0.605,1.021-0.991c0.212-0.386,0.318-0.81,0.318-1.272c0-0.602-0.189-1.089-0.567-1.46
			c-0.378-0.371-0.849-0.557-1.411-0.557c-0.909,0-1.668,0.484-2.278,1.453L13.595,128.76z"/>
	</g>
	<line fill="none" stroke="#000000" x1="13.673" y1="121.989" x2="21.08" y2="121.989"/>
	<g>
		<path d="M20.938,168.247v1.281h-2.037l-0.176,2.683c-0.035,0.465-0.053,0.868-0.053,1.208c0,0.818,0.096,1.316,0.287,1.496
			s0.422,0.269,0.692,0.269c0.564,0,0.899-0.354,1.005-1.063h0.313c-0.194,1.625-0.846,2.438-1.955,2.438
			c-0.517,0-0.932-0.159-1.246-0.476c-0.313-0.317-0.471-0.787-0.471-1.409c0-0.411,0.062-1.281,0.185-2.608l0.237-2.538H15.86
			c-0.123,2.138-0.271,3.701-0.442,4.688c-0.173,0.987-0.362,1.625-0.569,1.912c-0.208,0.288-0.489,0.432-0.846,0.432
			c-0.269,0-0.495-0.08-0.679-0.238c-0.184-0.159-0.276-0.367-0.276-0.626c0-0.246,0.157-0.584,0.471-1.013
			c0.459-0.623,0.802-1.271,1.03-1.943c0.227-0.672,0.398-1.743,0.515-3.211h-0.597c-0.479,0-0.847,0.107-1.102,0.32
			c-0.254,0.213-0.496,0.518-0.724,0.915h-0.313c0.17-0.625,0.39-1.139,0.659-1.542c0.269-0.403,0.546-0.666,0.83-0.789
			c0.284-0.123,0.789-0.184,1.515-0.184h5.606V168.247z"/>
		<path d="M20.579,193.503v1.25h-1.594v3.156h-1.453v-3.156h-5.047v-1.127l5.531-7.889h0.969v7.766H20.579z M17.532,193.503v-5.882
			l-4.186,5.882H17.532z"/>
	</g>
	<line fill="none" stroke="#000000" x1="13.204" y1="181.482" x2="20.611" y2="181.482"/>
	<g>
		<path d="M19.914,229.395v1.281h-2.037l-0.176,2.683c-0.035,0.465-0.053,0.868-0.053,1.208c0,0.818,0.096,1.316,0.287,1.496
			s0.422,0.269,0.692,0.269c0.564,0,0.899-0.354,1.005-1.063h0.313c-0.194,1.625-0.846,2.438-1.955,2.438
			c-0.517,0-0.932-0.159-1.246-0.476c-0.313-0.317-0.471-0.787-0.471-1.409c0-0.411,0.062-1.281,0.185-2.608l0.237-2.538h-1.859
			c-0.123,2.138-0.271,3.701-0.442,4.688c-0.173,0.987-0.362,1.625-0.569,1.912c-0.208,0.288-0.489,0.432-0.846,0.432
			c-0.269,0-0.495-0.08-0.679-0.238c-0.184-0.159-0.276-0.367-0.276-0.626c0-0.246,0.157-0.584,0.471-1.013
			c0.459-0.623,0.802-1.271,1.03-1.943c0.227-0.672,0.398-1.743,0.515-3.211h-0.597c-0.479,0-0.847,0.107-1.102,0.32
			c-0.254,0.213-0.496,0.518-0.724,0.915h-0.313c0.17-0.625,0.39-1.139,0.659-1.542c0.269-0.403,0.546-0.666,0.83-0.789
			s0.789-0.184,1.515-0.184h5.606V229.395z"/>
		<path d="M19.257,246.886v0.344c-0.774,0.076-1.405,0.229-1.895,0.46c-0.49,0.23-0.974,0.583-1.451,1.056
			c-0.478,0.473-0.873,1-1.187,1.581s-0.576,1.271-0.787,2.071c0.844-0.581,1.69-0.871,2.54-0.871c0.814,0,1.52,0.328,2.118,0.984
			c0.598,0.656,0.896,1.5,0.896,2.531c0,0.996-0.302,1.904-0.905,2.725c-0.727,0.996-1.688,1.494-2.882,1.494
			c-0.814,0-1.505-0.27-2.074-0.809c-1.113-1.049-1.67-2.408-1.67-4.078c0-1.066,0.214-2.08,0.642-3.041
			c0.428-0.961,1.039-1.813,1.833-2.558s1.555-1.245,2.281-1.503c0.726-0.258,1.404-0.387,2.031-0.387h0.51V246.886z
			 M13.789,253.038c-0.104,0.79-0.156,1.428-0.156,1.913c0,0.563,0.104,1.172,0.312,1.831c0.208,0.659,0.518,1.18,0.928,1.566
			c0.298,0.275,0.662,0.413,1.089,0.413c0.509,0,0.965-0.24,1.366-0.72c0.401-0.479,0.602-1.164,0.602-2.054
			c0-1.001-0.199-1.867-0.598-2.598s-0.964-1.097-1.697-1.097c-0.223,0-0.461,0.047-0.716,0.141
			C14.664,252.527,14.287,252.728,13.789,253.038z"/>
	</g>
	<line fill="none" stroke="#000000" x1="12.179" y1="242.63" x2="19.586" y2="242.63"/>
	<g>
		<path d="M17.673,291.469v1.281h-2.037l-0.176,2.683c-0.035,0.465-0.053,0.868-0.053,1.208c0,0.818,0.096,1.316,0.287,1.496
			c0.191,0.18,0.422,0.269,0.692,0.269c0.564,0,0.899-0.354,1.005-1.063h0.313c-0.194,1.625-0.846,2.438-1.955,2.438
			c-0.517,0-0.932-0.159-1.246-0.476c-0.313-0.317-0.471-0.787-0.471-1.409c0-0.411,0.062-1.281,0.185-2.608l0.237-2.538h-1.859
			c-0.123,2.138-0.271,3.701-0.442,4.688c-0.173,0.987-0.362,1.625-0.569,1.912c-0.208,0.288-0.489,0.432-0.846,0.432
			c-0.269,0-0.495-0.08-0.679-0.238c-0.184-0.159-0.276-0.367-0.276-0.626c0-0.246,0.157-0.584,0.471-1.013
			c0.459-0.623,0.802-1.271,1.03-1.943c0.227-0.672,0.398-1.743,0.515-3.211h-0.597c-0.479,0-0.847,0.107-1.102,0.32
			c-0.254,0.213-0.496,0.518-0.724,0.915H9.063c0.17-0.625,0.39-1.139,0.659-1.542c0.269-0.403,0.546-0.666,0.83-0.789
			c0.284-0.123,0.789-0.184,1.515-0.184h5.606V291.469z"/>
		<path d="M6.548,310.366l2.897-1.406h0.291v10.078c0,0.664,0.027,1.078,0.083,1.241c0.056,0.163,0.171,0.288,0.347,0.376
			c0.175,0.087,0.532,0.137,1.07,0.147v0.328H6.751v-0.328c0.563-0.012,0.927-0.06,1.091-0.145c0.165-0.084,0.279-0.198,0.344-0.341
			c0.064-0.144,0.097-0.569,0.097-1.28v-6.453c0-0.872-0.029-1.432-0.088-1.679c-0.041-0.188-0.115-0.327-0.223-0.415
			c-0.108-0.088-0.238-0.132-0.39-0.132c-0.216,0-0.517,0.091-0.902,0.271L6.548,310.366z"/>
		<path d="M21.688,318.821l-0.836,2.311h-7.039v-0.329c2.077-1.886,3.538-3.426,4.386-4.62c0.847-1.193,1.271-2.286,1.271-3.276
			c0-0.758-0.232-1.382-0.697-1.87s-1.021-0.732-1.668-0.732c-0.588,0-1.116,0.17-1.584,0.51c-0.468,0.339-0.813,0.836-1.037,1.49
			h-0.326c0.146-1.077,0.524-1.902,1.132-2.479s1.368-0.864,2.278-0.864c0.969,0,1.779,0.313,2.428,0.934
			c0.649,0.622,0.974,1.356,0.974,2.201c0,0.605-0.141,1.209-0.423,1.813c-0.435,0.949-1.14,1.954-2.116,3.015
			c-1.464,1.588-2.373,2.544-2.726,2.866H18.8c0.63,0,1.071-0.023,1.325-0.07c0.253-0.047,0.482-0.142,0.687-0.286
			c0.205-0.144,0.382-0.347,0.533-0.61h0.343V318.821z"/>
	</g>
	<line fill="none" stroke="#000000" stroke-width="2" x1="18.994" y1="303.125" x2="5.414" y2="303.125"/>
	<line fill="none" stroke="#000000" stroke-width="2" x1="18.944" y1="62.137" x2="5.364" y2="62.137"/>
	<g>
		<path d="M19.327,411.679v1.281H17.29l-0.176,2.683c-0.035,0.466-0.053,0.867-0.053,1.209c0,0.818,0.096,1.316,0.287,1.496
			c0.191,0.181,0.422,0.27,0.692,0.27c0.564,0,0.899-0.354,1.005-1.063h0.313c-0.194,1.625-0.846,2.438-1.955,2.438
			c-0.517,0-0.932-0.159-1.246-0.477c-0.313-0.316-0.471-0.786-0.471-1.409c0-0.41,0.062-1.28,0.185-2.607l0.237-2.538h-1.859
			c-0.123,2.138-0.271,3.7-0.442,4.688c-0.173,0.986-0.362,1.624-0.569,1.911c-0.208,0.288-0.489,0.433-0.846,0.433
			c-0.269,0-0.495-0.079-0.679-0.237c-0.184-0.159-0.276-0.367-0.276-0.627c0-0.246,0.157-0.584,0.471-1.012
			c0.459-0.623,0.802-1.271,1.03-1.943c0.227-0.672,0.398-1.743,0.515-3.212h-0.597c-0.479,0-0.847,0.106-1.102,0.319
			c-0.254,0.213-0.496,0.518-0.724,0.915h-0.313c0.17-0.626,0.39-1.141,0.659-1.542c0.269-0.404,0.546-0.666,0.83-0.789
			s0.789-0.186,1.515-0.186L19.327,411.679L19.327,411.679z"/>
		<path d="M8.202,430.577l2.897-1.406h0.291v10.078c0,0.664,0.027,1.078,0.083,1.24c0.056,0.164,0.171,0.289,0.347,0.377
			c0.175,0.086,0.532,0.137,1.07,0.147v0.328H8.405v-0.328c0.563-0.012,0.927-0.061,1.091-0.145
			c0.165-0.084,0.279-0.198,0.344-0.342c0.064-0.144,0.097-0.568,0.097-1.279v-6.453c0-0.873-0.029-1.432-0.088-1.68
			c-0.041-0.188-0.115-0.326-0.223-0.414s-0.238-0.133-0.39-0.133c-0.216,0-0.517,0.092-0.902,0.272L8.202,430.577z"/>
		<path d="M23.343,439.032l-0.836,2.311h-7.039v-0.33c2.077-1.885,3.538-3.426,4.386-4.618c0.847-1.195,1.271-2.287,1.271-3.277
			c0-0.759-0.232-1.383-0.697-1.87c-0.465-0.487-1.021-0.731-1.668-0.731c-0.588,0-1.116,0.171-1.584,0.509
			c-0.468,0.34-0.813,0.836-1.037,1.491h-0.326c0.146-1.076,0.524-1.903,1.132-2.479c0.608-0.576,1.368-0.863,2.278-0.863
			c0.969,0,1.779,0.312,2.428,0.935c0.649,0.621,0.974,1.354,0.974,2.2c0,0.604-0.141,1.209-0.423,1.813
			c-0.435,0.949-1.14,1.953-2.116,3.014c-1.464,1.589-2.373,2.545-2.726,2.867h3.095c0.63,0,1.071-0.023,1.325-0.07
			c0.253-0.047,0.482-0.143,0.687-0.285c0.205-0.144,0.382-0.348,0.533-0.61h0.343V439.032z"/>
	</g>
	<line fill="none" stroke="#000000" stroke-width="2" x1="20.648" y1="423.334" x2="7.068" y2="423.334"/>
	<g>
		<path d="M20.803,470.864v1.28h-2.037l-0.176,2.685c-0.035,0.465-0.053,0.867-0.053,1.208c0,0.818,0.096,1.316,0.287,1.496
			c0.191,0.18,0.422,0.269,0.692,0.269c0.564,0,0.899-0.354,1.005-1.063h0.313c-0.194,1.625-0.846,2.438-1.955,2.438
			c-0.517,0-0.932-0.157-1.246-0.476c-0.313-0.317-0.471-0.787-0.471-1.409c0-0.411,0.062-1.281,0.185-2.608l0.237-2.537h-1.859
			c-0.123,2.139-0.271,3.7-0.442,4.688c-0.173,0.987-0.362,1.625-0.569,1.912c-0.208,0.288-0.489,0.432-0.846,0.432
			c-0.269,0-0.495-0.079-0.679-0.236c-0.184-0.159-0.276-0.367-0.276-0.626c0-0.246,0.157-0.584,0.471-1.014
			c0.459-0.623,0.802-1.271,1.03-1.942c0.227-0.672,0.398-1.743,0.515-3.212h-0.597c-0.479,0-0.847,0.106-1.102,0.319
			c-0.254,0.213-0.496,0.519-0.724,0.914h-0.313c0.17-0.625,0.39-1.139,0.659-1.542s0.546-0.666,0.83-0.789
			c0.284-0.122,0.789-0.185,1.515-0.185L20.803,470.864L20.803,470.864z"/>
		<path d="M20.146,488.355v0.344c-0.774,0.076-1.405,0.229-1.895,0.46c-0.49,0.229-0.974,0.582-1.451,1.056
			c-0.478,0.473-0.873,1-1.187,1.581s-0.576,1.271-0.787,2.071c0.844-0.581,1.69-0.871,2.54-0.871c0.814,0,1.52,0.328,2.118,0.984
			c0.598,0.655,0.896,1.5,0.896,2.53c0,0.996-0.302,1.904-0.905,2.726c-0.727,0.996-1.688,1.494-2.882,1.494
			c-0.814,0-1.505-0.271-2.074-0.81c-1.113-1.049-1.67-2.408-1.67-4.078c0-1.065,0.214-2.08,0.642-3.041
			c0.428-0.961,1.039-1.813,1.833-2.558c0.794-0.745,1.555-1.245,2.281-1.503s1.404-0.387,2.031-0.387L20.146,488.355
			L20.146,488.355z M14.678,494.507c-0.104,0.79-0.156,1.428-0.156,1.913c0,0.563,0.104,1.172,0.312,1.83s0.518,1.181,0.928,1.566
			c0.298,0.274,0.662,0.412,1.089,0.412c0.509,0,0.965-0.238,1.366-0.72c0.401-0.479,0.602-1.164,0.602-2.054
			c0-1.001-0.199-1.866-0.598-2.599c-0.398-0.73-0.964-1.098-1.697-1.098c-0.223,0-0.461,0.047-0.716,0.142
			C15.553,493.994,15.176,494.198,14.678,494.507z"/>
	</g>
	<line fill="none" stroke="#000000" x1="13.068" y1="484.1" x2="20.476" y2="484.1"/>
	<g>
		<path d="M20.827,529.741v1.281H18.79l-0.176,2.683c-0.035,0.465-0.053,0.868-0.053,1.208c0,0.818,0.096,1.315,0.287,1.496
			c0.191,0.18,0.422,0.27,0.692,0.27c0.564,0,0.899-0.354,1.005-1.063h0.313c-0.194,1.625-0.846,2.438-1.955,2.438
			c-0.517,0-0.932-0.157-1.246-0.477c-0.313-0.316-0.471-0.787-0.471-1.408c0-0.412,0.062-1.281,0.185-2.609l0.237-2.536h-1.859
			c-0.123,2.139-0.271,3.7-0.442,4.688c-0.173,0.986-0.362,1.625-0.569,1.912c-0.208,0.287-0.489,0.432-0.846,0.432
			c-0.269,0-0.495-0.08-0.679-0.237c-0.184-0.158-0.276-0.367-0.276-0.625c0-0.246,0.157-0.584,0.471-1.015
			c0.459-0.623,0.802-1.27,1.03-1.942c0.227-0.672,0.398-1.742,0.515-3.211h-0.597c-0.479,0-0.847,0.106-1.102,0.319
			c-0.254,0.213-0.496,0.519-0.724,0.914h-0.313c0.17-0.625,0.39-1.139,0.659-1.543c0.269-0.401,0.546-0.666,0.83-0.789
			c0.284-0.122,0.789-0.184,1.515-0.184L20.827,529.741L20.827,529.741z"/>
		<path d="M20.468,554.997v1.25h-1.594v3.156h-1.453v-3.156h-5.047v-1.127l5.531-7.889h0.969v7.766H20.468z M17.421,554.997v-5.882
			l-4.186,5.882H17.421z"/>
	</g>
	<line fill="none" stroke="#000000" x1="13.093" y1="542.976" x2="20.5" y2="542.976"/>
	<g>
		<path d="M21.531,588.506v1.281h-2.037l-0.176,2.683c-0.035,0.465-0.053,0.868-0.053,1.208c0,0.818,0.096,1.316,0.287,1.496
			c0.191,0.18,0.422,0.271,0.692,0.271c0.564,0,0.899-0.354,1.005-1.063h0.313c-0.194,1.625-0.846,2.438-1.955,2.438
			c-0.517,0-0.932-0.158-1.246-0.478c-0.313-0.315-0.471-0.787-0.471-1.408c0-0.412,0.062-1.28,0.185-2.608l0.237-2.537h-1.859
			c-0.123,2.139-0.271,3.701-0.442,4.688c-0.173,0.986-0.362,1.625-0.569,1.912c-0.208,0.287-0.489,0.433-0.846,0.433
			c-0.269,0-0.495-0.08-0.679-0.238s-0.276-0.367-0.276-0.625c0-0.246,0.157-0.584,0.471-1.014c0.459-0.623,0.802-1.271,1.03-1.943
			c0.227-0.672,0.398-1.742,0.515-3.211H15.06c-0.479,0-0.847,0.107-1.102,0.32c-0.254,0.213-0.496,0.518-0.724,0.914h-0.313
			c0.17-0.625,0.39-1.14,0.659-1.543c0.269-0.402,0.546-0.666,0.83-0.789c0.284-0.122,0.789-0.185,1.515-0.185L21.531,588.506
			L21.531,588.506z"/>
		<path d="M13.718,608.512c0.34-0.803,0.769-1.423,1.287-1.858c0.518-0.438,1.164-0.656,1.937-0.656
			c0.955,0,1.687,0.311,2.196,0.932c0.387,0.463,0.58,0.959,0.58,1.486c0,0.867-0.542,1.764-1.625,2.689
			c0.73,0.286,1.283,0.696,1.657,1.229s0.562,1.16,0.562,1.881c0,1.031-0.328,1.924-0.985,2.68c-0.856,0.984-2.096,1.478-3.72,1.478
			c-0.803,0-1.35-0.1-1.64-0.297c-0.291-0.199-0.436-0.412-0.436-0.642c0-0.17,0.069-0.317,0.207-0.446
			c0.138-0.129,0.304-0.193,0.497-0.193c0.146,0,0.296,0.023,0.449,0.07c0.1,0.028,0.326,0.135,0.678,0.317
			c0.352,0.184,0.596,0.293,0.73,0.328c0.217,0.064,0.449,0.097,0.695,0.097c0.599,0,1.12-0.23,1.563-0.693s0.665-1.01,0.665-1.644
			c0-0.463-0.103-0.913-0.309-1.354c-0.153-0.328-0.321-0.576-0.503-0.746c-0.254-0.234-0.601-0.447-1.043-0.638
			c-0.441-0.19-0.892-0.286-1.351-0.286h-0.283v-0.266c0.465-0.06,0.932-0.226,1.4-0.5c0.468-0.274,0.809-0.605,1.021-0.99
			c0.212-0.387,0.318-0.812,0.318-1.273c0-0.602-0.189-1.088-0.567-1.46c-0.378-0.372-0.849-0.558-1.411-0.558
			c-0.909,0-1.668,0.483-2.278,1.453L13.718,608.512z"/>
	</g>
	<line fill="none" stroke="#000000" x1="13.796" y1="601.742" x2="21.204" y2="601.742"/>
	<g>
		<path d="M11.485,645.635l-0.688,1.5H7.204l-0.787,1.592c1.563,0.229,2.799,0.806,3.709,1.73c0.781,0.797,1.172,1.734,1.172,2.813
			c0,0.627-0.128,1.206-0.383,1.739s-0.576,0.987-0.963,1.362c-0.387,0.375-0.818,0.677-1.293,0.904
			c-0.674,0.321-1.366,0.483-2.076,0.483c-0.716,0-1.236-0.121-1.562-0.362c-0.326-0.242-0.488-0.511-0.488-0.802
			c0-0.164,0.067-0.308,0.203-0.434c0.135-0.125,0.306-0.188,0.512-0.188c0.153,0,0.287,0.023,0.401,0.069
			c0.115,0.047,0.311,0.167,0.587,0.358c0.439,0.304,0.884,0.459,1.335,0.467c0.685,0,1.287-0.261,1.805-0.78
			c0.518-0.521,0.778-1.153,0.778-1.899c0-0.723-0.232-1.396-0.695-2.021c-0.463-0.625-1.103-1.108-1.917-1.449
			c-0.64-0.265-1.51-0.417-2.612-0.458l2.285-4.625L11.485,645.635L11.485,645.635z"/>
		<path d="M21.407,649.495v1.281H19.37l-0.176,2.682c-0.035,0.465-0.053,0.868-0.053,1.209c0,0.818,0.096,1.316,0.287,1.496
			c0.191,0.18,0.422,0.27,0.692,0.27c0.564,0,0.899-0.354,1.005-1.063h0.313c-0.194,1.625-0.846,2.438-1.955,2.438
			c-0.517,0-0.932-0.158-1.246-0.477c-0.313-0.316-0.471-0.787-0.471-1.409c0-0.411,0.062-1.28,0.185-2.607l0.237-2.537h-1.859
			c-0.123,2.138-0.271,3.699-0.442,4.688c-0.173,0.986-0.362,1.624-0.569,1.912c-0.208,0.287-0.489,0.432-0.846,0.432
			c-0.269,0-0.495-0.08-0.679-0.237c-0.184-0.158-0.276-0.367-0.276-0.626c0-0.246,0.157-0.584,0.471-1.014
			c0.459-0.623,0.802-1.271,1.03-1.942c0.227-0.672,0.398-1.742,0.515-3.211h-0.597c-0.479,0-0.847,0.105-1.102,0.318
			c-0.254,0.214-0.496,0.519-0.724,0.915h-0.313c0.17-0.626,0.39-1.14,0.659-1.543c0.269-0.402,0.546-0.666,0.83-0.789
			c0.284-0.123,0.789-0.184,1.515-0.184L21.407,649.495L21.407,649.495z"/>
		<path d="M5.782,668.391l2.897-1.405H8.97v10.077c0,0.664,0.027,1.078,0.083,1.241c0.056,0.163,0.171,0.288,0.347,0.376
			c0.175,0.087,0.532,0.138,1.07,0.148v0.328H5.985v-0.328c0.563-0.012,0.927-0.061,1.091-0.146
			c0.165-0.084,0.279-0.196,0.344-0.341c0.064-0.143,0.097-0.568,0.097-1.28v-6.452c0-0.872-0.029-1.433-0.088-1.681
			c-0.041-0.188-0.115-0.326-0.223-0.414s-0.238-0.132-0.39-0.132c-0.216,0-0.517,0.091-0.902,0.272L5.782,668.391z"/>
		<path d="M20.923,676.846l-0.836,2.312h-7.039v-0.329c2.077-1.886,3.538-3.426,4.386-4.62c0.847-1.194,1.271-2.287,1.271-3.277
			c0-0.758-0.232-1.382-0.697-1.868c-0.465-0.488-1.021-0.732-1.668-0.732c-0.588,0-1.116,0.17-1.584,0.509
			c-0.468,0.339-0.813,0.836-1.037,1.491h-0.326c0.146-1.076,0.524-1.903,1.132-2.479c0.608-0.575,1.368-0.863,2.278-0.863
			c0.969,0,1.779,0.312,2.428,0.934s0.974,1.356,0.974,2.201c0,0.604-0.141,1.209-0.423,1.813c-0.435,0.949-1.14,1.954-2.116,3.016
			c-1.464,1.589-2.373,2.544-2.726,2.866h3.095c0.63,0,1.071-0.023,1.325-0.07c0.253-0.047,0.482-0.143,0.687-0.285
			c0.204-0.145,0.382-0.348,0.533-0.611h0.343V676.846z"/>
	</g>
	<line fill="none" stroke="#000000" stroke-width="2" x1="20.129" y1="662.383" x2="6.549" y2="662.383"/>
	<g>
		<path d="M21.321,693.828v1.281h-2.037l-0.176,2.683c-0.035,0.465-0.053,0.867-0.053,1.209c0,0.818,0.096,1.316,0.287,1.496
			c0.191,0.18,0.422,0.269,0.692,0.269c0.564,0,0.899-0.354,1.005-1.063h0.313c-0.194,1.625-0.846,2.438-1.955,2.438
			c-0.517,0-0.932-0.158-1.246-0.476c-0.313-0.317-0.471-0.787-0.471-1.41c0-0.41,0.062-1.28,0.185-2.606l0.237-2.538h-1.859
			c-0.123,2.138-0.271,3.699-0.442,4.688c-0.173,0.987-0.362,1.624-0.569,1.912c-0.208,0.288-0.489,0.432-0.846,0.432
			c-0.269,0-0.495-0.079-0.679-0.236c-0.184-0.159-0.276-0.367-0.276-0.627c0-0.246,0.157-0.584,0.471-1.013
			c0.459-0.623,0.802-1.271,1.03-1.942c0.227-0.673,0.398-1.743,0.515-3.212H14.85c-0.479,0-0.847,0.105-1.102,0.318
			c-0.254,0.213-0.496,0.519-0.724,0.915h-0.313c0.17-0.626,0.39-1.14,0.659-1.542c0.269-0.404,0.546-0.666,0.83-0.789
			c0.284-0.123,0.789-0.185,1.515-0.185L21.321,693.828L21.321,693.828z"/>
		<path d="M20.836,721.18L20,723.491h-7.039v-0.33c2.077-1.885,3.538-3.426,4.386-4.619c0.847-1.195,1.271-2.287,1.271-3.277
			c0-0.759-0.232-1.383-0.697-1.87c-0.465-0.486-1.021-0.73-1.668-0.73c-0.588,0-1.116,0.17-1.584,0.508
			c-0.468,0.34-0.813,0.836-1.037,1.492h-0.326c0.146-1.077,0.524-1.904,1.132-2.48c0.608-0.575,1.368-0.862,2.278-0.862
			c0.969,0,1.779,0.311,2.428,0.934c0.649,0.621,0.974,1.355,0.974,2.201c0,0.604-0.141,1.209-0.423,1.813
			c-0.435,0.948-1.14,1.952-2.116,3.014c-1.464,1.589-2.373,2.545-2.726,2.867h3.095c0.63,0,1.071-0.023,1.325-0.07
			c0.253-0.047,0.482-0.143,0.687-0.286c0.205-0.143,0.382-0.347,0.533-0.61h0.343V721.18z"/>
	</g>
	<line fill="none" x1="4.586" y1="709.063" x2="11.994" y2="709.063"/>
	<line fill="none" stroke="#000000" x1="13.586" y1="707.063" x2="20.994" y2="707.063"/>
	<g>
		<path d="M3.21,413.471h4.547v1.328H3.21V413.471z"/>
	</g>
	<g>
		<path d="M6.691,472.891h4.547v1.328H6.691V472.891z"/>
	</g>
	<g>
		<path d="M6.173,533.508h4.547v1.328H6.173V533.508z"/>
	</g>
	<g>
		<path d="M7.408,590.065h4.547v1.327H7.408V590.065z"/>
	</g>
	<g>
		<path d="M0,652.028h4.547v1.328H0V652.028z"/>
	</g>
	<g>
		<path d="M6.481,699.077h4.547v1.328H6.481V699.077z"/>
	</g>
</g>
</svg>
