<?xml version="1.0" encoding="UTF-8" standalone="no"?>
<!-- Created with Inkscape (http://www.inkscape.org/) -->

<svg
   xmlns:dc="http://purl.org/dc/elements/1.1/"
   xmlns:cc="http://creativecommons.org/ns#"
   xmlns:rdf="http://www.w3.org/1999/02/22-rdf-syntax-ns#"
   xmlns:svg="http://www.w3.org/2000/svg"
   xmlns="http://www.w3.org/2000/svg"
   xmlns:sodipodi="http://sodipodi.sourceforge.net/DTD/sodipodi-0.dtd"
   xmlns:inkscape="http://www.inkscape.org/namespaces/inkscape"
   id="svg6364"
   sodipodi:version="0.32"
   inkscape:version="0.48.4 r9939"
   width="1176.3416"
   height="810.44202"
   version="1.0"
   sodipodi:docname="Csc.svg"
   inkscape:output_extension="org.inkscape.output.svg.inkscape"
   inkscape:export-filename="D:\Wikipédia\Atelier graphique\Cartes\Nouvelles couleurs\Crète\Crete_topographic_map-fr.png"
   inkscape:export-xdpi="90"
   inkscape:export-ydpi="90">
  <metadata
     id="metadata5254">
    <rdf:RDF>
      <cc:Work
         rdf:about="">
        <dc:format>image/svg+xml</dc:format>
        <dc:type
           rdf:resource="http://purl.org/dc/dcmitype/StillImage" />
      </cc:Work>
    </rdf:RDF>
  </metadata>
  <defs
     id="defs5252" />
  <sodipodi:namedview
     pagecolor="#ffffff"
     bordercolor="#666666"
     borderopacity="1"
     objecttolerance="10"
     gridtolerance="10"
     guidetolerance="10"
     inkscape:pageopacity="0"
     inkscape:pageshadow="2"
     inkscape:window-width="1735"
     inkscape:window-height="771"
     id="namedview5250"
     showgrid="false"
     fit-margin-top="10"
     fit-margin-left="10"
     fit-margin-right="10"
     fit-margin-bottom="10"
     inkscape:zoom="0.37269081"
     inkscape:cx="797.75074"
     inkscape:cy="295.22502"
     inkscape:window-x="130"
     inkscape:window-y="74"
     inkscape:window-maximized="0"
     inkscape:current-layer="svg6364" />
  <path
     style="fill:none;stroke:#333333;stroke-width:2"
     inkscape:connector-curvature="0"
     id="path4976"
     d="m 33.812,387.31 h 1123.9 m -562,373.7 V 13.61" />
  <line
     x1="313.81201"
     y1="761.01001"
     x2="314.81201"
     y2="13.61"
     id="line4990"
     style="fill:none;stroke:#1a04b7;stroke-width:3;stroke-dasharray:12" />
  <path
     style="fill:none;stroke:#808080"
     inkscape:connector-curvature="0"
     id="path5172"
     d="M 103.979,760.343 V 12.943" />
  <path
     style="fill:none;stroke:#808080"
     inkscape:connector-curvature="0"
     id="path4488"
     d="m 33.812,761.01 h 1123.9" />
  <path
     style="fill:none;stroke:#000000"
     inkscape:connector-curvature="0"
     id="path4492"
     d="m 33.812,761.01 h 9 m 1114.9,0 h -9" />
  <g
     id="g4494"
     transform="translate(52.2,778.5)">
    <g
       id="g4496">
      <path
         inkscape:connector-curvature="0"
         id="path4498"
         d="m -42.2,-16.123 h 3.039 v 0.883 H -42.2 v -0.883 z" />
      <path
         inkscape:connector-curvature="0"
         id="path4500"
         d="m -37.289,-20.154 1.939,-0.945 h 0.194 v 6.711 c 0,0.443 0.019,0.722 0.056,0.829 0.037,0.109 0.114,0.193 0.231,0.251 0.117,0.06 0.355,0.093 0.713,0.101 v 0.218 h -2.992 v -0.219 c 0.376,-0.008 0.62,-0.04 0.729,-0.098 0.109,-0.056 0.186,-0.132 0.229,-0.228 0.043,-0.096 0.064,-0.381 0.064,-0.855 v -4.288 c 0,-0.579 -0.02,-0.951 -0.059,-1.115 -0.028,-0.125 -0.078,-0.217 -0.15,-0.275 -0.072,-0.059 -0.16,-0.088 -0.261,-0.088 -0.145,0 -0.347,0.061 -0.606,0.182 l -0.087,-0.181 z" />
      <path
         inkscape:connector-curvature="0"
         id="path4502"
         d="m -32.25,-16.916 c 0,-0.906 0.137,-1.688 0.41,-2.341 0.273,-0.654 0.636,-1.143 1.088,-1.462 0.352,-0.255 0.714,-0.382 1.089,-0.382 0.608,0 1.155,0.312 1.639,0.933 0.604,0.77 0.907,1.813 0.907,3.129 0,0.922 -0.133,1.705 -0.398,2.35 -0.266,0.646 -0.604,1.112 -1.016,1.403 -0.412,0.291 -0.809,0.437 -1.191,0.437 -0.757,0 -1.387,-0.446 -1.891,-1.342 -0.424,-0.754 -0.637,-1.663 -0.637,-2.725 z m 1.148,0.149 c 0,1.095 0.134,1.985 0.403,2.678 0.222,0.582 0.554,0.873 0.994,0.873 0.21,0 0.429,-0.096 0.655,-0.284 0.226,-0.189 0.398,-0.507 0.515,-0.952 0.179,-0.671 0.269,-1.618 0.269,-2.841 0,-0.906 -0.094,-1.661 -0.281,-2.268 -0.14,-0.449 -0.321,-0.768 -0.543,-0.955 -0.16,-0.129 -0.353,-0.192 -0.579,-0.192 -0.265,0 -0.501,0.119 -0.708,0.356 -0.281,0.324 -0.471,0.834 -0.573,1.529 -0.101,0.695 -0.152,1.381 -0.152,2.056 z" />
    </g>
  </g>
  <path
     style="fill:none;stroke:#808080"
     inkscape:connector-curvature="0"
     id="path4506"
     d="m 33.812,723.609 h 1123.9" />
  <path
     style="fill:none;stroke:#000000"
     inkscape:connector-curvature="0"
     id="path4510"
     d="m 33.812,723.609 h 9 m 1114.9,0 h -9" />
  <g
     id="g4512"
     transform="translate(52.2,741.1)">
    <g
       id="g4514">
      <path
         inkscape:connector-curvature="0"
         id="path4516"
         d="m -36.2,-16.123 h 3.039 v 0.883 H -36.2 v -0.883 z" />
      <path
         inkscape:connector-curvature="0"
         id="path4518"
         d="m -32.063,-12.827 v -0.219 c 0.508,-0.008 0.98,-0.126 1.418,-0.354 0.438,-0.229 0.86,-0.629 1.269,-1.199 0.408,-0.57 0.692,-1.197 0.853,-1.88 -0.613,0.394 -1.167,0.59 -1.663,0.59 -0.559,0 -1.037,-0.216 -1.435,-0.646 -0.399,-0.433 -0.598,-1.006 -0.598,-1.72 0,-0.695 0.199,-1.313 0.599,-1.855 0.48,-0.66 1.108,-0.99 1.882,-0.99 0.653,0 1.212,0.27 1.678,0.809 0.571,0.668 0.856,1.492 0.856,2.473 0,0.884 -0.217,1.706 -0.651,2.471 -0.434,0.763 -1.039,1.396 -1.813,1.9 -0.63,0.414 -1.316,0.621 -2.06,0.621 h -0.335 z m 3.633,-4.085 c 0.073,-0.507 0.109,-0.913 0.109,-1.217 0,-0.379 -0.064,-0.788 -0.193,-1.227 -0.129,-0.439 -0.312,-0.775 -0.547,-1.011 -0.237,-0.233 -0.505,-0.351 -0.806,-0.351 -0.347,0 -0.652,0.156 -0.913,0.469 -0.262,0.313 -0.393,0.776 -0.393,1.394 0,0.823 0.173,1.468 0.521,1.932 0.253,0.335 0.565,0.503 0.936,0.503 0.179,0 0.392,-0.043 0.637,-0.129 0.245,-0.086 0.462,-0.207 0.649,-0.363 z" />
    </g>
  </g>
  <path
     style="fill:none;stroke:#808080"
     inkscape:connector-curvature="0"
     id="path4522"
     d="m 33.812,686.31 h 1123.9" />
  <path
     style="fill:none;stroke:#000000"
     inkscape:connector-curvature="0"
     id="path4526"
     d="m 33.812,686.31 h 9 m 1114.9,0 h -9" />
  <g
     id="g4528"
     transform="translate(52.2,703.8)">
    <g
       id="g4530">
      <path
         inkscape:connector-curvature="0"
         id="path4532"
         d="m -36.2,-16.123 h 3.039 v 0.883 H -36.2 v -0.883 z" />
      <path
         inkscape:connector-curvature="0"
         id="path4534"
         d="m -30.384,-16.992 c -0.63,-0.516 -1.037,-0.93 -1.219,-1.242 -0.182,-0.312 -0.273,-0.637 -0.273,-0.973 0,-0.516 0.199,-0.96 0.598,-1.333 0.399,-0.373 0.928,-0.56 1.589,-0.56 0.641,0 1.157,0.174 1.548,0.521 0.391,0.348 0.586,0.744 0.586,1.189 0,0.297 -0.105,0.6 -0.316,0.907 -0.211,0.31 -0.649,0.673 -1.316,1.091 0.688,0.53 1.144,0.948 1.366,1.254 0.297,0.397 0.446,0.817 0.446,1.26 0,0.559 -0.213,1.036 -0.639,1.433 -0.426,0.397 -0.986,0.595 -1.678,0.595 -0.755,0 -1.343,-0.236 -1.765,-0.709 -0.336,-0.38 -0.504,-0.794 -0.504,-1.242 0,-0.353 0.118,-0.7 0.354,-1.046 0.237,-0.346 0.645,-0.727 1.223,-1.145 z m 0.276,0.222 c -0.324,0.273 -0.564,0.57 -0.72,0.894 -0.156,0.323 -0.234,0.67 -0.234,1.045 0,0.503 0.138,0.906 0.413,1.209 0.275,0.301 0.625,0.452 1.051,0.452 0.422,0 0.76,-0.119 1.014,-0.357 0.254,-0.236 0.381,-0.525 0.381,-0.865 0,-0.28 -0.074,-0.532 -0.223,-0.756 -0.277,-0.414 -0.838,-0.955 -1.682,-1.622 z m 0.645,-0.849 c 0.466,-0.422 0.762,-0.754 0.886,-0.998 0.124,-0.243 0.187,-0.52 0.187,-0.828 0,-0.409 -0.115,-0.729 -0.345,-0.962 -0.231,-0.232 -0.546,-0.349 -0.943,-0.349 -0.398,0 -0.722,0.115 -0.971,0.346 -0.25,0.229 -0.375,0.499 -0.375,0.807 0,0.203 0.052,0.406 0.155,0.609 0.103,0.203 0.251,0.396 0.443,0.579 l 0.963,0.796 z" />
    </g>
  </g>
  <path
     style="fill:none;stroke:#808080"
     inkscape:connector-curvature="0"
     id="path4538"
     d="m 33.812,648.91 h 1123.9" />
  <path
     style="fill:none;stroke:#000000"
     inkscape:connector-curvature="0"
     id="path4542"
     d="m 33.812,648.91 h 9 m 1114.9,0 h -9" />
  <g
     id="g4544"
     transform="translate(52.2,666.4)">
    <g
       id="g4546">
      <path
         inkscape:connector-curvature="0"
         id="path4548"
         d="m -36.2,-16.123 h 3.039 v 0.884 H -36.2 v -0.884 z" />
      <path
         inkscape:connector-curvature="0"
         id="path4550"
         d="m -31.477,-20.935 h 4.254 v 0.222 l -2.645,7.889 h -0.659 l 2.377,-7.156 h -2.188 c -0.442,0 -0.757,0.053 -0.944,0.158 -0.329,0.18 -0.592,0.457 -0.792,0.832 l -0.17,-0.064 0.767,-1.881 z" />
    </g>
  </g>
  <path
     style="fill:none;stroke:#808080"
     inkscape:connector-curvature="0"
     id="path4554"
     d="m 33.812,611.51 h 1123.9" />
  <path
     style="fill:none;stroke:#000000"
     inkscape:connector-curvature="0"
     id="path4558"
     d="m 33.812,611.51 h 9 m 1114.9,0 h -9" />
  <g
     id="g4560"
     transform="translate(52.2,629)">
    <g
       id="g4562">
      <path
         inkscape:connector-curvature="0"
         id="path4564"
         d="m -36.2,-16.123 h 3.039 v 0.883 H -36.2 v -0.883 z" />
      <path
         inkscape:connector-curvature="0"
         id="path4566"
         d="m -27.305,-21.1 v 0.22 c -0.515,0.05 -0.936,0.152 -1.262,0.307 -0.326,0.153 -0.648,0.389 -0.966,0.705 -0.318,0.314 -0.581,0.668 -0.79,1.057 -0.208,0.389 -0.383,0.851 -0.523,1.385 0.562,-0.387 1.125,-0.578 1.691,-0.578 0.542,0 1.012,0.219 1.41,0.655 0.397,0.438 0.597,1 0.597,1.688 0,0.664 -0.201,1.27 -0.604,1.815 -0.485,0.664 -1.126,0.996 -1.923,0.996 -0.543,0 -1.004,-0.18 -1.383,-0.539 -0.743,-0.698 -1.114,-1.604 -1.114,-2.719 0,-0.711 0.143,-1.387 0.428,-2.026 0.285,-0.642 0.693,-1.209 1.223,-1.705 0.53,-0.496 1.037,-0.83 1.521,-1.002 0.484,-0.173 0.937,-0.259 1.355,-0.259 h 0.34 z m -3.641,4.1 c -0.073,0.526 -0.109,0.954 -0.109,1.277 0,0.375 0.069,0.782 0.208,1.223 0.138,0.439 0.344,0.789 0.617,1.047 0.199,0.184 0.44,0.274 0.726,0.274 0.339,0 0.642,-0.159 0.909,-0.479 0.267,-0.32 0.4,-0.778 0.4,-1.372 0,-0.668 -0.132,-1.246 -0.397,-1.735 -0.265,-0.487 -0.64,-0.731 -1.127,-0.731 -0.148,0 -0.307,0.031 -0.476,0.094 -0.17,0.06 -0.42,0.195 -0.751,0.402 z" />
    </g>
  </g>
  <path
     style="fill:none;stroke:#808080"
     inkscape:connector-curvature="0"
     id="path4570"
     d="m 33.812,574.21 h 1123.9" />
  <path
     style="fill:none;stroke:#000000"
     inkscape:connector-curvature="0"
     id="path4574"
     d="m 33.812,574.21 h 9 m 1114.9,0 h -9" />
  <g
     id="g4576"
     transform="translate(52.2,591.7)">
    <g
       id="g4578">
      <path
         inkscape:connector-curvature="0"
         id="path4580"
         d="m -36.2,-16.123 h 3.039 v 0.883 H -36.2 v -0.883 z" />
      <path
         inkscape:connector-curvature="0"
         id="path4582"
         d="m -27.477,-20.935 -0.458,1 h -2.398 l -0.524,1.063 c 1.04,0.151 1.864,0.537 2.469,1.153 0.519,0.531 0.779,1.156 0.779,1.876 0,0.418 -0.085,0.806 -0.255,1.16 -0.169,0.355 -0.383,0.658 -0.641,0.908 -0.257,0.25 -0.544,0.451 -0.86,0.604 -0.449,0.216 -0.909,0.322 -1.381,0.322 -0.476,0 -0.822,-0.081 -1.039,-0.243 -0.217,-0.162 -0.325,-0.341 -0.325,-0.535 0,-0.109 0.045,-0.206 0.135,-0.29 0.09,-0.084 0.204,-0.126 0.341,-0.126 0.102,0 0.19,0.016 0.267,0.047 0.077,0.03 0.207,0.11 0.391,0.239 0.292,0.203 0.588,0.307 0.888,0.308 0.456,0 0.856,-0.173 1.201,-0.521 0.345,-0.346 0.517,-0.767 0.517,-1.264 0,-0.48 -0.154,-0.929 -0.462,-1.346 -0.31,-0.416 -0.736,-0.738 -1.278,-0.966 -0.426,-0.176 -1.005,-0.276 -1.74,-0.305 l 1.524,-3.086 2.849,0.002 0,0 z" />
    </g>
  </g>
  <path
     style="fill:none;stroke:#808080"
     inkscape:connector-curvature="0"
     id="path4586"
     d="m 33.812,536.81 h 1123.9" />
  <path
     style="fill:none;stroke:#000000"
     inkscape:connector-curvature="0"
     id="path4590"
     d="m 33.812,536.81 h 9 m 1114.9,0 h -9" />
  <g
     id="g4592"
     transform="translate(52.2,554.3)">
    <g
       id="g4594">
      <path
         inkscape:connector-curvature="0"
         id="path4596"
         d="m -36.2,-16.123 h 3.039 v 0.883 H -36.2 v -0.883 z" />
      <path
         inkscape:connector-curvature="0"
         id="path4598"
         d="m -27.102,-15.928 v 0.836 h -1.07 v 2.102 h -0.969 v -2.102 H -32.5 v -0.754 l 3.682,-5.254 h 0.646 v 5.172 h 1.07 z m -2.039,0 v -3.933 l -2.786,3.934 2.786,-0.001 0,0 z" />
    </g>
  </g>
  <path
     style="fill:none;stroke:#808080"
     inkscape:connector-curvature="0"
     id="path4602"
     d="m 33.812,499.41 h 1123.9" />
  <path
     style="fill:none;stroke:#000000"
     inkscape:connector-curvature="0"
     id="path4606"
     d="m 33.812,499.41 h 9 m 1114.9,0 h -9" />
  <g
     id="g4608"
     transform="translate(52.2,516.9)">
    <g
       id="g4610">
      <path
         inkscape:connector-curvature="0"
         id="path4612"
         d="m -36.2,-16.123 h 3.039 v 0.884 H -36.2 v -0.884 z" />
      <path
         inkscape:connector-curvature="0"
         id="path4614"
         d="m -32.078,-19.42 c 0.227,-0.536 0.513,-0.949 0.858,-1.242 0.345,-0.292 0.776,-0.438 1.292,-0.438 0.636,0 1.125,0.207 1.464,0.621 0.258,0.309 0.387,0.639 0.387,0.99 0,0.578 -0.365,1.176 -1.094,1.793 0.489,0.19 0.858,0.465 1.109,0.819 0.251,0.355 0.374,0.774 0.374,1.255 0,0.688 -0.219,1.283 -0.656,1.787 -0.57,0.656 -1.396,0.984 -2.477,0.984 -0.535,0 -0.899,-0.066 -1.092,-0.199 -0.193,-0.133 -0.29,-0.274 -0.29,-0.428 0,-0.113 0.046,-0.213 0.138,-0.299 0.092,-0.086 0.202,-0.129 0.331,-0.129 0.097,0 0.197,0.016 0.298,0.047 0.066,0.02 0.217,0.092 0.451,0.215 0.234,0.123 0.396,0.197 0.486,0.221 0.145,0.043 0.299,0.064 0.463,0.064 0.398,0 0.745,-0.154 1.039,-0.463 0.295,-0.311 0.442,-0.676 0.442,-1.099 0,-0.309 -0.068,-0.608 -0.205,-0.902 -0.102,-0.22 -0.213,-0.386 -0.333,-0.498 -0.168,-0.157 -0.398,-0.299 -0.69,-0.427 -0.292,-0.127 -0.591,-0.189 -0.895,-0.189 h -0.187 v -0.18 c 0.308,-0.039 0.616,-0.15 0.926,-0.333 0.31,-0.185 0.534,-0.404 0.674,-0.661 0.14,-0.258 0.21,-0.54 0.21,-0.849 0,-0.401 -0.126,-0.727 -0.377,-0.975 -0.252,-0.247 -0.564,-0.371 -0.939,-0.371 -0.604,0 -1.109,0.325 -1.515,0.978 l -0.192,-0.092 z" />
    </g>
  </g>
  <path
     style="fill:none;stroke:#808080"
     inkscape:connector-curvature="0"
     id="path4618"
     d="m 33.812,462.01 h 1123.9" />
  <path
     style="fill:none;stroke:#000000"
     inkscape:connector-curvature="0"
     id="path4622"
     d="m 33.812,462.01 h 9 m 1114.9,0 h -9" />
  <g
     id="g4624"
     transform="translate(52.2,479.5)">
    <g
       id="g4626">
      <path
         inkscape:connector-curvature="0"
         id="path4628"
         d="m -36.2,-16.123 h 3.039 v 0.883 H -36.2 v -0.883 z" />
      <path
         inkscape:connector-curvature="0"
         id="path4630"
         d="m -27.188,-14.518 -0.556,1.527 h -4.686 v -0.217 c 1.38,-1.258 2.351,-2.285 2.914,-3.082 0.563,-0.797 0.844,-1.525 0.844,-2.187 0,-0.503 -0.154,-0.917 -0.463,-1.239 -0.309,-0.324 -0.678,-0.486 -1.109,-0.486 -0.391,0 -0.742,0.114 -1.053,0.344 -0.311,0.23 -0.541,0.565 -0.69,1.008 h -0.217 c 0.098,-0.725 0.349,-1.279 0.753,-1.668 0.404,-0.388 0.91,-0.582 1.515,-0.582 0.645,0 1.183,0.207 1.615,0.621 0.433,0.414 0.649,0.902 0.649,1.465 0,0.402 -0.094,0.806 -0.281,1.207 -0.29,0.634 -0.759,1.304 -1.408,2.011 -0.974,1.061 -1.582,1.7 -1.825,1.924 h 2.075 c 0.422,0 0.718,-0.017 0.888,-0.047 0.17,-0.031 0.323,-0.096 0.46,-0.19 0.137,-0.094 0.256,-0.23 0.357,-0.407 l 0.218,-0.002 0,0 z" />
    </g>
  </g>
  <path
     style="fill:none;stroke:#808080"
     inkscape:connector-curvature="0"
     id="path4634"
     d="m 33.812,424.71 h 1123.9" />
  <path
     style="fill:none;stroke:#000000"
     inkscape:connector-curvature="0"
     id="path4638"
     d="m 33.812,424.71 h 9 m 1114.9,0 h -9" />
  <g
     id="g4640"
     transform="translate(52.2,442.2)">
    <g
       id="g4642">
      <path
         inkscape:connector-curvature="0"
         id="path4644"
         d="m -36.2,-16.123 h 3.039 v 0.883 H -36.2 v -0.883 z" />
      <path
         inkscape:connector-curvature="0"
         id="path4646"
         d="m -31.289,-20.154 1.939,-0.945 h 0.194 v 6.711 c 0,0.443 0.019,0.722 0.056,0.829 0.037,0.109 0.114,0.193 0.231,0.251 0.117,0.06 0.355,0.092 0.713,0.101 v 0.218 h -2.992 v -0.219 c 0.376,-0.009 0.62,-0.04 0.729,-0.098 0.109,-0.056 0.186,-0.132 0.229,-0.228 0.043,-0.097 0.064,-0.381 0.064,-0.855 v -4.289 c 0,-0.579 -0.02,-0.951 -0.059,-1.114 -0.028,-0.125 -0.078,-0.218 -0.15,-0.275 -0.072,-0.059 -0.16,-0.088 -0.261,-0.088 -0.145,0 -0.347,0.061 -0.606,0.182 l -0.087,-0.181 z" />
    </g>
  </g>
  <path
     style="fill:none;stroke:#808080"
     inkscape:connector-curvature="0"
     id="path4650"
     d="m 33.812,387.31 h 1123.9" />
  <path
     style="fill:none;stroke:#000000"
     inkscape:connector-curvature="0"
     id="path4654"
     d="m 33.812,387.31 h 9 m 1114.9,0 h -9" />
  <g
     id="g4656"
     transform="translate(52.2,404.8)">
    <g
       id="g4658">
      <path
         inkscape:connector-curvature="0"
         id="path4660"
         d="m -32.25,-16.916 c 0,-0.906 0.137,-1.688 0.41,-2.341 0.273,-0.654 0.636,-1.143 1.088,-1.462 0.351,-0.254 0.714,-0.381 1.089,-0.381 0.608,0 1.155,0.311 1.639,0.932 0.604,0.77 0.907,1.813 0.907,3.129 0,0.922 -0.133,1.705 -0.398,2.35 -0.266,0.646 -0.604,1.112 -1.016,1.403 -0.412,0.291 -0.809,0.437 -1.191,0.437 -0.757,0 -1.387,-0.447 -1.891,-1.343 -0.424,-0.753 -0.637,-1.662 -0.637,-2.724 z m 1.148,0.149 c 0,1.094 0.134,1.984 0.403,2.677 0.222,0.582 0.554,0.873 0.994,0.873 0.21,0 0.429,-0.096 0.655,-0.284 0.226,-0.189 0.398,-0.507 0.515,-0.952 0.179,-0.671 0.269,-1.618 0.269,-2.841 0,-0.906 -0.094,-1.661 -0.281,-2.268 -0.14,-0.448 -0.321,-0.767 -0.543,-0.954 -0.16,-0.13 -0.353,-0.193 -0.579,-0.193 -0.265,0 -0.501,0.119 -0.708,0.356 -0.281,0.325 -0.471,0.835 -0.573,1.53 -0.101,0.695 -0.152,1.38 -0.152,2.056 z" />
    </g>
  </g>
  <path
     style="fill:none;stroke:#808080"
     inkscape:connector-curvature="0"
     id="path4664"
     d="m 33.812,349.91 h 1123.9" />
  <path
     style="fill:none;stroke:#000000"
     inkscape:connector-curvature="0"
     id="path4668"
     d="m 33.812,349.91 h 9 m 1114.9,0 h -9" />
  <g
     id="g4670"
     transform="translate(52.2,367.4)">
    <g
       id="g4672">
      <path
         inkscape:connector-curvature="0"
         id="path4674"
         d="m -31.289,-20.154 1.939,-0.945 h 0.194 v 6.711 c 0,0.443 0.019,0.721 0.056,0.829 0.037,0.109 0.114,0.193 0.231,0.251 0.117,0.059 0.355,0.092 0.713,0.1 v 0.219 h -2.992 v -0.22 c 0.376,-0.008 0.62,-0.04 0.729,-0.097 0.109,-0.056 0.186,-0.132 0.229,-0.228 0.043,-0.097 0.064,-0.382 0.064,-0.855 v -4.289 c 0,-0.579 -0.02,-0.951 -0.059,-1.115 -0.028,-0.125 -0.078,-0.217 -0.15,-0.274 -0.072,-0.06 -0.16,-0.088 -0.261,-0.088 -0.145,0 -0.347,0.061 -0.606,0.182 l -0.087,-0.181 z" />
    </g>
  </g>
  <path
     style="fill:none;stroke:#808080"
     inkscape:connector-curvature="0"
     id="path4678"
     d="m 33.812,312.609 h 1123.9" />
  <path
     style="fill:none;stroke:#000000"
     inkscape:connector-curvature="0"
     id="path4682"
     d="m 33.812,312.609 h 9 m 1114.9,0 h -9" />
  <g
     id="g4684"
     transform="translate(52.2,330.1)">
    <g
       id="g4686">
      <path
         inkscape:connector-curvature="0"
         id="path4688"
         d="m -27.188,-14.518 -0.556,1.527 h -4.686 v -0.217 c 1.38,-1.258 2.351,-2.285 2.914,-3.082 0.563,-0.797 0.844,-1.524 0.844,-2.186 0,-0.503 -0.154,-0.917 -0.463,-1.24 -0.309,-0.324 -0.678,-0.486 -1.109,-0.486 -0.391,0 -0.742,0.114 -1.053,0.345 -0.311,0.229 -0.541,0.564 -0.69,1.007 h -0.217 c 0.098,-0.726 0.349,-1.28 0.753,-1.668 0.404,-0.389 0.91,-0.582 1.515,-0.582 0.645,0 1.183,0.207 1.615,0.621 0.433,0.414 0.649,0.902 0.649,1.465 0,0.401 -0.094,0.805 -0.281,1.207 -0.29,0.633 -0.759,1.303 -1.408,2.01 -0.974,1.061 -1.582,1.701 -1.825,1.924 h 2.075 c 0.422,0 0.718,-0.016 0.888,-0.047 0.17,-0.031 0.323,-0.095 0.46,-0.189 0.137,-0.096 0.256,-0.231 0.357,-0.407 l 0.218,-0.002 0,0 z" />
    </g>
  </g>
  <path
     style="fill:none;stroke:#808080"
     inkscape:connector-curvature="0"
     id="path4692"
     d="m 33.812,275.21 h 1123.9" />
  <path
     style="fill:none;stroke:#000000"
     inkscape:connector-curvature="0"
     id="path4696"
     d="m 33.812,275.21 h 9 m 1114.9,0 h -9" />
  <g
     id="g4698"
     transform="translate(52.2,292.7)">
    <g
       id="g4700">
      <path
         inkscape:connector-curvature="0"
         id="path4702"
         d="m -32.078,-19.42 c 0.227,-0.536 0.513,-0.95 0.858,-1.242 0.345,-0.292 0.776,-0.438 1.292,-0.438 0.636,0 1.125,0.207 1.464,0.621 0.257,0.309 0.386,0.64 0.386,0.991 0,0.578 -0.365,1.176 -1.094,1.793 0.489,0.191 0.858,0.465 1.109,0.82 0.251,0.355 0.375,0.774 0.375,1.254 0,0.688 -0.219,1.283 -0.656,1.787 -0.57,0.656 -1.396,0.984 -2.477,0.984 -0.535,0 -0.899,-0.066 -1.092,-0.199 -0.193,-0.133 -0.29,-0.275 -0.29,-0.428 0,-0.113 0.046,-0.213 0.138,-0.299 0.092,-0.086 0.202,-0.129 0.331,-0.129 0.097,0 0.197,0.016 0.298,0.047 0.066,0.02 0.217,0.092 0.451,0.215 0.234,0.123 0.396,0.197 0.486,0.221 0.145,0.043 0.299,0.064 0.463,0.064 0.398,0 0.745,-0.154 1.039,-0.463 0.295,-0.31 0.442,-0.675 0.442,-1.098 0,-0.309 -0.068,-0.609 -0.205,-0.903 -0.101,-0.218 -0.212,-0.384 -0.333,-0.497 -0.168,-0.157 -0.398,-0.299 -0.69,-0.426 -0.292,-0.127 -0.591,-0.19 -0.895,-0.19 h -0.187 v -0.18 c 0.308,-0.039 0.616,-0.15 0.926,-0.333 0.31,-0.184 0.534,-0.404 0.674,-0.661 0.14,-0.258 0.21,-0.54 0.21,-0.848 0,-0.402 -0.126,-0.727 -0.377,-0.975 -0.252,-0.247 -0.564,-0.371 -0.939,-0.371 -0.604,0 -1.109,0.325 -1.515,0.977 l -0.192,-0.094 z" />
    </g>
  </g>
  <path
     style="fill:none;stroke:#808080"
     inkscape:connector-curvature="0"
     id="path4706"
     d="m 33.812,237.81 h 1123.9" />
  <path
     style="fill:none;stroke:#000000"
     inkscape:connector-curvature="0"
     id="path4710"
     d="m 33.812,237.81 h 9 m 1114.9,0 h -9" />
  <g
     id="g4712"
     transform="translate(52.2,255.3)">
    <g
       id="g4714">
      <path
         inkscape:connector-curvature="0"
         id="path4716"
         d="m -27.102,-15.928 v 0.836 h -1.07 v 2.102 h -0.969 v -2.102 H -32.5 v -0.754 l 3.682,-5.254 h 0.646 v 5.172 h 1.07 z m -2.039,0 v -3.932 l -2.786,3.933 2.786,-0.001 0,0 z" />
    </g>
  </g>
  <path
     style="fill:none;stroke:#808080"
     inkscape:connector-curvature="0"
     id="path4720"
     d="m 33.812,200.51 h 1123.9" />
  <path
     style="fill:none;stroke:#000000"
     inkscape:connector-curvature="0"
     id="path4724"
     d="m 33.812,200.51 h 9 m 1114.9,0 h -9" />
  <g
     id="g4726"
     transform="translate(52.2,218)">
    <g
       id="g4728">
      <path
         inkscape:connector-curvature="0"
         id="path4730"
         d="m -27.477,-20.935 -0.458,1 h -2.398 l -0.524,1.062 c 1.04,0.152 1.864,0.536 2.469,1.154 0.519,0.531 0.779,1.156 0.779,1.876 0,0.418 -0.085,0.805 -0.255,1.16 -0.169,0.355 -0.383,0.658 -0.641,0.908 -0.257,0.25 -0.544,0.451 -0.86,0.604 -0.449,0.215 -0.909,0.322 -1.381,0.322 -0.476,0 -0.822,-0.081 -1.039,-0.243 -0.217,-0.162 -0.325,-0.341 -0.325,-0.536 0,-0.109 0.045,-0.206 0.135,-0.29 0.09,-0.084 0.204,-0.126 0.341,-0.126 0.102,0 0.19,0.016 0.267,0.047 0.077,0.031 0.207,0.111 0.391,0.24 0.292,0.203 0.588,0.306 0.888,0.307 0.456,0 0.856,-0.173 1.201,-0.52 0.345,-0.346 0.517,-0.767 0.517,-1.264 0,-0.48 -0.154,-0.929 -0.462,-1.346 -0.31,-0.416 -0.736,-0.738 -1.278,-0.965 -0.426,-0.176 -1.005,-0.277 -1.74,-0.305 l 1.524,-3.086 2.849,0.001 0,0 z" />
    </g>
  </g>
  <path
     style="fill:none;stroke:#808080"
     inkscape:connector-curvature="0"
     id="path4734"
     d="m 33.812,163.11 h 1123.9" />
  <path
     style="fill:none;stroke:#000000"
     inkscape:connector-curvature="0"
     id="path4738"
     d="m 33.812,163.11 h 9 m 1114.9,0 h -9" />
  <g
     id="g4740"
     transform="translate(52.2,180.6)">
    <g
       id="g4742">
      <path
         inkscape:connector-curvature="0"
         id="path4744"
         d="m -27.305,-21.1 v 0.219 c -0.515,0.051 -0.936,0.153 -1.262,0.308 -0.326,0.153 -0.648,0.388 -0.966,0.705 -0.318,0.315 -0.581,0.668 -0.79,1.056 -0.208,0.388 -0.383,0.85 -0.523,1.384 0.562,-0.386 1.125,-0.578 1.691,-0.578 0.542,0 1.012,0.219 1.41,0.656 0.397,0.438 0.597,1 0.597,1.688 0,0.664 -0.201,1.27 -0.604,1.816 -0.485,0.664 -1.126,0.996 -1.923,0.996 -0.543,0 -1.004,-0.18 -1.383,-0.539 -0.743,-0.699 -1.114,-1.605 -1.114,-2.719 0,-0.711 0.143,-1.387 0.428,-2.027 0.285,-0.641 0.693,-1.209 1.223,-1.705 0.53,-0.496 1.037,-0.83 1.521,-1.002 0.484,-0.172 0.937,-0.258 1.355,-0.258 h 0.34 z m -3.641,4.1 c -0.073,0.527 -0.109,0.954 -0.109,1.278 0,0.375 0.069,0.782 0.208,1.222 0.138,0.44 0.344,0.789 0.617,1.047 0.199,0.184 0.44,0.275 0.726,0.275 0.339,0 0.642,-0.16 0.909,-0.48 0.267,-0.32 0.4,-0.778 0.4,-1.372 0,-0.668 -0.132,-1.246 -0.397,-1.735 -0.265,-0.488 -0.64,-0.732 -1.127,-0.732 -0.148,0 -0.307,0.031 -0.476,0.094 -0.17,0.061 -0.42,0.196 -0.751,0.403 z" />
    </g>
  </g>
  <path
     style="fill:none;stroke:#808080"
     inkscape:connector-curvature="0"
     id="path4748"
     d="m 33.812,125.71 h 1123.9" />
  <path
     style="fill:none;stroke:#000000"
     inkscape:connector-curvature="0"
     id="path4752"
     d="m 33.812,125.71 h 9 m 1114.9,0 h -9" />
  <g
     id="g4754"
     transform="translate(52.2,143.2)">
    <g
       id="g4756">
      <path
         inkscape:connector-curvature="0"
         id="path4758"
         d="m -31.477,-20.935 h 4.254 v 0.222 l -2.645,7.888 h -0.659 l 2.377,-7.156 h -2.188 c -0.442,0 -0.757,0.053 -0.944,0.158 -0.329,0.18 -0.592,0.457 -0.792,0.832 l -0.17,-0.064 0.767,-1.88 z" />
    </g>
  </g>
  <path
     style="fill:none;stroke:#808080"
     inkscape:connector-curvature="0"
     id="path4762"
     d="m 33.812,88.31 h 1123.9" />
  <path
     style="fill:none;stroke:#000000"
     inkscape:connector-curvature="0"
     id="path4766"
     d="m 33.812,88.31 h 9 m 1114.9,0 h -9" />
  <g
     id="g4768"
     transform="translate(52.2,105.8)">
    <g
       id="g4770">
      <path
         inkscape:connector-curvature="0"
         id="path4772"
         d="m -30.384,-16.992 c -0.63,-0.516 -1.037,-0.93 -1.219,-1.242 -0.182,-0.312 -0.273,-0.637 -0.273,-0.973 0,-0.516 0.199,-0.96 0.598,-1.333 0.399,-0.373 0.928,-0.56 1.589,-0.56 0.641,0 1.157,0.174 1.548,0.521 0.391,0.348 0.586,0.744 0.586,1.189 0,0.297 -0.105,0.6 -0.316,0.908 -0.211,0.309 -0.649,0.672 -1.316,1.09 0.688,0.531 1.144,0.949 1.366,1.254 0.297,0.398 0.446,0.818 0.446,1.26 0,0.559 -0.213,1.036 -0.639,1.433 -0.426,0.397 -0.986,0.595 -1.678,0.595 -0.755,0 -1.343,-0.236 -1.765,-0.709 -0.336,-0.379 -0.504,-0.793 -0.504,-1.242 0,-0.352 0.118,-0.7 0.354,-1.046 0.237,-0.345 0.645,-0.727 1.223,-1.145 z m 0.276,0.223 c -0.324,0.273 -0.564,0.57 -0.72,0.893 -0.156,0.323 -0.234,0.67 -0.234,1.045 0,0.503 0.138,0.906 0.413,1.209 0.275,0.301 0.625,0.452 1.051,0.452 0.422,0 0.76,-0.119 1.014,-0.357 0.254,-0.237 0.381,-0.526 0.381,-0.866 0,-0.28 -0.074,-0.532 -0.223,-0.755 -0.277,-0.413 -0.838,-0.954 -1.682,-1.621 z m 0.645,-0.85 c 0.466,-0.422 0.762,-0.754 0.886,-0.998 0.124,-0.243 0.187,-0.52 0.187,-0.828 0,-0.409 -0.115,-0.73 -0.345,-0.962 -0.231,-0.233 -0.546,-0.349 -0.943,-0.349 -0.398,0 -0.722,0.115 -0.971,0.346 -0.25,0.229 -0.375,0.499 -0.375,0.807 0,0.203 0.052,0.406 0.155,0.609 0.103,0.203 0.251,0.396 0.443,0.579 l 0.963,0.796 z" />
    </g>
  </g>
  <path
     style="fill:none;stroke:#808080"
     inkscape:connector-curvature="0"
     id="path4776"
     d="m 33.812,51.01 h 1123.9" />
  <path
     style="fill:none;stroke:#000000"
     inkscape:connector-curvature="0"
     id="path4780"
     d="m 33.812,51.01 h 9 m 1114.9,0 h -9" />
  <g
     id="g4782"
     transform="translate(52.2,68.5)">
    <g
       id="g4784">
      <path
         inkscape:connector-curvature="0"
         id="path4786"
         d="m -32.063,-12.826 v -0.219 c 0.508,-0.008 0.98,-0.126 1.418,-0.354 0.438,-0.228 0.86,-0.628 1.269,-1.199 0.408,-0.57 0.692,-1.197 0.853,-1.88 -0.613,0.394 -1.167,0.59 -1.663,0.59 -0.559,0 -1.037,-0.216 -1.435,-0.646 -0.399,-0.433 -0.598,-1.006 -0.598,-1.72 0,-0.695 0.199,-1.313 0.599,-1.856 0.48,-0.659 1.108,-0.989 1.883,-0.989 0.653,0 1.212,0.27 1.678,0.809 0.571,0.668 0.856,1.492 0.856,2.473 0,0.883 -0.217,1.706 -0.651,2.47 -0.435,0.762 -1.04,1.396 -1.814,1.9 -0.63,0.414 -1.316,0.621 -2.06,0.621 h -0.335 z m 3.633,-4.086 c 0.073,-0.507 0.109,-0.913 0.109,-1.217 0,-0.379 -0.064,-0.788 -0.193,-1.227 -0.129,-0.439 -0.312,-0.775 -0.547,-1.01 -0.237,-0.233 -0.505,-0.351 -0.806,-0.351 -0.347,0 -0.652,0.156 -0.913,0.469 -0.262,0.312 -0.393,0.776 -0.393,1.393 0,0.824 0.173,1.468 0.521,1.932 0.253,0.335 0.565,0.503 0.936,0.503 0.179,0 0.392,-0.043 0.637,-0.129 0.245,-0.086 0.462,-0.207 0.649,-0.363 z" />
    </g>
  </g>
  <path
     style="fill:none;stroke:#808080"
     inkscape:connector-curvature="0"
     id="path4790"
     d="m 33.812,13.61 h 1123.9" />
  <path
     style="fill:none;stroke:#000000"
     inkscape:connector-curvature="0"
     id="path4794"
     d="m 33.812,13.61 h 9 m 1114.9,0 h -9" />
  <g
     id="g4796"
     transform="translate(52.2,31.1)">
    <g
       id="g4798">
      <path
         inkscape:connector-curvature="0"
         id="path4800"
         d="m -37.289,-20.154 1.939,-0.945 h 0.194 v 6.711 c 0,0.443 0.019,0.721 0.056,0.829 0.037,0.109 0.114,0.193 0.231,0.251 0.117,0.059 0.355,0.092 0.713,0.1 v 0.218 h -2.992 v -0.219 c 0.376,-0.008 0.62,-0.04 0.729,-0.097 0.109,-0.056 0.186,-0.132 0.229,-0.228 0.043,-0.096 0.064,-0.381 0.064,-0.855 v -4.289 c 0,-0.579 -0.02,-0.951 -0.059,-1.115 -0.028,-0.125 -0.078,-0.217 -0.15,-0.275 -0.072,-0.059 -0.16,-0.088 -0.261,-0.088 -0.145,0 -0.347,0.061 -0.606,0.182 l -0.087,-0.18 z" />
      <path
         inkscape:connector-curvature="0"
         id="path4802"
         d="m -32.25,-16.916 c 0,-0.906 0.137,-1.687 0.41,-2.341 0.273,-0.654 0.636,-1.142 1.088,-1.462 0.351,-0.254 0.714,-0.381 1.089,-0.381 0.608,0 1.155,0.311 1.639,0.932 0.604,0.77 0.907,1.813 0.907,3.129 0,0.922 -0.133,1.705 -0.398,2.35 -0.266,0.645 -0.604,1.112 -1.016,1.403 -0.412,0.291 -0.809,0.436 -1.191,0.436 -0.757,0 -1.387,-0.447 -1.891,-1.342 -0.424,-0.753 -0.637,-1.662 -0.637,-2.724 z m 1.148,0.149 c 0,1.094 0.134,1.985 0.403,2.677 0.222,0.582 0.554,0.873 0.994,0.873 0.21,0 0.429,-0.095 0.655,-0.284 0.226,-0.189 0.398,-0.507 0.515,-0.952 0.179,-0.671 0.269,-1.618 0.269,-2.841 0,-0.906 -0.094,-1.661 -0.281,-2.267 -0.14,-0.449 -0.321,-0.767 -0.543,-0.955 -0.16,-0.129 -0.353,-0.193 -0.579,-0.193 -0.265,0 -0.501,0.119 -0.708,0.357 -0.281,0.325 -0.471,0.834 -0.573,1.53 -0.101,0.694 -0.152,1.379 -0.152,2.055 z" />
    </g>
  </g>
  <path
     style="fill:none;stroke:#808080"
     inkscape:connector-curvature="0"
     id="path4806"
     d="M 33.812,761.01 V 13.61" />
  <path
     style="fill:none;stroke:#000000"
     inkscape:connector-curvature="0"
     id="path4810"
     d="m 33.812,761.01 v -9 m 0,-738.4 v 9" />
  <g
     id="g4812"
     transform="translate(60.5,796.5)" />
  <path
     style="fill:none;stroke:#808080"
     inkscape:connector-curvature="0"
     id="path4816"
     d="M 33.346,761.01 V 13.61" />
  <path
     style="fill:none;stroke:#000000"
     inkscape:connector-curvature="0"
     id="path4820"
     d="m 104.012,761.01 v -9 m 0,-738.4 v 9" />
  <g
     id="g4822"
     transform="translate(130.7,796.5)" />
  <path
     style="fill:none;stroke:#808080"
     inkscape:connector-curvature="0"
     id="path4826"
     d="M 174.312,761.01 V 13.61" />
  <path
     style="fill:none;stroke:#000000"
     inkscape:connector-curvature="0"
     id="path4830"
     d="m 174.312,761.01 v -9 m 0,-738.4 v 9" />
  <g
     id="g4832"
     transform="translate(201,796.5)" />
  <path
     style="fill:none;stroke:#808080"
     inkscape:connector-curvature="0"
     id="path4836"
     d="M 244.512,761.01 V 13.61" />
  <path
     style="fill:none;stroke:#000000"
     inkscape:connector-curvature="0"
     id="path4840"
     d="m 244.512,761.01 v -9 m 0,-738.4 v 9" />
  <g
     id="g4842"
     transform="translate(271.2,796.5)" />
  <path
     style="fill:none;stroke:#808080"
     inkscape:connector-curvature="0"
     id="path4846"
     d="M 314.812,761.01 V 13.61" />
  <path
     style="fill:none;stroke:#000000"
     inkscape:connector-curvature="0"
     id="path4850"
     d="m 314.812,761.01 v -9 m 0,-738.4 v 9" />
  <g
     id="g4852"
     transform="translate(341.5,796.5)" />
  <path
     style="fill:none;stroke:#808080"
     inkscape:connector-curvature="0"
     id="path4856"
     d="M 385.012,761.01 V 13.61" />
  <path
     style="fill:none;stroke:#000000"
     inkscape:connector-curvature="0"
     id="path4860"
     d="m 385.012,761.01 v -9 m 0,-738.4 v 9" />
  <g
     id="g4862"
     transform="translate(411.7,796.5)" />
  <path
     style="fill:none;stroke:#808080"
     inkscape:connector-curvature="0"
     id="path4866"
     d="M 455.312,761.01 V 13.61" />
  <path
     style="fill:none;stroke:#000000"
     inkscape:connector-curvature="0"
     id="path4870"
     d="m 455.312,761.01 v -9 m 0,-738.4 v 9" />
  <g
     id="g4872"
     transform="translate(482,796.5)" />
  <path
     style="fill:none;stroke:#808080"
     inkscape:connector-curvature="0"
     id="path4876"
     d="M 525.512,761.01 V 13.61" />
  <path
     style="fill:none;stroke:#000000"
     inkscape:connector-curvature="0"
     id="path4880"
     d="m 525.512,761.01 v -9 m 0,-738.4 v 9" />
  <g
     id="g4882"
     transform="translate(552.2,796.5)" />
  <path
     style="fill:none;stroke:#808080"
     inkscape:connector-curvature="0"
     id="path4886"
     d="M 595.712,761.01 V 13.61" />
  <path
     style="fill:none;stroke:#000000"
     inkscape:connector-curvature="0"
     id="path4890"
     d="m 595.712,761.01 v -9 m 0,-738.4 v 9" />
  <g
     id="g4892"
     transform="translate(622.4,796.5)" />
  <path
     style="fill:none;stroke:#808080"
     inkscape:connector-curvature="0"
     id="path4896"
     d="M 666.012,761.01 V 13.61" />
  <path
     style="fill:none;stroke:#000000"
     inkscape:connector-curvature="0"
     id="path4900"
     d="m 666.012,761.01 v -9 m 0,-738.4 v 9" />
  <g
     id="g4902"
     transform="translate(692.7,796.5)" />
  <path
     style="fill:none;stroke:#808080"
     inkscape:connector-curvature="0"
     id="path4906"
     d="M 736.212,761.01 V 13.61" />
  <path
     style="fill:none;stroke:#000000"
     inkscape:connector-curvature="0"
     id="path4910"
     d="m 736.212,761.01 v -9 m 0,-738.4 v 9" />
  <g
     id="g4912"
     transform="translate(762.9,796.5)" />
  <path
     style="fill:none;stroke:#808080"
     inkscape:connector-curvature="0"
     id="path4916"
     d="M 806.512,761.01 V 13.61" />
  <path
     style="fill:none;stroke:#000000"
     inkscape:connector-curvature="0"
     id="path4920"
     d="m 806.512,761.01 v -9 m 0,-738.4 v 9" />
  <g
     id="g4922"
     transform="translate(833.2,796.5)" />
  <path
     style="fill:none;stroke:#808080"
     inkscape:connector-curvature="0"
     id="path4926"
     d="M 876.712,761.01 V 14.277" />
  <path
     style="fill:none;stroke:#000000"
     inkscape:connector-curvature="0"
     id="path4930"
     d="m 876.712,761.01 v -9 m 0,-738.4 v 9" />
  <g
     id="g4932"
     transform="translate(903.4,796.5)" />
  <path
     style="fill:none;stroke:#808080"
     inkscape:connector-curvature="0"
     id="path4936"
     d="M 947.012,761.01 V 13.61" />
  <path
     style="fill:none;stroke:#000000"
     inkscape:connector-curvature="0"
     id="path4940"
     d="m 947.012,761.01 v -9 m 0,-738.4 v 9" />
  <g
     id="g4942"
     transform="translate(973.7,796.5)" />
  <path
     style="fill:none;stroke:#808080"
     inkscape:connector-curvature="0"
     id="path4946"
     d="M 1017.212,761.01 V 13.61" />
  <path
     style="fill:none;stroke:#000000"
     inkscape:connector-curvature="0"
     id="path4950"
     d="m 1017.212,761.01 v -9 m 0,-738.4 v 9" />
  <g
     id="g4952"
     transform="translate(1043.9,796.5)" />
  <path
     style="fill:none;stroke:#808080"
     inkscape:connector-curvature="0"
     id="path4956"
     d="M 1087.512,761.01 V 13.61" />
  <path
     style="fill:none;stroke:#000000"
     inkscape:connector-curvature="0"
     id="path4960"
     d="m 1087.512,761.01 v -9 m 0,-738.4 v 9" />
  <g
     id="g4962"
     transform="translate(1114.2,796.5)" />
  <path
     style="fill:none;stroke:#808080"
     inkscape:connector-curvature="0"
     id="path4966"
     d="M 1157.712,761.01 V 13.61" />
  <path
     style="fill:none;stroke:#000000"
     inkscape:connector-curvature="0"
     id="path4970"
     d="m 1157.712,761.01 v -9 m 0,-738.4 v 9" />
  <g
     id="g4972"
     transform="translate(1184.4,796.5)" />
  <path
     style="fill:none;stroke:#000000"
     inkscape:connector-curvature="0"
     id="path4980"
     d="m 33.812,13.61 v 747.4 h 1123.9 V 13.61 H 33.812 z" />
  <path
     style="fill:none;stroke:#ff0000;stroke-width:3;stroke-miterlimit:4;stroke-dasharray:none"
     d="m 42.812,13.61 c 1.767576,68.665757 3.57765,137.28902 10.5,200.8 6.544583,54.46258 16.062035,105.96362 58.6,124.376 19.98514,9.38621 48.14856,12.90705 77.8,10.99 35.66021,-3.10159 63.18936,-14.05762 78.4,-37.443 19.73018,-29.60142 24.76784,-73.74379 29.328,-118.429 5.05924,-57.7842 6.89137,-118.925062 8.434,-180.3"
     id="path6297"
     inkscape:connector-curvature="0" />
  <path
     style="fill:none;stroke:#ff0000;stroke-width:3;stroke-miterlimit:4;stroke-dasharray:none"
     d="m 324.6635,761.28 c 1.76758,-68.66576 3.57765,-137.28902 10.5,-200.8 6.54458,-54.46258 16.06204,-105.96362 58.6,-124.376 19.98514,-9.38621 48.14856,-12.90705 77.8,-10.99 35.66021,3.10159 63.18936,14.05762 78.4,37.443 19.73018,29.60142 24.76784,73.74379 29.328,118.429 5.05924,57.7842 6.89137,118.92506 8.434,180.3"
     id="path6299"
     inkscape:connector-curvature="0" />
  <path
     style="fill:none;stroke:#ff0000;stroke-width:3;stroke-miterlimit:4;stroke-dasharray:none"
     d="m 604.712,13.61 c 2.02846,70.96222 3.65172,142.45358 11.535,207.6 6.39355,49.56374 16.15335,95.77604 52.828,114.854 13.36207,7.5693 32.07171,11.77161 50.025,13.51 36.2815,2.66913 70.09452,-2.68484 91.929,-16.759 3.03909,-3.00196 9.86587,-7.31873 13.367,-11.847 24.534,-26.86167 30.59966,-72.19167 35.723,-118.464 5.90129,-60.14742 7.61453,-124.579644 9.411,-188.9"
     id="path6293"
     inkscape:connector-curvature="0" />
  <path
     style="fill:none;stroke:#ff0000;stroke-width:3;stroke-miterlimit:4;stroke-dasharray:none"
     d="m 886.6715,761.28 c 1.76758,-68.66576 3.57765,-137.28902 10.5,-200.8 6.54458,-54.46258 16.06204,-105.96362 58.6,-124.376 19.98514,-9.38621 48.1486,-12.90705 77.8,-10.99 35.6602,3.10159 63.1894,14.05762 78.4,37.443 19.7302,29.60142 24.7678,73.74379 29.328,118.429 5.0592,57.7842 6.8914,118.92506 8.434,180.3"
     id="path6301"
     inkscape:connector-curvature="0" />
  <path
     style="fill:none;stroke:#000000"
     inkscape:connector-curvature="0"
     id="path4988"
     d="m 33.812,13.61 v 747.4 h 1123.9 V 13.61 H 33.812 z" />
  <line
     x1="876.146"
     y1="760.34302"
     x2="877.146"
     y2="12.943"
     id="line4994"
     style="fill:none;stroke:#1a04b7;stroke-width:3;stroke-dasharray:12" />
  <line
     x1="35.145"
     y1="760.01001"
     x2="36.146"
     y2="13.61"
     id="line4996"
     style="fill:none;stroke:#1a04b7;stroke-width:3;stroke-dasharray:12" />
  <line
     x1="1157.146"
     y1="760.67603"
     x2="1158.146"
     y2="13.276"
     id="line4998"
     style="fill:none;stroke:#1a04b7;stroke-width:3;stroke-dasharray:12" />
  <path
     style="fill:none;stroke:#000000"
     inkscape:connector-curvature="0"
     id="path5002"
     d="m 1017.212,760.01 v -9 m 0,-738.4 v 9" />
  <path
     inkscape:connector-curvature="0"
     id="path5008"
     d="m 1021.1485,798.1295 -0.836,2.311 h -7.039 v -0.329 c 2.076,-1.886 3.538,-3.426 4.386,-4.62 0.847,-1.193 1.271,-2.287 1.271,-3.276 0,-0.759 -0.231,-1.383 -0.696,-1.869 -0.466,-0.488 -1.021,-0.732 -1.668,-0.732 -0.589,0 -1.116,0.17 -1.584,0.509 -0.469,0.34 -0.813,0.836 -1.037,1.491 h -0.326 c 0.146,-1.076 0.524,-1.903 1.133,-2.479 0.607,-0.576 1.367,-0.864 2.277,-0.864 0.97,0 1.778,0.312 2.429,0.934 0.651,0.622 0.974,1.356 0.974,2.201 0,0.605 -0.141,1.209 -0.424,1.813 -0.435,0.948 -1.14,1.954 -2.114,3.015 -1.465,1.589 -2.373,2.544 -2.728,2.866 h 3.096 c 0.63,0 1.071,-0.023 1.325,-0.07 0.253,-0.047 0.482,-0.143 0.688,-0.285 0.204,-0.145 0.382,-0.348 0.533,-0.61 h 0.342 v -0.006 z" />
  <g
     id="g6475"
     transform="translate(12.34939,12.00402)">
    <path
       d="m 1013.949,756.447 v 1.28 h -2.037 l -0.176,2.684 c -0.035,0.465 -0.053,0.867 -0.053,1.209 0,0.816 0.096,1.315 0.287,1.495 0.189,0.18 0.422,0.27 0.69,0.27 0.564,0 0.9,-0.354 1.007,-1.063 h 0.313 c -0.193,1.625 -0.846,2.438 -1.955,2.438 -0.517,0 -0.932,-0.158 -1.246,-0.476 -0.313,-0.317 -0.471,-0.787 -0.471,-1.41 0,-0.411 0.062,-1.28 0.185,-2.608 l 0.237,-2.537 h -1.859 c -0.123,2.14 -0.271,3.701 -0.441,4.688 -0.173,0.985 -0.362,1.624 -0.569,1.912 -0.208,0.287 -0.489,0.432 -0.846,0.432 -0.27,0 -0.495,-0.079 -0.681,-0.238 -0.184,-0.157 -0.274,-0.366 -0.274,-0.625 0,-0.247 0.157,-0.585 0.471,-1.014 0.46,-0.622 0.803,-1.271 1.03,-1.942 0.227,-0.673 0.398,-1.742 0.515,-3.212 h -0.597 c -0.479,0 -0.847,0.106 -1.102,0.319 -0.255,0.214 -0.495,0.519 -0.725,0.915 h -0.313 c 0.17,-0.625 0.39,-1.14 0.658,-1.543 0.27,-0.402 0.547,-0.666 0.83,-0.789 0.284,-0.122 0.789,-0.185 1.516,-0.185 h 5.606 l 0,0 z"
       id="path5010"
       inkscape:connector-curvature="0" />
    <path
       d="m 995.93422,756.66448 c 0.34,-0.804 0.769,-1.425 1.287,-1.86 0.518,-0.437 1.164,-0.655 1.938,-0.655 0.95398,0 1.68698,0.312 2.19498,0.933 0.387,0.463 0.58,0.958 0.58,1.484 0,0.867 -0.542,1.765 -1.625,2.689 0.729,0.287 1.283,0.697 1.657,1.229 0.374,0.533 0.562,1.16 0.562,1.881 0,1.031 -0.328,1.926 -0.985,2.682 -0.855,0.983 -2.09698,1.477 -3.71998,1.477 -0.804,0 -1.351,-0.1 -1.641,-0.298 -0.291,-0.199 -0.437,-0.412 -0.437,-0.64 0,-0.17 0.068,-0.319 0.207,-0.447 0.139,-0.129 0.305,-0.193 0.497,-0.193 0.146,0 0.296,0.023 0.449,0.07 0.1,0.029 0.325,0.135 0.678,0.318 0.354,0.183 0.597,0.293 0.73,0.328 0.218,0.063 0.449,0.096 0.694,0.096 0.6,0 1.11998,-0.231 1.56298,-0.694 0.443,-0.462 0.665,-1.01 0.665,-1.643 0,-0.463 -0.104,-0.913 -0.31,-1.354 -0.153,-0.328 -0.32,-0.577 -0.504,-0.747 -0.254,-0.233 -0.60198,-0.445 -1.04298,-0.638 -0.44,-0.188 -0.892,-0.285 -1.352,-0.285 h -0.282 v -0.265 c 0.466,-0.06 0.933,-0.225 1.4,-0.5 0.467,-0.275 0.809,-0.605 1.02098,-0.991 0.212,-0.386 0.318,-0.81 0.318,-1.271 0,-0.603 -0.189,-1.09 -0.56698,-1.462 -0.378,-0.37 -0.849,-0.557 -1.411,-0.557 -0.908,0 -1.668,0.484 -2.277,1.453 l -0.287,-0.14 z"
       id="path5014"
       inkscape:connector-curvature="0" />
  </g>
  <g
     id="g6445"
     transform="translate(15.8175,9.3325)">
    <path
       d="m 217.182,764.141 h 4.547 v 1.328 h -4.547 v -1.328 z"
       id="path5022"
       inkscape:connector-curvature="0" />
    <path
       d="m 230.254,756.922 -0.688,1.5 h -3.594 l -0.787,1.592 c 1.563,0.229 2.799,0.806 3.709,1.73 0.781,0.797 1.172,1.733 1.172,2.813 0,0.627 -0.128,1.207 -0.383,1.74 -0.255,0.533 -0.576,0.986 -0.963,1.361 -0.387,0.375 -0.818,0.677 -1.293,0.904 -0.674,0.322 -1.366,0.483 -2.076,0.483 -0.716,0 -1.236,-0.121 -1.562,-0.363 -0.326,-0.242 -0.488,-0.509 -0.488,-0.801 0,-0.163 0.067,-0.308 0.203,-0.433 0.135,-0.127 0.306,-0.188 0.512,-0.188 0.153,0 0.287,0.023 0.401,0.07 0.114,0.047 0.311,0.166 0.587,0.357 0.439,0.305 0.884,0.459 1.335,0.466 0.685,0 1.287,-0.26 1.805,-0.778 0.519,-0.521 0.778,-1.153 0.778,-1.899 0,-0.723 -0.232,-1.396 -0.695,-2.021 -0.463,-0.626 -1.103,-1.109 -1.917,-1.45 -0.64,-0.264 -1.51,-0.417 -2.612,-0.458 l 2.285,-4.625 h 4.271 z"
       id="path5024"
       inkscape:connector-curvature="0" />
    <path
       d="m 240.176,760.781 v 1.28 h -2.037 l -0.176,2.684 c -0.035,0.465 -0.053,0.867 -0.053,1.209 0,0.816 0.096,1.315 0.287,1.495 0.191,0.18 0.422,0.27 0.692,0.27 0.564,0 0.899,-0.354 1.005,-1.063 h 0.313 c -0.194,1.625 -0.846,2.438 -1.955,2.438 -0.517,0 -0.932,-0.158 -1.246,-0.476 -0.313,-0.317 -0.471,-0.787 -0.471,-1.41 0,-0.411 0.062,-1.28 0.185,-2.608 l 0.237,-2.537 h -1.859 c -0.123,2.14 -0.271,3.701 -0.442,4.688 -0.173,0.985 -0.362,1.624 -0.569,1.912 -0.208,0.287 -0.489,0.432 -0.846,0.432 -0.269,0 -0.495,-0.079 -0.679,-0.238 -0.184,-0.157 -0.276,-0.366 -0.276,-0.625 0,-0.247 0.157,-0.585 0.471,-1.014 0.459,-0.622 0.802,-1.271 1.03,-1.942 0.227,-0.673 0.398,-1.742 0.515,-3.212 h -0.597 c -0.479,0 -0.847,0.106 -1.102,0.319 -0.254,0.214 -0.496,0.519 -0.724,0.915 h -0.313 c 0.17,-0.625 0.39,-1.14 0.659,-1.543 0.269,-0.402 0.546,-0.666 0.83,-0.789 0.284,-0.122 0.789,-0.184 1.515,-0.184 l 5.606,-0.001 0,0 z"
       id="path5026"
       inkscape:connector-curvature="0" />
  </g>
  <path
     inkscape:connector-curvature="0"
     id="path5030"
     d="m 248.559,796.037 v 1.25 h -1.594 v 3.155 h -1.453 v -3.155 h -5.047 v -1.127 l 5.531,-7.89 h 0.969 v 7.767 h 1.594 z m -3.047,0 v -5.883 l -4.186,5.884 4.186,-10e-4 0,0 z" />
  <g
     id="g6450"
     transform="translate(16.717512,21.410999)">
    <path
       d="m 290.582,761.14 h 4.547 v 1.328 h -4.547 v -1.328 z"
       id="path5038"
       inkscape:connector-curvature="0" />
    <path
       d="m 304.576,757.781 v 1.28 h -2.037 l -0.176,2.684 c -0.035,0.465 -0.053,0.867 -0.053,1.209 0,0.816 0.096,1.315 0.287,1.495 0.191,0.18 0.422,0.27 0.692,0.27 0.564,0 0.899,-0.354 1.005,-1.063 h 0.313 c -0.194,1.625 -0.846,2.438 -1.955,2.438 -0.517,0 -0.932,-0.158 -1.246,-0.476 -0.313,-0.317 -0.471,-0.787 -0.471,-1.41 0,-0.411 0.062,-1.28 0.185,-2.608 l 0.237,-2.537 h -1.859 c -0.123,2.14 -0.271,3.701 -0.442,4.688 -0.173,0.985 -0.362,1.624 -0.569,1.912 -0.208,0.287 -0.489,0.432 -0.846,0.432 -0.269,0 -0.495,-0.079 -0.679,-0.238 -0.184,-0.157 -0.276,-0.366 -0.276,-0.625 0,-0.247 0.157,-0.585 0.471,-1.014 0.459,-0.622 0.802,-1.271 1.03,-1.942 0.227,-0.673 0.398,-1.742 0.515,-3.212 h -0.597 c -0.479,0 -0.847,0.106 -1.102,0.319 -0.254,0.214 -0.496,0.519 -0.724,0.915 h -0.313 c 0.17,-0.625 0.39,-1.14 0.659,-1.543 0.269,-0.402 0.546,-0.666 0.83,-0.789 0.284,-0.122 0.789,-0.184 1.515,-0.184 l 5.606,-0.001 0,0 z"
       id="path5040"
       inkscape:connector-curvature="0" />
  </g>
  <g
     id="g6454"
     transform="translate(13.0845,10.457)">
    <path
       d="m 360.415,763.141 h 4.547 v 1.328 h -4.547 v -1.328 z"
       id="path5048"
       inkscape:connector-curvature="0" />
    <path
       d="m 366.597,758.187 c 0.34,-0.803 0.769,-1.424 1.287,-1.859 0.518,-0.438 1.164,-0.655 1.937,-0.655 0.955,0 1.688,0.311 2.196,0.932 0.387,0.463 0.58,0.958 0.58,1.485 0,0.867 -0.542,1.764 -1.625,2.688 0.729,0.287 1.283,0.697 1.657,1.23 0.374,0.533 0.562,1.16 0.562,1.881 0,1.031 -0.328,1.925 -0.985,2.681 -0.855,0.984 -2.096,1.478 -3.72,1.478 -0.803,0 -1.35,-0.101 -1.64,-0.298 -0.291,-0.199 -0.436,-0.412 -0.436,-0.641 0,-0.17 0.069,-0.318 0.207,-0.446 0.138,-0.129 0.304,-0.193 0.497,-0.193 0.146,0 0.296,0.023 0.449,0.07 0.1,0.028 0.326,0.135 0.678,0.317 0.352,0.184 0.596,0.293 0.73,0.328 0.217,0.063 0.449,0.097 0.695,0.097 0.599,0 1.12,-0.231 1.563,-0.694 0.443,-0.462 0.665,-1.01 0.665,-1.644 0,-0.463 -0.104,-0.912 -0.309,-1.353 -0.153,-0.328 -0.321,-0.577 -0.504,-0.747 -0.254,-0.234 -0.601,-0.446 -1.042,-0.638 -0.441,-0.189 -0.892,-0.285 -1.351,-0.285 h -0.283 v -0.266 c 0.465,-0.06 0.932,-0.226 1.4,-0.5 0.468,-0.275 0.809,-0.605 1.021,-0.991 0.212,-0.387 0.318,-0.811 0.318,-1.272 0,-0.602 -0.189,-1.089 -0.567,-1.461 -0.377,-0.371 -0.849,-0.557 -1.411,-0.557 -0.909,0 -1.668,0.483 -2.278,1.453 l -0.291,-0.14 z"
       id="path5050"
       inkscape:connector-curvature="0" />
    <path
       d="m 383.409,759.781 v 1.28 h -2.037 l -0.176,2.684 c -0.035,0.465 -0.053,0.867 -0.053,1.209 0,0.816 0.096,1.315 0.287,1.495 0.19,0.18 0.422,0.27 0.691,0.27 0.564,0 0.899,-0.354 1.006,-1.063 h 0.313 c -0.194,1.625 -0.846,2.438 -1.955,2.438 -0.517,0 -0.932,-0.158 -1.246,-0.476 -0.313,-0.317 -0.471,-0.787 -0.471,-1.41 0,-0.411 0.062,-1.28 0.185,-2.608 l 0.237,-2.537 h -1.859 c -0.122,2.14 -0.271,3.701 -0.441,4.688 -0.173,0.985 -0.362,1.624 -0.569,1.912 -0.208,0.287 -0.489,0.432 -0.846,0.432 -0.27,0 -0.495,-0.079 -0.679,-0.238 -0.185,-0.157 -0.276,-0.366 -0.276,-0.625 0,-0.247 0.157,-0.585 0.471,-1.014 0.459,-0.622 0.803,-1.271 1.03,-1.942 0.227,-0.673 0.398,-1.742 0.515,-3.212 h -0.597 c -0.479,0 -0.847,0.106 -1.102,0.319 -0.255,0.214 -0.496,0.519 -0.725,0.915 h -0.313 c 0.17,-0.625 0.39,-1.14 0.659,-1.543 0.269,-0.402 0.546,-0.666 0.829,-0.789 0.284,-0.122 0.789,-0.184 1.516,-0.184 l 5.606,-0.001 0,0 z"
       id="path5052"
       inkscape:connector-curvature="0" />
  </g>
  <path
     inkscape:connector-curvature="0"
     id="path5056"
     d="m 389.059,796.037 v 1.25 h -1.594 v 3.155 h -1.453 v -3.155 h -5.047 v -1.127 l 5.531,-7.89 h 0.969 v 7.767 h 1.594 z m -3.047,0 v -5.883 l -4.186,5.884 4.186,-10e-4 0,0 z" />
  <g
     id="g6459"
     transform="translate(11.485,11.737)">
    <path
       d="m 436.815,759.807 h 4.547 v 1.328 h -4.547 v -1.328 z"
       id="path5064"
       inkscape:connector-curvature="0" />
    <path
       d="m 450.809,756.447 v 1.28 h -2.037 l -0.176,2.684 c -0.035,0.465 -0.053,0.867 -0.053,1.209 0,0.816 0.096,1.315 0.286,1.495 0.191,0.18 0.423,0.27 0.692,0.27 0.564,0 0.899,-0.354 1.005,-1.063 h 0.313 c -0.194,1.625 -0.847,2.438 -1.955,2.438 -0.518,0 -0.933,-0.158 -1.246,-0.476 -0.313,-0.318 -0.471,-0.787 -0.471,-1.41 0,-0.411 0.062,-1.28 0.185,-2.608 l 0.237,-2.537 h -1.859 c -0.123,2.14 -0.271,3.701 -0.442,4.688 -0.173,0.985 -0.361,1.624 -0.568,1.912 -0.208,0.287 -0.489,0.432 -0.846,0.432 -0.27,0 -0.495,-0.079 -0.68,-0.238 -0.184,-0.157 -0.275,-0.366 -0.275,-0.625 0,-0.247 0.156,-0.585 0.471,-1.014 0.459,-0.622 0.802,-1.271 1.03,-1.942 0.227,-0.673 0.397,-1.742 0.515,-3.212 h -0.597 c -0.479,0 -0.848,0.106 -1.103,0.319 -0.254,0.214 -0.496,0.519 -0.724,0.915 h -0.313 c 0.17,-0.625 0.391,-1.14 0.659,-1.543 0.27,-0.402 0.546,-0.666 0.83,-0.789 0.284,-0.122 0.789,-0.185 1.515,-0.185 h 5.607 l 0,0 z"
       id="path5066"
       inkscape:connector-curvature="0" />
  </g>
  <path
     inkscape:connector-curvature="0"
     id="path5070"
     d="m 459.2495,798.1295 -0.836,2.311 h -7.039 v -0.328 c 2.077,-1.887 3.538,-3.427 4.387,-4.62 0.846,-1.195 1.27,-2.288 1.27,-3.278 0,-0.758 -0.231,-1.382 -0.697,-1.869 -0.465,-0.488 -1.021,-0.731 -1.668,-0.731 -0.588,0 -1.115,0.17 -1.584,0.509 -0.468,0.339 -0.813,0.836 -1.036,1.491 h -0.328 c 0.146,-1.076 0.523,-1.903 1.132,-2.479 0.609,-0.576 1.368,-0.864 2.278,-0.864 0.969,0 1.778,0.313 2.428,0.935 0.648,0.62 0.974,1.354 0.974,2.199 0,0.605 -0.141,1.21 -0.423,1.813 -0.435,0.949 -1.14,1.954 -2.116,3.015 -1.464,1.59 -2.373,2.544 -2.726,2.866 h 3.095 c 0.63,0 1.071,-0.022 1.325,-0.069 0.253,-0.048 0.482,-0.144 0.687,-0.285 0.204,-0.146 0.383,-0.349 0.533,-0.611 h 0.344 v -0.005 z" />
  <g
     id="g6463"
     transform="translate(12.952,10.403)">
    <path
       d="m 505.548,761.141 h 4.547 v 1.328 h -4.547 v -1.328 z"
       id="path5078"
       inkscape:connector-curvature="0" />
    <path
       d="m 519.542,757.781 v 1.28 h -2.037 l -0.177,2.684 c -0.034,0.465 -0.053,0.867 -0.053,1.209 0,0.816 0.096,1.315 0.287,1.495 0.191,0.18 0.422,0.27 0.692,0.27 0.563,0 0.898,-0.354 1.005,-1.063 h 0.313 c -0.193,1.625 -0.846,2.438 -1.955,2.438 -0.517,0 -0.932,-0.158 -1.246,-0.476 -0.313,-0.317 -0.471,-0.787 -0.471,-1.41 0,-0.411 0.063,-1.28 0.186,-2.608 l 0.236,-2.537 h -1.858 c -0.123,2.14 -0.271,3.701 -0.442,4.688 -0.173,0.985 -0.362,1.624 -0.569,1.912 -0.208,0.287 -0.488,0.432 -0.846,0.432 -0.269,0 -0.495,-0.079 -0.679,-0.238 -0.185,-0.157 -0.276,-0.366 -0.276,-0.625 0,-0.247 0.157,-0.585 0.471,-1.014 0.459,-0.622 0.803,-1.271 1.03,-1.942 0.228,-0.673 0.398,-1.742 0.516,-3.212 h -0.598 c -0.479,0 -0.847,0.106 -1.102,0.319 -0.254,0.214 -0.496,0.519 -0.725,0.915 h -0.313 c 0.17,-0.625 0.39,-1.14 0.659,-1.543 0.269,-0.402 0.546,-0.666 0.83,-0.789 0.283,-0.122 0.789,-0.184 1.515,-0.184 l 5.607,-0.001 0,0 z"
       id="path5080"
       inkscape:connector-curvature="0" />
  </g>
  <path
     inkscape:connector-curvature="0"
     id="path5084"
     d="m 529.559,796.037 v 1.25 h -1.594 v 3.155 h -1.453 v -3.155 h -5.047 v -1.127 l 5.531,-7.89 h 0.969 v 7.767 h 1.594 z m -3.047,0 v -5.883 l -4.187,5.884 4.187,-10e-4 0,0 z" />
  <path
     inkscape:connector-curvature="0"
     id="path5092"
     d="m 592.46051,783.438 c 0,-1.359 0.205,-2.529 0.615,-3.513 0.409,-0.979 0.954,-1.712 1.633,-2.191 0.527,-0.382 1.072,-0.571 1.636,-0.571 0.913,0 1.731,0.466 2.459,1.396 0.906,1.154 1.36,2.72 1.36,4.693 0,1.383 -0.199,2.558 -0.598,3.524 -0.399,0.966 -0.906,1.668 -1.523,2.105 -0.619,0.436 -1.214,0.654 -1.787,0.654 -1.137,0 -2.082,-0.671 -2.838,-2.013 -0.638,-1.129 -0.957,-2.491 -0.957,-4.084 z m 1.718,0.222 c 0,1.642 0.201,2.98 0.606,4.02 0.334,0.874 0.832,1.312 1.494,1.312 0.316,0 0.646,-0.144 0.985,-0.427 0.339,-0.284 0.599,-0.762 0.773,-1.43 0.271,-1.009 0.404,-2.432 0.404,-4.267 0,-1.36 -0.141,-2.495 -0.422,-3.403 -0.211,-0.675 -0.484,-1.151 -0.818,-1.435 -0.24,-0.193 -0.531,-0.29 -0.871,-0.29 -0.397,0 -0.753,0.179 -1.063,0.537 -0.423,0.485 -0.71,1.252 -0.862,2.295 -0.149,1.044 -0.226,2.073 -0.226,3.088 z" />
  <line
     x1="396.51199"
     y1="783.349"
     x2="373.51199"
     y2="783.349"
     id="line5094"
     style="fill:none;stroke:#010101;stroke-width:2" />
  <line
     x1="466.81201"
     y1="783.349"
     x2="443.81201"
     y2="783.349"
     id="line5096"
     style="fill:none;stroke:#010101;stroke-width:2" />
  <line
     x1="537.01202"
     y1="783.349"
     x2="514.01196"
     y2="783.349"
     id="line5098"
     style="fill:none;stroke:#010101;stroke-width:2" />
  <path
     inkscape:connector-curvature="0"
     id="path5106"
     d="m 740.5025,768.183 v 1.281 h -2.037 l -0.176,2.683 c -0.035,0.465 -0.053,0.868 -0.053,1.209 0,0.817 0.096,1.316 0.287,1.495 0.189,0.18 0.422,0.271 0.69,0.271 0.564,0 0.9,-0.354 1.006,-1.063 h 0.313 c -0.193,1.625 -0.846,2.438 -1.955,2.438 -0.518,0 -0.932,-0.158 -1.246,-0.477 -0.313,-0.316 -0.471,-0.787 -0.471,-1.41 0,-0.41 0.062,-1.279 0.185,-2.607 l 0.237,-2.537 h -1.859 c -0.123,2.139 -0.271,3.701 -0.441,4.688 -0.174,0.986 -0.362,1.624 -0.569,1.912 -0.208,0.287 -0.489,0.433 -0.846,0.433 -0.27,0 -0.495,-0.079 -0.681,-0.238 -0.184,-0.158 -0.274,-0.367 -0.274,-0.625 0,-0.247 0.157,-0.585 0.471,-1.014 0.46,-0.622 0.803,-1.271 1.03,-1.942 0.227,-0.673 0.397,-1.743 0.515,-3.212 h -0.597 c -0.479,0 -0.848,0.105 -1.103,0.319 -0.254,0.214 -0.495,0.519 -0.724,0.914 h -0.313 c 0.17,-0.625 0.39,-1.14 0.658,-1.543 0.27,-0.401 0.546,-0.666 0.83,-0.788 0.284,-0.122 0.789,-0.185 1.516,-0.185 l 5.607,-0.002 0,0 z" />
  <path
     inkscape:connector-curvature="0"
     id="path5110"
     d="m 740.1485,798.1295 -0.836,2.311 h -7.039 v -0.329 c 2.076,-1.886 3.538,-3.426 4.387,-4.62 0.847,-1.193 1.271,-2.287 1.271,-3.276 0,-0.759 -0.231,-1.383 -0.696,-1.869 -0.466,-0.488 -1.021,-0.732 -1.668,-0.732 -0.589,0 -1.116,0.17 -1.584,0.509 -0.469,0.339 -0.813,0.836 -1.037,1.491 h -0.326 c 0.146,-1.076 0.523,-1.903 1.133,-2.479 0.607,-0.576 1.367,-0.864 2.277,-0.864 0.97,0 1.778,0.312 2.429,0.934 0.649,0.622 0.974,1.356 0.974,2.201 0,0.605 -0.141,1.209 -0.424,1.813 -0.435,0.948 -1.14,1.954 -2.115,3.015 -1.464,1.589 -2.373,2.544 -2.727,2.866 h 3.096 c 0.63,0 1.071,-0.023 1.325,-0.07 0.253,-0.047 0.482,-0.143 0.687,-0.285 0.204,-0.145 0.383,-0.348 0.533,-0.61 h 0.342 v -0.006 z" />
  <path
     inkscape:connector-curvature="0"
     id="path5118"
     d="m 670.302,768.183 v 1.281 h -2.037 l -0.176,2.683 c -0.035,0.465 -0.054,0.868 -0.054,1.209 0,0.817 0.097,1.316 0.287,1.495 0.19,0.18 0.422,0.271 0.691,0.271 0.563,0 0.899,-0.354 1.006,-1.063 h 0.313 c -0.192,1.625 -0.846,2.438 -1.954,2.438 -0.518,0 -0.933,-0.158 -1.246,-0.477 -0.313,-0.316 -0.472,-0.787 -0.472,-1.41 0,-0.411 0.063,-1.279 0.186,-2.607 l 0.236,-2.537 h -1.858 c -0.123,2.139 -0.271,3.701 -0.442,4.688 -0.173,0.986 -0.362,1.624 -0.569,1.912 -0.207,0.287 -0.488,0.433 -0.846,0.433 -0.269,0 -0.495,-0.079 -0.68,-0.238 -0.184,-0.158 -0.275,-0.367 -0.275,-0.625 0,-0.247 0.157,-0.585 0.472,-1.014 0.46,-0.622 0.803,-1.271 1.029,-1.942 0.228,-0.673 0.398,-1.743 0.516,-3.212 h -0.598 c -0.479,0 -0.847,0.105 -1.102,0.319 -0.254,0.214 -0.495,0.519 -0.724,0.915 h -0.313 c 0.17,-0.625 0.39,-1.141 0.659,-1.543 0.269,-0.402 0.546,-0.666 0.83,-0.789 0.284,-0.122 0.789,-0.185 1.515,-0.185 l 5.606,-0.002 0,0 z" />
  <path
     inkscape:connector-curvature="0"
     id="path5122"
     d="m 670.059,796.036 v 1.25 h -1.594 v 3.156 h -1.453 v -3.156 h -5.047 v -1.127 l 5.531,-7.889 h 0.969 v 7.766 h 1.594 z m -3.047,0 v -5.883 l -4.187,5.883 h 4.187 z" />
  <g
     id="g6467"
     transform="translate(9.749,12.3895)">
    <path
       d="m 788.436,756.254 c 0.34,-0.803 0.769,-1.424 1.287,-1.86 0.518,-0.436 1.164,-0.655 1.937,-0.655 0.955,0 1.688,0.312 2.196,0.933 0.387,0.463 0.58,0.958 0.58,1.485 0,0.866 -0.542,1.764 -1.625,2.688 0.729,0.287 1.283,0.697 1.657,1.23 0.374,0.532 0.562,1.159 0.562,1.881 0,1.03 -0.328,1.925 -0.984,2.681 -0.855,0.984 -2.097,1.477 -3.722,1.477 -0.803,0 -1.35,-0.1 -1.64,-0.298 -0.29,-0.198 -0.437,-0.412 -0.437,-0.64 0,-0.17 0.069,-0.319 0.207,-0.447 0.139,-0.129 0.305,-0.192 0.497,-0.192 0.146,0 0.298,0.022 0.449,0.069 0.101,0.029 0.326,0.136 0.679,0.318 0.352,0.183 0.596,0.293 0.729,0.328 0.217,0.063 0.449,0.096 0.695,0.096 0.599,0 1.118,-0.23 1.563,-0.694 0.443,-0.462 0.665,-1.01 0.665,-1.643 0,-0.463 -0.103,-0.913 -0.31,-1.353 -0.152,-0.328 -0.32,-0.577 -0.503,-0.747 -0.254,-0.234 -0.602,-0.446 -1.043,-0.639 -0.441,-0.188 -0.893,-0.285 -1.352,-0.285 h -0.283 v -0.266 c 0.466,-0.059 0.933,-0.225 1.4,-0.5 0.468,-0.274 0.809,-0.604 1.021,-0.991 0.212,-0.386 0.317,-0.81 0.317,-1.271 0,-0.603 -0.188,-1.089 -0.567,-1.461 -0.377,-0.371 -0.849,-0.558 -1.41,-0.558 -0.909,0 -1.669,0.484 -2.278,1.453 l -0.287,-0.139 z"
       id="path5130"
       inkscape:connector-curvature="0" />
    <path
       d="m 805.249,757.848 v 1.281 h -2.037 l -0.177,2.683 c -0.034,0.465 -0.053,0.868 -0.053,1.209 0,0.817 0.096,1.316 0.286,1.495 0.191,0.18 0.422,0.271 0.693,0.271 0.563,0 0.897,-0.354 1.005,-1.063 h 0.313 c -0.193,1.625 -0.846,2.438 -1.955,2.438 -0.517,0 -0.932,-0.158 -1.246,-0.477 -0.313,-0.316 -0.471,-0.787 -0.471,-1.41 0,-0.411 0.063,-1.279 0.186,-2.607 l 0.236,-2.537 h -1.858 c -0.123,2.139 -0.271,3.701 -0.442,4.688 -0.173,0.986 -0.362,1.624 -0.569,1.912 -0.208,0.287 -0.488,0.433 -0.846,0.433 -0.269,0 -0.495,-0.079 -0.679,-0.238 -0.186,-0.158 -0.276,-0.367 -0.276,-0.625 0,-0.247 0.157,-0.585 0.473,-1.014 0.459,-0.622 0.802,-1.271 1.028,-1.942 0.228,-0.673 0.398,-1.743 0.515,-3.212 h -0.597 c -0.479,0 -0.847,0.105 -1.102,0.319 -0.254,0.214 -0.496,0.519 -0.725,0.915 h -0.313 c 0.17,-0.625 0.39,-1.141 0.659,-1.543 0.269,-0.402 0.546,-0.666 0.83,-0.789 0.282,-0.122 0.789,-0.185 1.516,-0.185 l 5.606,-0.002 0,0 z"
       id="path5132"
       inkscape:connector-curvature="0" />
  </g>
  <path
     inkscape:connector-curvature="0"
     id="path5136"
     d="m 810.559,796.036 v 1.25 h -1.594 v 3.156 h -1.453 v -3.156 h -5.047 v -1.127 l 5.53,-7.889 h 0.97 v 7.766 h 1.594 z m -3.047,0 v -5.883 l -4.187,5.883 h 4.187 z" />
  <path
     inkscape:connector-curvature="0"
     id="path5144"
     d="m 880.9365,779.192 v 1.28 h -2.037 l -0.177,2.684 c -0.034,0.465 -0.053,0.867 -0.053,1.209 0,0.816 0.096,1.315 0.286,1.495 0.191,0.18 0.422,0.27 0.693,0.27 0.563,0 0.897,-0.354 1.005,-1.063 h 0.313 c -0.193,1.625 -0.846,2.438 -1.955,2.438 -0.517,0 -0.932,-0.158 -1.246,-0.476 -0.313,-0.317 -0.471,-0.787 -0.471,-1.41 0,-0.411 0.063,-1.28 0.186,-2.608 l 0.236,-2.537 h -1.858 c -0.123,2.14 -0.271,3.701 -0.442,4.688 -0.173,0.985 -0.362,1.624 -0.569,1.912 -0.208,0.287 -0.488,0.432 -0.846,0.432 -0.269,0 -0.495,-0.079 -0.679,-0.238 -0.186,-0.157 -0.276,-0.366 -0.276,-0.625 0,-0.247 0.157,-0.585 0.472,-1.014 0.459,-0.622 0.803,-1.271 1.029,-1.942 0.228,-0.673 0.398,-1.742 0.515,-3.212 h -0.597 c -0.479,0 -0.847,0.106 -1.102,0.319 -0.254,0.214 -0.496,0.519 -0.725,0.915 h -0.313 c 0.17,-0.625 0.39,-1.14 0.659,-1.543 0.27,-0.402 0.546,-0.666 0.83,-0.789 0.282,-0.122 0.789,-0.185 1.516,-0.185 h 5.606 l 0,0 z" />
  <g
     id="g6471"
     transform="translate(10.087,10.6665)">
    <path
       d="m 935.426,755.588 -0.688,1.5 h -3.595 l -0.786,1.592 c 1.563,0.229 2.799,0.806 3.709,1.73 0.781,0.797 1.172,1.733 1.172,2.813 0,0.627 -0.128,1.207 -0.383,1.74 -0.255,0.533 -0.576,0.986 -0.964,1.361 -0.387,0.375 -0.817,0.677 -1.293,0.904 -0.674,0.322 -1.366,0.483 -2.076,0.483 -0.716,0 -1.236,-0.121 -1.562,-0.363 -0.326,-0.242 -0.488,-0.509 -0.488,-0.801 0,-0.163 0.066,-0.308 0.203,-0.433 0.135,-0.127 0.306,-0.188 0.512,-0.188 0.153,0 0.286,0.023 0.401,0.07 0.114,0.047 0.311,0.166 0.587,0.357 0.438,0.305 0.884,0.459 1.335,0.466 0.686,0 1.287,-0.26 1.806,-0.778 0.52,-0.521 0.778,-1.153 0.778,-1.899 0,-0.723 -0.232,-1.396 -0.695,-2.021 -0.463,-0.626 -1.103,-1.109 -1.917,-1.45 -0.64,-0.264 -1.511,-0.417 -2.611,-0.458 l 2.284,-4.625 h 4.271 z"
       id="path5152"
       inkscape:connector-curvature="0" />
    <path
       d="m 945.348,759.447 v 1.28 h -2.037 l -0.176,2.684 c -0.035,0.465 -0.054,0.867 -0.054,1.209 0,0.816 0.097,1.315 0.286,1.495 0.191,0.18 0.423,0.27 0.693,0.27 0.564,0 0.898,-0.354 1.005,-1.063 h 0.313 c -0.194,1.625 -0.847,2.438 -1.955,2.438 -0.518,0 -0.933,-0.158 -1.246,-0.476 -0.313,-0.318 -0.472,-0.787 -0.472,-1.41 0,-0.411 0.063,-1.28 0.186,-2.608 l 0.237,-2.537 h -1.859 c -0.123,2.14 -0.271,3.701 -0.442,4.688 -0.173,0.985 -0.361,1.624 -0.568,1.912 -0.208,0.287 -0.489,0.432 -0.847,0.432 -0.269,0 -0.494,-0.079 -0.679,-0.238 -0.185,-0.157 -0.275,-0.366 -0.275,-0.625 0,-0.247 0.156,-0.585 0.472,-1.014 0.459,-0.622 0.802,-1.271 1.028,-1.942 0.228,-0.673 0.398,-1.742 0.516,-3.212 h -0.597 c -0.479,0 -0.848,0.106 -1.103,0.319 -0.254,0.214 -0.496,0.519 -0.724,0.915 h -0.313 c 0.17,-0.625 0.391,-1.14 0.659,-1.543 0.271,-0.402 0.546,-0.666 0.83,-0.789 0.283,-0.122 0.789,-0.185 1.516,-0.185 h 5.606 l 0,0 z"
       id="path5154"
       inkscape:connector-curvature="0" />
  </g>
  <path
     inkscape:connector-curvature="0"
     id="path5158"
     d="m 951.059,796.036 v 1.25 h -1.594 v 3.156 h -1.453 v -3.155 h -5.047 v -1.127 l 5.531,-7.89 h 0.969 v 7.767 l 1.594,-0.001 0,0 z m -3.047,0 v -5.883 l -4.186,5.884 4.186,-0.001 0,0 z" />
  <line
     x1="818.01202"
     y1="783.349"
     x2="795.01202"
     y2="783.349"
     id="line5160"
     style="fill:none;stroke:#010101;stroke-width:2" />
  <line
     x1="747.71198"
     y1="783.349"
     x2="724.71198"
     y2="783.349"
     id="line5162"
     style="fill:none;stroke:#010101;stroke-width:2" />
  <line
     x1="677.51202"
     y1="783.349"
     x2="654.51202"
     y2="783.349"
     id="line5164"
     style="fill:none;stroke:#010101;stroke-width:2" />
  <line
     x1="958.51202"
     y1="783.349"
     x2="935.51202"
     y2="783.349"
     id="line5166"
     style="fill:none;stroke:#010101;stroke-width:2" />
  <line
     x1="1028.7119"
     y1="783.349"
     x2="1005.712"
     y2="783.349"
     id="line5168"
     style="fill:none;stroke:#010101;stroke-width:2" />
  <g
     id="g6479"
     transform="translate(11.0135,10)">
    <path
       d="m 1069.093,756.254 h 6.386 v 0.338 l -3.964,11.834 h -0.988 l 3.566,-10.734 h -3.281 c -0.663,0 -1.135,0.079 -1.416,0.237 -0.493,0.271 -0.889,0.687 -1.188,1.248 l -0.256,-0.097 1.141,-2.826 z"
       id="path5180"
       inkscape:connector-curvature="0" />
    <path
       d="m 1085.015,760.113 v 1.281 h -2.037 l -0.176,2.684 c -0.035,0.465 -0.053,0.867 -0.053,1.209 0,0.816 0.096,1.315 0.286,1.495 0.19,0.18 0.423,0.27 0.691,0.27 0.563,0 0.9,-0.354 1.006,-1.063 h 0.313 c -0.193,1.625 -0.847,2.438 -1.955,2.438 -0.518,0 -0.933,-0.158 -1.246,-0.476 -0.313,-0.318 -0.471,-0.787 -0.471,-1.41 0,-0.411 0.062,-1.28 0.185,-2.608 l 0.237,-2.537 h -1.859 c -0.123,2.14 -0.271,3.701 -0.442,4.688 -0.173,0.985 -0.361,1.624 -0.568,1.912 -0.208,0.287 -0.489,0.432 -0.847,0.432 -0.269,0 -0.494,-0.079 -0.68,-0.238 -0.184,-0.157 -0.275,-0.367 -0.275,-0.625 0,-0.247 0.157,-0.585 0.472,-1.014 0.46,-0.622 0.803,-1.27 1.03,-1.942 0.227,-0.673 0.397,-1.742 0.515,-3.212 h -0.597 c -0.479,0 -0.848,0.106 -1.103,0.319 -0.254,0.214 -0.495,0.519 -0.724,0.915 h -0.313 c 0.17,-0.625 0.391,-1.14 0.659,-1.543 0.27,-0.402 0.546,-0.666 0.83,-0.789 0.284,-0.122 0.789,-0.184 1.515,-0.184 h 5.606 v -0.002 z"
       id="path5182"
       inkscape:connector-curvature="0" />
  </g>
  <path
     inkscape:connector-curvature="0"
     id="path5186"
     d="m 1091.559,796.037 v 1.25 h -1.594 v 3.155 h -1.453 v -3.155 h -5.047 v -1.127 l 5.531,-7.89 h 0.969 v 7.767 h 1.594 z m -3.047,0 v -5.883 l -4.186,5.884 4.186,-10e-4 0,0 z" />
  <line
     x1="1099.012"
     y1="783.349"
     x2="1076.012"
     y2="783.349"
     id="line5188"
     style="fill:none;stroke:#010101;stroke-width:2" />
  <g
     id="g6483"
     transform="translate(11.228496,22.797999)">
    <path
       d="m 1145.597,764.199 -0.836,2.311 h -7.039 v -0.329 c 2.076,-1.886 3.538,-3.426 4.386,-4.62 0.847,-1.193 1.271,-2.287 1.271,-3.276 0,-0.759 -0.232,-1.383 -0.697,-1.869 -0.465,-0.488 -1.021,-0.732 -1.668,-0.732 -0.588,0 -1.116,0.17 -1.584,0.509 -0.468,0.34 -0.813,0.836 -1.037,1.491 h -0.326 c 0.146,-1.076 0.524,-1.903 1.133,-2.479 0.607,-0.576 1.367,-0.864 2.277,-0.864 0.97,0 1.779,0.312 2.429,0.934 0.65,0.622 0.975,1.356 0.975,2.201 0,0.605 -0.142,1.209 -0.425,1.813 -0.435,0.948 -1.14,1.954 -2.114,3.015 -1.465,1.589 -2.373,2.544 -2.728,2.866 h 3.097 c 0.63,0 1.07,-0.023 1.324,-0.07 0.253,-0.047 0.482,-0.143 0.688,-0.285 0.204,-0.145 0.382,-0.348 0.533,-0.61 h 0.342 v -0.006 z"
       id="path5196"
       inkscape:connector-curvature="0" />
    <path
       d="m 1155.082,758.447 v 1.28 h -2.036 l -0.177,2.684 c -0.035,0.465 -0.053,0.867 -0.053,1.209 0,0.816 0.096,1.315 0.287,1.495 0.189,0.18 0.422,0.27 0.691,0.27 0.563,0 0.899,-0.354 1.006,-1.063 h 0.313 c -0.193,1.625 -0.846,2.438 -1.955,2.438 -0.517,0 -0.932,-0.158 -1.246,-0.476 -0.313,-0.317 -0.471,-0.787 -0.471,-1.41 0,-0.411 0.063,-1.28 0.186,-2.608 l 0.236,-2.537 h -1.859 c -0.122,2.14 -0.271,3.701 -0.441,4.688 -0.173,0.985 -0.362,1.624 -0.569,1.912 -0.208,0.287 -0.489,0.432 -0.846,0.432 -0.269,0 -0.495,-0.079 -0.68,-0.238 -0.185,-0.157 -0.275,-0.366 -0.275,-0.625 0,-0.247 0.157,-0.585 0.471,-1.014 0.46,-0.622 0.804,-1.271 1.03,-1.942 0.227,-0.673 0.398,-1.742 0.516,-3.212 h -0.598 c -0.479,0 -0.847,0.106 -1.102,0.319 -0.254,0.214 -0.495,0.519 -0.725,0.915 h -0.313 c 0.17,-0.625 0.39,-1.14 0.659,-1.543 0.269,-0.402 0.546,-0.666 0.83,-0.789 0.283,-0.122 0.788,-0.185 1.515,-0.185 h 5.606 l 0,0 z"
       id="path5198"
       inkscape:connector-curvature="0" />
  </g>
  <g
     id="g6435"
     transform="translate(6.5805,10.333001)">
    <path
       d="m 85.349,763.14 h 4.547 v 1.328 h -4.547 v -1.328 z"
       id="path5206"
       inkscape:connector-curvature="0" />
    <path
       d="m 92.421,755.921 h 6.386 v 0.338 l -3.964,11.834 h -0.988 l 3.566,-10.734 H 94.14 c -0.663,0 -1.135,0.079 -1.417,0.237 -0.493,0.271 -0.889,0.687 -1.188,1.248 l -0.255,-0.097 1.141,-2.826 z"
       id="path5208"
       inkscape:connector-curvature="0" />
    <path
       d="m 108.343,759.781 v 1.28 h -2.037 l -0.176,2.684 c -0.035,0.465 -0.053,0.867 -0.053,1.209 0,0.816 0.096,1.315 0.287,1.495 0.191,0.18 0.422,0.27 0.692,0.27 0.564,0 0.899,-0.354 1.005,-1.063 h 0.313 c -0.194,1.625 -0.846,2.438 -1.955,2.438 -0.517,0 -0.932,-0.158 -1.246,-0.476 -0.313,-0.317 -0.471,-0.787 -0.471,-1.41 0,-0.411 0.062,-1.28 0.185,-2.608 l 0.237,-2.537 h -1.859 c -0.123,2.14 -0.271,3.701 -0.442,4.688 -0.173,0.985 -0.362,1.624 -0.569,1.912 -0.208,0.287 -0.489,0.432 -0.846,0.432 -0.269,0 -0.495,-0.079 -0.679,-0.238 -0.184,-0.157 -0.276,-0.366 -0.276,-0.625 0,-0.247 0.157,-0.585 0.471,-1.014 0.459,-0.622 0.802,-1.271 1.03,-1.942 0.227,-0.673 0.398,-1.742 0.515,-3.212 h -0.597 c -0.479,0 -0.847,0.106 -1.102,0.319 -0.254,0.214 -0.496,0.519 -0.724,0.915 h -0.313 c 0.17,-0.625 0.39,-1.14 0.659,-1.543 0.269,-0.402 0.546,-0.666 0.83,-0.789 0.284,-0.122 0.789,-0.184 1.515,-0.184 l 5.606,-0.001 0,0 z"
       id="path5210"
       inkscape:connector-curvature="0" />
  </g>
  <path
     inkscape:connector-curvature="0"
     id="path5214"
     d="m 107.489,796.037 v 1.25 h -1.594 v 3.155 h -1.453 v -3.155 h -5.047 v -1.127 l 5.531,-7.89 h 0.969 v 7.767 h 1.594 z m -3.047,0 v -5.883 l -4.186,5.884 4.186,-10e-4 0,0 z" />
  <line
     x1="115.479"
     y1="783.349"
     x2="92.478996"
     y2="783.349"
     id="line5216"
     style="fill:none;stroke:#010101;stroke-width:2" />
  <g
     id="g6430"
     transform="translate(8.0510002,18.131499)">
    <path
       d="m 16.082,766.473 h 4.547 v 1.328 h -4.547 v -1.328 z"
       id="path5224"
       inkscape:connector-curvature="0" />
    <path
       d="m 29.591,768.865 -0.836,2.311 h -7.039 v -0.329 c 2.077,-1.886 3.538,-3.426 4.386,-4.62 0.847,-1.193 1.271,-2.287 1.271,-3.276 0,-0.759 -0.232,-1.383 -0.697,-1.869 -0.465,-0.488 -1.021,-0.732 -1.668,-0.732 -0.588,0 -1.116,0.17 -1.584,0.509 -0.468,0.34 -0.813,0.836 -1.037,1.491 h -0.326 c 0.146,-1.076 0.524,-1.903 1.132,-2.479 0.608,-0.576 1.368,-0.864 2.278,-0.864 0.969,0 1.779,0.312 2.428,0.934 0.649,0.622 0.974,1.356 0.974,2.201 0,0.605 -0.141,1.209 -0.423,1.813 -0.435,0.948 -1.14,1.954 -2.116,3.015 -1.464,1.589 -2.373,2.544 -2.726,2.866 h 3.095 c 0.63,0 1.071,-0.023 1.325,-0.07 0.253,-0.047 0.482,-0.143 0.687,-0.285 0.204,-0.145 0.382,-0.348 0.533,-0.61 h 0.343 v -0.006 z"
       id="path5226"
       inkscape:connector-curvature="0" />
    <path
       d="m 39.076,763.113 v 1.281 h -2.037 l -0.176,2.684 c -0.035,0.465 -0.053,0.867 -0.053,1.209 0,0.816 0.096,1.315 0.287,1.495 0.191,0.18 0.422,0.27 0.692,0.27 0.564,0 0.899,-0.354 1.005,-1.063 h 0.313 c -0.194,1.625 -0.846,2.438 -1.955,2.438 -0.517,0 -0.932,-0.158 -1.246,-0.476 -0.313,-0.317 -0.471,-0.787 -0.471,-1.41 0,-0.411 0.062,-1.28 0.185,-2.608 l 0.237,-2.537 h -1.859 c -0.123,2.14 -0.271,3.701 -0.442,4.688 -0.173,0.985 -0.362,1.624 -0.569,1.912 -0.208,0.287 -0.489,0.432 -0.846,0.432 -0.269,0 -0.495,-0.079 -0.679,-0.238 -0.184,-0.157 -0.276,-0.367 -0.276,-0.625 0,-0.247 0.157,-0.585 0.471,-1.014 0.459,-0.622 0.802,-1.27 1.03,-1.942 0.227,-0.673 0.398,-1.742 0.515,-3.212 h -0.597 c -0.479,0 -0.847,0.106 -1.102,0.319 -0.254,0.214 -0.496,0.519 -0.724,0.915 h -0.313 c 0.17,-0.625 0.39,-1.14 0.659,-1.543 0.269,-0.402 0.546,-0.666 0.83,-0.789 0.284,-0.122 0.789,-0.184 1.515,-0.184 h 5.606 v -0.002 z"
       id="path5228"
       inkscape:connector-curvature="0" />
  </g>
  <line
     x1="185.7605"
     y1="783.349"
     x2="162.7605"
     y2="783.349"
     id="line5230"
     style="fill:none;stroke:#010101;stroke-width:2" />
  <line
     x1="256.01199"
     y1="783.349"
     x2="233.01199"
     y2="783.349"
     id="line5232"
     style="fill:none;stroke:#010101;stroke-width:2" />
  <g
     id="g6440"
     transform="translate(11.066,12.457)">
    <path
       d="m 151.682,761.14 h 4.547 v 1.328 h -4.547 v -1.328 z"
       id="path5240"
       inkscape:connector-curvature="0" />
    <path
       d="m 157.864,756.187 c 0.34,-0.803 0.769,-1.424 1.287,-1.859 0.518,-0.438 1.164,-0.655 1.937,-0.655 0.955,0 1.687,0.311 2.196,0.932 0.387,0.463 0.58,0.958 0.58,1.485 0,0.867 -0.542,1.764 -1.625,2.688 0.73,0.287 1.283,0.697 1.657,1.23 0.374,0.533 0.562,1.16 0.562,1.881 0,1.031 -0.328,1.925 -0.985,2.681 -0.856,0.984 -2.096,1.478 -3.72,1.478 -0.803,0 -1.35,-0.1 -1.64,-0.298 -0.291,-0.199 -0.436,-0.412 -0.436,-0.641 0,-0.17 0.069,-0.318 0.207,-0.446 0.138,-0.129 0.304,-0.193 0.497,-0.193 0.146,0 0.296,0.023 0.449,0.07 0.1,0.028 0.326,0.135 0.678,0.317 0.352,0.184 0.596,0.293 0.73,0.328 0.217,0.063 0.449,0.097 0.695,0.097 0.599,0 1.12,-0.231 1.563,-0.694 0.443,-0.462 0.665,-1.01 0.665,-1.644 0,-0.463 -0.103,-0.912 -0.309,-1.353 -0.153,-0.328 -0.321,-0.577 -0.503,-0.747 -0.254,-0.234 -0.601,-0.446 -1.043,-0.638 -0.441,-0.189 -0.892,-0.285 -1.351,-0.285 h -0.283 v -0.267 c 0.465,-0.059 0.932,-0.225 1.4,-0.5 0.468,-0.274 0.809,-0.604 1.021,-0.99 0.212,-0.387 0.318,-0.811 0.318,-1.272 0,-0.602 -0.189,-1.089 -0.567,-1.461 -0.378,-0.371 -0.849,-0.557 -1.411,-0.557 -0.909,0 -1.668,0.483 -2.278,1.453 l -0.291,-0.14 z"
       id="path5242"
       inkscape:connector-curvature="0" />
    <path
       d="m 174.676,757.781 v 1.28 h -2.037 l -0.176,2.684 c -0.035,0.465 -0.053,0.867 -0.053,1.209 0,0.816 0.096,1.315 0.287,1.495 0.191,0.18 0.422,0.27 0.692,0.27 0.564,0 0.899,-0.354 1.005,-1.063 h 0.313 c -0.194,1.625 -0.846,2.438 -1.955,2.438 -0.517,0 -0.932,-0.158 -1.246,-0.476 -0.313,-0.317 -0.471,-0.787 -0.471,-1.41 0,-0.411 0.062,-1.28 0.185,-2.608 l 0.237,-2.537 h -1.859 c -0.123,2.14 -0.271,3.701 -0.442,4.688 -0.173,0.985 -0.362,1.624 -0.569,1.912 -0.208,0.287 -0.489,0.432 -0.846,0.432 -0.269,0 -0.495,-0.079 -0.679,-0.238 -0.184,-0.157 -0.276,-0.366 -0.276,-0.625 0,-0.247 0.157,-0.585 0.471,-1.014 0.459,-0.622 0.802,-1.271 1.03,-1.942 0.227,-0.673 0.398,-1.742 0.515,-3.212 h -0.597 c -0.479,0 -0.847,0.106 -1.102,0.319 -0.254,0.214 -0.496,0.519 -0.724,0.915 h -0.313 c 0.17,-0.625 0.39,-1.14 0.659,-1.543 0.269,-0.402 0.546,-0.666 0.83,-0.789 0.284,-0.122 0.789,-0.184 1.515,-0.184 l 5.606,-0.001 0,0 z"
       id="path5244"
       inkscape:connector-curvature="0" />
  </g>
  <path
     inkscape:connector-curvature="0"
     id="path5248"
     d="m 178.198,798.1295 -0.836,2.311 h -7.039 v -0.33 c 2.077,-1.886 3.538,-3.426 4.386,-4.619 0.847,-1.194 1.271,-2.287 1.271,-3.277 0,-0.758 -0.232,-1.382 -0.697,-1.869 -0.465,-0.488 -1.021,-0.731 -1.668,-0.731 -0.588,0 -1.116,0.17 -1.584,0.509 -0.468,0.339 -0.813,0.836 -1.037,1.491 h -0.326 c 0.146,-1.076 0.524,-1.903 1.132,-2.479 0.608,-0.576 1.368,-0.864 2.278,-0.864 0.969,0 1.779,0.313 2.428,0.935 0.649,0.622 0.974,1.355 0.974,2.201 0,0.604 -0.141,1.209 -0.423,1.813 -0.435,0.949 -1.14,1.954 -2.116,3.015 -1.464,1.59 -2.373,2.544 -2.726,2.866 h 3.095 c 0.63,0 1.071,-0.022 1.325,-0.069 0.253,-0.048 0.482,-0.144 0.687,-0.285 0.204,-0.146 0.382,-0.349 0.533,-0.611 h 0.343 v -0.007 z" />
  <line
     x1="595.81201"
     y1="760.34302"
     x2="596.81201"
     y2="12.943"
     id="line4992"
     style="fill:none;stroke:#1a04b7;stroke-width:3;stroke-dasharray:12" />
</svg>
