<?xml version="1.0" encoding="UTF-8" standalone="no"?>
<!-- Created with Inkscape (http://www.inkscape.org/) -->

<svg
   xmlns:dc="http://purl.org/dc/elements/1.1/"
   xmlns:cc="http://creativecommons.org/ns#"
   xmlns:rdf="http://www.w3.org/1999/02/22-rdf-syntax-ns#"
   xmlns:svg="http://www.w3.org/2000/svg"
   xmlns="http://www.w3.org/2000/svg"
   xmlns:sodipodi="http://sodipodi.sourceforge.net/DTD/sodipodi-0.dtd"
   xmlns:inkscape="http://www.inkscape.org/namespaces/inkscape"
   id="svg6364"
   sodipodi:version="0.32"
   inkscape:version="0.48.4 r9939"
   width="1149.76"
   height="787.90527"
   version="1.0"
   sodipodi:docname="Sec.svg"
   inkscape:output_extension="org.inkscape.output.svg.inkscape"
   inkscape:export-filename="D:\Wikipédia\Atelier graphique\Cartes\Nouvelles couleurs\Crète\Crete_topographic_map-fr.png"
   inkscape:export-xdpi="90"
   inkscape:export-ydpi="90">
  <metadata
     id="metadata7943">
    <rdf:RDF>
      <cc:Work
         rdf:about="">
        <dc:format>image/svg+xml</dc:format>
        <dc:type
           rdf:resource="http://purl.org/dc/dcmitype/StillImage" />
      </cc:Work>
    </rdf:RDF>
  </metadata>
  <defs
     id="defs7941" />
  <sodipodi:namedview
     pagecolor="#ffffff"
     bordercolor="#666666"
     borderopacity="1"
     objecttolerance="10"
     gridtolerance="10"
     guidetolerance="10"
     inkscape:pageopacity="0"
     inkscape:pageshadow="2"
     inkscape:window-width="1224"
     inkscape:window-height="829"
     id="namedview7939"
     showgrid="false"
     fit-margin-top="10"
     fit-margin-left="10"
     fit-margin-bottom="10"
     fit-margin-right="10"
     inkscape:zoom="0.82171593"
     inkscape:cx="574.88"
     inkscape:cy="393.95264"
     inkscape:window-x="106"
     inkscape:window-y="8"
     inkscape:window-maximized="0"
     inkscape:current-layer="layer2" />
  <path
     style="fill:none;stroke:#808080"
     inkscape:connector-curvature="0"
     id="path7219"
     d="m 45.76,736.471 h 1085.5" />
  <path
     style="fill:none;stroke:#000000"
     inkscape:connector-curvature="0"
     id="path7223"
     d="m 45.76,736.471 h 13.5 m 1072,0 h -13.5" />
  <g
     id="g7227"
     transform="translate(73.5,762.7)">
    <path
       inkscape:connector-curvature="0"
       id="path7229"
       d="m -63.5,-24.231 h 4.547 v 1.328 H -63.5 v -1.328 z" />
    <path
       inkscape:connector-curvature="0"
       id="path7231"
       d="m -56.131,-30.293 2.897,-1.406 h 0.291 v 10.078 c 0,0.664 0.027,1.078 0.083,1.24 0.056,0.164 0.171,0.289 0.347,0.377 0.175,0.086 0.532,0.137 1.07,0.146 v 0.328 h -4.484 v -0.328 c 0.563,-0.012 0.927,-0.059 1.091,-0.145 0.165,-0.084 0.279,-0.197 0.344,-0.34 0.064,-0.145 0.097,-0.57 0.097,-1.281 v -6.453 c 0,-0.871 -0.029,-1.432 -0.088,-1.68 -0.041,-0.188 -0.115,-0.326 -0.223,-0.414 -0.108,-0.088 -0.238,-0.131 -0.39,-0.131 -0.216,0 -0.517,0.09 -0.902,0.271 l -0.133,-0.262 z" />
    <path
       inkscape:connector-curvature="0"
       id="path7233"
       d="m -48.584,-25.424 c 0,-1.359 0.205,-2.529 0.615,-3.514 0.41,-0.979 0.955,-1.711 1.634,-2.191 0.527,-0.381 1.072,-0.57 1.634,-0.57 0.914,0 1.733,0.465 2.459,1.396 0.907,1.154 1.361,2.719 1.361,4.693 0,1.383 -0.199,2.559 -0.598,3.523 -0.398,0.967 -0.906,1.668 -1.523,2.105 -0.618,0.436 -1.214,0.654 -1.788,0.654 -1.136,0 -2.082,-0.672 -2.837,-2.014 -0.638,-1.127 -0.957,-2.488 -0.957,-4.082 z m 1.719,0.223 c 0,1.641 0.202,2.98 0.607,4.02 0.334,0.873 0.833,1.311 1.495,1.311 0.316,0 0.645,-0.143 0.985,-0.426 0.34,-0.285 0.598,-0.762 0.774,-1.43 0.27,-1.01 0.404,-2.432 0.404,-4.268 0,-1.359 -0.141,-2.494 -0.422,-3.402 -0.211,-0.676 -0.484,-1.152 -0.818,-1.436 -0.24,-0.193 -0.531,-0.289 -0.871,-0.289 -0.399,0 -0.753,0.178 -1.064,0.537 -0.423,0.484 -0.71,1.252 -0.862,2.295 -0.152,1.043 -0.228,2.072 -0.228,3.088 z" />
  </g>
  <path
     style="fill:none;stroke:#808080"
     inkscape:connector-curvature="0"
     id="path7237"
     d="m 45.76,700.372 h 1085.5" />
  <path
     style="fill:none;stroke:#000000"
     inkscape:connector-curvature="0"
     id="path7241"
     d="m 45.76,700.372 h 13.5 m 1072,0 h -13.5" />
  <g
     id="g7245"
     transform="translate(73.5,726.6)">
    <path
       inkscape:connector-curvature="0"
       id="path7247"
       d="m -54.5,-24.232 h 4.547 v 1.328 H -54.5 v -1.328 z" />
    <path
       inkscape:connector-curvature="0"
       id="path7249"
       d="m -48.303,-19.279 v -0.328 c 0.762,-0.012 1.472,-0.189 2.128,-0.531 0.657,-0.344 1.292,-0.943 1.904,-1.799 0.612,-0.856 1.04,-1.797 1.28,-2.82 -0.92,0.59 -1.752,0.885 -2.497,0.885 -0.838,0 -1.556,-0.322 -2.154,-0.971 -0.598,-0.646 -0.896,-1.51 -0.896,-2.582 0,-1.045 0.299,-1.973 0.896,-2.789 0.721,-0.99 1.661,-1.484 2.822,-1.484 0.979,0 1.817,0.402 2.514,1.215 0.855,1.002 1.283,2.24 1.283,3.713 0,1.324 -0.325,2.561 -0.976,3.707 -0.651,1.145 -1.557,2.098 -2.717,2.854 -0.944,0.621 -1.973,0.934 -3.087,0.934 h -0.5 v -0.004 z m 5.453,-6.129 c 0.104,-0.762 0.156,-1.371 0.156,-1.828 0,-0.568 -0.097,-1.184 -0.29,-1.842 -0.193,-0.66 -0.468,-1.166 -0.822,-1.518 -0.354,-0.352 -0.757,-0.527 -1.208,-0.527 -0.522,0 -0.979,0.234 -1.372,0.703 -0.393,0.469 -0.589,1.168 -0.589,2.094 0,1.236 0.261,2.203 0.783,2.9 0.381,0.504 0.85,0.756 1.408,0.756 0.27,0 0.589,-0.064 0.958,-0.193 0.369,-0.129 0.695,-0.311 0.976,-0.545 z" />
  </g>
  <path
     style="fill:none;stroke:#808080"
     inkscape:connector-curvature="0"
     id="path7253"
     d="m 45.76,664.372 h 1085.5" />
  <path
     style="fill:none;stroke:#000000"
     inkscape:connector-curvature="0"
     id="path7257"
     d="m 45.76,664.372 h 13.5 m 1072,0 h -13.5" />
  <g
     id="g7261"
     transform="translate(73.5,690.6)">
    <path
       inkscape:connector-curvature="0"
       id="path7263"
       d="m -54.5,-24.232 h 4.547 v 1.328 H -54.5 v -1.328 z" />
    <path
       inkscape:connector-curvature="0"
       id="path7265"
       d="m -45.781,-25.531 c -0.947,-0.775 -1.557,-1.396 -1.83,-1.865 -0.273,-0.471 -0.41,-0.957 -0.41,-1.461 0,-0.775 0.299,-1.443 0.897,-2.002 0.598,-0.561 1.393,-0.842 2.384,-0.842 0.962,0 1.736,0.262 2.323,0.783 0.586,0.523 0.88,1.119 0.88,1.787 0,0.445 -0.158,0.9 -0.475,1.365 -0.316,0.463 -0.975,1.008 -1.977,1.637 1.032,0.795 1.715,1.422 2.049,1.879 0.445,0.596 0.668,1.225 0.668,1.887 0,0.836 -0.319,1.553 -0.958,2.146 -0.639,0.593 -1.478,0.891 -2.515,0.891 -1.131,0 -2.014,-0.354 -2.646,-1.063 -0.504,-0.566 -0.756,-1.188 -0.756,-1.859 0,-0.527 0.177,-1.049 0.532,-1.568 0.355,-0.518 0.966,-1.09 1.834,-1.715 z m 0.413,0.334 c -0.487,0.406 -0.848,0.852 -1.083,1.332 -0.234,0.48 -0.352,1 -0.352,1.559 0,0.752 0.207,1.355 0.621,1.805 0.414,0.451 0.941,0.678 1.581,0.678 0.634,0 1.142,-0.18 1.523,-0.533 0.381,-0.355 0.572,-0.785 0.572,-1.293 0,-0.418 -0.111,-0.793 -0.335,-1.125 -0.417,-0.62 -1.259,-1.427 -2.527,-2.423 z m 0.967,-1.276 c 0.702,-0.635 1.146,-1.137 1.333,-1.504 0.187,-0.367 0.281,-0.783 0.281,-1.248 0,-0.617 -0.173,-1.102 -0.519,-1.451 -0.346,-0.348 -0.817,-0.523 -1.414,-0.523 -0.598,0 -1.083,0.174 -1.458,0.52 -0.375,0.346 -0.563,0.752 -0.563,1.217 0,0.309 0.078,0.611 0.233,0.918 0.155,0.307 0.376,0.598 0.664,0.873 l 1.443,1.198 z" />
  </g>
  <path
     style="fill:none;stroke:#808080"
     inkscape:connector-curvature="0"
     id="path7269"
     d="m 45.76,628.272 h 1085.5" />
  <path
     style="fill:none;stroke:#000000"
     inkscape:connector-curvature="0"
     id="path7273"
     d="m 45.76,628.272 h 13.5 m 1072,0 h -13.5" />
  <g
     id="g7277"
     transform="translate(73.5,654.5)">
    <path
       inkscape:connector-curvature="0"
       id="path7279"
       d="m -54.5,-24.232 h 4.547 v 1.328 H -54.5 v -1.328 z" />
    <path
       inkscape:connector-curvature="0"
       id="path7281"
       d="m -47.428,-31.451 h 6.386 v 0.338 l -3.964,11.834 h -0.988 l 3.566,-10.732 h -3.281 c -0.663,0 -1.135,0.078 -1.417,0.236 -0.493,0.27 -0.889,0.686 -1.188,1.248 l -0.255,-0.098 1.141,-2.826 z" />
  </g>
  <path
     style="fill:none;stroke:#808080"
     inkscape:connector-curvature="0"
     id="path7285"
     d="m 45.76,592.272 h 1085.5" />
  <path
     style="fill:none;stroke:#000000"
     inkscape:connector-curvature="0"
     id="path7289"
     d="m 45.76,592.272 h 13.5 m 1072,0 h -13.5" />
  <g
     id="g7293"
     transform="translate(73.5,618.5)">
    <path
       inkscape:connector-curvature="0"
       id="path7295"
       d="m -54.5,-24.232 h 4.547 v 1.328 H -54.5 v -1.328 z" />
    <path
       inkscape:connector-curvature="0"
       id="path7297"
       d="m -41.162,-31.701 v 0.344 c -0.774,0.076 -1.405,0.23 -1.895,0.461 -0.49,0.23 -0.974,0.582 -1.451,1.057 -0.477,0.473 -0.873,1 -1.187,1.58 -0.314,0.582 -0.576,1.271 -0.787,2.07 0.844,-0.58 1.69,-0.869 2.54,-0.869 0.814,0 1.52,0.326 2.118,0.982 0.598,0.656 0.896,1.5 0.896,2.531 0,0.996 -0.302,1.904 -0.905,2.725 -0.727,0.996 -1.688,1.494 -2.882,1.494 -0.814,0 -1.505,-0.27 -2.074,-0.809 -1.113,-1.049 -1.67,-2.408 -1.67,-4.078 0,-1.066 0.214,-2.08 0.642,-3.041 0.428,-0.961 1.039,-1.813 1.833,-2.557 0.794,-0.746 1.555,-1.246 2.281,-1.504 0.726,-0.258 1.404,-0.387 2.031,-0.387 h 0.51 l 0,0.001 z m -5.469,6.153 c -0.104,0.791 -0.156,1.428 -0.156,1.914 0,0.563 0.104,1.172 0.312,1.83 0.208,0.658 0.518,1.18 0.928,1.566 0.298,0.273 0.662,0.412 1.089,0.412 0.509,0 0.965,-0.24 1.366,-0.721 0.401,-0.48 0.602,-1.164 0.602,-2.053 0,-1.002 -0.199,-1.867 -0.598,-2.6 -0.398,-0.73 -0.964,-1.098 -1.697,-1.098 -0.223,0 -0.461,0.047 -0.716,0.141 -0.255,0.097 -0.632,0.298 -1.13,0.609 z" />
  </g>
  <path
     style="fill:none;stroke:#808080"
     inkscape:connector-curvature="0"
     id="path7301"
     d="m 45.76,556.172 h 1085.5" />
  <path
     style="fill:none;stroke:#000000"
     inkscape:connector-curvature="0"
     id="path7305"
     d="m 45.76,556.172 h 13.5 m 1072,0 h -13.5" />
  <g
     id="g7309"
     transform="translate(73.5,582.4)">
    <path
       inkscape:connector-curvature="0"
       id="path7311"
       d="m -54.5,-24.232 h 4.547 v 1.328 H -54.5 v -1.328 z" />
    <path
       inkscape:connector-curvature="0"
       id="path7313"
       d="m -41.428,-31.45 -0.688,1.5 h -3.594 l -0.787,1.592 c 1.563,0.23 2.799,0.807 3.709,1.73 0.781,0.797 1.172,1.734 1.172,2.813 0,0.627 -0.128,1.207 -0.383,1.74 -0.255,0.533 -0.576,0.986 -0.963,1.361 -0.387,0.375 -0.818,0.678 -1.293,0.904 -0.674,0.322 -1.366,0.484 -2.076,0.484 -0.716,0 -1.236,-0.121 -1.562,-0.363 -0.326,-0.242 -0.488,-0.51 -0.488,-0.801 0,-0.164 0.067,-0.309 0.203,-0.434 0.135,-0.127 0.306,-0.188 0.512,-0.188 0.153,0 0.287,0.023 0.401,0.07 0.114,0.047 0.311,0.166 0.587,0.357 0.439,0.305 0.884,0.459 1.335,0.465 0.685,0 1.287,-0.26 1.805,-0.777 0.519,-0.521 0.778,-1.154 0.778,-1.9 0,-0.723 -0.232,-1.396 -0.695,-2.021 -0.463,-0.625 -1.103,-1.109 -1.917,-1.449 -0.64,-0.266 -1.51,-0.418 -2.612,-0.459 l 2.285,-4.625 h 4.271 z" />
  </g>
  <path
     style="fill:none;stroke:#808080"
     inkscape:connector-curvature="0"
     id="path7317"
     d="m 45.76,520.172 h 1085.5" />
  <path
     style="fill:none;stroke:#000000"
     inkscape:connector-curvature="0"
     id="path7321"
     d="m 45.76,520.172 h 13.5 m 1072,0 h -13.5" />
  <g
     id="g7325"
     transform="translate(73.5,546.4)">
    <path
       inkscape:connector-curvature="0"
       id="path7327"
       d="m -54.5,-24.232 h 4.547 v 1.328 H -54.5 v -1.328 z" />
    <path
       inkscape:connector-curvature="0"
       id="path7329"
       d="m -40.865,-23.935 v 1.25 h -1.594 v 3.156 h -1.453 v -3.156 h -5.047 v -1.127 l 5.531,-7.889 h 0.969 v 7.766 h 1.594 z m -3.047,0 v -5.883 l -4.186,5.883 h 4.186 z" />
  </g>
  <path
     style="fill:none;stroke:#808080"
     inkscape:connector-curvature="0"
     id="path7333"
     d="m 45.76,484.071 h 1085.5" />
  <path
     style="fill:none;stroke:#000000"
     inkscape:connector-curvature="0"
     id="path7337"
     d="m 45.76,484.071 h 13.5 m 1072,0 h -13.5" />
  <g
     id="g7341"
     transform="translate(73.5,510.3)">
    <path
       inkscape:connector-curvature="0"
       id="path7343"
       d="m -54.5,-24.231 h 4.547 v 1.326 H -54.5 v -1.326 z" />
    <path
       inkscape:connector-curvature="0"
       id="path7345"
       d="m -48.318,-29.184 c 0.34,-0.805 0.769,-1.424 1.287,-1.861 0.518,-0.436 1.164,-0.654 1.937,-0.654 0.955,0 1.687,0.311 2.196,0.932 0.387,0.463 0.58,0.959 0.58,1.484 0,0.867 -0.542,1.766 -1.625,2.689 0.73,0.287 1.283,0.697 1.657,1.23 0.374,0.533 0.562,1.16 0.562,1.881 0,1.031 -0.328,1.926 -0.985,2.682 -0.856,0.984 -2.096,1.477 -3.72,1.477 -0.803,0 -1.35,-0.1 -1.64,-0.299 -0.291,-0.199 -0.436,-0.412 -0.436,-0.639 0,-0.17 0.069,-0.32 0.207,-0.447 0.138,-0.129 0.304,-0.193 0.497,-0.193 0.146,0 0.296,0.023 0.449,0.07 0.1,0.029 0.326,0.135 0.678,0.318 0.352,0.182 0.596,0.293 0.73,0.328 0.217,0.063 0.449,0.096 0.695,0.096 0.599,0 1.12,-0.232 1.563,-0.695 0.443,-0.461 0.665,-1.01 0.665,-1.643 0,-0.463 -0.103,-0.912 -0.309,-1.354 -0.153,-0.326 -0.321,-0.576 -0.503,-0.746 -0.254,-0.234 -0.601,-0.445 -1.043,-0.639 -0.441,-0.188 -0.892,-0.285 -1.351,-0.285 h -0.283 v -0.266 c 0.465,-0.059 0.932,-0.225 1.4,-0.5 0.468,-0.275 0.809,-0.605 1.021,-0.99 0.212,-0.387 0.318,-0.811 0.318,-1.271 0,-0.604 -0.189,-1.09 -0.567,-1.461 -0.378,-0.371 -0.849,-0.559 -1.411,-0.559 -0.909,0 -1.668,0.484 -2.278,1.453 l -0.291,-0.138 z" />
  </g>
  <path
     style="fill:none;stroke:#808080"
     inkscape:connector-curvature="0"
     id="path7349"
     d="m 45.76,448.071 h 1085.5" />
  <path
     style="fill:none;stroke:#000000"
     inkscape:connector-curvature="0"
     id="path7353"
     d="m 45.76,448.071 h 13.5 m 1072,0 h -13.5" />
  <g
     id="g7357"
     transform="translate(73.5,474.3)">
    <path
       inkscape:connector-curvature="0"
       id="path7359"
       d="m -54.5,-24.231 h 4.547 v 1.326 H -54.5 v -1.326 z" />
    <path
       inkscape:connector-curvature="0"
       id="path7361"
       d="m -40.99,-21.839 -0.836,2.311 h -7.039 v -0.328 c 2.077,-1.887 3.538,-3.428 4.386,-4.621 0.847,-1.193 1.271,-2.287 1.271,-3.277 0,-0.758 -0.232,-1.381 -0.697,-1.869 -0.465,-0.486 -1.021,-0.73 -1.668,-0.73 -0.588,0 -1.116,0.17 -1.584,0.508 -0.468,0.34 -0.813,0.836 -1.037,1.492 h -0.326 c 0.146,-1.076 0.524,-1.904 1.132,-2.48 0.608,-0.576 1.368,-0.863 2.278,-0.863 0.969,0 1.779,0.313 2.428,0.934 0.649,0.623 0.974,1.355 0.974,2.201 0,0.605 -0.141,1.209 -0.423,1.813 -0.435,0.949 -1.14,1.955 -2.116,3.016 -1.464,1.59 -2.373,2.545 -2.726,2.865 h 3.095 c 0.63,0 1.071,-0.021 1.325,-0.068 0.253,-0.047 0.482,-0.145 0.687,-0.285 0.204,-0.146 0.382,-0.35 0.533,-0.611 h 0.343 v -0.008 z" />
  </g>
  <path
     style="fill:none;stroke:#808080"
     inkscape:connector-curvature="0"
     id="path7365"
     d="m 45.76,411.971 h 1085.5" />
  <path
     style="fill:none;stroke:#000000"
     inkscape:connector-curvature="0"
     id="path7369"
     d="m 45.76,411.971 h 13.5 m 1072,0 h -13.5" />
  <g
     id="g7373"
     transform="translate(73.5,438.2)">
    <path
       inkscape:connector-curvature="0"
       id="path7375"
       d="m -54.5,-24.231 h 4.547 v 1.328 H -54.5 v -1.328 z" />
    <path
       inkscape:connector-curvature="0"
       id="path7377"
       d="m -47.131,-30.293 2.897,-1.406 h 0.291 v 10.078 c 0,0.664 0.027,1.078 0.083,1.24 0.056,0.164 0.171,0.289 0.347,0.377 0.175,0.086 0.532,0.137 1.07,0.146 v 0.328 h -4.484 v -0.328 c 0.563,-0.012 0.927,-0.059 1.091,-0.145 0.165,-0.084 0.279,-0.197 0.344,-0.34 0.064,-0.145 0.097,-0.57 0.097,-1.281 v -6.453 c 0,-0.871 -0.029,-1.432 -0.088,-1.68 -0.041,-0.188 -0.115,-0.326 -0.223,-0.414 -0.108,-0.088 -0.238,-0.131 -0.39,-0.131 -0.216,0 -0.517,0.09 -0.902,0.271 l -0.133,-0.262 z" />
  </g>
  <path
     style="fill:none;stroke:#808080"
     inkscape:connector-curvature="0"
     id="path7381"
     d="m 45.76,375.972 h 1085.5" />
  <path
     style="fill:none;stroke:#000000"
     inkscape:connector-curvature="0"
     id="path7385"
     d="m 45.76,375.972 h 13.5 m 1072,0 h -13.5" />
  <g
     id="g7389"
     transform="translate(73.5,402.2)">
    <path
       inkscape:connector-curvature="0"
       id="path7391"
       d="m -48.584,-25.425 c 0,-1.359 0.205,-2.529 0.615,-3.513 0.41,-0.979 0.955,-1.712 1.634,-2.191 0.527,-0.381 1.072,-0.571 1.634,-0.571 0.914,0 1.733,0.466 2.459,1.397 0.907,1.153 1.361,2.719 1.361,4.692 0,1.383 -0.199,2.559 -0.598,3.524 -0.398,0.967 -0.906,1.668 -1.523,2.104 -0.618,0.437 -1.214,0.654 -1.788,0.654 -1.136,0 -2.082,-0.671 -2.837,-2.013 -0.638,-1.127 -0.957,-2.489 -0.957,-4.083 z m 1.719,0.223 c 0,1.642 0.202,2.981 0.607,4.02 0.334,0.874 0.833,1.312 1.495,1.312 0.316,0 0.645,-0.144 0.985,-0.427 0.34,-0.284 0.598,-0.762 0.774,-1.43 0.27,-1.009 0.404,-2.432 0.404,-4.267 0,-1.36 -0.141,-2.495 -0.422,-3.403 -0.211,-0.675 -0.484,-1.151 -0.818,-1.435 -0.24,-0.193 -0.531,-0.29 -0.871,-0.29 -0.399,0 -0.753,0.179 -1.064,0.537 -0.423,0.485 -0.71,1.252 -0.862,2.295 -0.152,1.044 -0.228,2.073 -0.228,3.088 z" />
  </g>
  <path
     style="fill:none;stroke:#808080"
     inkscape:connector-curvature="0"
     id="path7395"
     d="m 45.76,339.872 h 1085.5" />
  <path
     style="fill:none;stroke:#000000"
     inkscape:connector-curvature="0"
     id="path7399"
     d="m 45.76,339.872 h 13.5 m 1072,0 h -13.5" />
  <g
     id="g7403"
     transform="translate(73.5,366.1)">
    <path
       inkscape:connector-curvature="0"
       id="path7405"
       d="m -47.131,-30.294 2.897,-1.405 h 0.291 v 10.077 c 0,0.664 0.027,1.078 0.083,1.241 0.056,0.163 0.171,0.288 0.347,0.376 0.175,0.087 0.532,0.138 1.07,0.148 v 0.328 h -4.484 v -0.328 c 0.563,-0.012 0.927,-0.061 1.091,-0.146 0.165,-0.084 0.279,-0.196 0.344,-0.341 0.064,-0.143 0.097,-0.568 0.097,-1.28 v -6.452 c 0,-0.872 -0.029,-1.433 -0.088,-1.681 -0.041,-0.188 -0.115,-0.326 -0.223,-0.414 -0.108,-0.088 -0.238,-0.132 -0.39,-0.132 -0.216,0 -0.517,0.091 -0.902,0.272 l -0.133,-0.263 z" />
  </g>
  <path
     style="fill:none;stroke:#808080"
     inkscape:connector-curvature="0"
     id="path7409"
     d="m 45.76,303.872 h 1085.5" />
  <path
     style="fill:none;stroke:#000000"
     inkscape:connector-curvature="0"
     id="path7413"
     d="m 45.76,303.872 h 13.5 m 1072,0 h -13.5" />
  <g
     id="g7417"
     transform="translate(73.5,330.1)">
    <path
       inkscape:connector-curvature="0"
       id="path7419"
       d="m -40.99,-21.839 -0.836,2.311 h -7.039 v -0.329 c 2.077,-1.886 3.538,-3.426 4.386,-4.62 0.847,-1.194 1.271,-2.287 1.271,-3.277 0,-0.758 -0.232,-1.382 -0.697,-1.869 -0.465,-0.488 -1.021,-0.732 -1.668,-0.732 -0.588,0 -1.116,0.17 -1.584,0.509 -0.468,0.339 -0.813,0.836 -1.037,1.491 h -0.326 c 0.146,-1.076 0.524,-1.903 1.132,-2.479 0.608,-0.576 1.368,-0.864 2.278,-0.864 0.969,0 1.779,0.312 2.428,0.934 0.649,0.622 0.974,1.356 0.974,2.201 0,0.605 -0.141,1.209 -0.423,1.813 -0.435,0.949 -1.14,1.954 -2.116,3.015 -1.464,1.589 -2.373,2.544 -2.726,2.866 h 3.095 c 0.63,0 1.071,-0.023 1.325,-0.07 0.253,-0.047 0.482,-0.143 0.687,-0.285 0.204,-0.145 0.382,-0.348 0.533,-0.611 h 0.343 v -0.004 z" />
  </g>
  <path
     style="fill:none;stroke:#808080"
     inkscape:connector-curvature="0"
     id="path7423"
     d="m 45.76,267.771 h 1085.5" />
  <path
     style="fill:none;stroke:#000000"
     inkscape:connector-curvature="0"
     id="path7427"
     d="m 45.76,267.771 h 13.5 m 1072,0 h -13.5" />
  <g
     id="g7431"
     transform="translate(73.5,294)">
    <path
       inkscape:connector-curvature="0"
       id="path7433"
       d="m -48.318,-29.185 c 0.34,-0.803 0.769,-1.424 1.287,-1.86 0.518,-0.437 1.164,-0.655 1.937,-0.655 0.955,0 1.687,0.311 2.196,0.932 0.387,0.463 0.58,0.958 0.58,1.485 0,0.867 -0.542,1.764 -1.625,2.689 0.73,0.287 1.283,0.697 1.657,1.23 0.374,0.533 0.562,1.16 0.562,1.881 0,1.031 -0.328,1.925 -0.985,2.681 -0.856,0.984 -2.096,1.477 -3.72,1.477 -0.803,0 -1.35,-0.1 -1.64,-0.298 -0.291,-0.199 -0.436,-0.412 -0.436,-0.64 0,-0.17 0.069,-0.319 0.207,-0.447 0.138,-0.129 0.304,-0.193 0.497,-0.193 0.146,0 0.296,0.023 0.449,0.07 0.1,0.029 0.326,0.135 0.678,0.318 0.352,0.183 0.596,0.293 0.73,0.328 0.217,0.063 0.449,0.096 0.695,0.096 0.599,0 1.12,-0.231 1.563,-0.694 0.443,-0.462 0.665,-1.01 0.665,-1.643 0,-0.463 -0.103,-0.913 -0.309,-1.353 -0.153,-0.328 -0.321,-0.577 -0.503,-0.747 -0.254,-0.234 -0.601,-0.446 -1.043,-0.638 -0.441,-0.189 -0.892,-0.285 -1.351,-0.285 h -0.283 v -0.266 c 0.465,-0.059 0.932,-0.225 1.4,-0.5 0.468,-0.275 0.809,-0.605 1.021,-0.991 0.212,-0.386 0.318,-0.81 0.318,-1.272 0,-0.602 -0.189,-1.089 -0.567,-1.461 -0.378,-0.371 -0.849,-0.557 -1.411,-0.557 -0.909,0 -1.668,0.484 -2.278,1.453 l -0.291,-0.14 z" />
  </g>
  <path
     style="fill:none;stroke:#808080"
     inkscape:connector-curvature="0"
     id="path7437"
     d="m 45.76,231.771 h 1085.5" />
  <path
     style="fill:none;stroke:#000000"
     inkscape:connector-curvature="0"
     id="path7441"
     d="m 45.76,231.771 h 13.5 m 1072,0 h -13.5" />
  <g
     id="g7445"
     transform="translate(73.5,258)">
    <path
       inkscape:connector-curvature="0"
       id="path7447"
       d="m -40.865,-23.935 v 1.25 h -1.594 v 3.156 h -1.453 v -3.156 h -5.047 v -1.127 l 5.531,-7.889 h 0.969 v 7.766 h 1.594 z m -3.047,0 v -5.883 l -4.186,5.883 h 4.186 z" />
  </g>
  <path
     style="fill:none;stroke:#808080"
     inkscape:connector-curvature="0"
     id="path7451"
     d="m 45.76,195.672 h 1085.5" />
  <path
     style="fill:none;stroke:#000000"
     inkscape:connector-curvature="0"
     id="path7455"
     d="m 45.76,195.672 h 13.5 m 1072,0 h -13.5" />
  <g
     id="g7459"
     transform="translate(73.5,221.9)">
    <path
       inkscape:connector-curvature="0"
       id="path7461"
       d="m -41.428,-31.45 -0.688,1.5 h -3.594 l -0.787,1.592 c 1.563,0.229 2.799,0.806 3.709,1.73 0.781,0.797 1.172,1.734 1.172,2.813 0,0.627 -0.128,1.207 -0.383,1.74 -0.255,0.533 -0.576,0.986 -0.963,1.361 -0.387,0.375 -0.818,0.677 -1.293,0.905 -0.674,0.322 -1.366,0.483 -2.076,0.483 -0.716,0 -1.236,-0.121 -1.562,-0.363 -0.326,-0.242 -0.488,-0.509 -0.488,-0.801 0,-0.163 0.067,-0.308 0.203,-0.433 0.135,-0.126 0.306,-0.188 0.512,-0.188 0.153,0 0.287,0.023 0.401,0.07 0.114,0.047 0.311,0.166 0.587,0.358 0.439,0.304 0.884,0.459 1.335,0.466 0.685,0 1.287,-0.26 1.805,-0.779 0.519,-0.521 0.778,-1.153 0.778,-1.899 0,-0.723 -0.232,-1.397 -0.695,-2.022 -0.463,-0.626 -1.103,-1.109 -1.917,-1.45 -0.64,-0.264 -1.51,-0.417 -2.612,-0.458 l 2.285,-4.625 h 4.271 z" />
  </g>
  <path
     style="fill:none;stroke:#808080"
     inkscape:connector-curvature="0"
     id="path7465"
     d="m 45.76,159.672 h 1085.5" />
  <path
     style="fill:none;stroke:#000000"
     inkscape:connector-curvature="0"
     id="path7469"
     d="m 45.76,159.672 h 13.5 m 1072,0 h -13.5" />
  <g
     id="g7473"
     transform="translate(73.5,185.9)">
    <path
       inkscape:connector-curvature="0"
       id="path7475"
       d="m -41.162,-31.7 v 0.344 c -0.774,0.076 -1.405,0.229 -1.895,0.46 -0.49,0.23 -0.974,0.583 -1.451,1.056 -0.477,0.473 -0.873,1 -1.187,1.581 -0.314,0.581 -0.576,1.271 -0.787,2.071 0.844,-0.581 1.69,-0.871 2.54,-0.871 0.814,0 1.52,0.328 2.118,0.984 0.598,0.656 0.896,1.5 0.896,2.531 0,0.996 -0.302,1.904 -0.905,2.725 -0.727,0.996 -1.688,1.494 -2.882,1.494 -0.814,0 -1.505,-0.27 -2.074,-0.809 -1.113,-1.049 -1.67,-2.408 -1.67,-4.078 0,-1.066 0.214,-2.08 0.642,-3.041 0.428,-0.961 1.039,-1.813 1.833,-2.558 0.794,-0.745 1.555,-1.245 2.281,-1.503 0.726,-0.258 1.404,-0.387 2.031,-0.387 l 0.51,0.001 0,0 z m -5.469,6.153 c -0.104,0.79 -0.156,1.428 -0.156,1.913 0,0.563 0.104,1.173 0.312,1.831 0.208,0.658 0.518,1.18 0.928,1.566 0.298,0.274 0.662,0.412 1.089,0.412 0.509,0 0.965,-0.24 1.366,-0.72 0.401,-0.48 0.602,-1.164 0.602,-2.054 0,-1.001 -0.199,-1.867 -0.598,-2.598 -0.398,-0.732 -0.964,-1.098 -1.697,-1.098 -0.223,0 -0.461,0.047 -0.716,0.141 -0.255,0.094 -0.632,0.296 -1.13,0.607 z" />
  </g>
  <path
     style="fill:none;stroke:#808080"
     inkscape:connector-curvature="0"
     id="path7479"
     d="m 45.76,123.572 h 1085.5" />
  <path
     style="fill:none;stroke:#000000"
     inkscape:connector-curvature="0"
     id="path7483"
     d="m 45.76,123.572 h 13.5 m 1072,0 h -13.5" />
  <g
     id="g7487"
     transform="translate(73.5,149.8)">
    <path
       inkscape:connector-curvature="0"
       id="path7489"
       d="m -47.428,-31.45 h 6.386 v 0.338 l -3.964,11.834 h -0.988 l 3.566,-10.734 h -3.281 c -0.663,0 -1.135,0.079 -1.417,0.237 -0.493,0.27 -0.889,0.686 -1.188,1.248 l -0.255,-0.097 1.141,-2.826 z" />
  </g>
  <path
     style="fill:none;stroke:#808080"
     inkscape:connector-curvature="0"
     id="path7493"
     d="m 45.76,87.572 h 1085.5" />
  <path
     style="fill:none;stroke:#000000"
     inkscape:connector-curvature="0"
     id="path7497"
     d="m 45.76,87.572 h 13.5 m 1072,0 h -13.5" />
  <g
     id="g7501"
     transform="translate(73.5,113.8)">
    <path
       inkscape:connector-curvature="0"
       id="path7503"
       d="m -45.781,-25.531 c -0.947,-0.774 -1.557,-1.396 -1.83,-1.865 -0.273,-0.47 -0.41,-0.956 -0.41,-1.461 0,-0.774 0.299,-1.442 0.897,-2.002 0.598,-0.561 1.393,-0.841 2.384,-0.841 0.962,0 1.736,0.262 2.323,0.783 0.586,0.522 0.88,1.118 0.88,1.787 0,0.445 -0.158,0.9 -0.475,1.364 -0.317,0.464 -0.975,1.009 -1.977,1.637 1.032,0.796 1.715,1.422 2.049,1.879 0.445,0.597 0.668,1.226 0.668,1.888 0,0.836 -0.319,1.552 -0.958,2.146 -0.639,0.594 -1.478,0.891 -2.515,0.891 -1.131,0 -2.014,-0.354 -2.646,-1.063 -0.504,-0.567 -0.756,-1.188 -0.756,-1.86 0,-0.526 0.177,-1.049 0.532,-1.567 0.355,-0.518 0.966,-1.09 1.834,-1.716 z m 0.413,0.334 c -0.487,0.407 -0.848,0.852 -1.083,1.332 -0.234,0.48 -0.352,1 -0.352,1.56 0,0.751 0.207,1.353 0.621,1.804 0.414,0.451 0.941,0.677 1.581,0.677 0.634,0 1.142,-0.178 1.523,-0.533 0.381,-0.354 0.572,-0.785 0.572,-1.293 0,-0.419 -0.111,-0.794 -0.335,-1.126 -0.417,-0.619 -1.259,-1.425 -2.527,-2.421 z m 0.967,-1.275 c 0.702,-0.635 1.146,-1.137 1.333,-1.504 0.187,-0.367 0.281,-0.783 0.281,-1.248 0,-0.618 -0.173,-1.102 -0.519,-1.451 -0.346,-0.351 -0.817,-0.525 -1.414,-0.525 -0.598,0 -1.083,0.174 -1.458,0.521 -0.375,0.347 -0.563,0.753 -0.563,1.218 0,0.306 0.078,0.611 0.233,0.917 0.155,0.306 0.376,0.597 0.664,0.874 l 1.443,1.198 z" />
  </g>
  <path
     style="fill:none;stroke:#808080"
     inkscape:connector-curvature="0"
     id="path7507"
     d="m 45.76,51.472 h 1085.5" />
  <path
     style="fill:none;stroke:#000000"
     inkscape:connector-curvature="0"
     id="path7511"
     d="m 45.76,51.472 h 13.5 m 1072,0 h -13.5" />
  <g
     id="g7515"
     transform="translate(73.5,77.7)">
    <path
       inkscape:connector-curvature="0"
       id="path7517"
       d="m -48.303,-19.278 v -0.328 c 0.762,-0.012 1.472,-0.189 2.128,-0.532 0.656,-0.343 1.292,-0.942 1.904,-1.798 0.613,-0.856 1.04,-1.797 1.28,-2.82 -0.92,0.59 -1.752,0.885 -2.497,0.885 -0.838,0 -1.556,-0.324 -2.154,-0.972 -0.598,-0.648 -0.896,-1.509 -0.896,-2.582 0,-1.044 0.299,-1.973 0.896,-2.788 0.721,-0.99 1.661,-1.486 2.822,-1.486 0.979,0 1.817,0.404 2.514,1.214 0.855,1.003 1.283,2.241 1.283,3.713 0,1.325 -0.325,2.562 -0.976,3.708 -0.651,1.146 -1.557,2.098 -2.717,2.854 -0.944,0.622 -1.973,0.933 -3.087,0.933 l -0.5,-10e-4 0,0 z m 5.453,-6.129 c 0.104,-0.762 0.156,-1.371 0.156,-1.829 0,-0.568 -0.097,-1.183 -0.29,-1.842 -0.193,-0.659 -0.468,-1.165 -0.822,-1.517 -0.354,-0.352 -0.757,-0.527 -1.208,-0.527 -0.522,0 -0.979,0.234 -1.372,0.703 -0.393,0.469 -0.589,1.167 -0.589,2.093 0,1.236 0.261,2.204 0.783,2.901 0.381,0.504 0.85,0.756 1.408,0.756 0.27,0 0.589,-0.064 0.958,-0.193 0.369,-0.129 0.695,-0.311 0.976,-0.545 z" />
  </g>
  <path
     style="fill:none;stroke:#808080"
     inkscape:connector-curvature="0"
     id="path7521"
     d="m 45.76,15.472 h 1085.5" />
  <path
     style="fill:none;stroke:#000000"
     inkscape:connector-curvature="0"
     id="path7525"
     d="m 45.76,15.472 h 13.5 m 1072,0 h -13.5" />
  <g
     id="g7529"
     transform="translate(73.5,41.7)">
    <path
       inkscape:connector-curvature="0"
       id="path7531"
       d="m -56.131,-30.294 2.897,-1.406 h 0.291 v 10.078 c 0,0.664 0.027,1.078 0.083,1.241 0.056,0.163 0.171,0.288 0.347,0.376 0.175,0.087 0.532,0.137 1.07,0.148 v 0.328 h -4.484 v -0.328 c 0.563,-0.012 0.927,-0.06 1.091,-0.145 0.165,-0.084 0.279,-0.197 0.344,-0.341 0.064,-0.143 0.097,-0.569 0.097,-1.28 v -6.453 c 0,-0.872 -0.029,-1.432 -0.088,-1.68 -0.041,-0.188 -0.115,-0.326 -0.223,-0.414 -0.108,-0.088 -0.238,-0.132 -0.39,-0.132 -0.216,0 -0.517,0.091 -0.902,0.272 l -0.133,-0.264 z" />
    <path
       inkscape:connector-curvature="0"
       id="path7533"
       d="m -48.584,-25.425 c 0,-1.359 0.205,-2.529 0.615,-3.512 0.41,-0.98 0.955,-1.712 1.634,-2.192 0.527,-0.381 1.072,-0.571 1.634,-0.571 0.914,0 1.733,0.466 2.459,1.397 0.907,1.154 1.361,2.719 1.361,4.693 0,1.383 -0.199,2.558 -0.598,3.524 -0.398,0.967 -0.906,1.668 -1.523,2.105 -0.618,0.436 -1.214,0.654 -1.788,0.654 -1.136,0 -2.082,-0.671 -2.837,-2.013 -0.638,-1.129 -0.957,-2.491 -0.957,-4.085 z m 1.719,0.223 c 0,1.642 0.202,2.981 0.607,4.02 0.334,0.874 0.833,1.311 1.495,1.311 0.316,0 0.645,-0.143 0.985,-0.427 0.34,-0.284 0.598,-0.761 0.774,-1.429 0.27,-1.009 0.404,-2.432 0.404,-4.267 0,-1.36 -0.141,-2.495 -0.422,-3.403 -0.211,-0.675 -0.484,-1.152 -0.818,-1.435 -0.24,-0.193 -0.531,-0.29 -0.871,-0.29 -0.399,0 -0.753,0.179 -1.064,0.537 -0.423,0.486 -0.71,1.252 -0.862,2.295 -0.152,1.044 -0.228,2.073 -0.228,3.088 z" />
  </g>
  <path
     style="fill:none;stroke:#808080"
     inkscape:connector-curvature="0"
     id="path7537"
     d="M 45.76,736.471 V 15.472" />
  <path
     style="fill:none;stroke:#000000"
     inkscape:connector-curvature="0"
     id="path7541"
     d="m 45.76,736.471 v -13.5 m 0,-707.499 v 13.5" />
  <path
     style="fill:none;stroke:#808080"
     inkscape:connector-curvature="0"
     id="path7545"
     d="M 113.56,736.471 V 15.472" />
  <path
     style="fill:none;stroke:#000000"
     inkscape:connector-curvature="0"
     id="path7549"
     d="m 113.56,736.471 v -13.5 m 0,-707.499 v 13.5" />
  <path
     style="fill:none;stroke:#808080"
     inkscape:connector-curvature="0"
     id="path7553"
     d="M 181.46,736.471 V 15.472" />
  <path
     style="fill:none;stroke:#000000"
     inkscape:connector-curvature="0"
     id="path7557"
     d="m 181.46,736.471 v -13.5 m 0,-707.499 v 13.5" />
  <path
     style="fill:none;stroke:#808080"
     inkscape:connector-curvature="0"
     id="path7561"
     d="M 249.26,736.471 V 15.472" />
  <path
     style="fill:none;stroke:#000000"
     inkscape:connector-curvature="0"
     id="path7565"
     d="m 249.26,736.471 v -13.5 m 0,-707.499 v 13.5" />
  <path
     style="fill:none;stroke:#808080"
     inkscape:connector-curvature="0"
     id="path7569"
     d="M 317.16,736.471 V 15.472" />
  <path
     style="fill:none;stroke:#000000"
     inkscape:connector-curvature="0"
     id="path7573"
     d="m 317.16,736.471 v -13.5 m 0,-707.499 v 13.5" />
  <path
     style="fill:none;stroke:#808080"
     inkscape:connector-curvature="0"
     id="path7577"
     d="M 384.96,736.471 V 15.472" />
  <path
     style="fill:none;stroke:#000000"
     inkscape:connector-curvature="0"
     id="path7581"
     d="m 384.96,736.471 v -13.5 m 0,-707.499 v 13.5" />
  <path
     style="fill:none;stroke:#808080"
     inkscape:connector-curvature="0"
     id="path7585"
     d="M 452.859,736.471 V 15.472" />
  <path
     style="fill:none;stroke:#000000"
     inkscape:connector-curvature="0"
     id="path7589"
     d="m 452.859,736.471 v -13.5 m 0,-707.499 v 13.5" />
  <path
     style="fill:none;stroke:#808080"
     inkscape:connector-curvature="0"
     id="path7593"
     d="M 520.66,736.471 V 15.472" />
  <path
     style="fill:none;stroke:#000000"
     inkscape:connector-curvature="0"
     id="path7597"
     d="m 520.66,736.471 v -13.5 m 0,-707.499 v 13.5" />
  <path
     style="fill:none;stroke:#808080"
     inkscape:connector-curvature="0"
     id="path7601"
     d="M 588.46,736.471 V 15.472" />
  <path
     style="fill:none;stroke:#000000"
     inkscape:connector-curvature="0"
     id="path7605"
     d="m 588.46,736.471 v -13.5 m 0,-707.499 v 13.5" />
  <path
     style="fill:none;stroke:#808080"
     inkscape:connector-curvature="0"
     id="path7609"
     d="M 656.359,736.471 V 15.472" />
  <path
     style="fill:none;stroke:#000000"
     inkscape:connector-curvature="0"
     id="path7613"
     d="m 656.359,736.471 v -13.5 m 0,-707.499 v 13.5" />
  <path
     style="fill:none;stroke:#808080"
     inkscape:connector-curvature="0"
     id="path7617"
     d="M 724.16,736.471 V 15.472" />
  <path
     style="fill:none;stroke:#000000"
     inkscape:connector-curvature="0"
     id="path7621"
     d="m 724.16,736.471 v -13.5 m 0,-707.499 v 13.5" />
  <path
     style="fill:none;stroke:#808080"
     inkscape:connector-curvature="0"
     id="path7625"
     d="M 792.06,736.471 V 15.472" />
  <path
     style="fill:none;stroke:#000000"
     inkscape:connector-curvature="0"
     id="path7629"
     d="m 792.06,736.471 v -13.5 m 0,-707.499 v 13.5" />
  <path
     style="fill:none;stroke:#808080"
     inkscape:connector-curvature="0"
     id="path7633"
     d="M 859.859,736.471 V 15.472" />
  <path
     style="fill:none;stroke:#000000"
     inkscape:connector-curvature="0"
     id="path7637"
     d="m 859.859,736.471 v -13.5 m 0,-707.499 v 13.5" />
  <path
     style="fill:none;stroke:#808080"
     inkscape:connector-curvature="0"
     id="path7641"
     d="M 927.76,736.471 V 15.472" />
  <path
     style="fill:none;stroke:#000000"
     inkscape:connector-curvature="0"
     id="path7645"
     d="m 927.76,736.471 v -13.5 m 0,-707.499 v 13.5" />
  <path
     style="fill:none;stroke:#808080"
     inkscape:connector-curvature="0"
     id="path7649"
     d="M 995.56,736.471 V 15.472" />
  <path
     style="fill:none;stroke:#000000"
     inkscape:connector-curvature="0"
     id="path7653"
     d="m 995.56,736.471 v -13.5 m 0,-707.499 v 13.5" />
  <path
     style="fill:none;stroke:#808080"
     inkscape:connector-curvature="0"
     id="path7657"
     d="M 1063.46,736.471 V 15.472" />
  <path
     style="fill:none;stroke:#000000"
     inkscape:connector-curvature="0"
     id="path7661"
     d="m 1063.46,736.471 v -13.5 m 0,-707.499 v 13.5" />
  <path
     style="fill:none;stroke:#808080"
     inkscape:connector-curvature="0"
     id="path7665"
     d="M 1131.26,736.471 V 15.472" />
  <path
     style="fill:none;stroke:#000000"
     inkscape:connector-curvature="0"
     id="path7669"
     d="m 1131.26,736.471 v -13.5 m 0,-707.499 v 13.5" />
  <path
     style="fill:none;stroke:#333333;stroke-width:2"
     inkscape:connector-curvature="0"
     id="path7673"
     d="m 45.76,375.972 h 1085.5 M 588.46,736.471 V 15.472" />
  <path
     style="fill:none;stroke:#000000"
     inkscape:connector-curvature="0"
     id="path7677"
     d="m 45.76,15.472 v 720.999 h 1085.5 V 15.472 H 45.76 z" />
  <path
     inkscape:connector-curvature="0"
     id="path7681"
     d="m 45.76,339.872 c 45.382993,-0.10946 79.26971,-12.73305 95.3,-44.186 17.68849,-33.26208 21.4628,-81.92574 25.5,-129.386 3.36138,-49.74976 5.04036,-100.417919 6.2,-151 m 17.3,721.171 c 2.30479,-72.31817 3.40686,-146.97197 13,-215.221 6.08224,-40.37905 16.59418,-77.22714 44.8,-94.062 19.65207,-12.18267 47.84616,-16.8075 79.9,-15.528 40.23814,2.1628 69.96175,15.0099 84.918,44.158 16.71367,31.713 21.02553,75.82611 24.902,120.486 4.21586,52.50247 5.53317,106.48905 6.914,160.14 M 461.46,15.472 c 2.24369,72.095032 3.44722,146.89137 13.005,214.6 6.55157,42.98063 17.82458,80.55997 49.502,96.648 18.11737,9.41946 38.95744,13.33479 65.78,13.41 43.53435,-0.0575 76.68385,-12.02767 93.542,-40.647 18.62296,-31.8566 22.95266,-79.10322 27.115,-125.704 3.85462,-52.07722 5.49263,-105.234287 6.855,-158.3 m 15.6,720.992 c 2.04586,-70.24525 3.49617,-142.28967 12.096,-208.871 6.10951,-42.61517 16.21137,-82.84541 45.616,-100.114 20.111,-12.63478 48.59938,-17.0788 81.346,-15.826 39.41163,2.2192 68.75934,14.48317 84.067,42.546 9.76265,16.81439 15.24113,40.40299 18.951,62.104 10.5173,69.22157 11.4707,146.34908 13.91,220.129 M 1004.26,15.472 c 2.0215,70.238908 3.4216,142.10418 12.096,208.8 6.4286,45.31608 17.2113,85.45131 50.19,102.348 16.6896,9.20212 39.8425,13.47716 65.446,13.478"
     style="fill:none;stroke:#ff0000;stroke-width:3" />
  <path
     style="fill:none;stroke:#000000"
     d="m 45.76,15.472 v 720.999 h 1085.5 V 15.472 H 45.76 z"
     id="path7685"
     inkscape:connector-curvature="0" />
  <line
     x1="181.46001"
     y1="736.47101"
     x2="181.46001"
     y2="16.695999"
     id="line7931"
     style="fill:none;stroke:#000099;stroke-width:2;stroke-dasharray:12" />
  <line
     x1="453.45999"
     y1="735.47101"
     x2="453.45999"
     y2="15.696"
     id="line7933"
     style="fill:none;stroke:#000099;stroke-width:2;stroke-dasharray:12" />
  <line
     x1="724.46002"
     y1="736.13702"
     x2="724.46002"
     y2="16.362999"
     id="line7935"
     style="fill:none;stroke:#000099;stroke-width:2;stroke-dasharray:12" />
  <line
     x1="995.12701"
     y1="734.80402"
     x2="995.12701"
     y2="15.028999"
     id="line7937"
     style="fill:none;stroke:#000099;stroke-width:2;stroke-dasharray:12" />
  <g
     inkscape:groupmode="layer"
     id="layer2"
     inkscape:label="Livello"
     transform="translate(10,10)">
    <g
       id="g4812"
       transform="translate(-1160.1166,632.77629)" />
    <g
       id="g4822"
       transform="translate(-1089.9166,632.77629)" />
    <g
       id="g4832"
       transform="translate(-1019.6166,632.77629)" />
    <g
       id="g4842"
       transform="translate(-949.4166,632.77629)" />
    <g
       id="g4852"
       transform="translate(-879.1166,632.77629)" />
    <g
       id="g4862"
       transform="translate(-808.9166,632.77629)" />
    <g
       id="g4872"
       transform="translate(-738.6166,632.77629)" />
    <g
       id="g4882"
       transform="translate(-668.4166,632.77629)" />
    <g
       id="g4892"
       transform="translate(-598.2166,632.77629)" />
    <g
       id="g4902"
       transform="translate(-527.9166,632.77629)" />
    <g
       id="g4912"
       transform="translate(-457.7166,632.77629)" />
    <g
       id="g4922"
       transform="translate(-387.4166,632.77629)" />
    <g
       id="g4932"
       transform="translate(-317.2166,632.77629)" />
    <g
       id="g4942"
       transform="translate(-246.9166,632.77629)" />
    <g
       id="g4952"
       transform="translate(-176.7166,632.77629)" />
    <g
       id="g4962"
       transform="translate(-106.4166,632.77629)" />
    <g
       id="g4972"
       transform="translate(-36.2166,632.77629)" />
    <g
       id="g10293"
       transform="translate(9.57525,0)">
      <g
         transform="translate(-0.00975,-11.12572)"
         id="g6450">
        <path
           inkscape:connector-curvature="0"
           id="path5038"
           d="m 290.582,761.14 h 4.547 v 1.328 h -4.547 v -1.328 z" />
        <path
           inkscape:connector-curvature="0"
           id="path5040"
           d="m 304.576,757.781 v 1.28 h -2.037 l -0.176,2.684 c -0.035,0.465 -0.053,0.867 -0.053,1.209 0,0.816 0.096,1.315 0.287,1.495 0.191,0.18 0.422,0.27 0.692,0.27 0.564,0 0.899,-0.354 1.005,-1.063 h 0.313 c -0.194,1.625 -0.846,2.438 -1.955,2.438 -0.517,0 -0.932,-0.158 -1.246,-0.476 -0.313,-0.317 -0.471,-0.787 -0.471,-1.41 0,-0.411 0.062,-1.28 0.185,-2.608 l 0.237,-2.537 h -1.859 c -0.123,2.14 -0.271,3.701 -0.442,4.688 -0.173,0.985 -0.362,1.624 -0.569,1.912 -0.208,0.287 -0.489,0.432 -0.846,0.432 -0.269,0 -0.495,-0.079 -0.679,-0.238 -0.184,-0.157 -0.276,-0.366 -0.276,-0.625 0,-0.247 0.157,-0.585 0.471,-1.014 0.459,-0.622 0.802,-1.271 1.03,-1.942 0.227,-0.673 0.398,-1.742 0.515,-3.212 h -0.597 c -0.479,0 -0.847,0.106 -1.102,0.319 -0.254,0.214 -0.496,0.519 -0.724,0.915 h -0.313 c 0.17,-0.625 0.39,-1.14 0.659,-1.543 0.269,-0.402 0.546,-0.666 0.83,-0.789 0.284,-0.122 0.789,-0.184 1.515,-0.184 l 5.606,-0.001 0,0 z" />
      </g>
    </g>
    <path
       inkscape:connector-curvature="0"
       id="path5092"
       d="m 575.73326,750.90128 c 0,-1.359 0.205,-2.529 0.615,-3.513 0.409,-0.979 0.954,-1.712 1.633,-2.191 0.527,-0.382 1.072,-0.571 1.636,-0.571 0.913,0 1.731,0.466 2.459,1.396 0.906,1.154 1.36,2.72 1.36,4.693 0,1.383 -0.199,2.558 -0.598,3.524 -0.399,0.966 -0.906,1.668 -1.523,2.105 -0.619,0.436 -1.214,0.654 -1.787,0.654 -1.137,0 -2.082,-0.671 -2.838,-2.013 -0.638,-1.129 -0.957,-2.491 -0.957,-4.084 z m 1.718,0.222 c 0,1.642 0.201,2.98 0.606,4.02 0.334,0.874 0.832,1.312 1.494,1.312 0.316,0 0.646,-0.144 0.985,-0.427 0.339,-0.284 0.599,-0.762 0.773,-1.43 0.271,-1.009 0.404,-2.432 0.404,-4.267 0,-1.36 -0.141,-2.495 -0.422,-3.403 -0.211,-0.675 -0.484,-1.151 -0.818,-1.435 -0.24,-0.193 -0.531,-0.29 -0.871,-0.29 -0.397,0 -0.753,0.179 -1.063,0.537 -0.423,0.485 -0.71,1.252 -0.862,2.295 -0.149,1.044 -0.226,2.073 -0.226,3.088 z" />
    <g
       id="g10298"
       transform="translate(6.675271,0)">
      <g
         transform="translate(-3.64275,-22.07972)"
         id="g6454">
        <path
           inkscape:connector-curvature="0"
           id="path5048"
           d="m 360.415,763.141 h 4.547 v 1.328 h -4.547 v -1.328 z" />
        <path
           inkscape:connector-curvature="0"
           id="path5050"
           d="m 366.597,758.187 c 0.34,-0.803 0.769,-1.424 1.287,-1.859 0.518,-0.438 1.164,-0.655 1.937,-0.655 0.955,0 1.688,0.311 2.196,0.932 0.387,0.463 0.58,0.958 0.58,1.485 0,0.867 -0.542,1.764 -1.625,2.688 0.729,0.287 1.283,0.697 1.657,1.23 0.374,0.533 0.562,1.16 0.562,1.881 0,1.031 -0.328,1.925 -0.985,2.681 -0.855,0.984 -2.096,1.478 -3.72,1.478 -0.803,0 -1.35,-0.101 -1.64,-0.298 -0.291,-0.199 -0.436,-0.412 -0.436,-0.641 0,-0.17 0.069,-0.318 0.207,-0.446 0.138,-0.129 0.304,-0.193 0.497,-0.193 0.146,0 0.296,0.023 0.449,0.07 0.1,0.028 0.326,0.135 0.678,0.317 0.352,0.184 0.596,0.293 0.73,0.328 0.217,0.063 0.449,0.097 0.695,0.097 0.599,0 1.12,-0.231 1.563,-0.694 0.443,-0.462 0.665,-1.01 0.665,-1.644 0,-0.463 -0.104,-0.912 -0.309,-1.353 -0.153,-0.328 -0.321,-0.577 -0.504,-0.747 -0.254,-0.234 -0.601,-0.446 -1.042,-0.638 -0.441,-0.189 -0.892,-0.285 -1.351,-0.285 h -0.283 v -0.266 c 0.465,-0.06 0.932,-0.226 1.4,-0.5 0.468,-0.275 0.809,-0.605 1.021,-0.991 0.212,-0.387 0.318,-0.811 0.318,-1.272 0,-0.602 -0.189,-1.089 -0.567,-1.461 -0.377,-0.371 -0.849,-0.557 -1.411,-0.557 -0.909,0 -1.668,0.483 -2.278,1.453 l -0.291,-0.14 z" />
        <path
           inkscape:connector-curvature="0"
           id="path5052"
           d="m 383.409,759.781 v 1.28 h -2.037 l -0.176,2.684 c -0.035,0.465 -0.053,0.867 -0.053,1.209 0,0.816 0.096,1.315 0.287,1.495 0.19,0.18 0.422,0.27 0.691,0.27 0.564,0 0.899,-0.354 1.006,-1.063 h 0.313 c -0.194,1.625 -0.846,2.438 -1.955,2.438 -0.517,0 -0.932,-0.158 -1.246,-0.476 -0.313,-0.317 -0.471,-0.787 -0.471,-1.41 0,-0.411 0.062,-1.28 0.185,-2.608 l 0.237,-2.537 h -1.859 c -0.122,2.14 -0.271,3.701 -0.441,4.688 -0.173,0.985 -0.362,1.624 -0.569,1.912 -0.208,0.287 -0.489,0.432 -0.846,0.432 -0.27,0 -0.495,-0.079 -0.679,-0.238 -0.185,-0.157 -0.276,-0.366 -0.276,-0.625 0,-0.247 0.157,-0.585 0.471,-1.014 0.459,-0.622 0.803,-1.271 1.03,-1.942 0.227,-0.673 0.398,-1.742 0.515,-3.212 h -0.597 c -0.479,0 -0.847,0.106 -1.102,0.319 -0.255,0.214 -0.496,0.519 -0.725,0.915 h -0.313 c 0.17,-0.625 0.39,-1.14 0.659,-1.543 0.269,-0.402 0.546,-0.666 0.829,-0.789 0.284,-0.122 0.789,-0.184 1.516,-0.184 l 5.606,-0.001 0,0 z" />
      </g>
      <path
         d="m 372.33175,763.50028 v 1.25 h -1.594 v 3.155 h -1.453 v -3.155 h -5.047 v -1.127 l 5.531,-7.89 h 0.969 v 7.767 h 1.594 z m -3.047,0 v -5.883 l -4.186,5.884 4.186,-10e-4 0,0 z"
         id="path5056"
         inkscape:connector-curvature="0" />
      <line
         style="fill:none;stroke:#010101;stroke-width:2"
         id="line5094"
         y2="750.81232"
         x2="356.78473"
         y1="750.81232"
         x1="379.78473" />
    </g>
    <g
       id="g10306"
       transform="translate(4.8752136,0)">
      <g
         transform="translate(-5.24225,-20.79972)"
         id="g6459">
        <path
           inkscape:connector-curvature="0"
           id="path5064"
           d="m 436.815,759.807 h 4.547 v 1.328 h -4.547 v -1.328 z" />
        <path
           inkscape:connector-curvature="0"
           id="path5066"
           d="m 450.809,756.447 v 1.28 h -2.037 l -0.176,2.684 c -0.035,0.465 -0.053,0.867 -0.053,1.209 0,0.816 0.096,1.315 0.286,1.495 0.191,0.18 0.423,0.27 0.692,0.27 0.564,0 0.899,-0.354 1.005,-1.063 h 0.313 c -0.194,1.625 -0.847,2.438 -1.955,2.438 -0.518,0 -0.933,-0.158 -1.246,-0.476 -0.313,-0.318 -0.471,-0.787 -0.471,-1.41 0,-0.411 0.062,-1.28 0.185,-2.608 l 0.237,-2.537 h -1.859 c -0.123,2.14 -0.271,3.701 -0.442,4.688 -0.173,0.985 -0.361,1.624 -0.568,1.912 -0.208,0.287 -0.489,0.432 -0.846,0.432 -0.27,0 -0.495,-0.079 -0.68,-0.238 -0.184,-0.157 -0.275,-0.366 -0.275,-0.625 0,-0.247 0.156,-0.585 0.471,-1.014 0.459,-0.622 0.802,-1.271 1.03,-1.942 0.227,-0.673 0.397,-1.742 0.515,-3.212 h -0.597 c -0.479,0 -0.848,0.106 -1.103,0.319 -0.254,0.214 -0.496,0.519 -0.724,0.915 h -0.313 c 0.17,-0.625 0.391,-1.14 0.659,-1.543 0.27,-0.402 0.546,-0.666 0.83,-0.789 0.284,-0.122 0.789,-0.185 1.515,-0.185 h 5.607 l 0,0 z" />
      </g>
      <path
         d="m 442.52225,765.59278 -0.836,2.311 h -7.039 v -0.328 c 2.077,-1.887 3.538,-3.427 4.387,-4.62 0.846,-1.195 1.27,-2.288 1.27,-3.278 0,-0.758 -0.231,-1.382 -0.697,-1.869 -0.465,-0.488 -1.021,-0.731 -1.668,-0.731 -0.588,0 -1.115,0.17 -1.584,0.509 -0.468,0.339 -0.813,0.836 -1.036,1.491 h -0.328 c 0.146,-1.076 0.523,-1.903 1.132,-2.479 0.609,-0.576 1.368,-0.864 2.278,-0.864 0.969,0 1.778,0.313 2.428,0.935 0.648,0.62 0.974,1.354 0.974,2.199 0,0.605 -0.141,1.21 -0.423,1.813 -0.435,0.949 -1.14,1.954 -2.116,3.015 -1.464,1.59 -2.373,2.544 -2.726,2.866 h 3.095 c 0.63,0 1.071,-0.022 1.325,-0.069 0.253,-0.048 0.482,-0.144 0.687,-0.285 0.204,-0.146 0.383,-0.349 0.533,-0.611 h 0.344 v -0.005 z"
         id="path5070"
         inkscape:connector-curvature="0" />
      <line
         style="fill:none;stroke:#010101;stroke-width:2"
         id="line5096"
         y2="750.81232"
         x2="427.08478"
         y1="750.81232"
         x1="450.08478" />
    </g>
    <g
       id="g10313"
       transform="translate(1.8752405,0)">
      <g
         transform="translate(-3.77525,-22.13372)"
         id="g6463">
        <path
           inkscape:connector-curvature="0"
           id="path5078"
           d="m 505.548,761.141 h 4.547 v 1.328 h -4.547 v -1.328 z" />
        <path
           inkscape:connector-curvature="0"
           id="path5080"
           d="m 519.542,757.781 v 1.28 h -2.037 l -0.177,2.684 c -0.034,0.465 -0.053,0.867 -0.053,1.209 0,0.816 0.096,1.315 0.287,1.495 0.191,0.18 0.422,0.27 0.692,0.27 0.563,0 0.898,-0.354 1.005,-1.063 h 0.313 c -0.193,1.625 -0.846,2.438 -1.955,2.438 -0.517,0 -0.932,-0.158 -1.246,-0.476 -0.313,-0.317 -0.471,-0.787 -0.471,-1.41 0,-0.411 0.063,-1.28 0.186,-2.608 l 0.236,-2.537 h -1.858 c -0.123,2.14 -0.271,3.701 -0.442,4.688 -0.173,0.985 -0.362,1.624 -0.569,1.912 -0.208,0.287 -0.488,0.432 -0.846,0.432 -0.269,0 -0.495,-0.079 -0.679,-0.238 -0.185,-0.157 -0.276,-0.366 -0.276,-0.625 0,-0.247 0.157,-0.585 0.471,-1.014 0.459,-0.622 0.803,-1.271 1.03,-1.942 0.228,-0.673 0.398,-1.742 0.516,-3.212 h -0.598 c -0.479,0 -0.847,0.106 -1.102,0.319 -0.254,0.214 -0.496,0.519 -0.725,0.915 h -0.313 c 0.17,-0.625 0.39,-1.14 0.659,-1.543 0.269,-0.402 0.546,-0.666 0.83,-0.789 0.283,-0.122 0.789,-0.184 1.515,-0.184 l 5.607,-0.001 0,0 z" />
      </g>
      <path
         d="m 512.83175,763.50028 v 1.25 h -1.594 v 3.155 h -1.453 v -3.155 h -5.047 v -1.127 l 5.531,-7.89 h 0.969 v 7.767 h 1.594 z m -3.047,0 v -5.883 l -4.187,5.884 4.187,-10e-4 0,0 z"
         id="path5084"
         inkscape:connector-curvature="0" />
      <line
         style="fill:none;stroke:#010101;stroke-width:2"
         id="line5098"
         y2="750.81232"
         x2="497.28473"
         y1="750.81232"
         x1="520.28479" />
    </g>
    <path
       inkscape:connector-curvature="0"
       id="path5144"
       d="m 854.1495,746.65528 v 1.28 h -2.037 l -0.177,2.684 c -0.034,0.465 -0.053,0.867 -0.053,1.209 0,0.816 0.096,1.315 0.286,1.495 0.191,0.18 0.422,0.27 0.693,0.27 0.563,0 0.897,-0.354 1.005,-1.063 h 0.313 c -0.193,1.625 -0.846,2.438 -1.955,2.438 -0.517,0 -0.932,-0.158 -1.246,-0.476 -0.313,-0.317 -0.471,-0.787 -0.471,-1.41 0,-0.411 0.063,-1.28 0.186,-2.608 l 0.236,-2.537 h -1.858 c -0.123,2.14 -0.271,3.701 -0.442,4.688 -0.173,0.985 -0.362,1.624 -0.569,1.912 -0.208,0.287 -0.488,0.432 -0.846,0.432 -0.269,0 -0.495,-0.079 -0.679,-0.238 -0.186,-0.157 -0.276,-0.366 -0.276,-0.625 0,-0.247 0.157,-0.585 0.472,-1.014 0.459,-0.622 0.803,-1.271 1.029,-1.942 0.228,-0.673 0.398,-1.742 0.515,-3.212 h -0.597 c -0.479,0 -0.847,0.106 -1.102,0.319 -0.254,0.214 -0.496,0.519 -0.725,0.915 h -0.313 c 0.17,-0.625 0.39,-1.14 0.659,-1.543 0.27,-0.402 0.546,-0.666 0.83,-0.789 0.282,-0.122 0.789,-0.185 1.516,-0.185 h 5.606 l 0,0 z" />
    <g
       id="g10330"
       transform="translate(-7.724729,0)">
      <g
         transform="translate(-6.97825,-20.14722)"
         id="g6467">
        <path
           inkscape:connector-curvature="0"
           id="path5130"
           d="m 788.436,756.254 c 0.34,-0.803 0.769,-1.424 1.287,-1.86 0.518,-0.436 1.164,-0.655 1.937,-0.655 0.955,0 1.688,0.312 2.196,0.933 0.387,0.463 0.58,0.958 0.58,1.485 0,0.866 -0.542,1.764 -1.625,2.688 0.729,0.287 1.283,0.697 1.657,1.23 0.374,0.532 0.562,1.159 0.562,1.881 0,1.03 -0.328,1.925 -0.984,2.681 -0.855,0.984 -2.097,1.477 -3.722,1.477 -0.803,0 -1.35,-0.1 -1.64,-0.298 -0.29,-0.198 -0.437,-0.412 -0.437,-0.64 0,-0.17 0.069,-0.319 0.207,-0.447 0.139,-0.129 0.305,-0.192 0.497,-0.192 0.146,0 0.298,0.022 0.449,0.069 0.101,0.029 0.326,0.136 0.679,0.318 0.352,0.183 0.596,0.293 0.729,0.328 0.217,0.063 0.449,0.096 0.695,0.096 0.599,0 1.118,-0.23 1.563,-0.694 0.443,-0.462 0.665,-1.01 0.665,-1.643 0,-0.463 -0.103,-0.913 -0.31,-1.353 -0.152,-0.328 -0.32,-0.577 -0.503,-0.747 -0.254,-0.234 -0.602,-0.446 -1.043,-0.639 -0.441,-0.188 -0.893,-0.285 -1.352,-0.285 h -0.283 v -0.266 c 0.466,-0.059 0.933,-0.225 1.4,-0.5 0.468,-0.274 0.809,-0.604 1.021,-0.991 0.212,-0.386 0.317,-0.81 0.317,-1.271 0,-0.603 -0.188,-1.089 -0.567,-1.461 -0.377,-0.371 -0.849,-0.558 -1.41,-0.558 -0.909,0 -1.669,0.484 -2.278,1.453 l -0.287,-0.139 z" />
        <path
           inkscape:connector-curvature="0"
           id="path5132"
           d="m 805.249,757.848 v 1.281 h -2.037 l -0.177,2.683 c -0.034,0.465 -0.053,0.868 -0.053,1.209 0,0.817 0.096,1.316 0.286,1.495 0.191,0.18 0.422,0.271 0.693,0.271 0.563,0 0.897,-0.354 1.005,-1.063 h 0.313 c -0.193,1.625 -0.846,2.438 -1.955,2.438 -0.517,0 -0.932,-0.158 -1.246,-0.477 -0.313,-0.316 -0.471,-0.787 -0.471,-1.41 0,-0.411 0.063,-1.279 0.186,-2.607 l 0.236,-2.537 h -1.858 c -0.123,2.139 -0.271,3.701 -0.442,4.688 -0.173,0.986 -0.362,1.624 -0.569,1.912 -0.208,0.287 -0.488,0.433 -0.846,0.433 -0.269,0 -0.495,-0.079 -0.679,-0.238 -0.186,-0.158 -0.276,-0.367 -0.276,-0.625 0,-0.247 0.157,-0.585 0.473,-1.014 0.459,-0.622 0.802,-1.271 1.028,-1.942 0.228,-0.673 0.398,-1.743 0.515,-3.212 h -0.597 c -0.479,0 -0.847,0.105 -1.102,0.319 -0.254,0.214 -0.496,0.519 -0.725,0.915 h -0.313 c 0.17,-0.625 0.39,-1.141 0.659,-1.543 0.269,-0.402 0.546,-0.666 0.83,-0.789 0.282,-0.122 0.789,-0.185 1.516,-0.185 l 5.606,-0.002 0,0 z" />
      </g>
      <path
         d="m 793.83175,763.49928 v 1.25 h -1.594 v 3.156 h -1.453 v -3.156 h -5.047 v -1.127 l 5.53,-7.889 h 0.97 v 7.766 h 1.594 z m -3.047,0 v -5.883 l -4.187,5.883 h 4.187 z"
         id="path5136"
         inkscape:connector-curvature="0" />
      <line
         style="fill:none;stroke:#010101;stroke-width:2"
         id="line5160"
         y2="750.81232"
         x2="778.28473"
         y1="750.81232"
         x1="801.28473" />
    </g>
    <g
       id="g10325"
       transform="translate(-5.0246582,0)">
      <path
         d="m 723.77525,735.64628 v 1.281 h -2.037 l -0.176,2.683 c -0.035,0.465 -0.053,0.868 -0.053,1.209 0,0.817 0.096,1.316 0.287,1.495 0.189,0.18 0.422,0.271 0.69,0.271 0.564,0 0.9,-0.354 1.006,-1.063 h 0.313 c -0.193,1.625 -0.846,2.438 -1.955,2.438 -0.518,0 -0.932,-0.158 -1.246,-0.477 -0.313,-0.316 -0.471,-0.787 -0.471,-1.41 0,-0.41 0.062,-1.279 0.185,-2.607 l 0.237,-2.537 h -1.859 c -0.123,2.139 -0.271,3.701 -0.441,4.688 -0.174,0.986 -0.362,1.624 -0.569,1.912 -0.208,0.287 -0.489,0.433 -0.846,0.433 -0.27,0 -0.495,-0.079 -0.681,-0.238 -0.184,-0.158 -0.274,-0.367 -0.274,-0.625 0,-0.247 0.157,-0.585 0.471,-1.014 0.46,-0.622 0.803,-1.271 1.03,-1.942 0.227,-0.673 0.397,-1.743 0.515,-3.212 h -0.597 c -0.479,0 -0.848,0.105 -1.103,0.319 -0.254,0.214 -0.495,0.519 -0.724,0.914 h -0.313 c 0.17,-0.625 0.39,-1.14 0.658,-1.543 0.27,-0.401 0.546,-0.666 0.83,-0.788 0.284,-0.122 0.789,-0.185 1.516,-0.185 l 5.607,-0.002 0,0 z"
         id="path5106"
         inkscape:connector-curvature="0" />
      <path
         d="m 723.42125,765.59278 -0.836,2.311 h -7.039 v -0.329 c 2.076,-1.886 3.538,-3.426 4.387,-4.62 0.847,-1.193 1.271,-2.287 1.271,-3.276 0,-0.759 -0.231,-1.383 -0.696,-1.869 -0.466,-0.488 -1.021,-0.732 -1.668,-0.732 -0.589,0 -1.116,0.17 -1.584,0.509 -0.469,0.339 -0.813,0.836 -1.037,1.491 h -0.326 c 0.146,-1.076 0.523,-1.903 1.133,-2.479 0.607,-0.576 1.367,-0.864 2.277,-0.864 0.97,0 1.778,0.312 2.429,0.934 0.649,0.622 0.974,1.356 0.974,2.201 0,0.605 -0.141,1.209 -0.424,1.813 -0.435,0.948 -1.14,1.954 -2.115,3.015 -1.464,1.589 -2.373,2.544 -2.727,2.866 h 3.096 c 0.63,0 1.071,-0.023 1.325,-0.07 0.253,-0.047 0.482,-0.143 0.687,-0.285 0.204,-0.145 0.383,-0.348 0.533,-0.61 h 0.342 v -0.006 z"
         id="path5110"
         inkscape:connector-curvature="0" />
      <line
         style="fill:none;stroke:#010101;stroke-width:2"
         id="line5162"
         y2="750.81232"
         x2="707.98468"
         y1="750.81232"
         x1="730.98468" />
    </g>
    <g
       id="g10320"
       transform="translate(-2.92579,0)">
      <path
         d="m 653.57475,735.64628 v 1.281 h -2.037 l -0.176,2.683 c -0.035,0.465 -0.054,0.868 -0.054,1.209 0,0.817 0.097,1.316 0.287,1.495 0.19,0.18 0.422,0.271 0.691,0.271 0.563,0 0.899,-0.354 1.006,-1.063 h 0.313 c -0.192,1.625 -0.846,2.438 -1.954,2.438 -0.518,0 -0.933,-0.158 -1.246,-0.477 -0.313,-0.316 -0.472,-0.787 -0.472,-1.41 0,-0.411 0.063,-1.279 0.186,-2.607 l 0.236,-2.537 h -1.858 c -0.123,2.139 -0.271,3.701 -0.442,4.688 -0.173,0.986 -0.362,1.624 -0.569,1.912 -0.207,0.287 -0.488,0.433 -0.846,0.433 -0.269,0 -0.495,-0.079 -0.68,-0.238 -0.184,-0.158 -0.275,-0.367 -0.275,-0.625 0,-0.247 0.157,-0.585 0.472,-1.014 0.46,-0.622 0.803,-1.271 1.029,-1.942 0.228,-0.673 0.398,-1.743 0.516,-3.212 h -0.598 c -0.479,0 -0.847,0.105 -1.102,0.319 -0.254,0.214 -0.495,0.519 -0.724,0.915 h -0.313 c 0.17,-0.625 0.39,-1.141 0.659,-1.543 0.269,-0.402 0.546,-0.666 0.83,-0.789 0.284,-0.122 0.789,-0.185 1.515,-0.185 l 5.606,-0.002 0,0 z"
         id="path5118"
         inkscape:connector-curvature="0" />
      <path
         d="m 653.33175,763.49928 v 1.25 h -1.594 v 3.156 h -1.453 v -3.156 h -5.047 v -1.127 l 5.531,-7.889 h 0.969 v 7.766 h 1.594 z m -3.047,0 v -5.883 l -4.187,5.883 h 4.187 z"
         id="path5122"
         inkscape:connector-curvature="0" />
      <line
         style="fill:none;stroke:#010101;stroke-width:2"
         id="line5164"
         y2="750.81232"
         x2="637.78479"
         y1="750.81232"
         x1="660.78479" />
    </g>
    <g
       id="g10337"
       transform="translate(-12.524729,0)">
      <g
         transform="translate(-6.64025,-21.87022)"
         id="g6471">
        <path
           inkscape:connector-curvature="0"
           id="path5152"
           d="m 935.426,755.588 -0.688,1.5 h -3.595 l -0.786,1.592 c 1.563,0.229 2.799,0.806 3.709,1.73 0.781,0.797 1.172,1.733 1.172,2.813 0,0.627 -0.128,1.207 -0.383,1.74 -0.255,0.533 -0.576,0.986 -0.964,1.361 -0.387,0.375 -0.817,0.677 -1.293,0.904 -0.674,0.322 -1.366,0.483 -2.076,0.483 -0.716,0 -1.236,-0.121 -1.562,-0.363 -0.326,-0.242 -0.488,-0.509 -0.488,-0.801 0,-0.163 0.066,-0.308 0.203,-0.433 0.135,-0.127 0.306,-0.188 0.512,-0.188 0.153,0 0.286,0.023 0.401,0.07 0.114,0.047 0.311,0.166 0.587,0.357 0.438,0.305 0.884,0.459 1.335,0.466 0.686,0 1.287,-0.26 1.806,-0.778 0.52,-0.521 0.778,-1.153 0.778,-1.899 0,-0.723 -0.232,-1.396 -0.695,-2.021 -0.463,-0.626 -1.103,-1.109 -1.917,-1.45 -0.64,-0.264 -1.511,-0.417 -2.611,-0.458 l 2.284,-4.625 h 4.271 z" />
        <path
           inkscape:connector-curvature="0"
           id="path5154"
           d="m 945.348,759.447 v 1.28 h -2.037 l -0.176,2.684 c -0.035,0.465 -0.054,0.867 -0.054,1.209 0,0.816 0.097,1.315 0.286,1.495 0.191,0.18 0.423,0.27 0.693,0.27 0.564,0 0.898,-0.354 1.005,-1.063 h 0.313 c -0.194,1.625 -0.847,2.438 -1.955,2.438 -0.518,0 -0.933,-0.158 -1.246,-0.476 -0.313,-0.318 -0.472,-0.787 -0.472,-1.41 0,-0.411 0.063,-1.28 0.186,-2.608 l 0.237,-2.537 h -1.859 c -0.123,2.14 -0.271,3.701 -0.442,4.688 -0.173,0.985 -0.361,1.624 -0.568,1.912 -0.208,0.287 -0.489,0.432 -0.847,0.432 -0.269,0 -0.494,-0.079 -0.679,-0.238 -0.185,-0.157 -0.275,-0.366 -0.275,-0.625 0,-0.247 0.156,-0.585 0.472,-1.014 0.459,-0.622 0.802,-1.271 1.028,-1.942 0.228,-0.673 0.398,-1.742 0.516,-3.212 h -0.597 c -0.479,0 -0.848,0.106 -1.103,0.319 -0.254,0.214 -0.496,0.519 -0.724,0.915 h -0.313 c 0.17,-0.625 0.391,-1.14 0.659,-1.543 0.271,-0.402 0.546,-0.666 0.83,-0.789 0.283,-0.122 0.789,-0.185 1.516,-0.185 h 5.606 l 0,0 z" />
      </g>
      <path
         d="m 934.33175,763.49928 v 1.25 h -1.594 v 3.156 h -1.453 v -3.155 h -5.047 v -1.127 l 5.531,-7.89 h 0.969 v 7.767 l 1.594,-10e-4 0,0 z m -3.047,0 v -5.883 l -4.186,5.884 4.186,-10e-4 0,0 z"
         id="path5158"
         inkscape:connector-curvature="0" />
      <line
         style="fill:none;stroke:#010101;stroke-width:2"
         id="line5166"
         y2="750.81232"
         x2="918.78473"
         y1="750.81232"
         x1="941.78473" />
    </g>
    <g
       id="g10344"
       transform="translate(-15.357666,0)">
      <path
         d="m 1004.4213,765.59278 -0.836,2.311 h -7.03905 v -0.329 c 2.076,-1.886 3.53805,-3.426 4.38605,-4.62 0.847,-1.193 1.271,-2.287 1.271,-3.276 0,-0.759 -0.231,-1.383 -0.6961,-1.869 -0.466,-0.488 -1.0209,-0.732 -1.66795,-0.732 -0.589,0 -1.116,0.17 -1.584,0.509 -0.469,0.34 -0.813,0.836 -1.037,1.491 h -0.326 c 0.146,-1.076 0.524,-1.903 1.133,-2.479 0.607,-0.576 1.367,-0.864 2.27705,-0.864 0.97,0 1.778,0.312 2.429,0.934 0.6509,0.622 0.974,1.356 0.974,2.201 0,0.605 -0.141,1.209 -0.424,1.813 -0.435,0.948 -1.14,1.954 -2.114,3.015 -1.46505,1.589 -2.37305,2.544 -2.72805,2.866 h 3.09605 c 0.63,0 1.071,-0.023 1.325,-0.07 0.253,-0.047 0.482,-0.143 0.688,-0.285 0.204,-0.145 0.382,-0.348 0.533,-0.61 h 0.342 v -0.006 z"
         id="path5008"
         inkscape:connector-curvature="0" />
      <g
         transform="translate(-4.37785,-20.5327)"
         id="g6475">
        <path
           inkscape:connector-curvature="0"
           id="path5010"
           d="m 1013.949,756.447 v 1.28 h -2.037 l -0.176,2.684 c -0.035,0.465 -0.053,0.867 -0.053,1.209 0,0.816 0.096,1.315 0.287,1.495 0.189,0.18 0.422,0.27 0.69,0.27 0.564,0 0.9,-0.354 1.007,-1.063 h 0.313 c -0.193,1.625 -0.846,2.438 -1.955,2.438 -0.517,0 -0.932,-0.158 -1.246,-0.476 -0.313,-0.317 -0.471,-0.787 -0.471,-1.41 0,-0.411 0.062,-1.28 0.185,-2.608 l 0.237,-2.537 h -1.859 c -0.123,2.14 -0.271,3.701 -0.441,4.688 -0.173,0.985 -0.362,1.624 -0.569,1.912 -0.208,0.287 -0.489,0.432 -0.846,0.432 -0.27,0 -0.495,-0.079 -0.681,-0.238 -0.184,-0.157 -0.274,-0.366 -0.274,-0.625 0,-0.247 0.157,-0.585 0.471,-1.014 0.46,-0.622 0.803,-1.271 1.03,-1.942 0.227,-0.673 0.398,-1.742 0.515,-3.212 h -0.597 c -0.479,0 -0.847,0.106 -1.102,0.319 -0.255,0.214 -0.495,0.519 -0.725,0.915 h -0.313 c 0.17,-0.625 0.39,-1.14 0.658,-1.543 0.27,-0.402 0.547,-0.666 0.83,-0.789 0.284,-0.122 0.789,-0.185 1.516,-0.185 h 5.606 l 0,0 z" />
        <path
           inkscape:connector-curvature="0"
           id="path5014"
           d="m 995.93422,756.66448 c 0.34,-0.804 0.769,-1.425 1.287,-1.86 0.518,-0.437 1.164,-0.655 1.938,-0.655 0.95398,0 1.68698,0.312 2.19498,0.933 0.387,0.463 0.58,0.958 0.58,1.484 0,0.867 -0.542,1.765 -1.625,2.689 0.729,0.287 1.283,0.697 1.657,1.229 0.374,0.533 0.562,1.16 0.562,1.881 0,1.031 -0.328,1.926 -0.985,2.682 -0.855,0.983 -2.09698,1.477 -3.71998,1.477 -0.804,0 -1.351,-0.1 -1.641,-0.298 -0.291,-0.199 -0.437,-0.412 -0.437,-0.64 0,-0.17 0.068,-0.319 0.207,-0.447 0.139,-0.129 0.305,-0.193 0.497,-0.193 0.146,0 0.296,0.023 0.449,0.07 0.1,0.029 0.325,0.135 0.678,0.318 0.354,0.183 0.597,0.293 0.73,0.328 0.218,0.063 0.449,0.096 0.694,0.096 0.6,0 1.11998,-0.231 1.56298,-0.694 0.443,-0.462 0.665,-1.01 0.665,-1.643 0,-0.463 -0.104,-0.913 -0.31,-1.354 -0.153,-0.328 -0.32,-0.577 -0.504,-0.747 -0.254,-0.233 -0.60198,-0.445 -1.04298,-0.638 -0.44,-0.188 -0.892,-0.285 -1.352,-0.285 h -0.282 v -0.265 c 0.466,-0.06 0.933,-0.225 1.4,-0.5 0.467,-0.275 0.809,-0.605 1.02098,-0.991 0.212,-0.386 0.318,-0.81 0.318,-1.271 0,-0.603 -0.189,-1.09 -0.56698,-1.462 -0.378,-0.37 -0.849,-0.557 -1.411,-0.557 -0.908,0 -1.668,0.484 -2.277,1.453 l -0.287,-0.14 z" />
      </g>
      <line
         style="fill:none;stroke:#010101;stroke-width:2"
         id="line5168"
         y2="750.81232"
         x2="988.98474"
         y1="750.81232"
         x1="1011.9846" />
    </g>
    <g
       id="g10351"
       transform="translate(-17.324668,0)">
      <g
         transform="translate(-5.71375,-22.53672)"
         id="g6479">
        <path
           inkscape:connector-curvature="0"
           id="path5180"
           d="m 1069.093,756.254 h 6.386 v 0.338 l -3.964,11.834 h -0.988 l 3.566,-10.734 h -3.281 c -0.663,0 -1.135,0.079 -1.416,0.237 -0.493,0.271 -0.889,0.687 -1.188,1.248 l -0.256,-0.097 1.141,-2.826 z" />
        <path
           inkscape:connector-curvature="0"
           id="path5182"
           d="m 1085.015,760.113 v 1.281 h -2.037 l -0.176,2.684 c -0.035,0.465 -0.053,0.867 -0.053,1.209 0,0.816 0.096,1.315 0.286,1.495 0.19,0.18 0.423,0.27 0.691,0.27 0.563,0 0.9,-0.354 1.006,-1.063 h 0.313 c -0.193,1.625 -0.847,2.438 -1.955,2.438 -0.518,0 -0.933,-0.158 -1.246,-0.476 -0.313,-0.318 -0.471,-0.787 -0.471,-1.41 0,-0.411 0.062,-1.28 0.185,-2.608 l 0.237,-2.537 h -1.859 c -0.123,2.14 -0.271,3.701 -0.442,4.688 -0.173,0.985 -0.361,1.624 -0.568,1.912 -0.208,0.287 -0.489,0.432 -0.847,0.432 -0.269,0 -0.494,-0.079 -0.68,-0.238 -0.184,-0.157 -0.275,-0.367 -0.275,-0.625 0,-0.247 0.157,-0.585 0.472,-1.014 0.46,-0.622 0.803,-1.27 1.03,-1.942 0.227,-0.673 0.397,-1.742 0.515,-3.212 h -0.597 c -0.479,0 -0.848,0.106 -1.103,0.319 -0.254,0.214 -0.495,0.519 -0.724,0.915 h -0.313 c 0.17,-0.625 0.391,-1.14 0.659,-1.543 0.27,-0.402 0.546,-0.666 0.83,-0.789 0.284,-0.122 0.789,-0.184 1.515,-0.184 h 5.606 v -0.002 z" />
      </g>
      <path
         d="m 1074.8318,763.50028 v 1.25 h -1.594 v 3.155 h -1.453 v -3.155 h -5.047 v -1.127 l 5.531,-7.89 h 0.969 v 7.767 h 1.594 z m -3.047,0 v -5.883 l -4.186,5.884 4.186,-10e-4 0,0 z"
         id="path5186"
         inkscape:connector-curvature="0" />
      <line
         style="fill:none;stroke:#010101;stroke-width:2"
         id="line5188"
         y2="750.81232"
         x2="1059.2847"
         y1="750.81232"
         x1="1082.2847" />
    </g>
    <g
       id="g6483"
       transform="translate(-25.353,-9.73872)">
      <path
         d="m 1145.597,764.199 -0.836,2.311 h -7.039 v -0.329 c 2.076,-1.886 3.538,-3.426 4.386,-4.62 0.847,-1.193 1.271,-2.287 1.271,-3.276 0,-0.759 -0.232,-1.383 -0.697,-1.869 -0.465,-0.488 -1.021,-0.732 -1.668,-0.732 -0.588,0 -1.116,0.17 -1.584,0.509 -0.468,0.34 -0.813,0.836 -1.037,1.491 h -0.326 c 0.146,-1.076 0.524,-1.903 1.133,-2.479 0.607,-0.576 1.367,-0.864 2.277,-0.864 0.97,0 1.779,0.312 2.429,0.934 0.65,0.622 0.975,1.356 0.975,2.201 0,0.605 -0.142,1.209 -0.425,1.813 -0.435,0.948 -1.14,1.954 -2.114,3.015 -1.465,1.589 -2.373,2.544 -2.728,2.866 h 3.097 c 0.63,0 1.07,-0.023 1.324,-0.07 0.253,-0.047 0.482,-0.143 0.688,-0.285 0.204,-0.145 0.382,-0.348 0.533,-0.61 h 0.342 v -0.006 z"
         id="path5196"
         inkscape:connector-curvature="0" />
      <path
         d="m 1155.082,758.447 v 1.28 h -2.036 l -0.177,2.684 c -0.035,0.465 -0.053,0.867 -0.053,1.209 0,0.816 0.096,1.315 0.287,1.495 0.189,0.18 0.422,0.27 0.691,0.27 0.563,0 0.899,-0.354 1.006,-1.063 h 0.313 c -0.193,1.625 -0.846,2.438 -1.955,2.438 -0.517,0 -0.932,-0.158 -1.246,-0.476 -0.313,-0.317 -0.471,-0.787 -0.471,-1.41 0,-0.411 0.063,-1.28 0.186,-2.608 l 0.236,-2.537 h -1.859 c -0.122,2.14 -0.271,3.701 -0.441,4.688 -0.173,0.985 -0.362,1.624 -0.569,1.912 -0.208,0.287 -0.489,0.432 -0.846,0.432 -0.269,0 -0.495,-0.079 -0.68,-0.238 -0.185,-0.157 -0.275,-0.366 -0.275,-0.625 0,-0.247 0.157,-0.585 0.471,-1.014 0.46,-0.622 0.804,-1.271 1.03,-1.942 0.227,-0.673 0.398,-1.742 0.516,-3.212 h -0.598 c -0.479,0 -0.847,0.106 -1.102,0.319 -0.254,0.214 -0.495,0.519 -0.725,0.915 h -0.313 c 0.17,-0.625 0.39,-1.14 0.659,-1.543 0.269,-0.402 0.546,-0.666 0.83,-0.789 0.283,-0.122 0.788,-0.185 1.515,-0.185 h 5.606 l 0,0 z"
         id="path5198"
         inkscape:connector-curvature="0" />
    </g>
    <g
       id="g10269"
       transform="translate(16.308219,0)">
      <g
         transform="translate(-10.14675,-22.20372)"
         id="g6435">
        <path
           inkscape:connector-curvature="0"
           id="path5206"
           d="m 85.349,763.14 h 4.547 v 1.328 h -4.547 v -1.328 z" />
        <path
           inkscape:connector-curvature="0"
           id="path5208"
           d="m 92.421,755.921 h 6.386 v 0.338 l -3.964,11.834 h -0.988 l 3.566,-10.734 H 94.14 c -0.663,0 -1.135,0.079 -1.417,0.237 -0.493,0.271 -0.889,0.687 -1.188,1.248 l -0.255,-0.097 1.141,-2.826 z" />
        <path
           inkscape:connector-curvature="0"
           id="path5210"
           d="m 108.343,759.781 v 1.28 h -2.037 l -0.176,2.684 c -0.035,0.465 -0.053,0.867 -0.053,1.209 0,0.816 0.096,1.315 0.287,1.495 0.191,0.18 0.422,0.27 0.692,0.27 0.564,0 0.899,-0.354 1.005,-1.063 h 0.313 c -0.194,1.625 -0.846,2.438 -1.955,2.438 -0.517,0 -0.932,-0.158 -1.246,-0.476 -0.313,-0.317 -0.471,-0.787 -0.471,-1.41 0,-0.411 0.062,-1.28 0.185,-2.608 l 0.237,-2.537 h -1.859 c -0.123,2.14 -0.271,3.701 -0.442,4.688 -0.173,0.985 -0.362,1.624 -0.569,1.912 -0.208,0.287 -0.489,0.432 -0.846,0.432 -0.269,0 -0.495,-0.079 -0.679,-0.238 -0.184,-0.157 -0.276,-0.366 -0.276,-0.625 0,-0.247 0.157,-0.585 0.471,-1.014 0.459,-0.622 0.802,-1.271 1.03,-1.942 0.227,-0.673 0.398,-1.742 0.515,-3.212 h -0.597 c -0.479,0 -0.847,0.106 -1.102,0.319 -0.254,0.214 -0.496,0.519 -0.724,0.915 h -0.313 c 0.17,-0.625 0.39,-1.14 0.659,-1.543 0.269,-0.402 0.546,-0.666 0.83,-0.789 0.284,-0.122 0.789,-0.184 1.515,-0.184 l 5.606,-0.001 0,0 z" />
      </g>
      <path
         d="m 90.76175,763.50028 v 1.25 h -1.594 v 3.155 h -1.453 v -3.155 h -5.047 v -1.127 l 5.531,-7.89 h 0.969 v 7.767 h 1.594 z m -3.047,0 v -5.883 l -4.186,5.884 4.186,-10e-4 0,0 z"
         id="path5214"
         inkscape:connector-curvature="0" />
      <line
         style="fill:none;stroke:#010101;stroke-width:2"
         id="line5216"
         y2="750.81232"
         x2="75.751778"
         y1="750.81232"
         x1="98.751785" />
    </g>
    <g
       id="g10262"
       transform="translate(17.85425,0)">
      <path
         d="m 7.40575,752.06778 h 4.547 v 1.328 h -4.547 v -1.328 z"
         id="path5224"
         inkscape:connector-curvature="0" />
      <path
         d="m 20.91475,754.45978 -0.836,2.311 h -7.039 v -0.329 c 2.077,-1.886 3.538,-3.426 4.386,-4.62 0.847,-1.193 1.271,-2.287 1.271,-3.276 0,-0.759 -0.232,-1.383 -0.697,-1.869 -0.465,-0.488 -1.021,-0.732 -1.668,-0.732 -0.588,0 -1.116,0.17 -1.584,0.509 -0.468,0.34 -0.813,0.836 -1.037,1.491 h -0.326 c 0.146,-1.076 0.524,-1.903 1.132,-2.479 0.608,-0.576 1.368,-0.864 2.278,-0.864 0.969,0 1.779,0.312 2.428,0.934 0.649,0.622 0.974,1.356 0.974,2.201 0,0.605 -0.141,1.209 -0.423,1.813 -0.435,0.948 -1.14,1.954 -2.116,3.015 -1.464,1.589 -2.373,2.544 -2.726,2.866 h 3.095 c 0.63,0 1.071,-0.023 1.325,-0.07 0.253,-0.047 0.482,-0.143 0.687,-0.285 0.204,-0.145 0.382,-0.348 0.533,-0.61 h 0.343 v -0.006 z"
         id="path5226"
         inkscape:connector-curvature="0" />
      <path
         d="m 30.39975,748.70778 v 1.281 h -2.037 l -0.176,2.684 c -0.035,0.465 -0.053,0.867 -0.053,1.209 0,0.816 0.096,1.315 0.287,1.495 0.191,0.18 0.422,0.27 0.692,0.27 0.564,0 0.899,-0.354 1.005,-1.063 h 0.313 c -0.194,1.625 -0.846,2.438 -1.955,2.438 -0.517,0 -0.932,-0.158 -1.246,-0.476 -0.313,-0.317 -0.471,-0.787 -0.471,-1.41 0,-0.411 0.062,-1.28 0.185,-2.608 l 0.237,-2.537 h -1.859 c -0.123,2.14 -0.271,3.701 -0.442,4.688 -0.173,0.985 -0.362,1.624 -0.569,1.912 -0.208,0.287 -0.489,0.432 -0.846,0.432 -0.269,0 -0.495,-0.079 -0.679,-0.238 -0.184,-0.157 -0.276,-0.367 -0.276,-0.625 0,-0.247 0.157,-0.585 0.471,-1.014 0.459,-0.622 0.802,-1.27 1.03,-1.942 0.227,-0.673 0.398,-1.742 0.515,-3.212 h -0.597 c -0.479,0 -0.847,0.106 -1.102,0.319 -0.254,0.214 -0.496,0.519 -0.724,0.915 h -0.313 c 0.17,-0.625 0.39,-1.14 0.659,-1.543 0.269,-0.402 0.546,-0.666 0.83,-0.789 0.284,-0.122 0.789,-0.184 1.515,-0.184 h 5.606 v -0.002 z"
         id="path5228"
         inkscape:connector-curvature="0" />
    </g>
    <g
       id="g10285"
       transform="translate(11.475256,0)">
      <g
         transform="translate(-0.90975,-23.20422)"
         id="g6445">
        <path
           inkscape:connector-curvature="0"
           id="path5022"
           d="m 217.182,764.141 h 4.547 v 1.328 h -4.547 v -1.328 z" />
        <path
           inkscape:connector-curvature="0"
           id="path5024"
           d="m 230.254,756.922 -0.688,1.5 h -3.594 l -0.787,1.592 c 1.563,0.229 2.799,0.806 3.709,1.73 0.781,0.797 1.172,1.733 1.172,2.813 0,0.627 -0.128,1.207 -0.383,1.74 -0.255,0.533 -0.576,0.986 -0.963,1.361 -0.387,0.375 -0.818,0.677 -1.293,0.904 -0.674,0.322 -1.366,0.483 -2.076,0.483 -0.716,0 -1.236,-0.121 -1.562,-0.363 -0.326,-0.242 -0.488,-0.509 -0.488,-0.801 0,-0.163 0.067,-0.308 0.203,-0.433 0.135,-0.127 0.306,-0.188 0.512,-0.188 0.153,0 0.287,0.023 0.401,0.07 0.114,0.047 0.311,0.166 0.587,0.357 0.439,0.305 0.884,0.459 1.335,0.466 0.685,0 1.287,-0.26 1.805,-0.778 0.519,-0.521 0.778,-1.153 0.778,-1.899 0,-0.723 -0.232,-1.396 -0.695,-2.021 -0.463,-0.626 -1.103,-1.109 -1.917,-1.45 -0.64,-0.264 -1.51,-0.417 -2.612,-0.458 l 2.285,-4.625 h 4.271 z" />
        <path
           inkscape:connector-curvature="0"
           id="path5026"
           d="m 240.176,760.781 v 1.28 h -2.037 l -0.176,2.684 c -0.035,0.465 -0.053,0.867 -0.053,1.209 0,0.816 0.096,1.315 0.287,1.495 0.191,0.18 0.422,0.27 0.692,0.27 0.564,0 0.899,-0.354 1.005,-1.063 h 0.313 c -0.194,1.625 -0.846,2.438 -1.955,2.438 -0.517,0 -0.932,-0.158 -1.246,-0.476 -0.313,-0.317 -0.471,-0.787 -0.471,-1.41 0,-0.411 0.062,-1.28 0.185,-2.608 l 0.237,-2.537 h -1.859 c -0.123,2.14 -0.271,3.701 -0.442,4.688 -0.173,0.985 -0.362,1.624 -0.569,1.912 -0.208,0.287 -0.489,0.432 -0.846,0.432 -0.269,0 -0.495,-0.079 -0.679,-0.238 -0.184,-0.157 -0.276,-0.366 -0.276,-0.625 0,-0.247 0.157,-0.585 0.471,-1.014 0.459,-0.622 0.802,-1.271 1.03,-1.942 0.227,-0.673 0.398,-1.742 0.515,-3.212 h -0.597 c -0.479,0 -0.847,0.106 -1.102,0.319 -0.254,0.214 -0.496,0.519 -0.724,0.915 h -0.313 c 0.17,-0.625 0.39,-1.14 0.659,-1.543 0.269,-0.402 0.546,-0.666 0.83,-0.789 0.284,-0.122 0.789,-0.184 1.515,-0.184 l 5.606,-0.001 0,0 z" />
      </g>
      <path
         d="m 231.83175,763.50028 v 1.25 h -1.594 v 3.155 h -1.453 v -3.155 h -5.047 v -1.127 l 5.531,-7.89 h 0.969 v 7.767 h 1.594 z m -3.047,0 v -5.883 l -4.186,5.884 4.186,-10e-4 0,0 z"
         id="path5030"
         inkscape:connector-curvature="0" />
      <line
         style="fill:none;stroke:#010101;stroke-width:2"
         id="line5232"
         y2="750.81232"
         x2="216.28474"
         y1="750.81232"
         x1="239.28474" />
    </g>
    <g
       id="g10277"
       transform="translate(13.926727,0)">
      <line
         style="fill:none;stroke:#010101;stroke-width:2"
         id="line5230"
         y2="750.81232"
         x2="146.03328"
         y1="750.81232"
         x1="169.03328" />
      <g
         transform="translate(-5.66125,-20.07972)"
         id="g6440">
        <path
           inkscape:connector-curvature="0"
           id="path5240"
           d="m 151.682,761.14 h 4.547 v 1.328 h -4.547 v -1.328 z" />
        <path
           inkscape:connector-curvature="0"
           id="path5242"
           d="m 157.864,756.187 c 0.34,-0.803 0.769,-1.424 1.287,-1.859 0.518,-0.438 1.164,-0.655 1.937,-0.655 0.955,0 1.687,0.311 2.196,0.932 0.387,0.463 0.58,0.958 0.58,1.485 0,0.867 -0.542,1.764 -1.625,2.688 0.73,0.287 1.283,0.697 1.657,1.23 0.374,0.533 0.562,1.16 0.562,1.881 0,1.031 -0.328,1.925 -0.985,2.681 -0.856,0.984 -2.096,1.478 -3.72,1.478 -0.803,0 -1.35,-0.1 -1.64,-0.298 -0.291,-0.199 -0.436,-0.412 -0.436,-0.641 0,-0.17 0.069,-0.318 0.207,-0.446 0.138,-0.129 0.304,-0.193 0.497,-0.193 0.146,0 0.296,0.023 0.449,0.07 0.1,0.028 0.326,0.135 0.678,0.317 0.352,0.184 0.596,0.293 0.73,0.328 0.217,0.063 0.449,0.097 0.695,0.097 0.599,0 1.12,-0.231 1.563,-0.694 0.443,-0.462 0.665,-1.01 0.665,-1.644 0,-0.463 -0.103,-0.912 -0.309,-1.353 -0.153,-0.328 -0.321,-0.577 -0.503,-0.747 -0.254,-0.234 -0.601,-0.446 -1.043,-0.638 -0.441,-0.189 -0.892,-0.285 -1.351,-0.285 h -0.283 v -0.267 c 0.465,-0.059 0.932,-0.225 1.4,-0.5 0.468,-0.274 0.809,-0.604 1.021,-0.99 0.212,-0.387 0.318,-0.811 0.318,-1.272 0,-0.602 -0.189,-1.089 -0.567,-1.461 -0.378,-0.371 -0.849,-0.557 -1.411,-0.557 -0.909,0 -1.668,0.483 -2.278,1.453 l -0.291,-0.14 z" />
        <path
           inkscape:connector-curvature="0"
           id="path5244"
           d="m 174.676,757.781 v 1.28 h -2.037 l -0.176,2.684 c -0.035,0.465 -0.053,0.867 -0.053,1.209 0,0.816 0.096,1.315 0.287,1.495 0.191,0.18 0.422,0.27 0.692,0.27 0.564,0 0.899,-0.354 1.005,-1.063 h 0.313 c -0.194,1.625 -0.846,2.438 -1.955,2.438 -0.517,0 -0.932,-0.158 -1.246,-0.476 -0.313,-0.317 -0.471,-0.787 -0.471,-1.41 0,-0.411 0.062,-1.28 0.185,-2.608 l 0.237,-2.537 h -1.859 c -0.123,2.14 -0.271,3.701 -0.442,4.688 -0.173,0.985 -0.362,1.624 -0.569,1.912 -0.208,0.287 -0.489,0.432 -0.846,0.432 -0.269,0 -0.495,-0.079 -0.679,-0.238 -0.184,-0.157 -0.276,-0.366 -0.276,-0.625 0,-0.247 0.157,-0.585 0.471,-1.014 0.459,-0.622 0.802,-1.271 1.03,-1.942 0.227,-0.673 0.398,-1.742 0.515,-3.212 h -0.597 c -0.479,0 -0.847,0.106 -1.102,0.319 -0.254,0.214 -0.496,0.519 -0.724,0.915 h -0.313 c 0.17,-0.625 0.39,-1.14 0.659,-1.543 0.269,-0.402 0.546,-0.666 0.83,-0.789 0.284,-0.122 0.789,-0.184 1.515,-0.184 l 5.606,-0.001 0,0 z" />
      </g>
      <path
         d="m 161.47075,765.59278 -0.836,2.311 h -7.039 v -0.33 c 2.077,-1.886 3.538,-3.426 4.386,-4.619 0.847,-1.194 1.271,-2.287 1.271,-3.277 0,-0.758 -0.232,-1.382 -0.697,-1.869 -0.465,-0.488 -1.021,-0.731 -1.668,-0.731 -0.588,0 -1.116,0.17 -1.584,0.509 -0.468,0.339 -0.813,0.836 -1.037,1.491 h -0.326 c 0.146,-1.076 0.524,-1.903 1.132,-2.479 0.608,-0.576 1.368,-0.864 2.278,-0.864 0.969,0 1.779,0.313 2.428,0.935 0.649,0.622 0.974,1.355 0.974,2.201 0,0.604 -0.141,1.209 -0.423,1.813 -0.435,0.949 -1.14,1.954 -2.116,3.015 -1.464,1.59 -2.373,2.544 -2.726,2.866 h 3.095 c 0.63,0 1.071,-0.022 1.325,-0.069 0.253,-0.048 0.482,-0.144 0.687,-0.285 0.204,-0.146 0.382,-0.349 0.533,-0.611 h 0.343 v -0.007 z"
         id="path5248"
         inkscape:connector-curvature="0" />
    </g>
  </g>
</svg>
