<?xml version="1.0" encoding="UTF-8" standalone="no"?>
<!-- Generator: Adobe Illustrator 12.0.0, SVG Export Plug-In . SVG Version: 6.00 Build 51448)  -->

<svg
   xmlns:dc="http://purl.org/dc/elements/1.1/"
   xmlns:cc="http://creativecommons.org/ns#"
   xmlns:rdf="http://www.w3.org/1999/02/22-rdf-syntax-ns#"
   xmlns:svg="http://www.w3.org/2000/svg"
   xmlns="http://www.w3.org/2000/svg"
   xmlns:sodipodi="http://sodipodi.sourceforge.net/DTD/sodipodi-0.dtd"
   xmlns:inkscape="http://www.inkscape.org/namespaces/inkscape"
   version="1.1"
   id="Layer_1"
   width="1122.119"
   height="765.25201"
   viewBox="0 0 1122.119 765.252"
   overflow="visible"
   enable-background="new 0 0 1122.119 765.252"
   xml:space="preserve"
   sodipodi:version="0.32"
   inkscape:version="0.48.0 r9654"
   sodipodi:docname="Sin.svg"
   inkscape:output_extension="org.inkscape.output.svg.inkscape"
   sodipodi:modified="true"
   style="display:inline;overflow:visible"><metadata
   id="metadata826"><rdf:RDF><cc:Work
       rdf:about=""><dc:format>image/svg+xml</dc:format><dc:type
         rdf:resource="http://purl.org/dc/dcmitype/StillImage" /><dc:title></dc:title></cc:Work></rdf:RDF></metadata><defs
   id="defs824">
	

		
		
	
			
			
		
	

		
		
	
	

		
		
	
	

		
		
	
	

		
		
	
	

		
		
	
		
		
	
	

		
		
	
	

		
		
	
	

		
		
	
	

		
		
	
	

		
		
	
	
</defs><sodipodi:namedview
   inkscape:window-height="778"
   inkscape:window-width="1280"
   inkscape:pageshadow="2"
   inkscape:pageopacity="0.0"
   guidetolerance="10.0"
   gridtolerance="10.0"
   objecttolerance="10.0"
   borderopacity="1.0"
   bordercolor="#666666"
   pagecolor="#ffffff"
   id="base"
   inkscape:zoom="0.73309183"
   inkscape:cx="561.05951"
   inkscape:cy="382.62601"
   inkscape:window-x="0"
   inkscape:window-y="26"
   inkscape:current-layer="layer1"
   showgrid="false"
   inkscape:window-maximized="0" />
<g
   id="g3">
	<path
   d="m 40.26,726.472 h 1073"
   id="path5"
   inkscape:connector-curvature="0"
   style="fill:none;stroke:#808080" />
</g>
<g
   id="g7">
	<path
   d="m 40.26,726.472 h 13.5 m 1059.5,0 h -13.5"
   id="path9"
   inkscape:connector-curvature="0"
   style="fill:none;stroke:#000000" />
	<g
   transform="translate(76,752.7)"
   id="g11">
		<g
   id="g13">
			<path
   d="m -76,-24.231 h 4.547 v 1.328 H -76 v -1.328 z"
   id="path15"
   inkscape:connector-curvature="0" />
			<path
   d="m -68.631,-30.294 2.897,-1.406 h 0.291 v 10.078 c 0,0.664 0.027,1.078 0.083,1.241 0.056,0.163 0.171,0.288 0.347,0.376 0.175,0.087 0.532,0.137 1.07,0.148 v 0.328 h -4.484 v -0.328 c 0.563,-0.012 0.927,-0.06 1.091,-0.145 0.165,-0.084 0.279,-0.197 0.344,-0.341 0.064,-0.143 0.097,-0.569 0.097,-1.28 v -6.453 c 0,-0.872 -0.029,-1.432 -0.088,-1.68 -0.041,-0.188 -0.115,-0.326 -0.223,-0.414 -0.108,-0.088 -0.238,-0.132 -0.39,-0.132 -0.216,0 -0.517,0.091 -0.902,0.272 l -0.133,-0.264 z"
   id="path17"
   inkscape:connector-curvature="0" />
			<path
   d="m -59.482,-21.231 c 0.275,0 0.507,0.096 0.695,0.286 0.188,0.19 0.281,0.421 0.281,0.69 0,0.269 -0.096,0.5 -0.286,0.69 -0.19,0.19 -0.421,0.286 -0.69,0.286 -0.27,0 -0.5,-0.096 -0.69,-0.286 -0.191,-0.19 -0.286,-0.421 -0.286,-0.69 0,-0.275 0.095,-0.508 0.286,-0.695 0.19,-0.188 0.42,-0.281 0.69,-0.281 z"
   id="path19"
   inkscape:connector-curvature="0" />
			<path
   d="m -55.131,-30.294 2.897,-1.406 h 0.291 v 10.078 c 0,0.664 0.027,1.078 0.083,1.241 0.056,0.163 0.171,0.288 0.347,0.376 0.175,0.087 0.532,0.137 1.07,0.148 v 0.328 h -4.484 v -0.328 c 0.563,-0.012 0.927,-0.06 1.091,-0.145 0.165,-0.084 0.279,-0.197 0.344,-0.341 0.064,-0.143 0.097,-0.569 0.097,-1.28 v -6.453 c 0,-0.872 -0.029,-1.432 -0.088,-1.68 -0.041,-0.188 -0.115,-0.326 -0.223,-0.414 -0.108,-0.088 -0.238,-0.132 -0.39,-0.132 -0.216,0 -0.517,0.091 -0.902,0.272 l -0.133,-0.264 z"
   id="path21"
   inkscape:connector-curvature="0" />
		</g>
	</g>
</g>
<g
   id="g23">
	<path
   d="m 40.26,693.672 h 1073"
   id="path25"
   inkscape:connector-curvature="0"
   style="fill:none;stroke:#808080" />
</g>
<g
   id="g27">
	<path
   d="m 40.26,693.672 h 13.5 m 1059.5,0 h -13.5"
   id="path29"
   inkscape:connector-curvature="0"
   style="fill:none;stroke:#000000" />
	<g
   transform="translate(76,719.9)"
   id="g31">
		<g
   id="g33">
			<path
   d="m -62.5,-24.231 h 4.547 v 1.328 H -62.5 v -1.328 z"
   id="path35"
   inkscape:connector-curvature="0" />
			<path
   d="m -55.131,-30.294 2.897,-1.406 h 0.291 v 10.078 c 0,0.664 0.027,1.078 0.083,1.24 0.056,0.164 0.171,0.289 0.347,0.377 0.175,0.086 0.532,0.137 1.07,0.148 v 0.328 h -4.484 v -0.328 c 0.563,-0.012 0.927,-0.061 1.091,-0.145 0.165,-0.084 0.279,-0.197 0.344,-0.342 0.064,-0.143 0.097,-0.568 0.097,-1.279 v -6.453 c 0,-0.873 -0.029,-1.432 -0.088,-1.68 -0.041,-0.188 -0.115,-0.326 -0.223,-0.414 -0.108,-0.088 -0.238,-0.133 -0.39,-0.133 -0.216,0 -0.517,0.092 -0.902,0.273 l -0.133,-0.264 z"
   id="path37"
   inkscape:connector-curvature="0" />
		</g>
	</g>
</g>
<g
   id="g39">
	<path
   d="m 40.26,660.972 h 1073"
   id="path41"
   inkscape:connector-curvature="0"
   style="fill:none;stroke:#808080" />
</g>
<g
   id="g43">
	<path
   d="m 40.26,660.972 h 13.5 m 1059.5,0 h -13.5"
   id="path45"
   inkscape:connector-curvature="0"
   style="fill:none;stroke:#000000" />
	<g
   transform="translate(76,687.2)"
   id="g47">
		<g
   id="g49">
			<path
   d="m -76,-24.231 h 4.547 v 1.328 H -76 v -1.328 z"
   id="path51"
   inkscape:connector-curvature="0" />
			<path
   d="m -70.084,-25.425 c 0,-1.359 0.205,-2.529 0.615,-3.512 0.41,-0.98 0.955,-1.712 1.634,-2.192 0.527,-0.381 1.072,-0.571 1.634,-0.571 0.914,0 1.733,0.466 2.459,1.397 0.907,1.154 1.361,2.719 1.361,4.693 0,1.383 -0.199,2.558 -0.598,3.524 -0.398,0.967 -0.906,1.668 -1.523,2.105 -0.618,0.436 -1.214,0.654 -1.788,0.654 -1.136,0 -2.082,-0.671 -2.837,-2.013 -0.638,-1.129 -0.957,-2.491 -0.957,-4.085 z m 1.719,0.223 c 0,1.642 0.202,2.981 0.607,4.02 0.334,0.874 0.833,1.311 1.495,1.311 0.316,0 0.645,-0.143 0.985,-0.427 0.34,-0.284 0.598,-0.761 0.774,-1.429 0.27,-1.009 0.404,-2.432 0.404,-4.267 0,-1.36 -0.141,-2.495 -0.422,-3.403 -0.211,-0.675 -0.484,-1.152 -0.818,-1.435 -0.24,-0.193 -0.531,-0.29 -0.871,-0.29 -0.399,0 -0.753,0.179 -1.064,0.537 -0.423,0.486 -0.71,1.252 -0.862,2.295 -0.152,1.044 -0.228,2.073 -0.228,3.088 z"
   id="path53"
   inkscape:connector-curvature="0" />
			<path
   d="m -59.482,-21.231 c 0.275,0 0.507,0.096 0.695,0.286 0.188,0.19 0.281,0.421 0.281,0.69 0,0.269 -0.096,0.5 -0.286,0.69 -0.19,0.19 -0.421,0.286 -0.69,0.286 -0.27,0 -0.5,-0.096 -0.69,-0.286 -0.191,-0.19 -0.286,-0.421 -0.286,-0.69 0,-0.275 0.095,-0.508 0.286,-0.695 0.19,-0.188 0.42,-0.281 0.69,-0.281 z"
   id="path55"
   inkscape:connector-curvature="0" />
			<path
   d="m -56.303,-19.278 v -0.328 c 0.762,-0.012 1.472,-0.189 2.128,-0.532 0.656,-0.343 1.292,-0.942 1.904,-1.798 0.613,-0.856 1.04,-1.797 1.28,-2.82 -0.92,0.59 -1.752,0.885 -2.497,0.885 -0.838,0 -1.556,-0.324 -2.154,-0.972 -0.598,-0.648 -0.896,-1.509 -0.896,-2.582 0,-1.044 0.299,-1.973 0.896,-2.788 0.721,-0.99 1.661,-1.486 2.822,-1.486 0.979,0 1.817,0.404 2.514,1.214 0.855,1.003 1.283,2.241 1.283,3.713 0,1.325 -0.325,2.562 -0.976,3.708 -0.651,1.146 -1.557,2.098 -2.717,2.854 -0.944,0.622 -1.973,0.933 -3.087,0.933 h -0.5 z m 5.453,-6.129 c 0.104,-0.762 0.156,-1.371 0.156,-1.829 0,-0.568 -0.097,-1.183 -0.29,-1.842 -0.193,-0.659 -0.468,-1.165 -0.822,-1.517 -0.354,-0.352 -0.757,-0.527 -1.208,-0.527 -0.522,0 -0.979,0.234 -1.372,0.703 -0.393,0.469 -0.589,1.167 -0.589,2.093 0,1.236 0.261,2.204 0.783,2.901 0.381,0.504 0.85,0.756 1.408,0.756 0.27,0 0.589,-0.064 0.958,-0.193 0.369,-0.129 0.695,-0.311 0.976,-0.545 z"
   id="path57"
   inkscape:connector-curvature="0" />
		</g>
	</g>
</g>
<g
   id="g59">
	<path
   d="m 40.26,628.172 h 1073"
   id="path61"
   inkscape:connector-curvature="0"
   style="fill:none;stroke:#808080" />
</g>
<g
   id="g63">
	<path
   d="m 40.26,628.172 h 13.5 m 1059.5,0 h -13.5"
   id="path65"
   inkscape:connector-curvature="0"
   style="fill:none;stroke:#000000" />
	<g
   transform="translate(76,654.4)"
   id="g67">
		<g
   id="g69">
			<path
   d="m -76,-24.231 h 4.547 v 1.328 H -76 v -1.328 z"
   id="path71"
   inkscape:connector-curvature="0" />
			<path
   d="m -70.084,-25.424 c 0,-1.359 0.205,-2.529 0.615,-3.512 0.41,-0.98 0.955,-1.713 1.634,-2.193 0.527,-0.381 1.072,-0.57 1.634,-0.57 0.914,0 1.733,0.465 2.459,1.396 0.907,1.154 1.361,2.719 1.361,4.693 0,1.383 -0.199,2.559 -0.598,3.525 -0.398,0.967 -0.906,1.668 -1.523,2.105 -0.618,0.436 -1.214,0.654 -1.788,0.654 -1.136,0 -2.082,-0.672 -2.837,-2.014 -0.638,-1.129 -0.957,-2.491 -0.957,-4.084 z m 1.719,0.222 c 0,1.641 0.202,2.98 0.607,4.02 0.334,0.873 0.833,1.311 1.495,1.311 0.316,0 0.645,-0.143 0.985,-0.428 0.34,-0.283 0.598,-0.76 0.774,-1.428 0.27,-1.01 0.404,-2.432 0.404,-4.268 0,-1.359 -0.141,-2.494 -0.422,-3.402 -0.211,-0.676 -0.484,-1.152 -0.818,-1.436 -0.24,-0.193 -0.531,-0.289 -0.871,-0.289 -0.399,0 -0.753,0.178 -1.064,0.537 -0.423,0.486 -0.71,1.252 -0.862,2.295 -0.152,1.043 -0.228,2.073 -0.228,3.088 z"
   id="path73"
   inkscape:connector-curvature="0" />
			<path
   d="m -59.482,-21.231 c 0.275,0 0.507,0.096 0.695,0.285 0.188,0.191 0.281,0.422 0.281,0.691 0,0.269 -0.096,0.5 -0.286,0.689 -0.19,0.191 -0.421,0.287 -0.69,0.287 -0.27,0 -0.5,-0.096 -0.69,-0.287 -0.191,-0.189 -0.286,-0.42 -0.286,-0.689 0,-0.275 0.095,-0.508 0.286,-0.695 0.19,-0.187 0.42,-0.281 0.69,-0.281 z"
   id="path75"
   inkscape:connector-curvature="0" />
			<path
   d="m -53.781,-25.532 c -0.947,-0.773 -1.557,-1.396 -1.83,-1.865 -0.273,-0.469 -0.41,-0.955 -0.41,-1.461 0,-0.773 0.299,-1.441 0.897,-2.002 0.598,-0.561 1.393,-0.84 2.384,-0.84 0.962,0 1.736,0.262 2.323,0.783 0.586,0.521 0.88,1.117 0.88,1.787 0,0.445 -0.158,0.9 -0.475,1.363 -0.316,0.465 -0.975,1.01 -1.977,1.637 1.032,0.797 1.715,1.422 2.049,1.879 0.445,0.598 0.668,1.227 0.668,1.889 0,0.836 -0.319,1.551 -0.958,2.146 -0.639,0.594 -1.478,0.891 -2.515,0.891 -1.131,0 -2.014,-0.354 -2.646,-1.063 -0.504,-0.568 -0.756,-1.188 -0.756,-1.861 0,-0.525 0.177,-1.049 0.532,-1.566 0.355,-0.517 0.966,-1.09 1.834,-1.717 z m 0.413,0.334 c -0.487,0.408 -0.848,0.852 -1.083,1.332 -0.234,0.48 -0.352,1 -0.352,1.561 0,0.75 0.207,1.352 0.621,1.803 0.414,0.451 0.941,0.678 1.581,0.678 0.634,0 1.142,-0.178 1.523,-0.533 0.381,-0.355 0.572,-0.785 0.572,-1.293 0,-0.42 -0.111,-0.795 -0.335,-1.127 -0.417,-0.618 -1.259,-1.425 -2.527,-2.421 z m 0.967,-1.273 c 0.702,-0.635 1.146,-1.137 1.333,-1.504 0.187,-0.367 0.281,-0.783 0.281,-1.248 0,-0.619 -0.173,-1.102 -0.519,-1.451 -0.346,-0.352 -0.817,-0.525 -1.414,-0.525 -0.598,0 -1.083,0.174 -1.458,0.52 -0.375,0.348 -0.563,0.754 -0.563,1.219 0,0.305 0.078,0.611 0.233,0.916 0.155,0.307 0.376,0.598 0.664,0.875 l 1.443,1.198 z"
   id="path77"
   inkscape:connector-curvature="0" />
		</g>
	</g>
</g>
<g
   id="g79">
	<path
   d="m 40.26,595.372 h 1073"
   id="path81"
   inkscape:connector-curvature="0"
   style="fill:none;stroke:#808080" />
</g>
<g
   id="g83">
	<path
   d="m 40.26,595.372 h 13.5 m 1059.5,0 h -13.5"
   id="path85"
   inkscape:connector-curvature="0"
   style="fill:none;stroke:#000000" />
	<g
   transform="translate(76,621.6)"
   id="g87">
		<g
   id="g89">
			<path
   d="m -76,-24.232 h 4.547 v 1.328 H -76 v -1.328 z"
   id="path91"
   inkscape:connector-curvature="0" />
			<path
   d="m -70.084,-25.425 c 0,-1.359 0.205,-2.529 0.615,-3.512 0.41,-0.98 0.955,-1.711 1.634,-2.191 0.527,-0.381 1.072,-0.572 1.634,-0.572 0.914,0 1.733,0.467 2.459,1.398 0.907,1.154 1.361,2.719 1.361,4.693 0,1.383 -0.199,2.557 -0.598,3.523 -0.398,0.967 -0.906,1.668 -1.523,2.105 -0.618,0.436 -1.214,0.654 -1.788,0.654 -1.136,0 -2.082,-0.67 -2.837,-2.012 -0.638,-1.129 -0.957,-2.492 -0.957,-4.086 z m 1.719,0.222 c 0,1.643 0.202,2.982 0.607,4.02 0.334,0.875 0.833,1.311 1.495,1.311 0.316,0 0.645,-0.143 0.985,-0.426 0.34,-0.285 0.598,-0.762 0.774,-1.43 0.27,-1.008 0.404,-2.432 0.404,-4.266 0,-1.361 -0.141,-2.496 -0.422,-3.404 -0.211,-0.674 -0.484,-1.152 -0.818,-1.434 -0.24,-0.193 -0.531,-0.291 -0.871,-0.291 -0.399,0 -0.753,0.18 -1.064,0.537 -0.423,0.486 -0.71,1.252 -0.862,2.295 -0.152,1.046 -0.228,2.075 -0.228,3.088 z"
   id="path93"
   inkscape:connector-curvature="0" />
			<path
   d="m -59.482,-21.232 c 0.275,0 0.507,0.096 0.695,0.287 0.188,0.189 0.281,0.42 0.281,0.689 0,0.269 -0.096,0.5 -0.286,0.691 -0.19,0.189 -0.421,0.285 -0.69,0.285 -0.27,0 -0.5,-0.096 -0.69,-0.285 -0.191,-0.191 -0.286,-0.422 -0.286,-0.691 0,-0.275 0.095,-0.508 0.286,-0.695 0.19,-0.187 0.42,-0.281 0.69,-0.281 z"
   id="path95"
   inkscape:connector-curvature="0" />
			<path
   d="m -55.428,-31.451 h 6.386 v 0.338 l -3.964,11.834 h -0.988 l 3.566,-10.734 h -3.281 c -0.663,0 -1.135,0.08 -1.417,0.238 -0.493,0.27 -0.889,0.686 -1.188,1.248 l -0.255,-0.098 1.141,-2.826 z"
   id="path97"
   inkscape:connector-curvature="0" />
		</g>
	</g>
</g>
<g
   id="g99">
	<path
   d="m 40.26,562.571 h 1073"
   id="path101"
   inkscape:connector-curvature="0"
   style="fill:none;stroke:#808080" />
</g>
<g
   id="g103">
	<path
   d="m 40.26,562.571 h 13.5 m 1059.5,0 h -13.5"
   id="path105"
   inkscape:connector-curvature="0"
   style="fill:none;stroke:#000000" />
	<g
   transform="translate(76,588.8)"
   id="g107">
		<g
   id="g109">
			<path
   d="m -76,-24.232 h 4.547 v 1.328 H -76 v -1.328 z"
   id="path111"
   inkscape:connector-curvature="0" />
			<path
   d="m -70.084,-25.425 c 0,-1.359 0.205,-2.529 0.615,-3.512 0.41,-0.98 0.955,-1.712 1.634,-2.192 0.527,-0.381 1.072,-0.571 1.634,-0.571 0.914,0 1.733,0.466 2.459,1.397 0.907,1.154 1.361,2.719 1.361,4.693 0,1.383 -0.199,2.558 -0.598,3.524 -0.398,0.967 -0.906,1.668 -1.523,2.105 -0.618,0.436 -1.214,0.654 -1.788,0.654 -1.136,0 -2.082,-0.671 -2.837,-2.013 -0.638,-1.129 -0.957,-2.491 -0.957,-4.085 z m 1.719,0.223 c 0,1.642 0.202,2.981 0.607,4.02 0.334,0.874 0.833,1.311 1.495,1.311 0.316,0 0.645,-0.143 0.985,-0.427 0.34,-0.284 0.598,-0.761 0.774,-1.429 0.27,-1.009 0.404,-2.432 0.404,-4.267 0,-1.36 -0.141,-2.495 -0.422,-3.403 -0.211,-0.675 -0.484,-1.152 -0.818,-1.435 -0.24,-0.193 -0.531,-0.29 -0.871,-0.29 -0.399,0 -0.753,0.179 -1.064,0.537 -0.423,0.486 -0.71,1.252 -0.862,2.295 -0.152,1.044 -0.228,2.073 -0.228,3.088 z"
   id="path113"
   inkscape:connector-curvature="0" />
			<path
   d="m -59.482,-21.232 c 0.275,0 0.507,0.096 0.695,0.286 0.188,0.19 0.281,0.421 0.281,0.69 0,0.269 -0.096,0.5 -0.286,0.69 -0.19,0.19 -0.421,0.286 -0.69,0.286 -0.27,0 -0.5,-0.096 -0.69,-0.286 -0.191,-0.19 -0.286,-0.421 -0.286,-0.69 0,-0.275 0.095,-0.508 0.286,-0.695 0.19,-0.187 0.42,-0.281 0.69,-0.281 z"
   id="path115"
   inkscape:connector-curvature="0" />
			<path
   d="m -49.162,-31.7 v 0.344 c -0.774,0.076 -1.405,0.229 -1.895,0.46 -0.49,0.23 -0.974,0.583 -1.451,1.056 -0.477,0.473 -0.873,1 -1.187,1.581 -0.314,0.581 -0.576,1.271 -0.787,2.071 0.844,-0.581 1.69,-0.871 2.54,-0.871 0.814,0 1.52,0.328 2.118,0.984 0.598,0.656 0.896,1.5 0.896,2.531 0,0.996 -0.302,1.904 -0.905,2.725 -0.727,0.996 -1.688,1.494 -2.882,1.494 -0.814,0 -1.505,-0.27 -2.074,-0.809 -1.113,-1.049 -1.67,-2.408 -1.67,-4.078 0,-1.066 0.214,-2.08 0.642,-3.041 0.428,-0.961 1.039,-1.813 1.833,-2.558 0.794,-0.745 1.555,-1.245 2.281,-1.503 0.726,-0.258 1.404,-0.387 2.031,-0.387 h 0.51 z m -5.469,6.152 c -0.104,0.79 -0.156,1.428 -0.156,1.913 0,0.563 0.104,1.173 0.312,1.831 0.208,0.658 0.518,1.18 0.928,1.566 0.298,0.274 0.662,0.412 1.089,0.412 0.509,0 0.965,-0.24 1.366,-0.72 0.401,-0.48 0.602,-1.164 0.602,-2.054 0,-1.001 -0.199,-1.867 -0.598,-2.598 -0.398,-0.732 -0.964,-1.098 -1.697,-1.098 -0.223,0 -0.461,0.047 -0.716,0.141 -0.255,0.094 -0.632,0.296 -1.13,0.607 z"
   id="path117"
   inkscape:connector-curvature="0" />
		</g>
	</g>
</g>
<g
   id="g119">
	<path
   d="m 40.26,529.872 h 1073"
   id="path121"
   inkscape:connector-curvature="0"
   style="fill:none;stroke:#808080" />
</g>
<g
   id="g123">
	<path
   d="m 40.26,529.872 h 13.5 m 1059.5,0 h -13.5"
   id="path125"
   inkscape:connector-curvature="0"
   style="fill:none;stroke:#000000" />
	<g
   transform="translate(76,556.1)"
   id="g127">
		<g
   id="g129">
			<path
   d="m -76,-24.232 h 4.547 v 1.328 H -76 v -1.328 z"
   id="path131"
   inkscape:connector-curvature="0" />
			<path
   d="m -70.084,-25.425 c 0,-1.359 0.205,-2.529 0.615,-3.512 0.41,-0.98 0.955,-1.712 1.634,-2.192 0.527,-0.381 1.072,-0.571 1.634,-0.571 0.914,0 1.733,0.466 2.459,1.397 0.907,1.154 1.361,2.719 1.361,4.693 0,1.383 -0.199,2.558 -0.598,3.524 -0.398,0.967 -0.906,1.668 -1.523,2.105 -0.618,0.436 -1.214,0.654 -1.788,0.654 -1.136,0 -2.082,-0.671 -2.837,-2.013 -0.638,-1.129 -0.957,-2.491 -0.957,-4.085 z m 1.719,0.222 c 0,1.642 0.202,2.981 0.607,4.02 0.334,0.874 0.833,1.311 1.495,1.311 0.316,0 0.645,-0.143 0.985,-0.427 0.34,-0.284 0.598,-0.761 0.774,-1.429 0.27,-1.009 0.404,-2.432 0.404,-4.267 0,-1.36 -0.141,-2.495 -0.422,-3.403 -0.211,-0.675 -0.484,-1.152 -0.818,-1.435 -0.24,-0.193 -0.531,-0.29 -0.871,-0.29 -0.399,0 -0.753,0.179 -1.064,0.537 -0.423,0.486 -0.71,1.252 -0.862,2.295 -0.152,1.045 -0.228,2.074 -0.228,3.088 z"
   id="path133"
   inkscape:connector-curvature="0" />
			<path
   d="m -59.482,-21.232 c 0.275,0 0.507,0.096 0.695,0.286 0.188,0.19 0.281,0.421 0.281,0.69 0,0.269 -0.096,0.5 -0.286,0.69 -0.19,0.19 -0.421,0.286 -0.69,0.286 -0.27,0 -0.5,-0.096 -0.69,-0.286 -0.191,-0.19 -0.286,-0.421 -0.286,-0.69 0,-0.275 0.095,-0.508 0.286,-0.695 0.19,-0.187 0.42,-0.281 0.69,-0.281 z"
   id="path135"
   inkscape:connector-curvature="0" />
			<path
   d="m -49.428,-31.451 -0.688,1.5 h -3.594 l -0.787,1.592 c 1.563,0.229 2.799,0.806 3.709,1.73 0.781,0.797 1.172,1.734 1.172,2.813 0,0.627 -0.128,1.207 -0.383,1.74 -0.255,0.533 -0.576,0.986 -0.963,1.361 -0.387,0.375 -0.818,0.677 -1.293,0.905 -0.674,0.322 -1.366,0.483 -2.076,0.483 -0.716,0 -1.236,-0.121 -1.562,-0.363 -0.326,-0.242 -0.488,-0.509 -0.488,-0.801 0,-0.163 0.067,-0.308 0.203,-0.433 0.135,-0.126 0.306,-0.188 0.512,-0.188 0.153,0 0.287,0.023 0.401,0.07 0.114,0.047 0.311,0.166 0.587,0.358 0.439,0.304 0.884,0.459 1.335,0.466 0.685,0 1.287,-0.26 1.805,-0.779 0.519,-0.521 0.778,-1.153 0.778,-1.899 0,-0.723 -0.232,-1.397 -0.695,-2.022 -0.463,-0.626 -1.103,-1.109 -1.917,-1.45 -0.64,-0.264 -1.51,-0.417 -2.612,-0.458 l 2.285,-4.625 h 4.271 z"
   id="path137"
   inkscape:connector-curvature="0" />
		</g>
	</g>
</g>
<g
   id="g139">
	<path
   d="m 40.26,497.071 h 1073"
   id="path141"
   inkscape:connector-curvature="0"
   style="fill:none;stroke:#808080" />
</g>
<g
   id="g143">
	<path
   d="m 40.26,497.071 h 13.5 m 1059.5,0 h -13.5"
   id="path145"
   inkscape:connector-curvature="0"
   style="fill:none;stroke:#000000" />
	<g
   transform="translate(76,523.3)"
   id="g147">
		<g
   id="g149">
			<path
   d="m -76,-24.232 h 4.547 v 1.328 H -76 v -1.328 z"
   id="path151"
   inkscape:connector-curvature="0" />
			<path
   d="m -70.084,-25.425 c 0,-1.359 0.205,-2.529 0.615,-3.512 0.41,-0.98 0.955,-1.712 1.634,-2.192 0.527,-0.381 1.072,-0.571 1.634,-0.571 0.914,0 1.733,0.466 2.459,1.397 0.907,1.154 1.361,2.719 1.361,4.693 0,1.383 -0.199,2.558 -0.598,3.524 -0.398,0.967 -0.906,1.668 -1.523,2.105 -0.618,0.436 -1.214,0.654 -1.788,0.654 -1.136,0 -2.082,-0.671 -2.837,-2.013 -0.638,-1.129 -0.957,-2.491 -0.957,-4.085 z m 1.719,0.223 c 0,1.642 0.202,2.981 0.607,4.02 0.334,0.874 0.833,1.311 1.495,1.311 0.316,0 0.645,-0.143 0.985,-0.427 0.34,-0.284 0.598,-0.761 0.774,-1.429 0.27,-1.009 0.404,-2.432 0.404,-4.267 0,-1.36 -0.141,-2.495 -0.422,-3.403 -0.211,-0.675 -0.484,-1.152 -0.818,-1.435 -0.24,-0.193 -0.531,-0.29 -0.871,-0.29 -0.399,0 -0.753,0.179 -1.064,0.537 -0.423,0.486 -0.71,1.252 -0.862,2.295 -0.152,1.044 -0.228,2.073 -0.228,3.088 z"
   id="path153"
   inkscape:connector-curvature="0" />
			<path
   d="m -59.482,-21.232 c 0.275,0 0.507,0.096 0.695,0.286 0.188,0.19 0.281,0.421 0.281,0.69 0,0.269 -0.096,0.5 -0.286,0.69 -0.19,0.19 -0.421,0.286 -0.69,0.286 -0.27,0 -0.5,-0.096 -0.69,-0.286 -0.191,-0.19 -0.286,-0.421 -0.286,-0.69 0,-0.275 0.095,-0.508 0.286,-0.695 0.19,-0.187 0.42,-0.281 0.69,-0.281 z"
   id="path155"
   inkscape:connector-curvature="0" />
			<path
   d="m -48.865,-23.935 v 1.25 h -1.594 v 3.156 h -1.453 v -3.156 h -5.047 v -1.127 l 5.531,-7.889 h 0.969 v 7.766 h 1.594 z m -3.047,0 v -5.883 l -4.186,5.883 h 4.186 z"
   id="path157"
   inkscape:connector-curvature="0" />
		</g>
	</g>
</g>
<g
   id="g159">
	<path
   d="m 40.26,464.271 h 1073"
   id="path161"
   inkscape:connector-curvature="0"
   style="fill:none;stroke:#808080" />
</g>
<g
   id="g163">
	<path
   d="m 40.26,464.271 h 13.5 m 1059.5,0 h -13.5"
   id="path165"
   inkscape:connector-curvature="0"
   style="fill:none;stroke:#000000" />
	<g
   transform="translate(76,490.5)"
   id="g167">
		<g
   id="g169">
			<path
   d="m -76,-24.231 h 4.547 v 1.328 H -76 v -1.328 z"
   id="path171"
   inkscape:connector-curvature="0" />
			<path
   d="m -70.084,-25.425 c 0,-1.359 0.205,-2.529 0.615,-3.512 0.41,-0.98 0.955,-1.712 1.634,-2.192 0.527,-0.381 1.072,-0.571 1.634,-0.571 0.914,0 1.733,0.466 2.459,1.397 0.907,1.154 1.361,2.719 1.361,4.693 0,1.383 -0.199,2.558 -0.598,3.524 -0.398,0.967 -0.906,1.668 -1.523,2.105 -0.618,0.436 -1.214,0.654 -1.788,0.654 -1.136,0 -2.082,-0.671 -2.837,-2.013 -0.638,-1.129 -0.957,-2.491 -0.957,-4.085 z m 1.719,0.223 c 0,1.642 0.202,2.981 0.607,4.02 0.334,0.874 0.833,1.311 1.495,1.311 0.316,0 0.645,-0.143 0.985,-0.427 0.34,-0.284 0.598,-0.761 0.774,-1.429 0.27,-1.009 0.404,-2.432 0.404,-4.267 0,-1.36 -0.141,-2.495 -0.422,-3.403 -0.211,-0.675 -0.484,-1.152 -0.818,-1.435 -0.24,-0.193 -0.531,-0.29 -0.871,-0.29 -0.399,0 -0.753,0.179 -1.064,0.537 -0.423,0.486 -0.71,1.252 -0.862,2.295 -0.152,1.044 -0.228,2.073 -0.228,3.088 z"
   id="path173"
   inkscape:connector-curvature="0" />
			<path
   d="m -59.482,-21.231 c 0.275,0 0.507,0.096 0.695,0.286 0.188,0.19 0.281,0.421 0.281,0.69 0,0.269 -0.096,0.5 -0.286,0.69 -0.19,0.19 -0.421,0.286 -0.69,0.286 -0.27,0 -0.5,-0.096 -0.69,-0.286 -0.191,-0.19 -0.286,-0.421 -0.286,-0.69 0,-0.275 0.095,-0.508 0.286,-0.695 0.19,-0.188 0.42,-0.281 0.69,-0.281 z"
   id="path175"
   inkscape:connector-curvature="0" />
			<path
   d="m -56.318,-29.185 c 0.34,-0.803 0.769,-1.424 1.287,-1.86 0.518,-0.437 1.164,-0.655 1.937,-0.655 0.955,0 1.687,0.311 2.196,0.932 0.387,0.463 0.58,0.958 0.58,1.485 0,0.867 -0.542,1.764 -1.625,2.689 0.73,0.287 1.283,0.697 1.657,1.23 0.374,0.533 0.562,1.16 0.562,1.881 0,1.031 -0.328,1.925 -0.985,2.681 -0.856,0.984 -2.096,1.477 -3.72,1.477 -0.803,0 -1.35,-0.1 -1.64,-0.298 -0.291,-0.199 -0.436,-0.412 -0.436,-0.64 0,-0.17 0.069,-0.319 0.207,-0.447 0.138,-0.129 0.304,-0.193 0.497,-0.193 0.146,0 0.296,0.023 0.449,0.07 0.1,0.029 0.326,0.135 0.678,0.318 0.352,0.183 0.596,0.293 0.73,0.328 0.217,0.063 0.449,0.096 0.695,0.096 0.599,0 1.12,-0.231 1.563,-0.694 0.443,-0.462 0.665,-1.01 0.665,-1.643 0,-0.463 -0.103,-0.913 -0.309,-1.353 -0.153,-0.328 -0.321,-0.577 -0.503,-0.747 -0.254,-0.234 -0.601,-0.446 -1.043,-0.638 -0.441,-0.189 -0.892,-0.285 -1.351,-0.285 h -0.283 v -0.266 c 0.465,-0.059 0.932,-0.225 1.4,-0.5 0.468,-0.275 0.809,-0.605 1.021,-0.991 0.212,-0.386 0.318,-0.81 0.318,-1.272 0,-0.602 -0.189,-1.089 -0.567,-1.461 -0.378,-0.371 -0.849,-0.557 -1.411,-0.557 -0.909,0 -1.668,0.484 -2.278,1.453 l -0.291,-0.14 z"
   id="path177"
   inkscape:connector-curvature="0" />
		</g>
	</g>
</g>
<g
   id="g179">
	<path
   d="m 40.26,431.472 h 1073"
   id="path181"
   inkscape:connector-curvature="0"
   style="fill:none;stroke:#808080" />
</g>
<g
   id="g183">
	<path
   d="m 40.26,431.472 h 13.5 m 1059.5,0 h -13.5"
   id="path185"
   inkscape:connector-curvature="0"
   style="fill:none;stroke:#000000" />
	<g
   transform="translate(76,457.7)"
   id="g187">
		<g
   id="g189">
			<path
   d="m -76,-24.231 h 4.547 v 1.328 H -76 v -1.328 z"
   id="path191"
   inkscape:connector-curvature="0" />
			<path
   d="m -70.084,-25.425 c 0,-1.359 0.205,-2.529 0.615,-3.512 0.41,-0.98 0.955,-1.712 1.634,-2.192 0.527,-0.381 1.072,-0.571 1.634,-0.571 0.914,0 1.733,0.466 2.459,1.397 0.907,1.154 1.361,2.719 1.361,4.693 0,1.383 -0.199,2.558 -0.598,3.524 -0.398,0.967 -0.906,1.668 -1.523,2.105 -0.618,0.436 -1.214,0.654 -1.788,0.654 -1.136,0 -2.082,-0.671 -2.837,-2.013 -0.638,-1.129 -0.957,-2.491 -0.957,-4.085 z m 1.719,0.223 c 0,1.642 0.202,2.981 0.607,4.02 0.334,0.874 0.833,1.311 1.495,1.311 0.316,0 0.645,-0.143 0.985,-0.427 0.34,-0.284 0.598,-0.761 0.774,-1.429 0.27,-1.009 0.404,-2.432 0.404,-4.267 0,-1.36 -0.141,-2.495 -0.422,-3.403 -0.211,-0.675 -0.484,-1.152 -0.818,-1.435 -0.24,-0.193 -0.531,-0.29 -0.871,-0.29 -0.399,0 -0.753,0.179 -1.064,0.537 -0.423,0.486 -0.71,1.252 -0.862,2.295 -0.152,1.044 -0.228,2.073 -0.228,3.088 z"
   id="path193"
   inkscape:connector-curvature="0" />
			<path
   d="m -59.482,-21.231 c 0.275,0 0.507,0.096 0.695,0.286 0.188,0.19 0.281,0.421 0.281,0.69 0,0.269 -0.096,0.5 -0.286,0.69 -0.19,0.19 -0.421,0.286 -0.69,0.286 -0.27,0 -0.5,-0.096 -0.69,-0.286 -0.191,-0.19 -0.286,-0.421 -0.286,-0.69 0,-0.275 0.095,-0.508 0.286,-0.695 0.19,-0.188 0.42,-0.281 0.69,-0.281 z"
   id="path195"
   inkscape:connector-curvature="0" />
			<path
   d="m -48.99,-21.839 -0.836,2.311 h -7.039 v -0.329 c 2.077,-1.886 3.538,-3.426 4.386,-4.62 0.847,-1.194 1.271,-2.287 1.271,-3.277 0,-0.758 -0.232,-1.382 -0.697,-1.869 -0.465,-0.488 -1.021,-0.732 -1.668,-0.732 -0.588,0 -1.116,0.17 -1.584,0.509 -0.468,0.339 -0.813,0.836 -1.037,1.491 h -0.326 c 0.146,-1.076 0.524,-1.903 1.132,-2.479 0.608,-0.576 1.368,-0.864 2.278,-0.864 0.969,0 1.779,0.312 2.428,0.934 0.649,0.622 0.974,1.356 0.974,2.201 0,0.605 -0.141,1.209 -0.423,1.813 -0.435,0.949 -1.14,1.954 -2.116,3.015 -1.464,1.589 -2.373,2.544 -2.726,2.866 h 3.095 c 0.63,0 1.071,-0.023 1.325,-0.07 0.253,-0.047 0.482,-0.143 0.687,-0.285 0.204,-0.145 0.382,-0.348 0.533,-0.611 h 0.343 z"
   id="path197"
   inkscape:connector-curvature="0" />
		</g>
	</g>
</g>
<g
   id="g199">
	<path
   d="m 40.26,398.771 h 1073"
   id="path201"
   inkscape:connector-curvature="0"
   style="fill:none;stroke:#808080" />
</g>
<g
   id="g203">
	<path
   d="m 40.26,398.771 h 13.5 m 1059.5,0 h -13.5"
   id="path205"
   inkscape:connector-curvature="0"
   style="fill:none;stroke:#000000" />
	<g
   transform="translate(76,425)"
   id="g207">
		<g
   id="g209">
			<path
   d="m -76,-24.231 h 4.547 v 1.328 H -76 v -1.328 z"
   id="path211"
   inkscape:connector-curvature="0" />
			<path
   d="m -70.084,-25.425 c 0,-1.359 0.205,-2.529 0.615,-3.512 0.41,-0.98 0.955,-1.712 1.634,-2.192 0.527,-0.381 1.072,-0.571 1.634,-0.571 0.914,0 1.733,0.466 2.459,1.397 0.907,1.154 1.361,2.719 1.361,4.693 0,1.383 -0.199,2.558 -0.598,3.524 -0.398,0.967 -0.906,1.668 -1.523,2.105 -0.618,0.436 -1.214,0.654 -1.788,0.654 -1.136,0 -2.082,-0.671 -2.837,-2.013 -0.638,-1.129 -0.957,-2.491 -0.957,-4.085 z m 1.719,0.223 c 0,1.642 0.202,2.981 0.607,4.02 0.334,0.874 0.833,1.311 1.495,1.311 0.316,0 0.645,-0.143 0.985,-0.427 0.34,-0.284 0.598,-0.761 0.774,-1.429 0.27,-1.009 0.404,-2.432 0.404,-4.267 0,-1.36 -0.141,-2.495 -0.422,-3.403 -0.211,-0.675 -0.484,-1.152 -0.818,-1.435 -0.24,-0.193 -0.531,-0.29 -0.871,-0.29 -0.399,0 -0.753,0.179 -1.064,0.537 -0.423,0.486 -0.71,1.252 -0.862,2.295 -0.152,1.044 -0.228,2.073 -0.228,3.088 z"
   id="path213"
   inkscape:connector-curvature="0" />
			<path
   d="m -59.482,-21.231 c 0.275,0 0.507,0.096 0.695,0.286 0.188,0.19 0.281,0.421 0.281,0.69 0,0.269 -0.096,0.5 -0.286,0.69 -0.19,0.19 -0.421,0.286 -0.69,0.286 -0.27,0 -0.5,-0.096 -0.69,-0.286 -0.191,-0.19 -0.286,-0.421 -0.286,-0.69 0,-0.275 0.095,-0.508 0.286,-0.695 0.19,-0.188 0.42,-0.281 0.69,-0.281 z"
   id="path215"
   inkscape:connector-curvature="0" />
			<path
   d="m -55.131,-30.294 2.897,-1.406 h 0.291 v 10.078 c 0,0.664 0.027,1.078 0.083,1.241 0.056,0.163 0.171,0.288 0.347,0.376 0.175,0.087 0.532,0.137 1.07,0.148 v 0.328 h -4.484 v -0.328 c 0.563,-0.012 0.927,-0.06 1.091,-0.145 0.165,-0.084 0.279,-0.197 0.344,-0.341 0.064,-0.143 0.097,-0.569 0.097,-1.28 v -6.453 c 0,-0.872 -0.029,-1.432 -0.088,-1.68 -0.041,-0.188 -0.115,-0.326 -0.223,-0.414 -0.108,-0.088 -0.238,-0.132 -0.39,-0.132 -0.216,0 -0.517,0.091 -0.902,0.272 l -0.133,-0.264 z"
   id="path217"
   inkscape:connector-curvature="0" />
		</g>
	</g>
</g>
<g
   id="g219">
	<path
   d="m 40.26,365.972 h 1073"
   id="path221"
   inkscape:connector-curvature="0"
   style="fill:none;stroke:#808080" />
</g>
<g
   id="g223">
	<path
   d="m 40.26,365.972 h 13.5 m 1059.5,0 h -13.5"
   id="path225"
   inkscape:connector-curvature="0"
   style="fill:none;stroke:#000000" />
	<g
   transform="translate(76,392.2)"
   id="g227">
		<g
   id="g229">
			<path
   d="m -56.584,-25.425 c 0,-1.359 0.205,-2.529 0.615,-3.512 0.41,-0.98 0.955,-1.712 1.634,-2.192 0.527,-0.381 1.072,-0.571 1.634,-0.571 0.914,0 1.733,0.466 2.459,1.397 0.907,1.154 1.361,2.719 1.361,4.693 0,1.383 -0.199,2.558 -0.598,3.524 -0.398,0.967 -0.906,1.668 -1.523,2.105 -0.618,0.436 -1.214,0.654 -1.788,0.654 -1.136,0 -2.082,-0.671 -2.837,-2.013 -0.638,-1.129 -0.957,-2.491 -0.957,-4.085 z m 1.719,0.223 c 0,1.642 0.202,2.981 0.607,4.02 0.334,0.874 0.833,1.311 1.495,1.311 0.316,0 0.645,-0.143 0.985,-0.427 0.34,-0.284 0.598,-0.761 0.774,-1.429 0.27,-1.009 0.404,-2.432 0.404,-4.267 0,-1.36 -0.141,-2.495 -0.422,-3.403 -0.211,-0.675 -0.484,-1.152 -0.818,-1.435 -0.24,-0.193 -0.531,-0.29 -0.871,-0.29 -0.399,0 -0.753,0.179 -1.064,0.537 -0.423,0.486 -0.71,1.252 -0.862,2.295 -0.152,1.044 -0.228,2.073 -0.228,3.088 z"
   id="path231"
   inkscape:connector-curvature="0" />
		</g>
	</g>
</g>
<g
   id="g233">
	<path
   d="m 40.26,333.172 h 1073"
   id="path235"
   inkscape:connector-curvature="0"
   style="fill:none;stroke:#808080" />
</g>
<g
   id="g237">
	<path
   d="m 40.26,333.172 h 13.5 m 1059.5,0 h -13.5"
   id="path239"
   inkscape:connector-curvature="0"
   style="fill:none;stroke:#000000" />
	<g
   transform="translate(76,359.4)"
   id="g241">
		<g
   id="g243">
			<path
   d="m -70.084,-25.424 c 0,-1.359 0.205,-2.529 0.615,-3.512 0.41,-0.98 0.955,-1.712 1.634,-2.192 0.527,-0.381 1.072,-0.571 1.634,-0.571 0.914,0 1.733,0.466 2.459,1.397 0.907,1.154 1.361,2.719 1.361,4.693 0,1.383 -0.199,2.558 -0.598,3.524 -0.398,0.967 -0.906,1.668 -1.523,2.105 -0.618,0.436 -1.214,0.654 -1.788,0.654 -1.136,0 -2.082,-0.671 -2.837,-2.013 -0.638,-1.129 -0.957,-2.492 -0.957,-4.085 z m 1.719,0.222 c 0,1.642 0.202,2.981 0.607,4.02 0.334,0.874 0.833,1.311 1.495,1.311 0.316,0 0.645,-0.143 0.985,-0.427 0.34,-0.284 0.598,-0.761 0.774,-1.429 0.27,-1.009 0.404,-2.432 0.404,-4.267 0,-1.36 -0.141,-2.495 -0.422,-3.403 -0.211,-0.675 -0.484,-1.152 -0.818,-1.435 -0.24,-0.193 -0.531,-0.29 -0.871,-0.29 -0.399,0 -0.753,0.179 -1.064,0.537 -0.423,0.486 -0.71,1.252 -0.862,2.295 -0.152,1.044 -0.228,2.074 -0.228,3.088 z"
   id="path245"
   inkscape:connector-curvature="0" />
			<path
   d="m -59.482,-21.231 c 0.275,0 0.507,0.096 0.695,0.286 0.188,0.19 0.281,0.421 0.281,0.69 0,0.269 -0.096,0.5 -0.286,0.69 -0.19,0.19 -0.421,0.286 -0.69,0.286 -0.27,0 -0.5,-0.096 -0.69,-0.286 -0.191,-0.19 -0.286,-0.421 -0.286,-0.69 0,-0.275 0.095,-0.508 0.286,-0.695 0.19,-0.187 0.42,-0.281 0.69,-0.281 z"
   id="path247"
   inkscape:connector-curvature="0" />
			<path
   d="m -55.131,-30.294 2.897,-1.406 h 0.291 v 10.078 c 0,0.664 0.027,1.078 0.083,1.241 0.056,0.163 0.171,0.288 0.347,0.376 0.175,0.087 0.532,0.137 1.07,0.148 v 0.328 h -4.484 v -0.328 c 0.563,-0.012 0.927,-0.06 1.091,-0.145 0.165,-0.084 0.279,-0.197 0.344,-0.341 0.064,-0.143 0.097,-0.569 0.097,-1.28 v -6.453 c 0,-0.872 -0.029,-1.432 -0.088,-1.68 -0.041,-0.188 -0.115,-0.326 -0.223,-0.414 -0.108,-0.088 -0.238,-0.132 -0.39,-0.132 -0.216,0 -0.517,0.091 -0.902,0.272 l -0.133,-0.264 z"
   id="path249"
   inkscape:connector-curvature="0" />
		</g>
	</g>
</g>
<g
   id="g251">
	<path
   d="m 40.26,300.472 h 1073"
   id="path253"
   inkscape:connector-curvature="0"
   style="fill:none;stroke:#808080" />
</g>
<g
   id="g255">
	<path
   d="m 40.26,300.472 h 13.5 m 1059.5,0 h -13.5"
   id="path257"
   inkscape:connector-curvature="0"
   style="fill:none;stroke:#000000" />
	<g
   transform="translate(76,326.7)"
   id="g259">
		<g
   id="g261">
			<path
   d="m -70.084,-25.425 c 0,-1.359 0.205,-2.529 0.615,-3.512 0.41,-0.98 0.955,-1.712 1.634,-2.192 0.527,-0.381 1.072,-0.571 1.634,-0.571 0.914,0 1.733,0.466 2.459,1.397 0.907,1.154 1.361,2.719 1.361,4.693 0,1.383 -0.199,2.558 -0.598,3.524 -0.398,0.967 -0.906,1.668 -1.523,2.105 -0.618,0.436 -1.214,0.654 -1.788,0.654 -1.136,0 -2.082,-0.671 -2.837,-2.013 -0.638,-1.129 -0.957,-2.491 -0.957,-4.085 z m 1.719,0.223 c 0,1.642 0.202,2.981 0.607,4.02 0.334,0.874 0.833,1.311 1.495,1.311 0.316,0 0.645,-0.143 0.985,-0.427 0.34,-0.284 0.598,-0.761 0.774,-1.429 0.27,-1.009 0.404,-2.432 0.404,-4.267 0,-1.36 -0.141,-2.495 -0.422,-3.403 -0.211,-0.675 -0.484,-1.152 -0.818,-1.435 -0.24,-0.193 -0.531,-0.29 -0.871,-0.29 -0.399,0 -0.753,0.179 -1.064,0.537 -0.423,0.486 -0.71,1.252 -0.862,2.295 -0.152,1.044 -0.228,2.073 -0.228,3.088 z"
   id="path263"
   inkscape:connector-curvature="0" />
			<path
   d="m -59.482,-21.231 c 0.275,0 0.507,0.096 0.695,0.286 0.188,0.19 0.281,0.421 0.281,0.69 0,0.269 -0.096,0.5 -0.286,0.69 -0.19,0.19 -0.421,0.286 -0.69,0.286 -0.27,0 -0.5,-0.096 -0.69,-0.286 -0.191,-0.19 -0.286,-0.421 -0.286,-0.69 0,-0.275 0.095,-0.508 0.286,-0.695 0.19,-0.188 0.42,-0.281 0.69,-0.281 z"
   id="path265"
   inkscape:connector-curvature="0" />
			<path
   d="m -48.99,-21.839 -0.836,2.311 h -7.039 v -0.329 c 2.077,-1.886 3.538,-3.426 4.386,-4.62 0.847,-1.194 1.271,-2.287 1.271,-3.277 0,-0.758 -0.232,-1.382 -0.697,-1.869 -0.465,-0.488 -1.021,-0.732 -1.668,-0.732 -0.588,0 -1.116,0.17 -1.584,0.509 -0.468,0.339 -0.813,0.836 -1.037,1.491 h -0.326 c 0.146,-1.076 0.524,-1.903 1.132,-2.479 0.608,-0.576 1.368,-0.864 2.278,-0.864 0.969,0 1.779,0.312 2.428,0.934 0.649,0.622 0.974,1.356 0.974,2.201 0,0.605 -0.141,1.209 -0.423,1.813 -0.435,0.949 -1.14,1.954 -2.116,3.015 -1.464,1.589 -2.373,2.544 -2.726,2.866 h 3.095 c 0.63,0 1.071,-0.023 1.325,-0.07 0.253,-0.047 0.482,-0.143 0.687,-0.285 0.204,-0.145 0.382,-0.348 0.533,-0.611 h 0.343 z"
   id="path267"
   inkscape:connector-curvature="0" />
		</g>
	</g>
</g>
<g
   id="g269">
	<path
   d="m 40.26,267.672 h 1073"
   id="path271"
   inkscape:connector-curvature="0"
   style="fill:none;stroke:#808080" />
</g>
<g
   id="g273">
	<path
   d="m 40.26,267.672 h 13.5 m 1059.5,0 h -13.5"
   id="path275"
   inkscape:connector-curvature="0"
   style="fill:none;stroke:#000000" />
	<g
   transform="translate(76,293.9)"
   id="g277">
		<g
   id="g279">
			<path
   d="m -70.084,-25.424 c 0,-1.359 0.205,-2.529 0.615,-3.512 0.41,-0.98 0.955,-1.712 1.634,-2.192 0.527,-0.381 1.072,-0.571 1.634,-0.571 0.914,0 1.733,0.466 2.459,1.397 0.907,1.154 1.361,2.719 1.361,4.693 0,1.383 -0.199,2.558 -0.598,3.524 -0.398,0.967 -0.906,1.668 -1.523,2.105 -0.618,0.436 -1.214,0.654 -1.788,0.654 -1.136,0 -2.082,-0.671 -2.837,-2.013 -0.638,-1.129 -0.957,-2.492 -0.957,-4.085 z m 1.719,0.222 c 0,1.642 0.202,2.981 0.607,4.02 0.334,0.874 0.833,1.311 1.495,1.311 0.316,0 0.645,-0.143 0.985,-0.427 0.34,-0.284 0.598,-0.761 0.774,-1.429 0.27,-1.009 0.404,-2.432 0.404,-4.267 0,-1.36 -0.141,-2.495 -0.422,-3.403 -0.211,-0.675 -0.484,-1.152 -0.818,-1.435 -0.24,-0.193 -0.531,-0.29 -0.871,-0.29 -0.399,0 -0.753,0.179 -1.064,0.537 -0.423,0.486 -0.71,1.252 -0.862,2.295 -0.152,1.044 -0.228,2.074 -0.228,3.088 z"
   id="path281"
   inkscape:connector-curvature="0" />
			<path
   d="m -59.482,-21.231 c 0.275,0 0.507,0.096 0.695,0.286 0.188,0.19 0.281,0.421 0.281,0.69 0,0.269 -0.096,0.5 -0.286,0.69 -0.19,0.19 -0.421,0.286 -0.69,0.286 -0.27,0 -0.5,-0.096 -0.69,-0.286 -0.191,-0.19 -0.286,-0.421 -0.286,-0.69 0,-0.275 0.095,-0.508 0.286,-0.695 0.19,-0.187 0.42,-0.281 0.69,-0.281 z"
   id="path283"
   inkscape:connector-curvature="0" />
			<path
   d="m -56.318,-29.184 c 0.34,-0.803 0.769,-1.424 1.287,-1.86 0.518,-0.437 1.164,-0.655 1.937,-0.655 0.955,0 1.687,0.311 2.196,0.932 0.387,0.463 0.58,0.958 0.58,1.485 0,0.867 -0.542,1.764 -1.625,2.689 0.73,0.287 1.283,0.697 1.657,1.23 0.374,0.533 0.562,1.16 0.562,1.881 0,1.031 -0.328,1.925 -0.985,2.681 -0.856,0.984 -2.096,1.477 -3.72,1.477 -0.803,0 -1.35,-0.1 -1.64,-0.298 -0.291,-0.199 -0.436,-0.412 -0.436,-0.64 0,-0.17 0.069,-0.319 0.207,-0.447 0.138,-0.129 0.304,-0.193 0.497,-0.193 0.146,0 0.296,0.023 0.449,0.07 0.1,0.029 0.326,0.135 0.678,0.318 0.352,0.183 0.596,0.293 0.73,0.328 0.217,0.063 0.449,0.096 0.695,0.096 0.599,0 1.12,-0.231 1.563,-0.694 0.443,-0.462 0.665,-1.01 0.665,-1.643 0,-0.463 -0.103,-0.913 -0.309,-1.353 -0.153,-0.328 -0.321,-0.577 -0.503,-0.747 -0.254,-0.234 -0.601,-0.446 -1.043,-0.638 -0.441,-0.189 -0.892,-0.285 -1.351,-0.285 h -0.283 v -0.266 c 0.465,-0.059 0.932,-0.225 1.4,-0.5 0.468,-0.275 0.809,-0.605 1.021,-0.991 0.212,-0.386 0.318,-0.81 0.318,-1.272 0,-0.602 -0.189,-1.089 -0.567,-1.461 -0.378,-0.371 -0.849,-0.557 -1.411,-0.557 -0.909,0 -1.668,0.484 -2.278,1.453 l -0.291,-0.14 z"
   id="path285"
   inkscape:connector-curvature="0" />
		</g>
	</g>
</g>
<g
   id="g287">
	<path
   d="m 40.26,234.872 h 1073"
   id="path289"
   inkscape:connector-curvature="0"
   style="fill:none;stroke:#808080" />
</g>
<g
   id="g291">
	<path
   d="m 40.26,234.872 h 13.5 m 1059.5,0 h -13.5"
   id="path293"
   inkscape:connector-curvature="0"
   style="fill:none;stroke:#000000" />
	<g
   transform="translate(76,261.1)"
   id="g295">
		<g
   id="g297">
			<path
   d="m -70.084,-25.425 c 0,-1.359 0.205,-2.529 0.615,-3.512 0.41,-0.98 0.955,-1.712 1.634,-2.192 0.527,-0.381 1.072,-0.571 1.634,-0.571 0.914,0 1.733,0.466 2.459,1.397 0.907,1.154 1.361,2.719 1.361,4.693 0,1.383 -0.199,2.558 -0.598,3.524 -0.398,0.967 -0.906,1.668 -1.523,2.105 -0.618,0.436 -1.214,0.654 -1.788,0.654 -1.136,0 -2.082,-0.671 -2.837,-2.013 -0.638,-1.129 -0.957,-2.491 -0.957,-4.085 z m 1.719,0.222 c 0,1.642 0.202,2.981 0.607,4.02 0.334,0.874 0.833,1.311 1.495,1.311 0.316,0 0.645,-0.143 0.985,-0.427 0.34,-0.284 0.598,-0.761 0.774,-1.429 0.27,-1.009 0.404,-2.432 0.404,-4.267 0,-1.36 -0.141,-2.495 -0.422,-3.403 -0.211,-0.675 -0.484,-1.152 -0.818,-1.435 -0.24,-0.193 -0.531,-0.29 -0.871,-0.29 -0.399,0 -0.753,0.179 -1.064,0.537 -0.423,0.486 -0.71,1.252 -0.862,2.295 -0.152,1.045 -0.228,2.074 -0.228,3.088 z"
   id="path299"
   inkscape:connector-curvature="0" />
			<path
   d="m -59.482,-21.232 c 0.275,0 0.507,0.096 0.695,0.286 0.188,0.19 0.281,0.421 0.281,0.69 0,0.269 -0.096,0.5 -0.286,0.69 -0.19,0.19 -0.421,0.286 -0.69,0.286 -0.27,0 -0.5,-0.096 -0.69,-0.286 -0.191,-0.19 -0.286,-0.421 -0.286,-0.69 0,-0.275 0.095,-0.508 0.286,-0.695 0.19,-0.187 0.42,-0.281 0.69,-0.281 z"
   id="path301"
   inkscape:connector-curvature="0" />
			<path
   d="m -48.865,-23.935 v 1.25 h -1.594 v 3.156 h -1.453 v -3.156 h -5.047 v -1.127 l 5.531,-7.889 h 0.969 v 7.766 h 1.594 z m -3.047,0 v -5.883 l -4.186,5.883 h 4.186 z"
   id="path303"
   inkscape:connector-curvature="0" />
		</g>
	</g>
</g>
<g
   id="g305">
	<path
   d="m 40.26,202.072 h 1073"
   id="path307"
   inkscape:connector-curvature="0"
   style="fill:none;stroke:#808080" />
</g>
<g
   id="g309">
	<path
   d="m 40.26,202.072 h 13.5 m 1059.5,0 h -13.5"
   id="path311"
   inkscape:connector-curvature="0"
   style="fill:none;stroke:#000000" />
	<g
   transform="translate(76,228.3)"
   id="g313">
		<g
   id="g315">
			<path
   d="m -70.084,-25.425 c 0,-1.359 0.205,-2.529 0.615,-3.512 0.41,-0.98 0.955,-1.712 1.634,-2.192 0.527,-0.381 1.072,-0.571 1.634,-0.571 0.914,0 1.733,0.466 2.459,1.397 0.907,1.154 1.361,2.719 1.361,4.693 0,1.383 -0.199,2.558 -0.598,3.524 -0.398,0.967 -0.906,1.668 -1.523,2.105 -0.618,0.436 -1.214,0.654 -1.788,0.654 -1.136,0 -2.082,-0.671 -2.837,-2.013 -0.638,-1.129 -0.957,-2.491 -0.957,-4.085 z m 1.719,0.223 c 0,1.642 0.202,2.981 0.607,4.02 0.334,0.874 0.833,1.311 1.495,1.311 0.316,0 0.645,-0.143 0.985,-0.427 0.34,-0.284 0.598,-0.761 0.774,-1.429 0.27,-1.009 0.404,-2.432 0.404,-4.267 0,-1.36 -0.141,-2.495 -0.422,-3.403 -0.211,-0.675 -0.484,-1.152 -0.818,-1.435 -0.24,-0.193 -0.531,-0.29 -0.871,-0.29 -0.399,0 -0.753,0.179 -1.064,0.537 -0.423,0.486 -0.71,1.252 -0.862,2.295 -0.152,1.044 -0.228,2.073 -0.228,3.088 z"
   id="path317"
   inkscape:connector-curvature="0" />
			<path
   d="m -59.482,-21.232 c 0.275,0 0.507,0.096 0.695,0.286 0.188,0.19 0.281,0.421 0.281,0.69 0,0.269 -0.096,0.5 -0.286,0.69 -0.19,0.19 -0.421,0.286 -0.69,0.286 -0.27,0 -0.5,-0.096 -0.69,-0.286 -0.191,-0.19 -0.286,-0.421 -0.286,-0.69 0,-0.275 0.095,-0.508 0.286,-0.695 0.19,-0.187 0.42,-0.281 0.69,-0.281 z"
   id="path319"
   inkscape:connector-curvature="0" />
			<path
   d="m -49.428,-31.45 -0.688,1.5 h -3.594 l -0.787,1.592 c 1.563,0.229 2.799,0.806 3.709,1.73 0.781,0.797 1.172,1.734 1.172,2.813 0,0.627 -0.128,1.207 -0.383,1.74 -0.255,0.533 -0.576,0.986 -0.963,1.361 -0.387,0.375 -0.818,0.677 -1.293,0.905 -0.674,0.322 -1.366,0.483 -2.076,0.483 -0.716,0 -1.236,-0.121 -1.562,-0.363 -0.326,-0.242 -0.488,-0.509 -0.488,-0.801 0,-0.163 0.067,-0.308 0.203,-0.433 0.135,-0.126 0.306,-0.188 0.512,-0.188 0.153,0 0.287,0.023 0.401,0.07 0.114,0.047 0.311,0.166 0.587,0.358 0.439,0.304 0.884,0.459 1.335,0.466 0.685,0 1.287,-0.26 1.805,-0.779 0.519,-0.521 0.778,-1.153 0.778,-1.899 0,-0.723 -0.232,-1.397 -0.695,-2.022 -0.463,-0.626 -1.103,-1.109 -1.917,-1.45 -0.64,-0.264 -1.51,-0.417 -2.612,-0.458 l 2.285,-4.625 h 4.271 z"
   id="path321"
   inkscape:connector-curvature="0" />
		</g>
	</g>
</g>
<g
   id="g323">
	<path
   d="m 40.26,169.372 h 1073"
   id="path325"
   inkscape:connector-curvature="0"
   style="fill:none;stroke:#808080" />
</g>
<g
   id="g327">
	<path
   d="m 40.26,169.372 h 13.5 m 1059.5,0 h -13.5"
   id="path329"
   inkscape:connector-curvature="0"
   style="fill:none;stroke:#000000" />
	<g
   transform="translate(76,195.6)"
   id="g331">
		<g
   id="g333">
			<path
   d="m -70.084,-25.425 c 0,-1.359 0.205,-2.529 0.615,-3.512 0.41,-0.98 0.955,-1.712 1.634,-2.192 0.527,-0.381 1.072,-0.571 1.634,-0.571 0.914,0 1.733,0.466 2.459,1.397 0.907,1.154 1.361,2.719 1.361,4.693 0,1.383 -0.199,2.558 -0.598,3.524 -0.398,0.967 -0.906,1.668 -1.523,2.105 -0.618,0.436 -1.214,0.654 -1.788,0.654 -1.136,0 -2.082,-0.671 -2.837,-2.013 -0.638,-1.129 -0.957,-2.491 -0.957,-4.085 z m 1.719,0.222 c 0,1.642 0.202,2.981 0.607,4.02 0.334,0.874 0.833,1.311 1.495,1.311 0.316,0 0.645,-0.143 0.985,-0.427 0.34,-0.284 0.598,-0.761 0.774,-1.429 0.27,-1.009 0.404,-2.432 0.404,-4.267 0,-1.36 -0.141,-2.495 -0.422,-3.403 -0.211,-0.675 -0.484,-1.152 -0.818,-1.435 -0.24,-0.193 -0.531,-0.29 -0.871,-0.29 -0.399,0 -0.753,0.179 -1.064,0.537 -0.423,0.486 -0.71,1.252 -0.862,2.295 -0.152,1.045 -0.228,2.074 -0.228,3.088 z"
   id="path335"
   inkscape:connector-curvature="0" />
			<path
   d="m -59.482,-21.232 c 0.275,0 0.507,0.096 0.695,0.286 0.188,0.19 0.281,0.421 0.281,0.69 0,0.269 -0.096,0.5 -0.286,0.69 -0.19,0.19 -0.421,0.286 -0.69,0.286 -0.27,0 -0.5,-0.096 -0.69,-0.286 -0.191,-0.19 -0.286,-0.421 -0.286,-0.69 0,-0.275 0.095,-0.508 0.286,-0.695 0.19,-0.187 0.42,-0.281 0.69,-0.281 z"
   id="path337"
   inkscape:connector-curvature="0" />
			<path
   d="m -49.162,-31.701 v 0.344 c -0.774,0.076 -1.405,0.229 -1.895,0.46 -0.49,0.23 -0.974,0.583 -1.451,1.056 -0.477,0.473 -0.873,1 -1.187,1.581 -0.314,0.581 -0.576,1.271 -0.787,2.071 0.844,-0.581 1.69,-0.871 2.54,-0.871 0.814,0 1.52,0.328 2.118,0.984 0.598,0.656 0.896,1.5 0.896,2.531 0,0.996 -0.302,1.904 -0.905,2.725 -0.727,0.996 -1.688,1.494 -2.882,1.494 -0.814,0 -1.505,-0.27 -2.074,-0.809 -1.113,-1.049 -1.67,-2.408 -1.67,-4.078 0,-1.066 0.214,-2.08 0.642,-3.041 0.428,-0.961 1.039,-1.813 1.833,-2.558 0.794,-0.745 1.555,-1.245 2.281,-1.503 0.726,-0.258 1.404,-0.387 2.031,-0.387 h 0.51 z m -5.469,6.153 c -0.104,0.79 -0.156,1.428 -0.156,1.913 0,0.563 0.104,1.173 0.312,1.831 0.208,0.658 0.518,1.18 0.928,1.566 0.298,0.274 0.662,0.412 1.089,0.412 0.509,0 0.965,-0.24 1.366,-0.72 0.401,-0.48 0.602,-1.164 0.602,-2.054 0,-1.001 -0.199,-1.867 -0.598,-2.598 -0.398,-0.732 -0.964,-1.098 -1.697,-1.098 -0.223,0 -0.461,0.047 -0.716,0.141 -0.255,0.094 -0.632,0.296 -1.13,0.607 z"
   id="path339"
   inkscape:connector-curvature="0" />
		</g>
	</g>
</g>
<g
   id="g341">
	<path
   d="m 40.26,136.572 h 1073"
   id="path343"
   inkscape:connector-curvature="0"
   style="fill:none;stroke:#808080" />
</g>
<g
   id="g345">
	<path
   d="m 40.26,136.572 h 13.5 m 1059.5,0 h -13.5"
   id="path347"
   inkscape:connector-curvature="0"
   style="fill:none;stroke:#000000" />
	<g
   transform="translate(76,162.8)"
   id="g349">
		<g
   id="g351">
			<path
   d="m -70.084,-25.425 c 0,-1.359 0.205,-2.529 0.615,-3.512 0.41,-0.98 0.955,-1.712 1.634,-2.192 0.527,-0.381 1.072,-0.571 1.634,-0.571 0.914,0 1.733,0.466 2.459,1.397 0.907,1.154 1.361,2.719 1.361,4.693 0,1.383 -0.199,2.558 -0.598,3.524 -0.398,0.967 -0.906,1.668 -1.523,2.105 -0.618,0.436 -1.214,0.654 -1.788,0.654 -1.136,0 -2.082,-0.671 -2.837,-2.013 -0.638,-1.129 -0.957,-2.491 -0.957,-4.085 z m 1.719,0.223 c 0,1.642 0.202,2.981 0.607,4.02 0.334,0.874 0.833,1.311 1.495,1.311 0.316,0 0.645,-0.143 0.985,-0.427 0.34,-0.284 0.598,-0.761 0.774,-1.429 0.27,-1.009 0.404,-2.432 0.404,-4.267 0,-1.36 -0.141,-2.495 -0.422,-3.403 -0.211,-0.675 -0.484,-1.152 -0.818,-1.435 -0.24,-0.193 -0.531,-0.29 -0.871,-0.29 -0.399,0 -0.753,0.179 -1.064,0.537 -0.423,0.486 -0.71,1.252 -0.862,2.295 -0.152,1.044 -0.228,2.073 -0.228,3.088 z"
   id="path353"
   inkscape:connector-curvature="0" />
			<path
   d="m -59.482,-21.232 c 0.275,0 0.507,0.096 0.695,0.286 0.188,0.19 0.281,0.421 0.281,0.69 0,0.269 -0.096,0.5 -0.286,0.69 -0.19,0.19 -0.421,0.286 -0.69,0.286 -0.27,0 -0.5,-0.096 -0.69,-0.286 -0.191,-0.19 -0.286,-0.421 -0.286,-0.69 0,-0.275 0.095,-0.508 0.286,-0.695 0.19,-0.187 0.42,-0.281 0.69,-0.281 z"
   id="path355"
   inkscape:connector-curvature="0" />
			<path
   d="m -55.428,-31.45 h 6.386 v 0.338 l -3.964,11.834 h -0.988 l 3.566,-10.734 h -3.281 c -0.663,0 -1.135,0.079 -1.417,0.237 -0.493,0.27 -0.889,0.686 -1.188,1.248 l -0.255,-0.097 1.141,-2.826 z"
   id="path357"
   inkscape:connector-curvature="0" />
		</g>
	</g>
</g>
<g
   id="g359">
	<path
   d="m 40.26,103.771 h 1073"
   id="path361"
   inkscape:connector-curvature="0"
   style="fill:none;stroke:#808080" />
</g>
<g
   id="g363">
	<path
   d="m 40.26,103.771 h 13.5 m 1059.5,0 h -13.5"
   id="path365"
   inkscape:connector-curvature="0"
   style="fill:none;stroke:#000000" />
	<g
   transform="translate(76,130)"
   id="g367">
		<g
   id="g369">
			<path
   d="m -70.084,-25.425 c 0,-1.359 0.205,-2.529 0.615,-3.512 0.41,-0.98 0.955,-1.712 1.634,-2.192 0.527,-0.381 1.072,-0.571 1.634,-0.571 0.914,0 1.733,0.466 2.459,1.397 0.907,1.154 1.361,2.719 1.361,4.693 0,1.383 -0.199,2.558 -0.598,3.524 -0.398,0.967 -0.906,1.668 -1.523,2.105 -0.618,0.436 -1.214,0.654 -1.788,0.654 -1.136,0 -2.082,-0.671 -2.837,-2.013 -0.638,-1.129 -0.957,-2.491 -0.957,-4.085 z m 1.719,0.223 c 0,1.642 0.202,2.981 0.607,4.02 0.334,0.874 0.833,1.311 1.495,1.311 0.316,0 0.645,-0.143 0.985,-0.427 0.34,-0.284 0.598,-0.761 0.774,-1.429 0.27,-1.009 0.404,-2.432 0.404,-4.267 0,-1.36 -0.141,-2.495 -0.422,-3.403 -0.211,-0.675 -0.484,-1.152 -0.818,-1.435 -0.24,-0.193 -0.531,-0.29 -0.871,-0.29 -0.399,0 -0.753,0.179 -1.064,0.537 -0.423,0.486 -0.71,1.252 -0.862,2.295 -0.152,1.044 -0.228,2.073 -0.228,3.088 z"
   id="path371"
   inkscape:connector-curvature="0" />
			<path
   d="m -59.482,-21.231 c 0.275,0 0.507,0.096 0.695,0.286 0.188,0.19 0.281,0.421 0.281,0.69 0,0.269 -0.096,0.5 -0.286,0.69 -0.19,0.19 -0.421,0.286 -0.69,0.286 -0.27,0 -0.5,-0.096 -0.69,-0.286 -0.191,-0.19 -0.286,-0.421 -0.286,-0.69 0,-0.275 0.095,-0.508 0.286,-0.695 0.19,-0.188 0.42,-0.281 0.69,-0.281 z"
   id="path373"
   inkscape:connector-curvature="0" />
			<path
   d="m -53.781,-25.531 c -0.947,-0.774 -1.557,-1.396 -1.83,-1.865 -0.273,-0.47 -0.41,-0.956 -0.41,-1.461 0,-0.774 0.299,-1.442 0.897,-2.002 0.598,-0.561 1.393,-0.841 2.384,-0.841 0.962,0 1.736,0.262 2.323,0.783 0.586,0.522 0.88,1.118 0.88,1.787 0,0.445 -0.158,0.9 -0.475,1.364 -0.317,0.464 -0.975,1.009 -1.977,1.637 1.032,0.796 1.715,1.422 2.049,1.879 0.445,0.597 0.668,1.226 0.668,1.888 0,0.836 -0.319,1.552 -0.958,2.146 -0.639,0.594 -1.478,0.891 -2.515,0.891 -1.131,0 -2.014,-0.354 -2.646,-1.063 -0.504,-0.567 -0.756,-1.188 -0.756,-1.86 0,-0.526 0.177,-1.049 0.532,-1.567 0.355,-0.518 0.966,-1.09 1.834,-1.716 z m 0.413,0.334 c -0.487,0.407 -0.848,0.852 -1.083,1.332 -0.234,0.48 -0.352,1 -0.352,1.56 0,0.751 0.207,1.353 0.621,1.804 0.414,0.451 0.941,0.677 1.581,0.677 0.634,0 1.142,-0.178 1.523,-0.533 0.381,-0.354 0.572,-0.785 0.572,-1.293 0,-0.419 -0.111,-0.794 -0.335,-1.126 -0.417,-0.619 -1.259,-1.425 -2.527,-2.421 z m 0.967,-1.275 c 0.702,-0.635 1.146,-1.137 1.333,-1.504 0.187,-0.367 0.281,-0.783 0.281,-1.248 0,-0.618 -0.173,-1.102 -0.519,-1.451 -0.346,-0.351 -0.817,-0.525 -1.414,-0.525 -0.598,0 -1.083,0.174 -1.458,0.521 -0.375,0.347 -0.563,0.753 -0.563,1.218 0,0.306 0.078,0.611 0.233,0.917 0.155,0.306 0.376,0.597 0.664,0.874 l 1.443,1.198 z"
   id="path375"
   inkscape:connector-curvature="0" />
		</g>
	</g>
</g>
<g
   id="g377">
	<path
   d="m 40.26,70.972 h 1073"
   id="path379"
   inkscape:connector-curvature="0"
   style="fill:none;stroke:#808080" />
</g>
<g
   id="g381">
	<path
   d="m 40.26,70.972 h 13.5 m 1059.5,0 h -13.5"
   id="path383"
   inkscape:connector-curvature="0"
   style="fill:none;stroke:#000000" />
	<g
   transform="translate(76,97.2)"
   id="g385">
		<g
   id="g387">
			<path
   d="m -70.084,-25.425 c 0,-1.359 0.205,-2.529 0.615,-3.512 0.41,-0.98 0.955,-1.712 1.634,-2.192 0.527,-0.381 1.072,-0.571 1.634,-0.571 0.914,0 1.733,0.466 2.459,1.397 0.907,1.154 1.361,2.719 1.361,4.693 0,1.383 -0.199,2.558 -0.598,3.524 -0.398,0.967 -0.906,1.668 -1.523,2.105 -0.618,0.436 -1.214,0.654 -1.788,0.654 -1.136,0 -2.082,-0.671 -2.837,-2.013 -0.638,-1.129 -0.957,-2.491 -0.957,-4.085 z m 1.719,0.223 c 0,1.642 0.202,2.981 0.607,4.02 0.334,0.874 0.833,1.311 1.495,1.311 0.316,0 0.645,-0.143 0.985,-0.427 0.34,-0.284 0.598,-0.761 0.774,-1.429 0.27,-1.009 0.404,-2.432 0.404,-4.267 0,-1.36 -0.141,-2.495 -0.422,-3.403 -0.211,-0.675 -0.484,-1.152 -0.818,-1.435 -0.24,-0.193 -0.531,-0.29 -0.871,-0.29 -0.399,0 -0.753,0.179 -1.064,0.537 -0.423,0.486 -0.71,1.252 -0.862,2.295 -0.152,1.044 -0.228,2.073 -0.228,3.088 z"
   id="path389"
   inkscape:connector-curvature="0" />
			<path
   d="m -59.482,-21.231 c 0.275,0 0.507,0.096 0.695,0.286 0.188,0.19 0.281,0.421 0.281,0.69 0,0.269 -0.096,0.5 -0.286,0.69 -0.19,0.19 -0.421,0.286 -0.69,0.286 -0.27,0 -0.5,-0.096 -0.69,-0.286 -0.191,-0.19 -0.286,-0.421 -0.286,-0.69 0,-0.275 0.095,-0.508 0.286,-0.695 0.19,-0.188 0.42,-0.281 0.69,-0.281 z"
   id="path391"
   inkscape:connector-curvature="0" />
			<path
   d="m -56.303,-19.278 v -0.328 c 0.762,-0.012 1.472,-0.189 2.128,-0.532 0.656,-0.343 1.292,-0.942 1.904,-1.798 0.613,-0.856 1.04,-1.797 1.28,-2.82 -0.92,0.59 -1.752,0.885 -2.497,0.885 -0.838,0 -1.556,-0.324 -2.154,-0.972 -0.598,-0.648 -0.896,-1.509 -0.896,-2.582 0,-1.044 0.299,-1.973 0.896,-2.788 0.721,-0.99 1.661,-1.486 2.822,-1.486 0.979,0 1.817,0.404 2.514,1.214 0.855,1.003 1.283,2.241 1.283,3.713 0,1.325 -0.325,2.562 -0.976,3.708 -0.651,1.146 -1.557,2.098 -2.717,2.854 -0.944,0.622 -1.973,0.933 -3.087,0.933 h -0.5 z m 5.453,-6.129 c 0.104,-0.762 0.156,-1.371 0.156,-1.829 0,-0.568 -0.097,-1.183 -0.29,-1.842 -0.193,-0.659 -0.468,-1.165 -0.822,-1.517 -0.354,-0.352 -0.757,-0.527 -1.208,-0.527 -0.522,0 -0.979,0.234 -1.372,0.703 -0.393,0.469 -0.589,1.167 -0.589,2.093 0,1.236 0.261,2.204 0.783,2.901 0.381,0.504 0.85,0.756 1.408,0.756 0.27,0 0.589,-0.064 0.958,-0.193 0.369,-0.129 0.695,-0.311 0.976,-0.545 z"
   id="path393"
   inkscape:connector-curvature="0" />
		</g>
	</g>
</g>
<g
   id="g395">
	<path
   d="m 40.26,38.271 h 1073"
   id="path397"
   inkscape:connector-curvature="0"
   style="fill:none;stroke:#808080" />
</g>
<g
   id="g399">
	<path
   d="m 40.26,38.271 h 13.5 m 1059.5,0 h -13.5"
   id="path401"
   inkscape:connector-curvature="0"
   style="fill:none;stroke:#000000" />
	<g
   transform="translate(76,64.5)"
   id="g403">
		<g
   id="g405">
			<path
   d="m -55.131,-30.294 2.897,-1.406 h 0.291 v 10.078 c 0,0.664 0.027,1.078 0.083,1.241 0.056,0.163 0.171,0.288 0.347,0.376 0.175,0.087 0.532,0.137 1.07,0.148 v 0.328 h -4.484 v -0.328 c 0.563,-0.012 0.927,-0.06 1.091,-0.145 0.165,-0.084 0.279,-0.197 0.344,-0.341 0.064,-0.143 0.097,-0.569 0.097,-1.28 v -6.453 c 0,-0.872 -0.029,-1.432 -0.088,-1.68 -0.041,-0.188 -0.115,-0.326 -0.223,-0.414 -0.108,-0.088 -0.238,-0.132 -0.39,-0.132 -0.216,0 -0.517,0.091 -0.902,0.272 l -0.133,-0.264 z"
   id="path407"
   inkscape:connector-curvature="0" />
		</g>
	</g>
</g>
<g
   id="g409">
	<path
   d="m 40.26,5.472 h 1073"
   id="path411"
   inkscape:connector-curvature="0"
   style="fill:none;stroke:#808080" />
</g>
<g
   id="g413">
	<path
   d="m 40.26,5.472 h 13.5 m 1059.5,0 h -13.5"
   id="path415"
   inkscape:connector-curvature="0"
   style="fill:none;stroke:#000000" />
	<g
   transform="translate(76,31.7)"
   id="g417">
		<g
   id="g419">
			<path
   d="m -68.631,-30.294 2.897,-1.406 h 0.291 v 10.078 c 0,0.664 0.027,1.078 0.083,1.241 0.056,0.163 0.171,0.288 0.347,0.376 0.175,0.087 0.532,0.137 1.07,0.148 v 0.328 h -4.484 v -0.328 c 0.563,-0.012 0.927,-0.06 1.091,-0.145 0.165,-0.084 0.279,-0.197 0.344,-0.341 0.064,-0.143 0.097,-0.569 0.097,-1.28 v -6.453 c 0,-0.872 -0.029,-1.432 -0.088,-1.68 -0.041,-0.188 -0.115,-0.326 -0.223,-0.414 -0.108,-0.088 -0.238,-0.132 -0.39,-0.132 -0.216,0 -0.517,0.091 -0.902,0.272 l -0.133,-0.264 z"
   id="path421"
   inkscape:connector-curvature="0" />
			<path
   d="m -59.482,-21.231 c 0.275,0 0.507,0.096 0.695,0.286 0.188,0.19 0.281,0.421 0.281,0.69 0,0.269 -0.096,0.5 -0.286,0.69 -0.19,0.19 -0.421,0.286 -0.69,0.286 -0.27,0 -0.5,-0.096 -0.69,-0.286 -0.191,-0.19 -0.286,-0.421 -0.286,-0.69 0,-0.275 0.095,-0.508 0.286,-0.695 0.19,-0.188 0.42,-0.281 0.69,-0.281 z"
   id="path423"
   inkscape:connector-curvature="0" />
			<path
   d="m -55.131,-30.294 2.897,-1.406 h 0.291 v 10.078 c 0,0.664 0.027,1.078 0.083,1.241 0.056,0.163 0.171,0.288 0.347,0.376 0.175,0.087 0.532,0.137 1.07,0.148 v 0.328 h -4.484 v -0.328 c 0.563,-0.012 0.927,-0.06 1.091,-0.145 0.165,-0.084 0.279,-0.197 0.344,-0.341 0.064,-0.143 0.097,-0.569 0.097,-1.28 v -6.453 c 0,-0.872 -0.029,-1.432 -0.088,-1.68 -0.041,-0.188 -0.115,-0.326 -0.223,-0.414 -0.108,-0.088 -0.238,-0.132 -0.39,-0.132 -0.216,0 -0.517,0.091 -0.902,0.272 l -0.133,-0.264 z"
   id="path425"
   inkscape:connector-curvature="0" />
		</g>
	</g>
</g>
<g
   id="g427">
	<path
   d="m 40.26,726.472 v -721"
   id="path429"
   inkscape:connector-curvature="0"
   style="fill:none;stroke:#808080" />
</g>
<g
   id="g431">
	<path
   d="m 40.26,726.472 v -13.5 m 0,-707.5 v 13.5"
   id="path433"
   inkscape:connector-curvature="0"
   style="fill:none;stroke:#000000" />
</g>
<g
   id="g435">
	<path
   d="m 107.36,726.472 v -721"
   id="path437"
   inkscape:connector-curvature="0"
   style="fill:none;stroke:#808080" />
</g>
<g
   id="g439">
	<path
   d="m 107.36,726.472 v -13.5 m 0,-707.5 v 13.5"
   id="path441"
   inkscape:connector-curvature="0"
   style="fill:none;stroke:#000000" />
</g>
<g
   id="g443">
	<path
   d="m 174.36,726.472 v -721"
   id="path445"
   inkscape:connector-curvature="0"
   style="fill:none;stroke:#808080" />
</g>
<g
   id="g447">
	<path
   d="m 174.36,726.472 v -13.5 m 0,-707.5 v 13.5"
   id="path449"
   inkscape:connector-curvature="0"
   style="fill:none;stroke:#000000" />
</g>
<g
   id="g451">
	<path
   d="m 241.46,726.472 v -721"
   id="path453"
   inkscape:connector-curvature="0"
   style="fill:none;stroke:#808080" />
</g>
<g
   id="g455">
	<path
   d="m 241.46,726.472 v -13.5 m 0,-707.5 v 13.5"
   id="path457"
   inkscape:connector-curvature="0"
   style="fill:none;stroke:#000000" />
</g>
<g
   id="g459">
	<path
   d="m 308.56,726.472 v -721"
   id="path461"
   inkscape:connector-curvature="0"
   style="fill:none;stroke:#808080" />
</g>
<g
   id="g463">
	<path
   d="m 308.56,726.472 v -13.5 m 0,-707.5 v 13.5"
   id="path465"
   inkscape:connector-curvature="0"
   style="fill:none;stroke:#000000" />
</g>
<g
   id="g467">
	<path
   d="m 375.56,726.472 v -721"
   id="path469"
   inkscape:connector-curvature="0"
   style="fill:none;stroke:#808080" />
</g>
<g
   id="g471">
	<path
   d="m 375.56,726.472 v -13.5 m 0,-707.5 v 13.5"
   id="path473"
   inkscape:connector-curvature="0"
   style="fill:none;stroke:#000000" />
</g>
<g
   id="g475">
	<path
   d="m 442.66,726.472 v -721"
   id="path477"
   inkscape:connector-curvature="0"
   style="fill:none;stroke:#808080" />
</g>
<g
   id="g479">
	<path
   d="m 442.66,726.472 v -13.5 m 0,-707.5 v 13.5"
   id="path481"
   inkscape:connector-curvature="0"
   style="fill:none;stroke:#000000" />
</g>
<g
   id="g483">
	<path
   d="m 509.66,726.472 v -721"
   id="path485"
   inkscape:connector-curvature="0"
   style="fill:none;stroke:#808080" />
</g>
<g
   id="g487">
	<path
   d="m 509.66,726.472 v -13.5 m 0,-707.5 v 13.5"
   id="path489"
   inkscape:connector-curvature="0"
   style="fill:none;stroke:#000000" />
</g>
<g
   id="g491">
	<path
   d="m 576.76,726.472 v -721"
   id="path493"
   inkscape:connector-curvature="0"
   style="fill:none;stroke:#808080" />
</g>
<g
   id="g495">
	<path
   d="m 576.76,726.472 v -13.5 m 0,-707.5 v 13.5"
   id="path497"
   inkscape:connector-curvature="0"
   style="fill:none;stroke:#000000" />
</g>
<g
   id="g499">
	<path
   d="m 643.859,726.472 v -721"
   id="path501"
   inkscape:connector-curvature="0"
   style="fill:none;stroke:#808080" />
</g>
<g
   id="g503">
	<path
   d="m 643.859,726.472 v -13.5 m 0,-707.5 v 13.5"
   id="path505"
   inkscape:connector-curvature="0"
   style="fill:none;stroke:#000000" />
</g>
<g
   id="g507">
	<path
   d="m 710.859,726.472 v -721"
   id="path509"
   inkscape:connector-curvature="0"
   style="fill:none;stroke:#808080" />
</g>
<g
   id="g511">
	<path
   d="m 710.859,726.472 v -13.5 m 0,-707.5 v 13.5"
   id="path513"
   inkscape:connector-curvature="0"
   style="fill:none;stroke:#000000" />
</g>
<g
   id="g515">
	<path
   d="m 777.96,726.472 v -721"
   id="path517"
   inkscape:connector-curvature="0"
   style="fill:none;stroke:#808080" />
</g>
<g
   id="g519">
	<path
   d="m 777.96,726.472 v -13.5 m 0,-707.5 v 13.5"
   id="path521"
   inkscape:connector-curvature="0"
   style="fill:none;stroke:#000000" />
</g>
<g
   id="g523">
	<path
   d="m 845.06,726.472 v -721"
   id="path525"
   inkscape:connector-curvature="0"
   style="fill:none;stroke:#808080" />
</g>
<g
   id="g527">
	<path
   d="m 845.06,726.472 v -13.5 m 0,-707.5 v 13.5"
   id="path529"
   inkscape:connector-curvature="0"
   style="fill:none;stroke:#000000" />
</g>
<g
   id="g531">
	<path
   d="m 912.06,726.472 v -721"
   id="path533"
   inkscape:connector-curvature="0"
   style="fill:none;stroke:#808080" />
</g>
<g
   id="g535">
	<path
   d="m 912.06,726.472 v -13.5 m 0,-707.5 v 13.5"
   id="path537"
   inkscape:connector-curvature="0"
   style="fill:none;stroke:#000000" />
</g>
<g
   id="g539">
	<path
   d="m 979.16,726.472 v -721"
   id="path541"
   inkscape:connector-curvature="0"
   style="fill:none;stroke:#808080" />
</g>
<g
   id="g543">
	<path
   d="m 979.16,726.472 v -13.5 m 0,-707.5 v 13.5"
   id="path545"
   inkscape:connector-curvature="0"
   style="fill:none;stroke:#000000" />
</g>
<g
   id="g547">
	<path
   d="m 1046.16,726.472 v -721"
   id="path549"
   inkscape:connector-curvature="0"
   style="fill:none;stroke:#808080" />
</g>
<g
   id="g551">
	<path
   d="m 1046.16,726.472 v -13.5 m 0,-707.5 v 13.5"
   id="path553"
   inkscape:connector-curvature="0"
   style="fill:none;stroke:#000000" />
</g>
<g
   id="g555">
	<path
   d="m 1113.26,726.472 v -721"
   id="path557"
   inkscape:connector-curvature="0"
   style="fill:none;stroke:#808080" />
</g>
<g
   id="g559">
	<path
   d="m 1113.26,726.472 v -13.5 m 0,-707.5 v 13.5"
   id="path561"
   inkscape:connector-curvature="0"
   style="fill:none;stroke:#000000" />
</g>
<g
   id="g563">
	<path
   d="m 40.26,365.972 h 1073 m -536.5,360.5 v -721"
   id="path565"
   inkscape:connector-curvature="0"
   style="fill:none;stroke:#333333;stroke-width:2" />
</g>
<g
   id="g567">
	<path
   d="m 40.26,5.472 v 721 h 1073 v -721 h -1073 z"
   id="path569"
   inkscape:connector-curvature="0"
   style="fill:none;stroke:#000000" />
</g>

<g
   id="g575">
	<path
   d="m 40.26,5.472 v 721 h 1073 v -721 h -1073 z"
   id="path577"
   inkscape:connector-curvature="0"
   style="fill:none;stroke:#000000" />
</g>
<path
   id="path585"
   d="m 983.097,760.459 -0.836,2.311 -7.039,0 0,-0.33 c 2.076,-1.885 3.537,-3.426 4.385,-4.619 0.848,-1.193 1.271,-2.287 1.271,-3.277 0,-0.758 -0.232,-1.383 -0.697,-1.869 -0.465,-0.488 -1.021,-0.732 -1.668,-0.732 -0.588,0 -1.115,0.17 -1.584,0.51 -0.467,0.34 -0.813,0.836 -1.037,1.49 l -0.326,0 c 0.146,-1.076 0.525,-1.902 1.133,-2.479 0.608,-0.577 1.367,-0.863 2.279,-0.863 0.969,0 1.777,0.311 2.428,0.934 0.65,0.621 0.975,1.355 0.975,2.201 0,0.605 -0.143,1.209 -0.424,1.813 -0.436,0.949 -1.141,1.955 -2.115,3.016 -1.465,1.588 -2.373,2.543 -2.727,2.865 l 3.096,0 c 0.629,0 1.07,-0.023 1.324,-0.07 0.254,-0.047 0.482,-0.143 0.688,-0.285 0.203,-0.145 0.381,-0.348 0.533,-0.609 l 0.342,0 0,-0.007 -10e-4,0 z"
   inkscape:connector-curvature="0" /><g
   id="g2991"
   transform="translate(-0.49226,0.5413)"><path
     d="m 987.886,735.387 0,1.279 -2.037,0 -0.178,2.684 c -0.033,0.465 -0.053,0.867 -0.053,1.209 0,0.816 0.096,1.316 0.287,1.496 0.191,0.18 0.422,0.27 0.693,0.27 0.563,0 0.898,-0.354 1.004,-1.063 l 0.313,0 c -0.191,1.625 -0.846,2.438 -1.955,2.438 -0.516,0 -0.932,-0.158 -1.246,-0.477 -0.313,-0.316 -0.471,-0.787 -0.471,-1.41 0,-0.41 0.063,-1.279 0.186,-2.607 l 0.236,-2.537 -1.857,0 c -0.123,2.139 -0.271,3.701 -0.443,4.688 -0.172,0.987 -0.361,1.625 -0.568,1.912 -0.209,0.287 -0.488,0.432 -0.846,0.432 -0.27,0 -0.496,-0.078 -0.68,-0.238 -0.186,-0.156 -0.275,-0.365 -0.275,-0.625 0,-0.246 0.156,-0.584 0.471,-1.014 0.459,-0.621 0.803,-1.27 1.029,-1.941 0.229,-0.674 0.398,-1.742 0.516,-3.213 l -0.598,0 c -0.479,0 -0.846,0.107 -1.102,0.32 -0.254,0.213 -0.494,0.518 -0.725,0.914 l -0.313,0 c 0.17,-0.625 0.391,-1.139 0.66,-1.543 0.27,-0.402 0.545,-0.666 0.83,-0.789 0.283,-0.121 0.789,-0.184 1.516,-0.184 l 5.606,0 0,-0.001 z"
     id="path587"
     inkscape:connector-curvature="0" /><g
     transform="translate(53.90452,764.8774)"
     id="g589">
			<path
   id="path591"
   d="m 917.673,-31.107 c 0.34,-0.803 0.77,-1.424 1.287,-1.861 0.518,-0.436 1.164,-0.654 1.936,-0.654 0.955,0 1.689,0.313 2.197,0.934 0.387,0.463 0.58,0.957 0.58,1.482 0,0.867 -0.543,1.766 -1.625,2.689 0.73,0.287 1.283,0.697 1.656,1.23 0.375,0.533 0.563,1.16 0.563,1.881 0,1.031 -0.328,1.926 -0.984,2.682 -0.855,0.984 -2.098,1.477 -3.723,1.477 -0.803,0 -1.35,-0.1 -1.639,-0.299 -0.291,-0.199 -0.436,-0.412 -0.436,-0.639 0,-0.17 0.068,-0.32 0.207,-0.447 0.137,-0.129 0.303,-0.193 0.496,-0.193 0.146,0 0.297,0.023 0.449,0.07 0.1,0.029 0.326,0.135 0.678,0.318 0.352,0.183 0.596,0.293 0.73,0.328 0.217,0.063 0.449,0.096 0.695,0.096 0.598,0 1.119,-0.232 1.563,-0.695 0.443,-0.461 0.664,-1.01 0.664,-1.643 0,-0.463 -0.102,-0.912 -0.309,-1.352 -0.152,-0.328 -0.32,-0.578 -0.504,-0.748 -0.254,-0.234 -0.602,-0.445 -1.043,-0.637 -0.441,-0.189 -0.893,-0.285 -1.352,-0.285 l -0.283,0 0,-0.266 c 0.465,-0.061 0.934,-0.225 1.4,-0.5 0.469,-0.275 0.809,-0.605 1.021,-0.992 0.211,-0.385 0.318,-0.809 0.318,-1.271 0,-0.602 -0.189,-1.09 -0.568,-1.461 -0.377,-0.371 -0.848,-0.557 -1.41,-0.557 -0.908,0 -1.67,0.484 -2.277,1.453 l -0.287,-0.14 z"
   inkscape:connector-curvature="0" />
		</g></g>
<g
   id="g597"
   transform="translate(151.4885,787.4713)">
			<path
   d="m 78.459,-48.185 4.547,0 0,1.328 -4.547,0 0,-1.328 0,0 z"
   id="path599"
   inkscape:connector-curvature="0" />
			<path
   d="m 91.531,-55.403 -0.688,1.5 -3.594,0 -0.787,1.592 c 1.563,0.23 2.799,0.805 3.709,1.73 0.781,0.797 1.172,1.734 1.172,2.813 0,0.627 -0.128,1.207 -0.383,1.74 -0.255,0.533 -0.576,0.986 -0.963,1.361 -0.387,0.375 -0.818,0.676 -1.293,0.904 -0.674,0.322 -1.366,0.484 -2.076,0.484 -0.716,0 -1.236,-0.121 -1.562,-0.363 -0.326,-0.242 -0.488,-0.51 -0.488,-0.801 0,-0.164 0.067,-0.309 0.203,-0.434 0.135,-0.125 0.306,-0.189 0.512,-0.189 0.153,0 0.287,0.023 0.401,0.07 0.114,0.047 0.311,0.166 0.587,0.357 0.439,0.305 0.884,0.459 1.335,0.467 0.685,0 1.287,-0.26 1.805,-0.779 0.519,-0.521 0.778,-1.154 0.778,-1.9 0,-0.723 -0.232,-1.395 -0.695,-2.02 -0.463,-0.627 -1.103,-1.109 -1.917,-1.451 -0.64,-0.264 -1.51,-0.416 -2.612,-0.457 l 2.285,-4.625 4.271,0 0,0.001 z"
   id="path601"
   inkscape:connector-curvature="0" />
			<path
   d="m 101.453,-51.544 0,1.281 -2.037,0 -0.176,2.682 c -0.035,0.465 -0.053,0.869 -0.053,1.209 0,0.818 0.096,1.316 0.287,1.496 0.191,0.18 0.422,0.27 0.692,0.27 0.564,0 0.899,-0.354 1.005,-1.063 l 0.313,0 c -0.194,1.625 -0.846,2.438 -1.955,2.438 -0.517,0 -0.932,-0.158 -1.246,-0.477 -0.313,-0.316 -0.471,-0.787 -0.471,-1.41 0,-0.41 0.062,-1.279 0.185,-2.607 l 0.237,-2.537 -1.859,0 c -0.123,2.141 -0.271,3.701 -0.442,4.689 -0.173,0.984 -0.362,1.623 -0.569,1.912 -0.208,0.287 -0.489,0.432 -0.846,0.432 -0.269,0 -0.495,-0.08 -0.679,-0.238 -0.184,-0.158 -0.276,-0.367 -0.276,-0.625 0,-0.248 0.157,-0.586 0.471,-1.014 0.459,-0.623 0.802,-1.27 1.03,-1.943 0.227,-0.672 0.398,-1.742 0.515,-3.211 l -0.597,0 c -0.479,0 -0.847,0.105 -1.102,0.318 -0.254,0.215 -0.496,0.52 -0.724,0.916 l -0.313,0 c 0.17,-0.625 0.39,-1.141 0.659,-1.543 0.269,-0.402 0.546,-0.666 0.83,-0.789 0.284,-0.123 0.789,-0.184 1.515,-0.184 l 5.606,0 0,-0.002 z"
   id="path603"
   inkscape:connector-curvature="0" />
		</g><g
   id="g605"
   transform="translate(150.408,784.655)">
			<path
   d="m 95.099,-26.288 0,1.25 -1.594,0 0,3.156 -1.453,0 0,-3.156 -5.047,0 0,-1.127 5.531,-7.889 0.969,0 0,7.766 1.594,0 0,0 z m -3.046,0 0,-5.883 -4.186,5.883 4.186,0 z"
   id="path607"
   inkscape:connector-curvature="0" />
		</g>
<g
   id="g609"
   transform="translate(0.2615,3.9253)">
	<g
   transform="translate(242.7,786.5)"
   id="g611">
		<g
   id="g613">
			<path
   d="m 58.586,-51.14 4.547,0 0,1.328 -4.547,0 0,-1.328 z"
   id="path615"
   inkscape:connector-curvature="0" />
			<path
   d="m 72.58,-54.497 0,1.279 -2.037,0 -0.176,2.686 c -0.035,0.465 -0.053,0.865 -0.053,1.209 0,0.814 0.096,1.314 0.287,1.494 0.191,0.18 0.422,0.27 0.692,0.27 0.564,0 0.899,-0.354 1.005,-1.063 l 0.313,0 c -0.194,1.625 -0.846,2.438 -1.955,2.438 -0.517,0 -0.932,-0.158 -1.246,-0.475 -0.313,-0.318 -0.471,-0.787 -0.471,-1.41 0,-0.412 0.062,-1.281 0.185,-2.609 l 0.237,-2.537 -1.859,0 c -0.123,2.139 -0.271,3.701 -0.442,4.688 -0.173,0.986 -0.362,1.625 -0.569,1.912 -0.208,0.287 -0.489,0.432 -0.846,0.432 -0.269,0 -0.495,-0.078 -0.679,-0.238 -0.184,-0.156 -0.276,-0.365 -0.276,-0.625 0,-0.246 0.157,-0.584 0.471,-1.014 0.459,-0.621 0.802,-1.27 1.03,-1.941 0.227,-0.674 0.398,-1.742 0.515,-3.213 l -0.597,0 c -0.479,0 -0.847,0.107 -1.102,0.32 -0.254,0.213 -0.496,0.518 -0.724,0.914 l -0.313,0 c 0.17,-0.625 0.39,-1.139 0.659,-1.543 0.269,-0.402 0.546,-0.666 0.83,-0.789 0.284,-0.121 0.789,-0.184 1.515,-0.184 l 5.606,0 0,-10e-4 z"
   id="path617"
   inkscape:connector-curvature="0" />
		</g>
	</g>
</g>
<g
   id="g623"
   transform="translate(336.593,787.4493)">
			<path
   d="m 27.455,-48.163 4.547,0 0,1.328 -4.547,0 0,-1.328 0,0 z"
   id="path625"
   inkscape:connector-curvature="0" />
			<path
   d="m 33.636,-53.116 c 0.34,-0.803 0.769,-1.424 1.287,-1.859 0.518,-0.438 1.164,-0.654 1.937,-0.654 0.955,0 1.687,0.311 2.196,0.932 0.387,0.463 0.58,0.957 0.58,1.484 0,0.867 -0.542,1.764 -1.625,2.688 0.73,0.287 1.283,0.697 1.657,1.23 0.374,0.533 0.562,1.16 0.562,1.881 0,1.031 -0.328,1.926 -0.985,2.684 -0.856,0.982 -2.096,1.477 -3.72,1.477 -0.803,0 -1.35,-0.1 -1.64,-0.299 -0.291,-0.199 -0.436,-0.412 -0.436,-0.641 0,-0.17 0.069,-0.318 0.207,-0.445 0.138,-0.129 0.304,-0.193 0.497,-0.193 0.146,0 0.296,0.023 0.449,0.07 0.1,0.027 0.326,0.135 0.678,0.316 0.352,0.184 0.596,0.293 0.73,0.328 0.217,0.064 0.449,0.098 0.695,0.098 0.599,0 1.12,-0.232 1.563,-0.695 0.443,-0.461 0.665,-1.01 0.665,-1.645 0,-0.463 -0.103,-0.91 -0.309,-1.352 -0.153,-0.328 -0.321,-0.578 -0.503,-0.748 -0.254,-0.234 -0.601,-0.445 -1.043,-0.637 -0.441,-0.189 -0.892,-0.285 -1.351,-0.285 l -0.283,0 0,-0.266 c 0.465,-0.059 0.932,-0.225 1.4,-0.5 0.468,-0.275 0.809,-0.605 1.021,-0.992 0.212,-0.385 0.318,-0.809 0.318,-1.271 0,-0.602 -0.189,-1.09 -0.567,-1.461 -0.378,-0.371 -0.849,-0.557 -1.411,-0.557 -0.909,0 -1.668,0.484 -2.278,1.453 l -0.291,-0.141 z"
   id="path627"
   inkscape:connector-curvature="0" />
			<path
   d="m 50.448,-51.522 0,1.281 -2.037,0 -0.176,2.682 c -0.035,0.465 -0.053,0.869 -0.053,1.209 0,0.818 0.096,1.316 0.287,1.496 0.191,0.18 0.422,0.27 0.692,0.27 0.564,0 0.899,-0.354 1.005,-1.063 l 0.313,0 c -0.194,1.625 -0.846,2.438 -1.955,2.438 -0.517,0 -0.932,-0.158 -1.246,-0.477 -0.313,-0.316 -0.471,-0.787 -0.471,-1.41 0,-0.41 0.063,-1.279 0.185,-2.607 l 0.237,-2.537 -1.859,0 c -0.123,2.141 -0.271,3.701 -0.442,4.689 -0.173,0.984 -0.362,1.623 -0.569,1.912 -0.208,0.287 -0.489,0.432 -0.846,0.432 -0.269,0 -0.495,-0.08 -0.679,-0.238 -0.184,-0.158 -0.276,-0.367 -0.276,-0.625 0,-0.248 0.157,-0.586 0.471,-1.014 0.459,-0.623 0.802,-1.27 1.03,-1.943 0.227,-0.672 0.398,-1.742 0.515,-3.211 l -0.597,0 c -0.479,0 -0.847,0.105 -1.102,0.318 -0.254,0.215 -0.496,0.52 -0.724,0.916 l -0.313,0 c 0.17,-0.625 0.39,-1.141 0.659,-1.543 0.269,-0.402 0.546,-0.666 0.83,-0.789 0.284,-0.123 0.789,-0.184 1.515,-0.184 l 5.606,0 0,-0.002 z"
   id="path629"
   inkscape:connector-curvature="0" />
		</g><g
   id="g631"
   transform="translate(340.012,784.634)">
			<path
   d="m 39.595,-26.267 0,1.25 -1.594,0 0,3.156 -1.453,0 0,-3.156 -5.047,0 0,-1.127 5.531,-7.889 0.969,0 0,7.766 1.594,0 0,0 z m -3.046,0 0,-5.883 -4.186,5.883 4.186,0 z"
   id="path633"
   inkscape:connector-curvature="0" />
		</g>
<g
   id="g639"
   transform="translate(427.769,791.4183)">
			<path
   d="m 7.879,-52.132 4.547,0 0,1.328 -4.547,0 0,-1.328 z"
   id="path641"
   inkscape:connector-curvature="0" />
			<path
   d="m 21.873,-55.491 0,1.281 -2.037,0 -0.176,2.682 c -0.035,0.465 -0.053,0.869 -0.053,1.209 0,0.818 0.096,1.316 0.287,1.496 0.19,0.18 0.422,0.27 0.691,0.27 0.564,0 0.899,-0.354 1.005,-1.063 l 0.313,0 c -0.194,1.625 -0.846,2.438 -1.955,2.438 -0.517,0 -0.932,-0.158 -1.246,-0.477 -0.313,-0.316 -0.471,-0.787 -0.471,-1.41 0,-0.41 0.062,-1.279 0.185,-2.607 l 0.237,-2.537 -1.859,0 c -0.123,2.141 -0.271,3.701 -0.441,4.689 -0.173,0.984 -0.362,1.623 -0.569,1.912 -0.208,0.287 -0.489,0.432 -0.846,0.432 -0.27,0 -0.495,-0.08 -0.679,-0.238 -0.185,-0.158 -0.276,-0.367 -0.276,-0.625 0,-0.248 0.157,-0.586 0.471,-1.014 0.459,-0.623 0.802,-1.27 1.03,-1.943 0.227,-0.672 0.397,-1.742 0.515,-3.211 l -0.597,0 c -0.479,0 -0.847,0.105 -1.103,0.318 -0.254,0.215 -0.495,0.52 -0.724,0.916 l -0.312,0 c 0.17,-0.625 0.39,-1.141 0.658,-1.543 0.27,-0.402 0.547,-0.666 0.83,-0.789 0.284,-0.123 0.789,-0.184 1.516,-0.184 l 5.604,0 0,-0.002 0.002,0 z"
   id="path643"
   inkscape:connector-curvature="0" />
		</g><g
   id="g645"
   transform="translate(426.702,788.598)">
			<path
   d="m 19.895,-28.14 -0.836,2.311 -7.039,0 0,-0.328 c 2.077,-1.887 3.538,-3.428 4.386,-4.619 0.847,-1.195 1.271,-2.287 1.271,-3.277 0,-0.758 -0.232,-1.383 -0.697,-1.869 -0.465,-0.488 -1.021,-0.732 -1.668,-0.732 -0.588,0 -1.116,0.17 -1.584,0.508 -0.468,0.34 -0.813,0.836 -1.037,1.492 l -0.328,0 c 0.146,-1.076 0.524,-1.904 1.132,-2.48 0.608,-0.576 1.368,-0.863 2.278,-0.863 0.969,0 1.779,0.313 2.428,0.936 0.649,0.621 0.974,1.354 0.974,2.201 0,0.604 -0.141,1.209 -0.423,1.813 -0.435,0.949 -1.14,1.953 -2.115,3.014 -1.465,1.59 -2.373,2.545 -2.727,2.867 l 3.095,0 c 0.631,0 1.071,-0.023 1.325,-0.07 0.253,-0.047 0.482,-0.143 0.688,-0.285 0.204,-0.145 0.382,-0.348 0.532,-0.611 l 0.346,0 0,-0.008 -0.001,0 z"
   id="path647"
   inkscape:connector-curvature="0" />
		</g>
<g
   transform="translate(522.882,791.6323)"
   id="g653">
			<path
   d="m -20.234,-52.346 4.547,0 0,1.328 -4.547,0 0,-1.328 z"
   id="path655"
   inkscape:connector-curvature="0" />
			<path
   d="m -6.24,-55.705 0,1.281 -2.037,0 -0.176,2.682 c -0.035,0.465 -0.054,0.869 -0.054,1.209 0,0.818 0.097,1.316 0.287,1.496 0.191,0.18 0.422,0.27 0.692,0.27 0.564,0 0.899,-0.354 1.005,-1.063 l 0.313,0 c -0.194,1.625 -0.847,2.438 -1.955,2.438 -0.518,0 -0.933,-0.158 -1.246,-0.477 -0.313,-0.316 -0.472,-0.787 -0.472,-1.41 0,-0.41 0.063,-1.279 0.186,-2.607 l 0.237,-2.537 -1.859,0 c -0.123,2.141 -0.271,3.701 -0.442,4.689 -0.173,0.984 -0.361,1.623 -0.568,1.912 -0.208,0.287 -0.489,0.432 -0.847,0.432 -0.269,0 -0.494,-0.08 -0.679,-0.238 -0.184,-0.158 -0.276,-0.367 -0.276,-0.625 0,-0.248 0.157,-0.586 0.472,-1.014 0.459,-0.623 0.802,-1.27 1.03,-1.943 0.227,-0.672 0.397,-1.742 0.515,-3.211 l -0.597,0 c -0.479,0 -0.848,0.105 -1.103,0.318 -0.254,0.215 -0.496,0.52 -0.724,0.916 l -0.313,0 c 0.17,-0.625 0.391,-1.141 0.659,-1.543 0.268,-0.402 0.546,-0.666 0.83,-0.789 0.284,-0.123 0.789,-0.184 1.515,-0.184 l 5.606,0 0,-0.002 10e-4,0 z"
   id="path657"
   inkscape:connector-curvature="0" />
		</g><g
   transform="translate(521.801,788.816)"
   id="g659">
			<path
   d="m -8.094,-30.449 0,1.25 -1.594,0 0,3.156 -1.453,0 0,-3.156 -5.047,0 0,-1.127 5.531,-7.889 0.969,0 0,7.766 1.594,0 0,0 z m -3.047,0 0,-5.883 -4.186,5.883 4.186,0 z"
   id="path661"
   inkscape:connector-curvature="0" />
		</g>
<g
   id="g663"
   transform="translate(-1.3435,-1.1487)">
	<g
   transform="translate(612.4,786.5)"
   id="g665">
		<g
   id="g667">
			<path
   d="m -38.148,-47.205 c 0,-1.359 0.205,-2.529 0.615,-3.514 0.408,-0.979 0.953,-1.711 1.633,-2.189 0.527,-0.381 1.072,-0.572 1.635,-0.572 0.914,0 1.732,0.467 2.459,1.396 0.908,1.154 1.361,2.721 1.361,4.693 0,1.383 -0.199,2.557 -0.598,3.523 -0.399,0.966 -0.906,1.668 -1.523,2.105 -0.617,0.436 -1.215,0.654 -1.787,0.654 -1.137,0 -2.082,-0.67 -2.838,-2.012 -0.637,-1.129 -0.957,-2.492 -0.957,-4.084 z m 1.719,0.221 c 0,1.643 0.203,2.982 0.607,4.02 0.334,0.875 0.832,1.313 1.494,1.313 0.316,0 0.646,-0.145 0.984,-0.426 0.34,-0.285 0.6,-0.764 0.775,-1.432 0.27,-1.008 0.402,-2.432 0.402,-4.266 0,-1.361 -0.141,-2.496 -0.422,-3.404 -0.211,-0.674 -0.484,-1.15 -0.818,-1.434 -0.238,-0.193 -0.529,-0.291 -0.869,-0.291 -0.398,0 -0.754,0.18 -1.064,0.537 -0.422,0.486 -0.709,1.252 -0.861,2.295 -0.152,1.045 -0.228,2.074 -0.228,3.088 z"
   id="path669"
   inkscape:connector-curvature="0" />
		</g>
	</g>
</g>
<line
   x1="387.06"
   y1="747.49701"
   x2="364.06"
   y2="747.49701"
   id="line671"
   style="fill:none;stroke:#010101;stroke-width:2" />
<line
   x1="454.16"
   y1="747.49695"
   x2="431.16"
   y2="747.49695"
   id="line673"
   style="fill:none;stroke:#010101;stroke-width:2" />
<line
   x1="521.16003"
   y1="747.49695"
   x2="498.15997"
   y2="747.49695"
   id="line675"
   style="fill:none;stroke:#010101;stroke-width:2" />
<g
   id="g681"
   transform="translate(427.2155,790.2343)">
			<path
   d="m 287.933,-54.307 0,1.281 -2.037,0 -0.176,2.684 c -0.035,0.465 -0.053,0.867 -0.053,1.209 0,0.816 0.096,1.316 0.285,1.494 0.191,0.18 0.422,0.271 0.693,0.271 0.564,0 0.898,-0.355 1.006,-1.064 l 0.313,0 c -0.195,1.625 -0.846,2.439 -1.955,2.439 -0.518,0 -0.932,-0.158 -1.246,-0.477 -0.313,-0.316 -0.471,-0.787 -0.471,-1.41 0,-0.41 0.061,-1.279 0.184,-2.607 l 0.238,-2.537 -1.859,0 c -0.123,2.139 -0.271,3.701 -0.441,4.688 -0.174,0.986 -0.363,1.625 -0.57,1.912 -0.207,0.287 -0.488,0.432 -0.846,0.432 -0.27,0 -0.494,-0.078 -0.678,-0.238 -0.186,-0.158 -0.277,-0.367 -0.277,-0.625 0,-0.246 0.158,-0.584 0.473,-1.014 0.459,-0.621 0.803,-1.27 1.029,-1.941 0.227,-0.674 0.398,-1.744 0.514,-3.213 l -0.596,0 c -0.479,0 -0.848,0.107 -1.102,0.32 -0.254,0.213 -0.496,0.518 -0.725,0.914 l -0.313,0 c 0.17,-0.625 0.389,-1.139 0.658,-1.543 0.27,-0.402 0.547,-0.666 0.83,-0.789 0.283,-0.121 0.789,-0.184 1.516,-0.184 l 5.605,0 0,-0.002 10e-4,0 z"
   id="path683"
   inkscape:connector-curvature="0" />
		</g><g
   id="g685"
   transform="translate(427.347,787.414)">
			<path
   d="m 287.449,-26.955 -0.836,2.311 -7.039,0 0,-0.328 c 2.076,-1.887 3.537,-3.426 4.385,-4.621 0.848,-1.191 1.271,-2.287 1.271,-3.275 0,-0.76 -0.232,-1.383 -0.697,-1.869 -0.465,-0.488 -1.021,-0.732 -1.668,-0.732 -0.588,0 -1.115,0.17 -1.584,0.51 -0.469,0.338 -0.813,0.836 -1.037,1.49 l -0.326,0 c 0.146,-1.076 0.525,-1.902 1.133,-2.479 0.608,-0.577 1.367,-0.865 2.279,-0.865 0.969,0 1.777,0.313 2.428,0.934 0.648,0.623 0.973,1.357 0.973,2.201 0,0.605 -0.141,1.209 -0.422,1.813 -0.436,0.949 -1.141,1.955 -2.115,3.016 -1.465,1.588 -2.373,2.543 -2.727,2.865 l 3.094,0 c 0.631,0 1.072,-0.023 1.326,-0.07 0.254,-0.047 0.482,-0.143 0.688,-0.285 0.203,-0.145 0.381,-0.348 0.531,-0.609 l 0.344,0 0,-0.007 -10e-4,0 z"
   id="path687"
   inkscape:connector-curvature="0" />
		</g>
<g
   id="g693"
   transform="translate(517.8825,790.5663)">
			<path
   d="m 130.266,-54.639 0,1.281 -2.037,0 -0.176,2.682 c -0.035,0.465 -0.053,0.869 -0.053,1.209 0,0.818 0.096,1.316 0.287,1.496 0.189,0.182 0.422,0.271 0.691,0.271 0.564,0 0.9,-0.355 1.006,-1.064 l 0.313,0 c -0.193,1.625 -0.846,2.439 -1.955,2.439 -0.518,0 -0.932,-0.158 -1.246,-0.479 -0.313,-0.314 -0.471,-0.787 -0.471,-1.41 0,-0.408 0.063,-1.277 0.186,-2.605 l 0.236,-2.537 -1.859,0 c -0.123,2.139 -0.27,3.701 -0.441,4.688 -0.174,0.986 -0.361,1.623 -0.568,1.912 -0.209,0.287 -0.49,0.432 -0.846,0.432 -0.27,0 -0.496,-0.08 -0.682,-0.238 -0.184,-0.158 -0.273,-0.367 -0.273,-0.625 0,-0.248 0.156,-0.586 0.471,-1.014 0.459,-0.623 0.803,-1.27 1.029,-1.943 0.227,-0.672 0.398,-1.742 0.516,-3.211 l -0.598,0 c -0.479,0 -0.848,0.105 -1.102,0.318 -0.254,0.215 -0.496,0.52 -0.725,0.916 l -0.313,0 c 0.17,-0.625 0.391,-1.141 0.658,-1.543 0.27,-0.402 0.547,-0.666 0.83,-0.789 0.285,-0.123 0.789,-0.184 1.516,-0.184 l 5.605,0 0,-0.002 0.001,0 z"
   id="path695"
   inkscape:connector-curvature="0" />
		</g><g
   id="g697"
   transform="translate(518,787.75)">
			<path
   d="m 129.906,-29.383 0,1.25 -1.594,0 0,3.156 -1.453,0 0,-3.156 -5.047,0 0,-1.127 5.531,-7.889 0.969,0 0,7.766 1.594,0 0,0 z m -3.047,0 0,-5.883 -4.186,5.883 4.186,0 z"
   id="path699"
   inkscape:connector-curvature="0" />
		</g>
<g
   id="g705"
   transform="translate(331.1805,787.5663)">
			<path
   d="m 438.452,-53.232 c 0.34,-0.803 0.77,-1.424 1.287,-1.861 0.52,-0.436 1.164,-0.652 1.939,-0.652 0.953,0 1.686,0.311 2.193,0.932 0.389,0.463 0.58,0.957 0.58,1.484 0,0.865 -0.541,1.764 -1.625,2.688 0.73,0.287 1.283,0.697 1.658,1.23 0.373,0.533 0.561,1.16 0.561,1.881 0,1.031 -0.326,1.926 -0.984,2.682 -0.855,0.984 -2.096,1.479 -3.719,1.479 -0.805,0 -1.352,-0.102 -1.643,-0.301 -0.291,-0.197 -0.436,-0.412 -0.436,-0.639 0,-0.17 0.068,-0.32 0.207,-0.447 0.139,-0.129 0.305,-0.191 0.498,-0.191 0.145,0 0.295,0.021 0.447,0.068 0.102,0.029 0.326,0.137 0.68,0.318 0.352,0.184 0.596,0.293 0.729,0.328 0.219,0.063 0.449,0.096 0.695,0.096 0.6,0 1.121,-0.23 1.563,-0.695 0.443,-0.461 0.666,-1.01 0.666,-1.643 0,-0.463 -0.104,-0.912 -0.309,-1.352 -0.154,-0.328 -0.322,-0.578 -0.504,-0.748 -0.254,-0.234 -0.604,-0.445 -1.043,-0.637 -0.441,-0.189 -0.893,-0.285 -1.354,-0.285 l -0.281,0 0,-0.266 c 0.467,-0.059 0.934,-0.225 1.4,-0.5 0.466,-0.275 0.809,-0.605 1.021,-0.992 0.211,-0.385 0.316,-0.809 0.316,-1.271 0,-0.602 -0.188,-1.09 -0.566,-1.461 -0.377,-0.371 -0.85,-0.557 -1.41,-0.557 -0.91,0 -1.668,0.484 -2.279,1.453 l -0.287,-0.141 z"
   id="path707"
   inkscape:connector-curvature="0" />
			<path
   d="m 455.265,-51.639 0,1.281 -2.037,0 -0.176,2.682 c -0.035,0.465 -0.053,0.869 -0.053,1.209 0,0.818 0.096,1.316 0.287,1.496 0.189,0.182 0.422,0.271 0.691,0.271 0.563,0 0.898,-0.355 1.006,-1.064 l 0.313,0 c -0.193,1.625 -0.846,2.439 -1.955,2.439 -0.518,0 -0.932,-0.158 -1.246,-0.479 -0.313,-0.314 -0.471,-0.787 -0.471,-1.41 0,-0.408 0.063,-1.277 0.186,-2.605 l 0.236,-2.537 -1.859,0 c -0.123,2.139 -0.271,3.701 -0.441,4.688 -0.174,0.986 -0.361,1.623 -0.568,1.912 -0.209,0.287 -0.49,0.432 -0.848,0.432 -0.268,0 -0.494,-0.08 -0.68,-0.238 -0.184,-0.158 -0.275,-0.367 -0.275,-0.625 0,-0.248 0.158,-0.586 0.473,-1.014 0.459,-0.623 0.803,-1.27 1.029,-1.943 0.227,-0.672 0.398,-1.742 0.516,-3.211 l -0.598,0 c -0.479,0 -0.848,0.105 -1.102,0.318 -0.254,0.215 -0.496,0.52 -0.725,0.916 l -0.313,0 c 0.17,-0.625 0.391,-1.141 0.658,-1.543 0.27,-0.402 0.547,-0.666 0.83,-0.789 0.285,-0.123 0.789,-0.184 1.516,-0.184 l 5.605,0 0,-0.002 10e-4,0 z"
   id="path709"
   inkscape:connector-curvature="0" />
		</g><g
   id="g711"
   transform="translate(336.102,784.75)">
			<path
   d="m 445.905,-26.383 0,1.25 -1.594,0 0,3.156 -1.453,0 0,-3.156 -5.047,0 0,-1.127 5.531,-7.889 0.969,0 0,7.766 1.594,0 0,0 z m -3.046,0 0,-5.883 -4.186,5.883 4.186,0 z"
   id="path713"
   inkscape:connector-curvature="0" />
		</g>
<g
   id="g715"
   transform="translate(-1.0055,5.2793)">
	<g
   transform="translate(242.7,786.5)"
   id="g717">
		<g
   id="g719">
			<path
   d="m 607.655,-55.852 0,1.281 -2.037,0 -0.176,2.682 c -0.035,0.465 -0.053,0.869 -0.053,1.209 0,0.818 0.096,1.316 0.287,1.496 0.189,0.18 0.422,0.27 0.691,0.27 0.563,0 0.898,-0.354 1.006,-1.063 l 0.313,0 c -0.193,1.625 -0.846,2.438 -1.955,2.438 -0.518,0 -0.932,-0.158 -1.246,-0.477 -0.313,-0.316 -0.471,-0.787 -0.471,-1.41 0,-0.41 0.063,-1.279 0.186,-2.607 l 0.236,-2.537 -1.859,0 c -0.123,2.141 -0.271,3.701 -0.441,4.689 -0.174,0.984 -0.363,1.623 -0.568,1.912 -0.209,0.287 -0.49,0.432 -0.848,0.432 -0.268,0 -0.494,-0.08 -0.68,-0.238 -0.184,-0.158 -0.275,-0.367 -0.275,-0.625 0,-0.248 0.158,-0.586 0.473,-1.014 0.459,-0.623 0.803,-1.27 1.029,-1.943 0.227,-0.672 0.398,-1.742 0.516,-3.211 l -0.598,0 c -0.479,0 -0.848,0.105 -1.102,0.318 -0.254,0.215 -0.496,0.52 -0.725,0.916 l -0.313,0 c 0.17,-0.625 0.389,-1.141 0.658,-1.543 0.269,-0.402 0.547,-0.666 0.83,-0.789 0.285,-0.123 0.789,-0.184 1.516,-0.184 l 5.605,0 0,-0.002 10e-4,0 z"
   id="path721"
   inkscape:connector-curvature="0" />
		</g>
	</g>
</g>
<g
   id="g727"
   transform="translate(148.8215,787.0003)">
			<path
   d="m 761.739,-54.933 -0.688,1.5 -3.594,0 -0.787,1.592 c 1.563,0.23 2.799,0.805 3.709,1.73 0.781,0.797 1.172,1.734 1.172,2.813 0,0.627 -0.129,1.207 -0.383,1.74 -0.256,0.533 -0.576,0.986 -0.963,1.361 -0.389,0.375 -0.818,0.676 -1.295,0.904 -0.674,0.322 -1.365,0.484 -2.076,0.484 -0.715,0 -1.234,-0.121 -1.561,-0.363 -0.327,-0.242 -0.488,-0.51 -0.488,-0.801 0,-0.164 0.066,-0.309 0.203,-0.434 0.135,-0.125 0.305,-0.189 0.512,-0.189 0.152,0 0.287,0.023 0.4,0.07 0.115,0.047 0.311,0.166 0.588,0.357 0.439,0.305 0.885,0.459 1.336,0.467 0.684,0 1.285,-0.26 1.805,-0.779 0.52,-0.521 0.777,-1.154 0.777,-1.9 0,-0.723 -0.232,-1.395 -0.695,-2.02 -0.463,-0.627 -1.102,-1.109 -1.916,-1.451 -0.641,-0.264 -1.51,-0.416 -2.611,-0.457 l 2.283,-4.625 4.272,0 0,10e-4 z"
   id="path729"
   inkscape:connector-curvature="0" />
			<path
   d="m 771.661,-51.073 0,1.281 -2.037,0 -0.176,2.682 c -0.035,0.465 -0.053,0.869 -0.053,1.209 0,0.818 0.096,1.316 0.287,1.496 0.189,0.18 0.422,0.27 0.691,0.27 0.564,0 0.9,-0.354 1.006,-1.063 l 0.313,0 c -0.193,1.625 -0.846,2.438 -1.955,2.438 -0.518,0 -0.932,-0.158 -1.246,-0.477 -0.313,-0.316 -0.471,-0.787 -0.471,-1.41 0,-0.41 0.063,-1.279 0.186,-2.607 l 0.236,-2.537 -1.859,0 c -0.123,2.141 -0.27,3.701 -0.441,4.689 -0.174,0.984 -0.361,1.623 -0.568,1.912 -0.209,0.287 -0.49,0.432 -0.846,0.432 -0.27,0 -0.496,-0.08 -0.682,-0.238 -0.184,-0.158 -0.273,-0.367 -0.273,-0.625 0,-0.248 0.156,-0.586 0.471,-1.014 0.459,-0.623 0.803,-1.27 1.029,-1.943 0.227,-0.672 0.398,-1.742 0.516,-3.211 l -0.598,0 c -0.479,0 -0.848,0.105 -1.102,0.318 -0.254,0.215 -0.496,0.52 -0.725,0.916 l -0.313,0 c 0.17,-0.625 0.391,-1.141 0.658,-1.543 0.27,-0.402 0.547,-0.666 0.83,-0.789 0.285,-0.123 0.789,-0.184 1.516,-0.184 l 5.605,0 0,-0.002 10e-4,0 z"
   id="path731"
   inkscape:connector-curvature="0" />
		</g><g
   id="g733"
   transform="translate(149.305,784.184)">
			<path
   d="m 766.802,-25.817 0,1.25 -1.594,0 0,3.156 -1.453,0 0,-3.156 -5.047,0 0,-1.127 5.531,-7.889 0.969,0 0,7.766 1.594,0 z m -3.047,0 0,-5.883 -4.186,5.883 4.186,0 z"
   id="path735"
   inkscape:connector-curvature="0" />
		</g>
<line
   x1="789.46002"
   y1="747.49695"
   x2="766.46002"
   y2="747.49695"
   id="line737"
   style="fill:none;stroke:#010101;stroke-width:2" />
<line
   x1="722.35901"
   y1="747.49695"
   x2="699.35901"
   y2="747.49695"
   id="line739"
   style="fill:none;stroke:#010101;stroke-width:2" />
<line
   x1="655.35901"
   y1="747.49695"
   x2="632.35901"
   y2="747.49695"
   id="line741"
   style="fill:none;stroke:#010101;stroke-width:2" />
<line
   x1="923.56"
   y1="747.49701"
   x2="900.56"
   y2="747.49701"
   id="line743"
   style="fill:none;stroke:#010101;stroke-width:2" />
<line
   x1="990.65997"
   y1="747.49701"
   x2="967.65997"
   y2="747.49701"
   id="line745"
   style="fill:none;stroke:#010101;stroke-width:2" />
<g
   id="g751"
   transform="translate(149.797,787.3933)">
			<path
   d="m 888.956,-55.325 6.387,0 0,0.338 -3.965,11.834 -0.988,0 3.566,-10.734 -3.281,0 c -0.662,0 -1.135,0.078 -1.416,0.236 -0.492,0.271 -0.889,0.688 -1.188,1.248 l -0.254,-0.096 1.139,-2.826 z"
   id="path753"
   inkscape:connector-curvature="0" />
			<path
   d="m 904.878,-51.466 0,1.281 -2.037,0 -0.176,2.682 c -0.035,0.465 -0.053,0.869 -0.053,1.209 0,0.818 0.096,1.316 0.287,1.496 0.189,0.18 0.422,0.27 0.691,0.27 0.564,0 0.9,-0.354 1.006,-1.063 l 0.313,0 c -0.193,1.625 -0.846,2.438 -1.955,2.438 -0.518,0 -0.932,-0.158 -1.246,-0.477 -0.313,-0.316 -0.471,-0.787 -0.471,-1.41 0,-0.41 0.063,-1.279 0.186,-2.607 l 0.236,-2.537 -1.859,0 c -0.123,2.141 -0.27,3.701 -0.441,4.689 -0.174,0.984 -0.361,1.623 -0.568,1.912 -0.209,0.287 -0.49,0.432 -0.846,0.432 -0.27,0 -0.496,-0.08 -0.682,-0.238 -0.184,-0.158 -0.273,-0.367 -0.273,-0.625 0,-0.248 0.156,-0.586 0.471,-1.014 0.459,-0.623 0.803,-1.27 1.029,-1.943 0.227,-0.672 0.398,-1.742 0.516,-3.211 l -0.598,0 c -0.479,0 -0.846,0.105 -1.102,0.318 -0.254,0.215 -0.494,0.52 -0.725,0.916 l -0.313,0 c 0.17,-0.625 0.391,-1.141 0.658,-1.543 0.27,-0.402 0.547,-0.666 0.83,-0.789 0.285,-0.123 0.789,-0.184 1.516,-0.184 l 5.605,0 0,-0.002 0.001,0 z"
   id="path755"
   inkscape:connector-curvature="0" />
		</g><g
   id="g757"
   transform="translate(150.189,784.577)">
			<path
   d="m 900.018,-26.21 0,1.25 -1.594,0 0,3.156 -1.453,0 0,-3.156 -5.047,0 0,-1.127 5.531,-7.889 0.969,0 0,7.766 1.594,0 z m -3.047,0 0,-5.883 -4.186,5.883 4.186,0 0,0 z"
   id="path759"
   inkscape:connector-curvature="0" />
		</g>
<line
   x1="1057.66"
   y1="747.49701"
   x2="1034.66"
   y2="747.49701"
   id="line761"
   style="fill:none;stroke:#010101;stroke-width:2" />
<g
   id="g763"
   transform="translate(0,-0.2167)">
	<g
   transform="translate(242.7,786.5)"
   id="g765">
		<g
   id="g767">
			<path
   d="m 869.903,-44.604 -0.836,2.311 -7.039,0 0,-0.33 c 2.076,-1.885 3.539,-3.426 4.387,-4.619 0.848,-1.193 1.271,-2.287 1.271,-3.275 0,-0.76 -0.232,-1.385 -0.697,-1.869 -0.465,-0.488 -1.021,-0.732 -1.668,-0.732 -0.588,0 -1.117,0.17 -1.584,0.508 -0.469,0.34 -0.813,0.836 -1.037,1.492 l -0.326,0 c 0.146,-1.076 0.523,-1.904 1.133,-2.48 0.607,-0.576 1.367,-0.863 2.277,-0.863 0.969,0 1.779,0.311 2.428,0.934 0.65,0.621 0.975,1.355 0.975,2.201 0,0.605 -0.141,1.209 -0.424,1.814 -0.436,0.947 -1.141,1.953 -2.115,3.014 -1.463,1.59 -2.373,2.545 -2.727,2.867 l 3.096,0 c 0.631,0 1.07,-0.023 1.326,-0.07 0.252,-0.047 0.48,-0.143 0.686,-0.285 0.205,-0.145 0.383,-0.348 0.533,-0.611 l 0.342,0 0,-0.007 -10e-4,0 z"
   id="path769"
   inkscape:connector-curvature="0" />
			<path
   d="m 879.387,-50.356 0,1.281 -2.037,0 -0.176,2.682 c -0.035,0.465 -0.053,0.869 -0.053,1.209 0,0.818 0.096,1.316 0.287,1.496 0.189,0.18 0.422,0.27 0.691,0.27 0.563,0 0.898,-0.354 1.006,-1.063 l 0.313,0 c -0.193,1.625 -0.846,2.438 -1.955,2.438 -0.518,0 -0.932,-0.158 -1.246,-0.477 -0.313,-0.316 -0.471,-0.787 -0.471,-1.41 0,-0.41 0.063,-1.279 0.186,-2.607 l 0.236,-2.537 -1.859,0 c -0.123,2.141 -0.271,3.701 -0.441,4.689 -0.174,0.984 -0.363,1.623 -0.568,1.912 -0.209,0.287 -0.49,0.432 -0.848,0.432 -0.268,0 -0.494,-0.08 -0.68,-0.238 -0.184,-0.158 -0.275,-0.367 -0.275,-0.625 0,-0.248 0.158,-0.586 0.473,-1.014 0.459,-0.623 0.803,-1.27 1.029,-1.943 0.227,-0.672 0.398,-1.742 0.516,-3.211 l -0.598,0 c -0.479,0 -0.848,0.105 -1.102,0.318 -0.254,0.215 -0.496,0.52 -0.725,0.916 l -0.313,0 c 0.17,-0.625 0.389,-1.141 0.658,-1.543 0.269,-0.402 0.547,-0.666 0.83,-0.789 0.285,-0.123 0.789,-0.184 1.516,-0.184 l 5.605,0 0,-0.002 10e-4,0 z"
   id="path771"
   inkscape:connector-curvature="0" />
		</g>
	</g>
</g>
<g
   id="g777"
   transform="translate(151.0815,787.1333)">
			<path
   d="m -55.234,-47.848 4.547,0 0,1.328 -4.547,0 0,-1.328 z"
   id="path779"
   inkscape:connector-curvature="0" />
			<path
   d="m -48.162,-55.066 6.386,0 0,0.338 -3.964,11.834 -0.988,0 3.566,-10.734 -3.281,0 c -0.663,0 -1.135,0.08 -1.417,0.238 -0.493,0.271 -0.889,0.688 -1.188,1.248 l -0.255,-0.098 1.141,-2.826 z"
   id="path781"
   inkscape:connector-curvature="0" />
			<path
   d="m -32.24,-51.205 0,1.279 -2.037,0 -0.176,2.686 c -0.035,0.465 -0.053,0.865 -0.053,1.209 0,0.814 0.096,1.314 0.287,1.494 0.191,0.18 0.422,0.27 0.692,0.27 0.564,0 0.899,-0.354 1.005,-1.063 l 0.313,0 c -0.194,1.625 -0.846,2.438 -1.955,2.438 -0.517,0 -0.932,-0.158 -1.246,-0.475 -0.313,-0.318 -0.471,-0.787 -0.471,-1.41 0,-0.412 0.062,-1.281 0.185,-2.609 l 0.237,-2.537 -1.859,0 c -0.123,2.139 -0.271,3.701 -0.442,4.688 -0.173,0.986 -0.362,1.625 -0.569,1.912 -0.208,0.287 -0.489,0.432 -0.846,0.432 -0.269,0 -0.495,-0.078 -0.679,-0.238 -0.184,-0.156 -0.276,-0.365 -0.276,-0.625 0,-0.246 0.157,-0.584 0.471,-1.014 0.459,-0.621 0.802,-1.27 1.03,-1.941 0.227,-0.674 0.398,-1.742 0.515,-3.213 l -0.597,0 c -0.479,0 -0.847,0.107 -1.102,0.32 -0.254,0.213 -0.496,0.518 -0.724,0.914 l -0.313,0 c 0.17,-0.625 0.39,-1.139 0.659,-1.543 0.269,-0.402 0.546,-0.666 0.83,-0.789 0.284,-0.121 0.789,-0.184 1.515,-0.184 l 5.606,0 0,-10e-4 z"
   id="path783"
   inkscape:connector-curvature="0" />
		</g><g
   id="g785"
   transform="translate(154.501,784.318)">
			<path
   d="m -43.094,-25.951 0,1.25 -1.594,0 0,3.156 -1.453,0 0,-3.156 -5.047,0 0,-1.127 5.531,-7.889 0.969,0 0,7.766 1.594,0 z m -3.046,0 0,-5.883 -4.186,5.883 4.186,0 z"
   id="path787"
   inkscape:connector-curvature="0" />
		</g>
<line
   x1="118.86"
   y1="747.49701"
   x2="95.860001"
   y2="747.49701"
   id="line789"
   style="fill:none;stroke:#010101;stroke-width:2" />
<g
   id="g791"
   transform="translate(0,-0.1997)">
	<g
   transform="translate(242.7,786.5)"
   id="g793">
		<g
   id="g795">
			<path
   d="m -212.901,-47.014 4.547,0 0,1.328 -4.547,0 0,-1.328 z"
   id="path797"
   inkscape:connector-curvature="0" />
			<path
   d="m -199.392,-44.621 -0.836,2.311 -7.039,0 0,-0.33 c 2.077,-1.885 3.538,-3.426 4.386,-4.619 0.847,-1.193 1.271,-2.287 1.271,-3.275 0,-0.76 -0.232,-1.385 -0.697,-1.869 -0.465,-0.488 -1.021,-0.732 -1.668,-0.732 -0.588,0 -1.116,0.17 -1.584,0.508 -0.468,0.34 -0.813,0.836 -1.037,1.492 l -0.326,0 c 0.146,-1.076 0.524,-1.904 1.132,-2.48 0.608,-0.576 1.368,-0.863 2.278,-0.863 0.969,0 1.779,0.311 2.428,0.934 0.649,0.621 0.974,1.355 0.974,2.201 0,0.605 -0.141,1.209 -0.423,1.814 -0.435,0.947 -1.14,1.953 -2.116,3.014 -1.464,1.59 -2.373,2.545 -2.726,2.867 l 3.095,0 c 0.63,0 1.071,-0.023 1.325,-0.07 0.253,-0.047 0.482,-0.143 0.687,-0.285 0.204,-0.145 0.382,-0.348 0.533,-0.611 l 0.343,0 0,-0.007 0,0 z"
   id="path799"
   inkscape:connector-curvature="0" />
			<path
   d="m -189.907,-50.373 0,1.281 -2.037,0 -0.176,2.682 c -0.035,0.465 -0.053,0.869 -0.053,1.209 0,0.818 0.096,1.316 0.287,1.496 0.191,0.18 0.422,0.27 0.692,0.27 0.564,0 0.899,-0.354 1.005,-1.063 l 0.313,0 c -0.194,1.625 -0.846,2.438 -1.955,2.438 -0.517,0 -0.932,-0.158 -1.246,-0.477 -0.313,-0.316 -0.471,-0.787 -0.471,-1.41 0,-0.41 0.062,-1.279 0.185,-2.607 l 0.237,-2.537 -1.859,0 c -0.123,2.141 -0.271,3.701 -0.442,4.689 -0.173,0.984 -0.362,1.623 -0.569,1.912 -0.208,0.287 -0.489,0.432 -0.846,0.432 -0.269,0 -0.495,-0.08 -0.679,-0.238 -0.184,-0.158 -0.276,-0.367 -0.276,-0.625 0,-0.248 0.157,-0.586 0.471,-1.014 0.459,-0.623 0.802,-1.27 1.03,-1.943 0.227,-0.672 0.398,-1.742 0.515,-3.211 l -0.597,0 c -0.479,0 -0.847,0.105 -1.102,0.318 -0.254,0.215 -0.496,0.52 -0.724,0.916 l -0.313,0 c 0.17,-0.625 0.39,-1.141 0.659,-1.543 0.269,-0.402 0.546,-0.666 0.83,-0.789 0.284,-0.123 0.789,-0.184 1.515,-0.184 l 5.606,0 0,-0.002 0,0 z"
   id="path801"
   inkscape:connector-curvature="0" />
		</g>
	</g>
</g>
<line
   x1="185.86"
   y1="747.49701"
   x2="162.86"
   y2="747.49701"
   id="line803"
   style="fill:none;stroke:#010101;stroke-width:2" />
<line
   x1="252.96001"
   y1="747.49701"
   x2="229.96001"
   y2="747.49701"
   id="line805"
   style="fill:none;stroke:#010101;stroke-width:2" />
<g
   id="g811"
   transform="translate(150.8665,787.6183)">
			<path
   d="m 11.981,-48.333 4.547,0 0,1.328 -4.547,0 0,-1.328 0,0 z"
   id="path813"
   inkscape:connector-curvature="0" />
			<path
   d="m 18.163,-53.286 c 0.34,-0.803 0.769,-1.424 1.287,-1.857 0.518,-0.439 1.164,-0.656 1.937,-0.656 0.955,0 1.687,0.311 2.196,0.932 0.387,0.463 0.58,0.959 0.58,1.486 0,0.867 -0.542,1.764 -1.625,2.688 0.73,0.287 1.283,0.697 1.657,1.23 0.374,0.533 0.562,1.16 0.562,1.881 0,1.031 -0.328,1.924 -0.985,2.68 -0.856,0.984 -2.096,1.479 -3.72,1.479 -0.803,0 -1.35,-0.1 -1.64,-0.297 -0.291,-0.199 -0.436,-0.412 -0.436,-0.643 0,-0.17 0.069,-0.316 0.207,-0.445 0.138,-0.129 0.304,-0.193 0.497,-0.193 0.146,0 0.296,0.023 0.449,0.07 0.1,0.027 0.326,0.135 0.678,0.316 0.352,0.184 0.596,0.293 0.73,0.328 0.217,0.064 0.449,0.098 0.695,0.098 0.599,0 1.12,-0.23 1.563,-0.693 0.443,-0.463 0.665,-1.01 0.665,-1.645 0,-0.463 -0.103,-0.912 -0.309,-1.354 -0.154,-0.328 -0.321,-0.576 -0.504,-0.746 -0.254,-0.234 -0.601,-0.447 -1.043,-0.639 -0.441,-0.189 -0.892,-0.285 -1.351,-0.285 l -0.282,0 0,-0.266 c 0.465,-0.059 0.932,-0.225 1.4,-0.5 0.468,-0.275 0.809,-0.605 1.021,-0.99 0.212,-0.387 0.318,-0.811 0.318,-1.273 0,-0.602 -0.189,-1.088 -0.567,-1.461 -0.378,-0.371 -0.849,-0.557 -1.411,-0.557 -0.909,0 -1.668,0.484 -2.278,1.453 l -0.291,-0.141 z"
   id="path815"
   inkscape:connector-curvature="0" />
			<path
   d="m 34.975,-51.69 0,1.279 -2.037,0 -0.176,2.686 c -0.035,0.465 -0.053,0.865 -0.053,1.209 0,0.814 0.096,1.314 0.287,1.494 0.191,0.18 0.422,0.27 0.692,0.27 0.564,0 0.899,-0.354 1.005,-1.063 l 0.313,0 c -0.194,1.625 -0.846,2.438 -1.955,2.438 -0.517,0 -0.932,-0.158 -1.246,-0.475 -0.313,-0.318 -0.471,-0.787 -0.471,-1.41 0,-0.412 0.062,-1.281 0.185,-2.609 l 0.237,-2.537 -1.859,0 c -0.123,2.139 -0.271,3.701 -0.442,4.688 -0.173,0.986 -0.362,1.625 -0.569,1.912 -0.208,0.287 -0.489,0.432 -0.846,0.432 -0.269,0 -0.495,-0.078 -0.679,-0.238 -0.184,-0.156 -0.276,-0.365 -0.276,-0.625 0,-0.246 0.157,-0.584 0.471,-1.014 0.459,-0.621 0.802,-1.27 1.03,-1.941 0.227,-0.674 0.398,-1.742 0.515,-3.213 l -0.597,0 c -0.479,0 -0.847,0.107 -1.102,0.32 -0.254,0.213 -0.496,0.518 -0.724,0.914 l -0.313,0 c 0.17,-0.625 0.39,-1.139 0.659,-1.543 0.269,-0.402 0.546,-0.666 0.83,-0.789 0.284,-0.121 0.789,-0.184 1.515,-0.184 l 5.606,0 0,-10e-4 z"
   id="path817"
   inkscape:connector-curvature="0" />
		</g><g
   id="g819"
   transform="translate(149.8005,784.8)">
			<path
   d="m 28.497,-24.341 -0.836,2.311 -7.039,0 0,-0.326 c 2.077,-1.889 3.538,-3.428 4.386,-4.621 0.847,-1.193 1.271,-2.287 1.271,-3.277 0,-0.758 -0.232,-1.381 -0.697,-1.869 -0.465,-0.488 -1.021,-0.732 -1.668,-0.732 -0.588,0 -1.116,0.17 -1.584,0.51 -0.468,0.338 -0.813,0.836 -1.037,1.49 l -0.327,0 c 0.146,-1.076 0.524,-1.902 1.132,-2.479 0.608,-0.578 1.368,-0.865 2.278,-0.865 0.969,0 1.779,0.313 2.428,0.934 0.649,0.623 0.974,1.357 0.974,2.201 0,0.605 -0.141,1.209 -0.423,1.813 -0.435,0.949 -1.14,1.955 -2.116,3.016 -1.464,1.59 -2.373,2.543 -2.726,2.865 l 3.095,0 c 0.63,0 1.071,-0.021 1.325,-0.068 0.253,-0.049 0.482,-0.145 0.687,-0.285 0.204,-0.146 0.382,-0.35 0.533,-0.611 l 0.344,0 0,-0.007 0,0 z"
   id="path821"
   inkscape:connector-curvature="0" />
		</g>
<g
   inkscape:groupmode="layer"
   id="layer1"
   inkscape:label="Capa"
   style="display:inline"><path
     style="fill:none;stroke:#ff0000;stroke-width:5.19999980999999960;stroke-linecap:round;stroke-linejoin:round;stroke-miterlimit:4;stroke-opacity:1;stroke-dasharray:none;stroke-dashoffset:0"
     d="m 41.835029,366.17404 c 0,0 68.194321,-328.534321 132.779151,-327.904735 64.58484,0.629586 133.27283,326.964625 133.27283,326.964625 0,0 71.57237,327.99535 134.50622,328.21674 62.93385,0.22138 134.83616,-328.21674 134.83616,-328.21674 0,0 71.68101,-327.695698 133.53752,-326.779143 61.85652,0.916556 135.3348,326.779143 135.3348,326.779143 0,0 72.47055,328.05286 133.03406,328.63862 60.56353,0.58575 134.42813,-328.16857 134.42813,-328.16857"
     id="path3766"
     inkscape:connector-curvature="0"
     sodipodi:nodetypes="czczczczc" /></g></svg>