<?xml version="1.0" encoding="utf-8"?>
<!-- Generator: Adobe Illustrator 13.0.0, SVG Export Plug-In . SVG Version: 6.00 Build 14948)  -->
<!DOCTYPE svg PUBLIC "-//W3C//DTD SVG 1.1//EN" "http://www.w3.org/Graphics/SVG/1.1/DTD/svg11.dtd">
<svg version="1.1" id="圖層_1" xmlns="http://www.w3.org/2000/svg" xmlns:xlink="http://www.w3.org/1999/xlink" x="0px" y="0px"
	 width="600px" height="400px" viewBox="0 0 600 400" enable-background="new 0 0 600 400" xml:space="preserve">
<title>two_kind_of_arccot.svg</title>
<desc>http://commons.wikimedia.org/wiki/File:two_kind_of_arccot.svg
Plot created with Adobe Illustrator.</desc>
<g id="figure_1">
	<g id="axes_1">
		<g id="line2d_1">
			<g>
				<g>
					<g>
						<defs>
							<rect id="SVGID_2_" x="53.5" y="18.5" width="515" height="355"/>
						</defs>
						<clipPath id="SVGID_3_">
							<use xlink:href="#SVGID_2_"  overflow="visible"/>
						</clipPath>
						
							<polyline clip-path="url(#SVGID_3_)" fill="none" stroke="#6BB82D" stroke-width="2.4" stroke-linejoin="round" stroke-dasharray="6,6" points="
							310.96,373.464 301.166,365.016 295.671,360.578 290.838,356.957 286.252,353.798 281.794,350.993 277.32,348.438 
							272.706,346.059 267.948,343.857 262.963,341.798 257.741,339.881 252.164,338.07 246.199,336.367 239.665,334.734 
							232.468,333.172 224.704,331.716 216.109,330.332 206.556,329.02 195.896,327.775 183.564,326.568 169.603,325.434 
							153.735,324.368 134.922,323.339 113.171,322.38 87.927,321.493 57.1,320.641 20.58,319.859 -1,319.482 						"/>
					</g>
				</g>
				<g>
					<g>
						<defs>
							<rect id="SVGID_4_" x="53.5" y="18.5" width="515" height="355"/>
						</defs>
						<clipPath id="SVGID_5_">
							<use xlink:href="#SVGID_4_"  overflow="visible"/>
						</clipPath>
						
							<path clip-path="url(#SVGID_5_)" fill="none" stroke="#6BB82D" stroke-width="2.4" stroke-linejoin="round" stroke-dasharray="6,6" d="
							M601,308.799c-68.5-1.22-137.5-1.22-207.5-12.22c-13-2-25-7-38-11c-14-5-25-14-37-23c-2-2-4-5-6.64-6.567"/>
					</g>
				</g>
				<g>
					<rect id="SVGID_1_" x="53.5" y="18.5" fill="none" stroke="#6BB82D" width="515" height="355"/>
				</g>
			</g>
		</g>
		<g id="line2d_2">
			<g>
				<g id="Layer_3">
					<ellipse fill="#FF0000" stroke="#FF0000" cx="311.319" cy="136.037" rx="5.25" ry="4.625"/>
				</g>
				<g>
					<g>
						<defs>
							<rect id="SVGID_6_" x="53.5" y="18.5" width="515" height="355"/>
						</defs>
						<clipPath id="SVGID_7_">
							<use xlink:href="#SVGID_6_"  overflow="visible"/>
						</clipPath>
						
							<path clip-path="url(#SVGID_7_)" fill="none" stroke="#FF0000" stroke-width="2.4" stroke-linecap="square" stroke-linejoin="round" d="
							M600,192.466c-51.5-0.887-103.5-1.887-156.5-5.887c-19-2-37-3-55-8c-2,0-3,0-5,0c-10-3-20-5-29-9c-15-7-29-16-41.443-28.024"
							/>
					</g>
				</g>
				<g>
					<g>
						<defs>
							<rect id="SVGID_8_" x="53.5" y="18.5" width="515" height="355"/>
						</defs>
						<clipPath id="SVGID_9_">
							<use xlink:href="#SVGID_8_"  overflow="visible"/>
						</clipPath>
						
							<path clip-path="url(#SVGID_9_)" fill="none" stroke="#0000CC" stroke-width="2.4" stroke-linecap="square" stroke-linejoin="round" d="
							M601,190.466l-38.504-0.832l-31.774-0.9l-26.584-0.97l-21.976-1.018l-18.811-1.088l-15.905-1.136l-13.868-1.207l-12.161-1.278
							l-10.727-1.349l-9.521-1.42l-8.496-1.491l-7.628-1.562l-6.888-1.633l-6.339-1.728l-5.853-1.822l-5.419-1.917l-5.097-2.036
							l-4.857-2.177l-4.635-2.319l-4.517-2.509L337,157.352l-4.475-3.005l-4.602-3.361l-4.957-3.905l-5.781-4.852l-21.003-17.915
							l-4.889-3.692l-4.598-3.195l-4.473-2.84l-4.472-2.58l-4.59-2.39l-4.758-2.225l-4.929-2.059l-5.226-1.941l-5.547-1.822
							l-5.977-1.728l-6.457-1.633l-7.103-1.562l-7.72-1.467l-8.549-1.396l-9.508-1.325l-10.616-1.254l-12.159-1.207l-13.744-1.136
							l-15.977-1.088l-18.304-1.018l-21.634-0.971l-25.155-0.899l-30.296-0.852l-35.804-0.781L-1,82.815"/>
					</g>
				</g>
			</g>
			<g id="line2d_2_1_">
				<g>
					<g>
						<g>
							<defs>
								<rect id="SVGID_10_" x="53.5" y="136.5" width="515" height="355"/>
							</defs>
							<clipPath id="SVGID_11_">
								<use xlink:href="#SVGID_10_"  overflow="visible"/>
							</clipPath>
							
								<path clip-path="url(#SVGID_11_)" fill="none" stroke="#FF0000" stroke-width="2.4" stroke-linecap="square" stroke-linejoin="round" d="
								M308.924,253.178c-12.041-10.269-23.842-19.988-38.294-26.744c-14.09-6.59-29.292-10.379-44.547-13.133
								c-14.406-2.6-29.03-4.275-43.615-5.48c-15.394-1.271-30.799-2.315-46.227-3.079c-15.535-0.771-31.082-1.368-46.627-1.859
								c-15.885-0.503-31.773-0.883-47.662-1.229c-14.317-0.313-28.633-0.582-42.951-0.836"/>
						</g>
					</g>
					<g>
						<g>
							<defs>
								<rect id="SVGID_12_" x="53.5" y="136.5" width="515" height="355"/>
							</defs>
							<clipPath id="SVGID_13_">
								<use xlink:href="#SVGID_12_"  overflow="visible"/>
							</clipPath>
							
								<path clip-path="url(#SVGID_13_)" fill="none" stroke="#0000CC" stroke-width="2.4" stroke-linecap="square" stroke-linejoin="round" d="
								M601,308.466c-4.922-0.106-9.844-0.213-14.766-0.319"/>
						</g>
					</g>
				</g>
			</g>
			<ellipse fill="none" stroke="#FF0000" stroke-width="2" cx="311.087" cy="255.596" rx="5.625" ry="6.375"/>
		</g>
		<g id="line2d_3">
			<g>
				<g>
					<g>
						<defs>
							<rect id="SVGID_14_" x="53.5" y="18.5" width="515" height="355"/>
						</defs>
						<clipPath id="SVGID_15_">
							<use xlink:href="#SVGID_14_"  overflow="visible"/>
						</clipPath>
						
							<path clip-path="url(#SVGID_15_)" fill="none" stroke="#6BB82D" stroke-width="2.4" stroke-linejoin="round" stroke-dasharray="6,6" d="
							M601,72.133L562.496,71.3l-31.774-0.899l-26.297-0.958l-22.035-1.018l-18.852-1.089l-16.092-1.147l-13.868-1.207
							l-12.161-1.278l-10.641-1.337l-9.459-1.408l-8.455-1.479l-7.654-1.562l-6.956-1.645l-6.351-1.728l-5.859-1.822l-5.459-1.929
							l-5.129-2.047l-4.857-2.177l-4.654-2.332l-4.518-2.508l-4.438-2.722l-4.456-2.994l-4.602-3.36l-4.94-3.894l-5.783-4.852
							l-6.191-5.396"/>
					</g>
				</g>
			</g>
		</g>
		<g id="patch_3">
			<path fill="none" stroke="#000000" stroke-width="1.25" stroke-linejoin="round" d="M53.5,18.5h515"/>
		</g>
		<g id="patch_4">
			<path fill="none" stroke="#000000" stroke-width="1.25" stroke-linejoin="round" d="M568.5,373.5v-355"/>
		</g>
		<g id="patch_5">
			<path fill="none" stroke="#000000" stroke-width="1.25" stroke-linejoin="round" d="M53.5,373.5h515"/>
		</g>
		<g id="patch_6">
			<path fill="none" stroke="#000000" stroke-width="1.25" stroke-linejoin="round" d="M53.5,373.5v-355"/>
		</g>
		<g id="matplotlib.axis_2">
			<g id="ytick_1">
				<g id="line2d_43">
					<g>
						<g>
							<g>
								<defs>
									<rect id="SVGID_16_" x="53.5" y="18.5" width="515" height="355"/>
								</defs>
								<clipPath id="SVGID_17_">
									<use xlink:href="#SVGID_16_"  overflow="visible"/>
								</clipPath>
								
									<path clip-path="url(#SVGID_17_)" fill="none" stroke="#000000" stroke-width="0.5" stroke-linejoin="round" stroke-dasharray="1,3" d="
									M53.5,373.5h515"/>
							</g>
						</g>
					</g>
				</g>
				<g id="line2d_44">
					<g>
						<g>
							<path id="m86ea02120d" stroke="#000000" stroke-width="1.25" stroke-linejoin="round" d="M53.5,373.5h4"/>
						</g>
					</g>
				</g>
				<g id="line2d_45">
					<g>
						<g>
							<path id="m08e0baaaa9" stroke="#000000" stroke-width="1.25" stroke-linejoin="round" d="M568.5,373.5h-4"/>
						</g>
					</g>
				</g>
				<g id="text_14">
					<g transform="translate(0.155 377.915)scale(0.16 -0.16)">
						<g>
							<path id="DejaVuSans-2212_6_" d="M10.594,35.504h62.595v-8.301H10.594V35.504z"/>
						</g>
						<g>
							<path id="DejaVuSans-31_2_" d="M96.196,8.294h16.107v55.627l-17.529-3.516v8.984l17.438,3.516h9.857V8.294h16.11V0H96.196
								V8.294z"/>
						</g>
						<g>
							<path id="DejaVuSans-2e" d="M158.101,12.408h10.312V0h-10.312V12.408z"/>
						</g>
						<g>
							<path id="DejaVuSans-35_2_" d="M189.995,72.906h38.721v-8.313h-29.688V46.734c1.425,0.488,2.853,0.854,4.282,1.093
								c1.437,0.238,2.875,0.36,4.312,0.36c8.136,0,14.578-2.228,19.327-6.689c4.761-4.456,7.141-10.492,7.141-18.103
								c0-7.849-2.441-13.947-7.327-18.298c-4.886-4.346-11.771-6.519-20.654-6.519c-3.061,0-6.183,0.256-9.36,0.781
								c-3.168,0.525-6.442,1.306-9.83,2.344v9.924c2.927-1.599,5.951-2.783,9.076-3.564s6.427-1.172,9.909-1.172
								c5.637,0,10.092,1.477,13.373,4.437c3.296,2.96,4.941,6.976,4.941,12.067c0,5.066-1.645,9.082-4.941,12.042
								c-3.281,2.972-7.736,4.449-13.373,4.449c-2.637,0-5.267-0.287-7.892-0.867c-2.615-0.586-5.286-1.501-8.017-2.734V72.906
								L189.995,72.906z"/>
						</g>
						<g>
							<path id="DejaVuSans-3c0" d="M246.431,54.687h52.393v-8.984h-6.876V12.109c0-2.344,0.394-4.034,1.187-5.06
								c0.803-1.025,2.1-1.538,3.891-1.538c0.488,0,1.086,0.049,1.797,0.128c0.717,0.085,1.19,0.14,1.419,0.177V-0.69
								c-1.135-0.415-2.307-0.72-3.516-0.916c-1.205-0.201-2.411-0.305-3.607-0.305c-3.906,0-6.61,1.074-8.112,3.21
								c-1.498,2.136-2.249,6.067-2.249,11.792v32.611h-20.157V0h-9.189v45.703h-6.982V54.687L246.431,54.687z"/>
						</g>
					</g>
				</g>
			</g>
			<g id="ytick_2">
				<g id="line2d_47">
					<g>
						<g>
							<path id="m86ea02120d_1_" stroke="#000000" stroke-width="1.25" stroke-linejoin="round" d="M53.5,314.334h4"/>
						</g>
					</g>
				</g>
				<g id="line2d_48">
					<g>
						<g>
							<path id="m08e0baaaa9_1_" stroke="#000000" stroke-width="1.25" stroke-linejoin="round" d="M568.5,314.334h-4"/>
						</g>
					</g>
				</g>
				<g id="text_15">
					<g transform="translate(0.155 318.748333333)scale(0.16 -0.16)">
						<g>
							<path id="DejaVuSans-2212_7_" d="M10.594,35.5h62.595v-8.301H10.594V35.5z"/>
						</g>
						<g>
							<path id="DejaVuSans-31_3_" d="M96.196,8.296h16.107v55.621l-17.529-3.516v8.984l17.438,3.516h9.857V8.296h16.11V0.002
								H96.196V8.296z"/>
						</g>
						<g>
							<path id="DejaVuSans-2e_1_" d="M158.101,12.404h10.312V0.002h-10.312V12.404z"/>
						</g>
						<g>
							<path id="DejaVuSans-30_1_" d="M210.982,66.408c-5.075,0-8.893-2.502-11.453-7.501c-2.551-4.987-3.83-12.5-3.83-22.528
								c0-9.998,1.279-17.487,3.83-22.485c2.56-5.005,6.378-7.501,11.453-7.501c5.112,0,8.948,2.496,11.499,7.501
								c2.563,4.999,3.842,12.488,3.842,22.485c0,10.028-1.279,17.542-3.842,22.528C219.93,63.906,216.094,66.408,210.982,66.408
								 M210.982,74.22c8.176,0,14.423-3.235,18.732-9.705c4.315-6.458,6.473-15.839,6.473-28.137
								c0-12.274-2.158-21.643-6.473-28.113c-4.309-6.458-10.556-9.686-18.732-9.686c-8.17,0-14.407,3.229-18.719,9.686
								c-4.309,6.47-6.47,15.839-6.47,28.113c0,12.299,2.161,21.68,6.47,28.137C196.575,70.986,202.812,74.22,210.982,74.22"/>
						</g>
						<g>
							<path id="DejaVuSans-3c0_1_" d="M246.431,54.689h52.393v-8.984h-6.876V12.111c0-2.344,0.394-4.034,1.187-5.066
								c0.803-1.019,2.1-1.526,3.891-1.526c0.488,0,1.086,0.037,1.797,0.122c0.717,0.085,1.19,0.14,1.419,0.171v-6.5
								c-1.135-0.415-2.307-0.726-3.516-0.922c-1.205-0.195-2.411-0.293-3.607-0.293c-3.906,0-6.61,1.062-8.112,3.198
								c-1.498,2.136-2.249,6.067-2.249,11.798v32.611h-20.157V0.002h-9.189v45.703h-6.982V54.689L246.431,54.689z"/>
						</g>
					</g>
				</g>
			</g>
			<g id="ytick_3">
				<g id="line2d_50">
					<g>
						<g>
							<path id="m86ea02120d_2_" stroke="#000000" stroke-width="1.25" stroke-linejoin="round" d="M53.5,255.166h4"/>
						</g>
					</g>
				</g>
				<g id="line2d_51">
					<g>
						<g>
							<path id="m08e0baaaa9_2_" stroke="#000000" stroke-width="1.25" stroke-linejoin="round" d="M568.5,255.166h-4"/>
						</g>
					</g>
				</g>
				<g id="text_16">
					<g transform="translate(0.155 259.581666667)scale(0.16 -0.16)">
						<g>
							<path id="DejaVuSans-2212_8_" d="M10.594,35.496h62.595v-8.289H10.594V35.496z"/>
						</g>
						<g>
							<path id="DejaVuSans-30_2_" d="M115.572,66.404c-5.075,0-8.893-2.496-11.453-7.495c-2.554-4.993-3.83-12.5-3.83-22.534
								c0-9.985,1.276-17.48,3.83-22.485c2.56-4.999,6.378-7.495,11.453-7.495c5.112,0,8.948,2.496,11.499,7.495
								c2.563,5.005,3.842,12.5,3.842,22.485c0,10.034-1.279,17.542-3.842,22.534C124.52,63.908,120.683,66.404,115.572,66.404
								 M115.572,74.216c8.176,0,14.42-3.235,18.732-9.705c4.315-6.458,6.47-15.833,6.47-28.137c0-12.268-2.155-21.643-6.47-28.113
								c-4.312-6.458-10.556-9.68-18.732-9.68c-8.17,0-14.407,3.223-18.719,9.68c-4.312,6.47-6.47,15.845-6.47,28.113
								c0,12.305,2.158,21.68,6.47,28.137C101.164,70.982,107.402,74.216,115.572,74.216"/>
						</g>
						<g>
							<path id="DejaVuSans-2e_2_" d="M158.101,12.406h10.312V-0.002h-10.312V12.406z"/>
						</g>
						<g>
							<path id="DejaVuSans-35_3_" d="M189.995,72.91h38.721v-8.313h-29.688V46.738c1.425,0.488,2.853,0.854,4.282,1.086
								c1.437,0.244,2.875,0.366,4.312,0.366c8.136,0,14.578-2.234,19.327-6.689c4.761-4.456,7.141-10.498,7.141-18.115
								c0-7.837-2.441-13.94-7.327-18.292c-4.886-4.346-11.771-6.512-20.654-6.512c-3.061,0-6.183,0.256-9.36,0.781
								c-3.168,0.519-6.442,1.3-9.83,2.344v9.918c2.927-1.593,5.951-2.777,9.076-3.558s6.427-1.172,9.909-1.172
								c5.637,0,10.092,1.477,13.373,4.431c3.296,2.96,4.941,6.982,4.941,12.061s-1.645,9.094-4.941,12.048
								c-3.281,2.972-7.736,4.456-13.373,4.456c-2.637,0-5.267-0.293-7.892-0.879c-2.615-0.58-5.286-1.489-8.017-2.734V72.91
								L189.995,72.91z"/>
						</g>
						<g>
							<path id="DejaVuSans-3c0_2_" d="M246.431,54.685h52.393v-8.984h-6.876V12.107c0-2.344,0.394-4.028,1.187-5.06
								c0.803-1.019,2.1-1.532,3.891-1.532c0.488,0,1.086,0.043,1.797,0.122c0.717,0.085,1.19,0.146,1.419,0.171v-6.494
								c-1.135-0.415-2.307-0.726-3.516-0.928c-1.205-0.195-2.411-0.293-3.607-0.293c-3.906,0-6.61,1.068-8.112,3.204
								c-1.498,2.13-2.249,6.067-2.249,11.798v32.605h-20.157V-0.002h-9.189v45.703h-6.982V54.685L246.431,54.685z"/>
						</g>
					</g>
				</g>
			</g>
			<g id="ytick_4">
				<g id="line2d_53">
					<g>
						<g>
							<path id="m86ea02120d_3_" stroke="#000000" stroke-width="1.25" stroke-linejoin="round" d="M53.5,196h4"/>
						</g>
					</g>
				</g>
				<g id="line2d_54">
					<g>
						<g>
							<path id="m08e0baaaa9_3_" stroke="#000000" stroke-width="1.25" stroke-linejoin="round" d="M568.5,196h-4"/>
						</g>
					</g>
				</g>
				<g id="text_17">
					<g transform="translate(12.9225 200.415)scale(0.16 -0.16)">
						<g>
							<path id="DejaVuSans-30_3_" d="M31.78,66.406c-5.072,0-8.89-2.499-11.453-7.501c-2.551-4.987-3.827-12.5-3.827-22.528
								c0-9.991,1.276-17.487,3.827-22.485C22.89,8.89,26.708,6.39,31.78,6.39c5.115,0,8.948,2.499,11.502,7.501
								c2.56,4.999,3.842,12.494,3.842,22.485c0,10.028-1.282,17.542-3.842,22.528C40.728,63.907,36.895,66.406,31.78,66.406
								 M31.78,74.219c8.179,0,14.423-3.235,18.735-9.702c4.312-6.461,6.47-15.839,6.47-28.14c0-12.271-2.158-21.643-6.47-28.11
								C46.203,1.806,39.959-1.422,31.78-1.422c-8.167,0-14.404,3.229-18.716,9.689c-4.315,6.467-6.47,15.839-6.47,28.11
								c0,12.302,2.155,21.68,6.47,28.14C17.376,70.984,23.614,74.219,31.78,74.219"/>
						</g>
						<g>
							<path id="DejaVuSans-2e_3_" d="M74.309,12.405h10.315V0H74.309V12.405z"/>
						</g>
						<g>
							<path id="DejaVuSans-30_4_" d="M127.19,66.406c-5.072,0-8.89-2.499-11.453-7.501c-2.551-4.987-3.827-12.5-3.827-22.528
								c0-9.991,1.276-17.487,3.827-22.485c2.563-5.002,6.381-7.501,11.453-7.501c5.115,0,8.948,2.499,11.502,7.501
								c2.56,4.999,3.842,12.494,3.842,22.485c0,10.028-1.282,17.542-3.842,22.528C136.138,63.907,132.305,66.406,127.19,66.406
								 M127.19,74.219c8.179,0,14.423-3.235,18.735-9.702c4.312-6.461,6.47-15.839,6.47-28.14c0-12.271-2.158-21.643-6.47-28.11
								c-4.312-6.461-10.556-9.689-18.735-9.689c-8.167,0-14.404,3.229-18.716,9.689c-4.315,6.467-6.47,15.839-6.47,28.11
								c0,12.302,2.155,21.68,6.47,28.14C112.786,70.984,119.024,74.219,127.19,74.219"/>
						</g>
						<g>
							<path id="DejaVuSans-3c0_3_" d="M162.643,54.687h52.39v-8.984h-6.873V12.109c0-2.344,0.394-4.031,1.187-5.063
								c0.8-1.019,2.097-1.529,3.891-1.529c0.488,0,1.086,0.04,1.794,0.122c0.72,0.085,1.193,0.14,1.422,0.174V-0.69
								c-1.135-0.415-2.307-0.72-3.516-0.916c-1.208-0.201-2.411-0.299-3.607-0.299c-3.906,0-6.61,1.068-8.112,3.201
								c-1.498,2.136-2.249,6.067-2.249,11.798v32.608h-20.157V0h-9.186v45.703h-6.985V54.687L162.643,54.687z"/>
						</g>
					</g>
				</g>
			</g>
			<g id="ytick_5">
				<g id="line2d_56">
					<g>
						<g>
							<path id="m86ea02120d_4_" stroke="#000000" stroke-width="1.25" stroke-linejoin="round" d="M53.5,136.833h4"/>
						</g>
					</g>
				</g>
				<g id="line2d_57">
					<g>
						<g>
							<path id="m08e0baaaa9_4_" stroke="#000000" stroke-width="1.25" stroke-linejoin="round" d="M568.5,136.833h-4"/>
						</g>
					</g>
				</g>
				<g id="text_18">
					<g transform="translate(12.9225 141.248333333)scale(0.16 -0.16)">
						<g>
							<path id="DejaVuSans-30_5_" d="M31.78,66.405c-5.072,0-8.89-2.499-11.453-7.498c-2.551-4.99-3.827-12.5-3.827-22.531
								c0-9.991,1.276-17.487,3.827-22.485c2.563-4.999,6.381-7.501,11.453-7.501c5.115,0,8.948,2.502,11.502,7.501
								c2.56,4.999,3.842,12.494,3.842,22.485c0,10.031-1.282,17.542-3.842,22.531C40.728,63.906,36.895,66.405,31.78,66.405
								 M31.78,74.218c8.179,0,14.423-3.232,18.735-9.702c4.312-6.458,6.47-15.839,6.47-28.14c0-12.271-2.158-21.64-6.47-28.11
								C46.203,1.808,39.959-1.423,31.78-1.423c-8.167,0-14.404,3.232-18.716,9.689c-4.315,6.47-6.47,15.839-6.47,28.11
								c0,12.302,2.155,21.683,6.47,28.14C17.376,70.986,23.614,74.218,31.78,74.218"/>
						</g>
						<g>
							<path id="DejaVuSans-2e_4_" d="M74.309,12.407h10.315V-0.001H74.309V12.407z"/>
						</g>
						<g>
							<path id="DejaVuSans-35_4_" d="M106.206,72.905h38.721v-8.31H115.24V46.733c1.425,0.491,2.853,0.854,4.279,1.096
								c1.437,0.238,2.878,0.357,4.315,0.357c8.133,0,14.578-2.228,19.327-6.686c4.761-4.459,7.141-10.495,7.141-18.109
								c0-7.843-2.444-13.943-7.327-18.298c-4.886-4.343-11.771-6.516-20.657-6.516c-3.064,0-6.183,0.262-9.36,0.781
								c-3.168,0.522-6.442,1.303-9.827,2.344v9.924c2.927-1.596,5.951-2.783,9.076-3.564s6.427-1.172,9.906-1.172
								c5.637,0,10.095,1.48,13.376,4.437c3.293,2.96,4.938,6.979,4.938,12.064c0,5.072-1.645,9.088-4.938,12.048
								c-3.281,2.966-7.739,4.453-13.376,4.453c-2.634,0-5.264-0.293-7.889-0.876c-2.615-0.583-5.286-1.495-8.017-2.734V72.905
								L106.206,72.905z"/>
						</g>
						<g>
							<path id="DejaVuSans-3c0_4_" d="M162.643,54.686h52.39v-8.984h-6.873V12.108c0-2.344,0.394-4.031,1.187-5.063
								c0.8-1.019,2.097-1.529,3.891-1.529c0.488,0,1.086,0.04,1.794,0.125c0.72,0.082,1.193,0.14,1.422,0.171v-6.5
								c-1.135-0.415-2.307-0.723-3.516-0.922s-2.411-0.296-3.607-0.296c-3.906,0-6.61,1.068-8.112,3.201
								c-1.498,2.136-2.249,6.07-2.249,11.798v32.608h-20.157V-0.001h-9.186v45.703h-6.985V54.686L162.643,54.686z"/>
						</g>
					</g>
				</g>
			</g>
			<g id="ytick_6">
				<g id="line2d_59">
					<g>
						<g>
							<path id="m86ea02120d_5_" stroke="#000000" stroke-width="1.25" stroke-linejoin="round" d="M53.5,77.667h4"/>
						</g>
					</g>
				</g>
				<g id="line2d_60">
					<g>
						<g>
							<path id="m08e0baaaa9_5_" stroke="#000000" stroke-width="1.25" stroke-linejoin="round" d="M568.5,77.667h-4"/>
						</g>
					</g>
				</g>
				<g id="text_19">
					<g transform="translate(13.625 82.0816666667)scale(0.16 -0.16)">
						<g>
							<path id="DejaVuSans-31_4_" d="M12.405,8.298h16.11v55.624l-17.532-3.516v8.981l17.438,3.519h9.86V8.298h16.11V0.001H12.405
								V8.298z"/>
						</g>
						<g>
							<path id="DejaVuSans-2e_5_" d="M74.31,12.406h10.312V0.001H74.31V12.406z"/>
						</g>
						<g>
							<path id="DejaVuSans-30_6_" d="M127.191,66.407c-5.072,0-8.89-2.499-11.453-7.501c-2.551-4.99-3.827-12.5-3.827-22.531
								c0-9.988,1.276-17.484,3.827-22.485c2.563-4.999,6.381-7.498,11.453-7.498c5.115,0,8.948,2.499,11.499,7.498
								c2.563,5.002,3.845,12.497,3.845,22.485c0,10.031-1.282,17.542-3.845,22.531C136.139,63.908,132.306,66.407,127.191,66.407
								 M127.191,74.219c8.179,0,14.423-3.235,18.735-9.705c4.312-6.458,6.47-15.839,6.47-28.14c0-12.271-2.158-21.64-6.47-28.11
								c-4.312-6.458-10.556-9.686-18.735-9.686c-8.167,0-14.407,3.229-18.719,9.686c-4.312,6.47-6.467,15.839-6.467,28.11
								c0,12.302,2.155,21.683,6.467,28.14C112.784,70.985,119.025,74.219,127.191,74.219"/>
						</g>
						<g>
							<path id="DejaVuSans-3c0_5_" d="M162.643,54.688h52.39v-8.984h-6.876V12.11c0-2.344,0.397-4.031,1.187-5.063
								c0.803-1.022,2.1-1.532,3.891-1.532c0.491,0,1.089,0.043,1.797,0.125c0.72,0.082,1.193,0.14,1.422,0.171v-6.497
								c-1.135-0.418-2.307-0.726-3.516-0.925c-1.208-0.195-2.414-0.296-3.61-0.296c-3.906,0-6.607,1.068-8.112,3.204
								c-1.498,2.133-2.249,6.067-2.249,11.795v32.611h-20.157V0.001h-9.189v45.703h-6.979V54.688L162.643,54.688z"/>
						</g>
					</g>
				</g>
				<path fill="none" stroke="#000000" stroke-width="0.5" stroke-linejoin="round" stroke-dasharray="1,3" d="M53.834,77.667h515"
					/>
				<path fill="none" stroke="#000000" stroke-width="0.75" stroke-linejoin="round" stroke-dasharray="3,1" d="M54.167,196h515"/>
				<path fill="none" stroke="#000000" stroke-width="0.5" stroke-linejoin="round" stroke-dasharray="1,3" d="M54.833,136.667h515"
					/>
				<path fill="none" stroke="#000000" stroke-width="0.5" stroke-linejoin="round" stroke-dasharray="1,3" d="M53.5,255.334h515"/>
				<path fill="none" stroke="#000000" stroke-width="0.5" stroke-linejoin="round" stroke-dasharray="1,3" d="M53.5,314.667h515"/>
			</g>
			<g id="ytick_7">
				<g id="line2d_61">
					<g>
						<g>
							<g>
								<defs>
									<rect id="SVGID_18_" x="53.5" y="18.5" width="515" height="355"/>
								</defs>
								<clipPath id="SVGID_19_">
									<use xlink:href="#SVGID_18_"  overflow="visible"/>
								</clipPath>
								
									<path clip-path="url(#SVGID_19_)" fill="none" stroke="#000000" stroke-width="0.5" stroke-linejoin="round" stroke-dasharray="1,3" d="
									M53.5,18.5h515"/>
							</g>
						</g>
					</g>
				</g>
				<g id="line2d_62">
					<g>
						<g>
							<path id="m86ea02120d_6_" stroke="#000000" stroke-width="1.25" stroke-linejoin="round" d="M53.5,18.5h4"/>
						</g>
					</g>
				</g>
				<g id="line2d_63">
					<g>
						<g>
							<path id="m08e0baaaa9_6_" stroke="#000000" stroke-width="1.25" stroke-linejoin="round" d="M568.5,18.5h-4"/>
						</g>
					</g>
				</g>
				<g id="text_20">
					<g transform="translate(13.625 22.915)scale(0.16 -0.16)">
						<g>
							<path id="DejaVuSans-31_5_" d="M12.405,8.297h16.11v55.624l-17.532-3.516v8.978l17.438,3.522h9.86V8.297h16.11V0H12.405
								V8.297z"/>
						</g>
						<g>
							<path id="DejaVuSans-2e_6_" d="M74.31,12.405h10.312V0H74.31V12.405z"/>
						</g>
						<g>
							<path id="DejaVuSans-35_5_" d="M106.207,72.906h38.718v-8.313h-29.688V46.734c1.428,0.488,2.856,0.854,4.282,1.093
								c1.437,0.241,2.875,0.36,4.312,0.36c8.136,0,14.578-2.228,19.33-6.686c4.761-4.459,7.141-10.495,7.141-18.109
								c0-7.846-2.444-13.943-7.33-18.298c-4.886-4.343-11.771-6.516-20.651-6.516c-3.067,0-6.186,0.262-9.363,0.781
								c-3.168,0.522-6.439,1.303-9.83,2.344v9.921c2.927-1.593,5.954-2.78,9.079-3.561s6.427-1.172,9.906-1.172
								c5.637,0,10.095,1.48,13.376,4.437c3.29,2.957,4.938,6.979,4.938,12.064c0,5.072-1.648,9.088-4.938,12.045
								c-3.281,2.969-7.739,4.453-13.376,4.453c-2.637,0-5.264-0.29-7.892-0.873c-2.612-0.583-5.286-1.495-8.014-2.734V72.906
								L106.207,72.906z"/>
						</g>
						<g>
							<path id="DejaVuSans-3c0_6_" d="M162.643,54.687h52.39v-8.984h-6.876V12.109c0-2.344,0.397-4.031,1.187-5.063
								c0.803-1.019,2.1-1.532,3.891-1.532c0.491,0,1.089,0.043,1.797,0.125c0.72,0.085,1.193,0.14,1.422,0.174v-6.5
								c-1.135-0.418-2.307-0.723-3.516-0.922c-1.212-0.198-2.414-0.299-3.61-0.299c-3.906,0-6.607,1.068-8.112,3.204
								c-1.501,2.136-2.249,6.067-2.249,11.798v32.608h-20.157V0h-9.189v45.703h-6.979V54.687L162.643,54.687z"/>
						</g>
					</g>
				</g>
			</g>
		</g>
		<g id="matplotlib.axis_1">
			<g id="xtick_1">
				<g id="line2d_4">
					<g>
						<g>
							<defs>
								<rect id="SVGID_20_" x="53.5" y="17.5" width="515" height="355"/>
							</defs>
							<clipPath id="SVGID_21_">
								<use xlink:href="#SVGID_20_"  overflow="visible"/>
							</clipPath>
							
								<path clip-path="url(#SVGID_21_)" fill="none" stroke="#000000" stroke-width="0.5" stroke-linejoin="round" stroke-dasharray="1,3" d="
								M53.5,372.5v-355"/>
						</g>
					</g>
				</g>
				<g id="line2d_5">
					<g>
						<g>
							<path id="m56cb9a4f4c" stroke="#000000" stroke-width="1.25" stroke-linejoin="round" d="M53.5,372.5v-4"/>
						</g>
					</g>
				</g>
				<g id="line2d_6">
					<g>
						<g>
							<path id="m01134c304f" stroke="#000000" stroke-width="1.25" stroke-linejoin="round" d="M53.5,17.5v4"/>
						</g>
					</g>
				</g>
				<g id="text_1">
					<g transform="translate(43.0575 392.6575)scale(0.16 -0.16)">
						<g>
							<path id="DejaVuSans-2212" d="M10.593,41.75h62.595v-8.295H10.593V41.75z"/>
						</g>
						<g>
							<path id="DejaVuSans-36" d="M116.804,46.626c-4.425,0-7.938-1.514-10.532-4.547c-2.582-3.021-3.873-7.172-3.873-12.439
								c0-5.243,1.291-9.381,3.873-12.433c2.594-3.046,6.107-4.565,10.532-4.565c4.428,0,7.935,1.52,10.516,4.565
								c2.585,3.052,3.876,7.19,3.876,12.433c0,5.267-1.291,9.418-3.876,12.439C124.738,45.113,121.232,46.626,116.804,46.626
								 M136.384,77.547v-8.984c-2.481,1.166-4.98,2.057-7.501,2.673c-2.521,0.623-5.02,0.94-7.501,0.94
								c-6.509,0-11.484-2.203-14.92-6.598c-3.427-4.395-5.386-11.035-5.875-19.922c1.917,2.832,4.321,5.005,7.217,6.512
								c2.908,1.514,6.1,2.271,9.579,2.271c7.321,0,13.107-2.222,17.358-6.677c4.251-4.431,6.375-10.474,6.375-18.121
								c0-7.489-2.216-13.501-6.644-18.03c-4.425-4.523-10.315-6.781-17.673-6.781c-8.435,0-14.88,3.229-19.342,9.686
								c-4.459,6.47-6.686,15.839-6.686,28.107c0,11.523,2.731,20.709,8.203,27.563c5.469,6.854,12.805,10.278,22.012,10.278
								c2.481,0,4.98-0.244,7.501-0.732S133.643,78.511,136.384,77.547"/>
						</g>
					</g>
				</g>
			</g>
			<g id="xtick_2">
				<g id="line2d_8">
					<g>
						<g>
							<path id="m56cb9a4f4c_1_" stroke="#000000" stroke-width="1.25" stroke-linejoin="round" d="M96.417,372.5v-4"/>
						</g>
					</g>
				</g>
				<g id="line2d_9">
					<g>
						<g>
							<path id="m01134c304f_1_" stroke="#000000" stroke-width="1.25" stroke-linejoin="round" d="M96.417,17.5v4"/>
						</g>
					</g>
				</g>
				<g id="text_2">
					<g transform="translate(86.1691666667 392.6575)scale(0.16 -0.16)">
						<g>
							<path id="DejaVuSans-2212_1_" d="M10.594,41.75h62.595v-8.295H10.594V41.75z"/>
						</g>
						<g>
							<path id="DejaVuSans-35" d="M94.585,79.158h38.721v-8.313h-29.688V52.986c1.425,0.488,2.853,0.854,4.282,1.093
								c1.437,0.238,2.875,0.36,4.312,0.36c8.136,0,14.578-2.234,19.327-6.689c4.761-4.456,7.141-10.498,7.141-18.109
								c0-7.843-2.441-13.947-7.327-18.292S119.582,4.83,110.695,4.83c-3.061,0-6.183,0.256-9.36,0.781
								c-3.165,0.519-6.442,1.3-9.827,2.344v9.924c2.927-1.599,5.951-2.783,9.076-3.564s6.427-1.172,9.909-1.172
								c5.634,0,10.092,1.477,13.373,4.431c3.293,2.966,4.938,6.982,4.938,12.067c0,5.072-1.645,9.088-4.938,12.048
								c-3.281,2.966-7.739,4.449-13.373,4.449c-2.637,0-5.267-0.293-7.892-0.873c-2.615-0.58-5.286-1.495-8.017-2.734V79.158
								L94.585,79.158z"/>
						</g>
					</g>
				</g>
			</g>
			<g id="xtick_3">
				<g id="line2d_11">
					<g>
						<g>
							<path id="m56cb9a4f4c_2_" stroke="#000000" stroke-width="1.25" stroke-linejoin="round" d="M139.333,372.5v-4"/>
						</g>
					</g>
				</g>
				<g id="line2d_12">
					<g>
						<g>
							<path id="m01134c304f_2_" stroke="#000000" stroke-width="1.25" stroke-linejoin="round" d="M139.333,17.5v4"/>
						</g>
					</g>
				</g>
				<g id="text_3">
					<g transform="translate(128.835833333 392.6575)scale(0.16 -0.16)">
						<g>
							<path id="DejaVuSans-2212_2_" d="M10.593,41.75h62.595v-8.295H10.593V41.75z"/>
						</g>
						<g>
							<path id="DejaVuSans-34" d="M121.586,70.564L96.68,31.636h24.905V70.564L121.586,70.564z M118.992,79.158h12.405V31.636
								h10.406v-8.203h-10.406V6.246h-9.811v17.188H88.679v9.521L118.992,79.158z"/>
						</g>
					</g>
				</g>
			</g>
			<g id="xtick_4">
				<g id="line2d_14">
					<g>
						<g>
							<path id="m56cb9a4f4c_3_" stroke="#000000" stroke-width="1.25" stroke-linejoin="round" d="M182.25,372.5v-4"/>
						</g>
					</g>
				</g>
				<g id="line2d_15">
					<g>
						<g>
							<path id="m01134c304f_3_" stroke="#000000" stroke-width="1.25" stroke-linejoin="round" d="M182.25,17.5v4"/>
						</g>
					</g>
				</g>
				<g id="text_4">
					<g transform="translate(171.945 392.6575)scale(0.16 -0.16)">
						<g>
							<path id="DejaVuSans-2212_3_" d="M10.595,41.75h62.592v-8.295H10.595V41.75z"/>
						</g>
						<g>
							<path id="DejaVuSans-33" d="M124.367,45.564c4.718-1.013,8.401-3.113,11.047-6.311c2.655-3.192,3.983-7.129,3.983-11.816
								c0-7.19-2.472-12.756-7.422-16.699c-4.947-3.943-11.978-5.908-21.094-5.908c-3.052,0-6.195,0.299-9.436,0.903
								s-6.583,1.514-10.031,2.722v9.509c2.728-1.587,5.719-2.795,8.969-3.601c3.259-0.818,6.665-1.221,10.217-1.221
								c6.177,0,10.886,1.221,14.127,3.65c3.238,2.441,4.858,5.988,4.858,10.645c0,4.303-1.505,7.666-4.517,10.083
								c-3.009,2.423-7.196,3.638-12.561,3.638h-8.499v8.105h8.89c4.843,0,8.551,0.97,11.124,2.905
								c2.573,1.941,3.86,4.736,3.86,8.374c0,3.748-1.328,6.616-3.986,8.618c-2.646,2.002-6.442,3.015-11.389,3.015
								c-2.71,0-5.609-0.305-8.704-0.891c-3.098-0.586-6.494-1.489-10.202-2.722v8.777c3.751,1.05,7.26,1.831,10.532,2.344
								c3.268,0.525,6.354,0.781,9.25,0.781c7.489,0,13.409-1.697,17.764-5.103c4.364-3.4,6.546-7.996,6.546-13.782
								c0-4.041-1.16-7.458-3.467-10.236C131.914,48.561,128.627,46.639,124.367,45.564"/>
						</g>
					</g>
				</g>
			</g>
			<g id="xtick_5">
				<g id="line2d_17">
					<g>
						<g>
							<path id="m56cb9a4f4c_4_" stroke="#000000" stroke-width="1.25" stroke-linejoin="round" d="M225.167,372.5v-4"/>
						</g>
					</g>
				</g>
				<g id="line2d_18">
					<g>
						<g>
							<path id="m01134c304f_4_" stroke="#000000" stroke-width="1.25" stroke-linejoin="round" d="M225.167,17.5v4"/>
						</g>
					</g>
				</g>
				<g id="text_5">
					<g transform="translate(215.021666667 392.6575)scale(0.16 -0.16)">
						<g>
							<path id="DejaVuSans-2212_4_" d="M10.595,41.75h62.592v-8.295H10.595V41.75z"/>
						</g>
						<g>
							<path id="DejaVuSans-32" d="M102.977,14.546h34.421V6.246h-46.28v8.301c3.738,3.876,8.838,9.07,15.295,15.594
								c6.47,6.531,10.532,10.748,12.189,12.64c3.156,3.54,5.359,6.543,6.61,8.997c1.26,2.466,1.889,4.883,1.889,7.251
								c0,3.882-1.358,7.031-4.077,9.473c-2.719,2.448-6.262,3.674-10.626,3.674c-3.094,0-6.36-0.537-9.796-1.611
								c-3.427-1.074-7.095-2.704-11.002-4.895v9.973c3.97,1.593,7.678,2.795,11.127,3.607c3.458,0.812,6.619,1.215,9.485,1.215
								c7.55,0,13.571-1.886,18.06-5.664c4.492-3.772,6.735-8.813,6.735-15.125c0-3.003-0.562-5.847-1.688-8.533
								c-1.114-2.679-3.156-5.841-6.125-9.485c-0.812-0.952-3.4-3.68-7.767-8.191C117.077,28.957,110.924,22.652,102.977,14.546"/>
						</g>
					</g>
				</g>
			</g>
			<g id="xtick_6">
				<g id="line2d_19">
					<path fill="none" stroke="#000000" stroke-width="0.5" stroke-linejoin="round" stroke-dasharray="1,3" d="M525.583,372.5v-355
						"/>
					<path fill="none" stroke="#000000" stroke-width="0.5" stroke-linejoin="round" stroke-dasharray="1,3" d="M482.583,373.5v-355
						"/>
					<path fill="none" stroke="#000000" stroke-width="0.5" stroke-linejoin="round" stroke-dasharray="1,3" d="M439.583,374.5v-355
						"/>
					<path fill="none" stroke="#000000" stroke-width="0.5" stroke-linejoin="round" stroke-dasharray="1,3" d="M396.583,374.5v-355
						"/>
					<path fill="none" stroke="#000000" stroke-width="0.5" stroke-linejoin="round" stroke-dasharray="1,3" d="M353.583,373.5v-355
						"/>
					<path fill="none" stroke="#000000" stroke-width="0.75" stroke-linejoin="round" stroke-dasharray="3,1" d="M311,373.5v-355"/>
					<path fill="none" stroke="#000000" stroke-width="0.5" stroke-linejoin="round" stroke-dasharray="1,3" d="M267.583,373.5v-355
						"/>
					<path fill="none" stroke="#000000" stroke-width="0.5" stroke-linejoin="round" stroke-dasharray="1,3" d="M224.583,373.5v-355
						"/>
					<path fill="none" stroke="#000000" stroke-width="0.5" stroke-linejoin="round" stroke-dasharray="1,3" d="M181.583,372.5v-355
						"/>
					<path fill="none" stroke="#000000" stroke-width="0.5" stroke-linejoin="round" stroke-dasharray="1,3" d="M138.583,373.5v-355
						"/>
					<path fill="none" stroke="#000000" stroke-width="0.5" stroke-linejoin="round" stroke-dasharray="1,3" d="M95.583,373.5v-355"
						/>
				</g>
				<g id="line2d_20">
					<g>
						<g>
							<path id="m56cb9a4f4c_5_" stroke="#000000" stroke-width="1.25" stroke-linejoin="round" d="M268.083,372.5v-4"/>
						</g>
					</g>
				</g>
				<g id="line2d_21">
					<g>
						<g>
							<path id="m01134c304f_5_" stroke="#000000" stroke-width="1.25" stroke-linejoin="round" d="M268.083,17.5v4"/>
						</g>
					</g>
				</g>
				<g id="text_6">
					<g transform="translate(257.875833333 392.6575)scale(0.16 -0.16)">
						<g>
							<path id="DejaVuSans-2212_5_" d="M10.594,41.75h62.595v-8.295H10.594V41.75z"/>
						</g>
						<g>
							<path id="DejaVuSans-31" d="M96.195,14.546h16.11v55.627l-17.532-3.516v8.984l17.438,3.516h9.86V14.546h16.107V6.246H96.195
								V14.546z"/>
						</g>
					</g>
				</g>
			</g>
			<g id="xtick_7">
				<g id="line2d_23">
					<g>
						<g>
							<path id="m56cb9a4f4c_6_" stroke="#000000" stroke-width="1.25" stroke-linejoin="round" d="M311,372.5v-4"/>
						</g>
					</g>
				</g>
				<g id="line2d_24">
					<g>
						<g>
							<path id="m01134c304f_6_" stroke="#000000" stroke-width="1.25" stroke-linejoin="round" d="M311,17.5v4"/>
						</g>
					</g>
				</g>
				<g id="text_7">
					<g transform="translate(306.96875 392.6575)scale(0.16 -0.16)">
						<g>
							<path id="DejaVuSans-30" d="M31.781,72.652c-5.072,0-8.893-2.496-11.45-7.495c-2.557-4.993-3.833-12.5-3.833-22.534
								c0-9.985,1.276-17.48,3.833-22.485c2.557-4.993,6.378-7.495,11.45-7.495c5.115,0,8.948,2.502,11.499,7.495
								c2.563,5.005,3.845,12.5,3.845,22.485c0,10.034-1.282,17.542-3.845,22.534C40.729,70.156,36.896,72.652,31.781,72.652
								 M31.781,80.464c8.179,0,14.423-3.229,18.732-9.698c4.315-6.458,6.47-15.839,6.47-28.143c0-12.268-2.155-21.637-6.47-28.107
								C46.204,8.058,39.96,4.83,31.781,4.83c-8.167,0-14.404,3.229-18.719,9.686c-4.309,6.47-6.47,15.839-6.47,28.107
								c0,12.305,2.161,21.686,6.47,28.143C17.377,77.236,23.615,80.464,31.781,80.464"/>
						</g>
					</g>
				</g>
			</g>
			<g id="xtick_8">
				<g id="line2d_26">
					<g>
						<g>
							<path id="m56cb9a4f4c_7_" stroke="#000000" stroke-width="1.25" stroke-linejoin="round" d="M353.917,372.5v-4"/>
						</g>
					</g>
				</g>
				<g id="line2d_27">
					<g>
						<g>
							<path id="m01134c304f_7_" stroke="#000000" stroke-width="1.25" stroke-linejoin="round" d="M353.917,17.5v4"/>
						</g>
					</g>
				</g>
				<g id="text_8">
					<g transform="translate(350.444166667 392.6575)scale(0.16 -0.16)">
						<g>
							<path id="DejaVuSans-31_1_" d="M12.404,14.546h16.113v55.627l-17.535-3.516v8.984l17.438,3.516h9.863V14.546H54.39V6.246
								H12.404V14.546z"/>
						</g>
					</g>
				</g>
			</g>
			<g id="xtick_9">
				<g id="line2d_29">
					<g>
						<g>
							<path id="m56cb9a4f4c_8_" stroke="#000000" stroke-width="1.25" stroke-linejoin="round" d="M396.833,372.5v-4"/>
						</g>
					</g>
				</g>
				<g id="line2d_30">
					<g>
						<g>
							<path id="m01134c304f_8_" stroke="#000000" stroke-width="1.25" stroke-linejoin="round" d="M396.833,17.5v4"/>
						</g>
					</g>
				</g>
				<g id="text_9">
					<g transform="translate(393.130833333 392.6575)scale(0.16 -0.16)">
						<g>
							<path id="DejaVuSans-32_1_" d="M19.19,14.546h34.418V6.246H7.331v8.301c3.735,3.876,8.838,9.07,15.295,15.594
								c6.47,6.531,10.529,10.748,12.189,12.64c3.156,3.54,5.359,6.543,6.61,8.997c1.257,2.466,1.886,4.883,1.886,7.251
								c0,3.882-1.355,7.031-4.077,9.473c-2.716,2.448-6.262,3.674-10.626,3.674c-3.094,0-6.36-0.537-9.796-1.611
								c-3.424-1.074-7.092-2.704-10.999-4.895v9.973c3.967,1.593,7.678,2.795,11.127,3.607c3.455,0.812,6.616,1.215,9.485,1.215
								c7.55,0,13.568-1.886,18.06-5.664c4.492-3.772,6.732-8.813,6.732-15.125c0-3.003-0.562-5.847-1.685-8.533
								c-1.117-2.679-3.156-5.841-6.128-9.485c-0.812-0.952-3.4-3.68-7.764-8.191C33.289,28.957,27.137,22.652,19.19,14.546"/>
						</g>
					</g>
				</g>
			</g>
			<g id="xtick_10">
				<g id="line2d_32">
					<g>
						<g>
							<path id="m56cb9a4f4c_9_" stroke="#000000" stroke-width="1.25" stroke-linejoin="round" d="M439.75,372.5v-4"/>
						</g>
					</g>
				</g>
				<g id="line2d_33">
					<g>
						<g>
							<path id="m01134c304f_9_" stroke="#000000" stroke-width="1.25" stroke-linejoin="round" d="M439.75,17.5v4"/>
						</g>
					</g>
				</g>
				<g id="text_10">
					<g transform="translate(435.91125 392.6575)scale(0.16 -0.16)">
						<g>
							<path id="DejaVuSans-33_1_" d="M40.576,45.564c4.724-1.013,8.405-3.113,11.047-6.311c2.661-3.192,3.986-7.129,3.986-11.816
								c0-7.19-2.472-12.756-7.422-16.699C43.243,6.795,36.212,4.83,27.093,4.83c-3.052,0-6.195,0.299-9.436,0.903
								S11.071,7.247,7.623,8.455v9.509c2.734-1.587,5.719-2.795,8.972-3.601c3.259-0.818,6.665-1.221,10.217-1.221
								c6.177,0,10.889,1.221,14.124,3.65c3.241,2.441,4.858,5.988,4.858,10.645c0,4.303-1.501,7.666-4.51,10.083
								c-3.015,2.423-7.202,3.638-12.567,3.638H20.22v8.105h8.887c4.846,0,8.557,0.97,11.127,2.905
								c2.576,1.941,3.857,4.736,3.857,8.374c0,3.748-1.324,6.616-3.979,8.618c-2.649,2.002-6.445,3.015-11.395,3.015
								c-2.704,0-5.609-0.305-8.704-0.891c-3.088-0.586-6.494-1.489-10.199-2.722v8.777c3.748,1.05,7.257,1.831,10.529,2.344
								c3.271,0.525,6.354,0.781,9.253,0.781c7.489,0,13.409-1.697,17.761-5.103c4.37-3.4,6.549-7.996,6.549-13.782
								c0-4.041-1.154-7.458-3.467-10.236C48.126,48.561,44.836,46.639,40.576,45.564"/>
						</g>
					</g>
				</g>
			</g>
			<g id="xtick_11">
				<g id="line2d_35">
					<g>
						<g>
							<path id="m56cb9a4f4c_10_" stroke="#000000" stroke-width="1.25" stroke-linejoin="round" d="M482.667,372.5v-4"/>
						</g>
					</g>
				</g>
				<g id="line2d_36">
					<g>
						<g>
							<path id="m01134c304f_10_" stroke="#000000" stroke-width="1.25" stroke-linejoin="round" d="M482.667,17.5v4"/>
						</g>
					</g>
				</g>
				<g id="text_11">
					<g transform="translate(478.416666667 392.6575)scale(0.16 -0.16)">
						<g>
							<path id="DejaVuSans-34_1_" d="M37.795,70.564L12.893,31.636h24.902V70.564z M35.201,79.158H47.61V31.636h10.406v-8.203
								H47.61V6.246h-9.814v17.188H4.891v9.521L35.201,79.158z"/>
						</g>
					</g>
				</g>
			</g>
			<g id="xtick_12">
				<g id="line2d_38">
					<g>
						<g>
							<path id="m56cb9a4f4c_11_" stroke="#000000" stroke-width="1.25" stroke-linejoin="round" d="M525.583,372.5v-4"/>
						</g>
					</g>
				</g>
				<g id="line2d_39">
					<g>
						<g>
							<path id="m01134c304f_11_" stroke="#000000" stroke-width="1.25" stroke-linejoin="round" d="M525.583,17.5v4"/>
						</g>
					</g>
				</g>
				<g id="text_12">
					<g transform="translate(521.809583333 392.6575)scale(0.16 -0.16)">
						<g>
							<path id="DejaVuSans-35_1_" d="M10.797,79.158h38.721v-8.313H19.831V52.986c1.422,0.488,2.85,0.854,4.279,1.093
								c1.44,0.238,2.875,0.36,4.315,0.36c8.136,0,14.575-2.234,19.324-6.689c4.761-4.456,7.141-10.498,7.141-18.109
								c0-7.843-2.441-13.947-7.324-18.292C42.676,7.002,35.791,4.83,26.905,4.83c-3.058,0-6.183,0.256-9.357,0.781
								c-3.168,0.519-6.445,1.3-9.827,2.344v9.924c2.924-1.599,5.951-2.783,9.076-3.564s6.427-1.172,9.906-1.172
								c5.634,0,10.095,1.477,13.373,4.431c3.296,2.966,4.938,6.982,4.938,12.067c0,5.072-1.642,9.088-4.938,12.048
								c-3.278,2.966-7.739,4.449-13.373,4.449c-2.637,0-5.267-0.293-7.892-0.873c-2.612-0.58-5.286-1.495-8.014-2.734V79.158z"/>
						</g>
					</g>
				</g>
			</g>
			<g id="xtick_13">
				<g id="line2d_40">
					<g>
						<g>
							<defs>
								<rect id="SVGID_22_" x="53.5" y="17.5" width="515" height="355"/>
							</defs>
							<clipPath id="SVGID_23_">
								<use xlink:href="#SVGID_22_"  overflow="visible"/>
							</clipPath>
							
								<path clip-path="url(#SVGID_23_)" fill="none" stroke="#000000" stroke-width="0.5" stroke-linejoin="round" stroke-dasharray="1,3" d="
								M568.5,372.5v-355"/>
						</g>
					</g>
				</g>
				<g id="line2d_41">
					<g>
						<g>
							<path id="m56cb9a4f4c_12_" stroke="#000000" stroke-width="1.25" stroke-linejoin="round" d="M568.5,372.5v-4"/>
						</g>
					</g>
				</g>
				<g id="line2d_42">
					<g>
						<g>
							<path id="m01134c304f_12_" stroke="#000000" stroke-width="1.25" stroke-linejoin="round" d="M568.5,17.5v4"/>
						</g>
					</g>
				</g>
				<g id="text_13">
					<g transform="translate(564.4725 392.6575)scale(0.16 -0.16)">
						<g>
							<path id="DejaVuSans-36_1_" d="M33.016,46.626c-4.425,0-7.935-1.514-10.529-4.547c-2.588-3.021-3.876-7.172-3.876-12.439
								c0-5.243,1.288-9.381,3.876-12.433c2.594-3.046,6.104-4.565,10.529-4.565s7.935,1.52,10.516,4.565
								c2.582,3.052,3.876,7.19,3.876,12.433c0,5.267-1.294,9.418-3.876,12.439C40.95,45.113,37.441,46.626,33.016,46.626
								 M52.596,77.547v-8.984c-2.478,1.166-4.98,2.057-7.501,2.673c-2.521,0.623-5.023,0.94-7.501,0.94
								c-6.512,0-11.481-2.203-14.923-6.598c-3.424-4.395-5.383-11.035-5.872-19.922c1.917,2.832,4.321,5.005,7.22,6.512
								c2.905,1.514,6.097,2.271,9.576,2.271c7.324,0,13.11-2.222,17.358-6.677c4.248-4.431,6.372-10.474,6.372-18.121
								c0-7.489-2.209-13.501-6.641-18.03C46.26,7.088,40.37,4.83,33.016,4.83c-8.435,0-14.886,3.229-19.342,9.686
								c-4.462,6.47-6.689,15.839-6.689,28.107c0,11.523,2.734,20.709,8.203,27.563s12.805,10.278,22.015,10.278
								c2.478,0,4.98-0.244,7.501-0.732S49.855,78.511,52.596,77.547"/>
						</g>
					</g>
				</g>
			</g>
		</g>
	</g>
</g>
<path fill="none" stroke="#000000" stroke-width="0.5" stroke-linejoin="round" stroke-dasharray="1,3" d="M620.5,251.667h515"/>
<path fill="none" stroke="#000000" stroke-width="0.5" stroke-linejoin="round" stroke-dasharray="3,1" d="M625.5,312h515"/>
</svg>
